<?xml version="1.0" encoding="UTF-8" standalone="no"?>
<!-- Created with Inkscape (http://www.inkscape.org/) -->

<svg
   version="1.1"
   id="svg2"
   width="666.66669"
   height="502.10666"
   viewBox="0 0 666.66669 502.10666"
   sodipodi:docname="7320592.eps"
   xmlns:inkscape="http://www.inkscape.org/namespaces/inkscape"
   xmlns:sodipodi="http://sodipodi.sourceforge.net/DTD/sodipodi-0.dtd"
   xmlns="http://www.w3.org/2000/svg"
   xmlns:svg="http://www.w3.org/2000/svg">
  <defs
     id="defs6" />
  <sodipodi:namedview
     id="namedview4"
     pagecolor="#ffffff"
     bordercolor="#000000"
     borderopacity="0.25"
     inkscape:showpageshadow="2"
     inkscape:pageopacity="0.0"
     inkscape:pagecheckerboard="0"
     inkscape:deskcolor="#d1d1d1" />
  <g
     id="g8"
     inkscape:groupmode="layer"
     inkscape:label="ink_ext_XXXXXX"
     transform="matrix(1.3333333,0,0,-1.3333333,0,502.10667)">
    <g
       id="g10"
       transform="scale(0.1)">
      <path
         d="m 0,488.789 h 5000 v 2.5 H 0 Z"
         style="fill:#e7e8e5;fill-opacity:1;fill-rule:nonzero;stroke:none"
         id="path12" />
      <path
         d="m 4167.79,330.332 h 331.22 v -2.5 h -331.22 v 2.5"
         style="fill:#e7e8e5;fill-opacity:1;fill-rule:nonzero;stroke:none"
         id="path14" />
      <path
         d="m 3225.27,303.199 h 86.93 v -2.5 h -86.93 v 2.5"
         style="fill:#e7e8e5;fill-opacity:1;fill-rule:nonzero;stroke:none"
         id="path16" />
      <path
         d="m 3965.86,423.191 h 191.92 v -2.5 h -191.92 v 2.5"
         style="fill:#e7e8e5;fill-opacity:1;fill-rule:nonzero;stroke:none"
         id="path18" />
      <path
         d="m 524.59,406.391 h 431.933 v -2.5 H 524.59 v 2.5"
         style="fill:#e7e8e5;fill-opacity:1;fill-rule:nonzero;stroke:none"
         id="path20" />
      <path
         d="m 1045.56,406.391 h 63.33 v -2.5 h -63.33 v 2.5"
         style="fill:#e7e8e5;fill-opacity:1;fill-rule:nonzero;stroke:none"
         id="path22" />
      <path
         d="m 1314.71,364.172 h 936.76 v -2.5 h -936.76 v 2.5"
         style="fill:#e7e8e5;fill-opacity:1;fill-rule:nonzero;stroke:none"
         id="path24" />
      <path
         d="m 439.152,3763.25 c -30.097,0 -54.582,-24.48 -54.582,-54.57 V 994.359 c 0,-30.097 24.485,-54.578 54.582,-54.578 H 2370.14 c 30.09,0 54.57,24.481 54.57,54.578 V 3708.68 c 0,30.09 -24.48,54.57 -54.57,54.57 H 439.152 M 2370.14,937.281 H 439.152 c -31.476,0 -57.082,25.598 -57.082,57.078 V 3708.68 c 0,31.46 25.606,57.07 57.082,57.07 H 2370.14 c 31.46,0 57.07,-25.61 57.07,-57.07 V 994.359 c 0,-31.48 -25.61,-57.078 -57.07,-57.078"
         style="fill:#e7e8e5;fill-opacity:1;fill-rule:nonzero;stroke:none"
         id="path26" />
      <path
         d="m 2602.12,3763.25 c -30.09,0 -54.57,-24.48 -54.57,-54.57 V 994.359 c 0,-30.097 24.48,-54.578 54.57,-54.578 H 4533.1 c 30.1,0 54.59,24.481 54.59,54.578 V 3708.68 c 0,30.09 -24.49,54.57 -54.59,54.57 H 2602.12 M 4533.1,937.281 H 2602.12 c -31.47,0 -57.07,25.598 -57.07,57.078 V 3708.68 c 0,31.46 25.6,57.07 57.07,57.07 H 4533.1 c 31.48,0 57.09,-25.61 57.09,-57.07 V 994.359 c 0,-31.48 -25.61,-57.078 -57.09,-57.078"
         style="fill:#e7e8e5;fill-opacity:1;fill-rule:nonzero;stroke:none"
         id="path28" />
      <path
         d="m 3486.77,491.289 h 79.0898 v 2884.44 H 3486.77 Z"
         style="fill:#e7e8e5;fill-opacity:1;fill-rule:nonzero;stroke:none"
         id="path30" />
      <path
         d="m 2972,3017.49 973.13,42.06 -6.96,161.02 -973.13,-42.06 -133.63,-86.44 140.59,-74.58"
         style="fill:#ededeb;fill-opacity:1;fill-rule:nonzero;stroke:none"
         id="path32" />
      <path
         d="m 2900.14,2514.14 964.92,-132.95 22,159.66 -964.92,132.95 -146.95,-61.1 124.95,-98.56"
         style="fill:#ededeb;fill-opacity:1;fill-rule:nonzero;stroke:none"
         id="path34" />
      <path
         d="m 3424.23,2214.04 669.52,45.36 142.37,-71.13 -131.48,-89.68 -665.71,-45.09 -14.7,160.54"
         style="fill:#f3f2f1;fill-opacity:1;fill-rule:nonzero;stroke:none"
         id="path36" />
      <path
         d="m 4283.05,2885.75 -973.94,13.51 -2.24,-161.16 973.95,-13.51 138.34,78.68 -136.11,82.48"
         style="fill:#f3f2f1;fill-opacity:1;fill-rule:nonzero;stroke:none"
         id="path38" />
      <path
         d="m 930.453,491.289 h 70.5664 v 695.902 H 930.453 Z"
         style="fill:#e2e2e0;fill-opacity:1;fill-rule:nonzero;stroke:none"
         id="path40" />
      <path
         d="m 1689.56,491.289 h 70.5625 v 695.902 H 1689.56 Z"
         style="fill:#e2e2e0;fill-opacity:1;fill-rule:nonzero;stroke:none"
         id="path42" />
      <path
         d="M 1895.35,1088.03 H 795.23 c -21.406,0 -38.757,17.35 -38.757,38.76 v 904.43 c 0,21.4 17.351,38.76 38.757,38.76 h 1100.12 c 21.4,0 38.76,-17.36 38.76,-38.76 v -904.43 c 0,-21.41 -17.36,-38.76 -38.76,-38.76"
         style="fill:#ededeb;fill-opacity:1;fill-rule:nonzero;stroke:none"
         id="path44" />
      <path
         d="m 817.324,2023.1 c -7.711,0 -13.98,-6.27 -13.98,-13.97 v -860.25 c 0,-7.71 6.269,-13.97 13.98,-13.97 H 1873.26 c 7.7,0 13.97,6.26 13.97,13.97 v 860.25 c 0,7.7 -6.27,13.97 -13.97,13.97 H 817.324 M 1873.26,1124.5 H 817.324 c -13.453,0 -24.398,10.93 -24.398,24.38 v 860.25 c 0,13.45 10.945,24.39 24.398,24.39 H 1873.26 c 13.45,0 24.39,-10.94 24.39,-24.39 v -860.25 c 0,-13.45 -10.94,-24.38 -24.39,-24.38"
         style="fill:#fafaf9;fill-opacity:1;fill-rule:nonzero;stroke:none"
         id="path46" />
      <path
         d="m 1012.06,1934.08 -48.294,61.47 -48.297,-61.47 h 23.308 v -123.07 h 49.977 v 123.07 h 23.306"
         style="fill:#fafaf9;fill-opacity:1;fill-rule:nonzero;stroke:none"
         id="path48" />
      <path
         d="m 994.559,1645.2 61.481,48.3 -61.481,48.29 v -23.31 H 871.488 v -49.97 h 123.071 v -23.31"
         style="fill:#fafaf9;fill-opacity:1;fill-rule:nonzero;stroke:none"
         id="path50" />
      <path
         d="m 932.969,1532.01 -61.481,-48.3 61.481,-48.3 v 23.31 h 123.071 v 49.98 H 932.969 v 23.31"
         style="fill:#fafaf9;fill-opacity:1;fill-rule:nonzero;stroke:none"
         id="path52" />
      <path
         d="m 915.469,1243.13 48.293,-61.48 48.298,61.48 h -23.31 v 123.07 h -49.977 v -123.07 h -23.304"
         style="fill:#fafaf9;fill-opacity:1;fill-rule:nonzero;stroke:none"
         id="path54" />
      <path
         d="m 1126.32,1917.72 h 692.77 v 23.832 h -692.77 z"
         style="fill:#fafaf9;fill-opacity:1;fill-rule:nonzero;stroke:none"
         id="path56" />
      <path
         d="m 1126.32,1865.01 h 549.789 v 23.8281 H 1126.32 Z"
         style="fill:#fafaf9;fill-opacity:1;fill-rule:nonzero;stroke:none"
         id="path58" />
      <path
         d="m 1126.32,1707.94 h 692.77 v 23.8281 h -692.77 z"
         style="fill:#fafaf9;fill-opacity:1;fill-rule:nonzero;stroke:none"
         id="path60" />
      <path
         d="m 1126.32,1655.22 h 549.789 v 23.832 H 1126.32 Z"
         style="fill:#fafaf9;fill-opacity:1;fill-rule:nonzero;stroke:none"
         id="path62" />
      <path
         d="m 1126.32,1498.15 h 692.77 v 23.832 h -692.77 z"
         style="fill:#fafaf9;fill-opacity:1;fill-rule:nonzero;stroke:none"
         id="path64" />
      <path
         d="m 1126.32,1445.44 h 549.789 v 23.8281 H 1126.32 Z"
         style="fill:#fafaf9;fill-opacity:1;fill-rule:nonzero;stroke:none"
         id="path66" />
      <path
         d="m 1126.32,1288.37 h 692.77 v 23.8281 h -692.77 z"
         style="fill:#fafaf9;fill-opacity:1;fill-rule:nonzero;stroke:none"
         id="path68" />
      <path
         d="m 1126.32,1235.65 h 549.789 v 23.832 H 1126.32 Z"
         style="fill:#fafaf9;fill-opacity:1;fill-rule:nonzero;stroke:none"
         id="path70" />
      <path
         d="m 1447.75,3055.59 c 0,81.03 -46.47,107.9 -82.27,112.76 -58.66,7.95 -100.56,-36.69 -100.56,-36.69 0,0 -31.88,107.49 -147.1,107.49 -115.23,0 -150.691,-117.41 -150.691,-117.41 0,0 -44.816,35.58 -109.344,24.8 -45.238,-7.56 -72.172,-40.91 -101.312,-90.95 h 691.277"
         style="fill:#ededeb;fill-opacity:1;fill-rule:nonzero;stroke:none"
         id="path72" />
      <path
         d="m 2763.4,3330.5 c 0,104.64 -60.01,139.34 -106.24,145.6 -75.74,10.27 -129.84,-47.37 -129.84,-47.37 0,0 -41.17,138.8 -189.96,138.8 -148.78,0 -194.57,-151.61 -194.57,-151.61 0,0 -57.87,45.95 -141.19,32.03 -58.42,-9.76 -93.2,-52.83 -130.83,-117.45 h 892.63"
         style="fill:#ededeb;fill-opacity:1;fill-rule:nonzero;stroke:none"
         id="path74" />
      <path
         d="m 1524.41,2634.35 c 0,0 25.67,63.52 89.24,70.46 63.57,6.95 94.14,-35.23 94.14,-35.23 0,0 49.77,88.58 146.7,75.92 106.36,-13.89 100.25,-111.15 100.25,-111.15 h -430.33"
         style="fill:#ededeb;fill-opacity:1;fill-rule:nonzero;stroke:none"
         id="path76" />
      <path
         d="M 4014.23,113.23 C 4014.23,50.6992 3336.29,0 2500,0 1663.71,0 985.77,50.6992 985.77,113.23 c 0,62.54 677.94,113.239 1514.23,113.239 836.29,0 1514.23,-50.699 1514.23,-113.239"
         style="fill:#f3f2f1;fill-opacity:1;fill-rule:nonzero;stroke:none"
         id="path78" />
      <path
         d="m 2278.98,2900.29 c -114.78,104.8 -361.08,275.74 -720.67,242.98 -408.43,-37.2 -733.361,-338.13 -827.814,-766.68 -87.008,-394.8 30.668,-937.23 606.284,-1309.23 l -46.87,-76.29 229.45,5.231 -99.03,207.039 -41.66,-67.8 c -539.932,350.02 -651.092,856.12 -570.049,1223.83 86.805,393.84 383.919,670.26 756.949,704.23 329.02,29.98 554.43,-126.47 659.47,-222.39 127.77,-116.66 210.33,-266.19 210.33,-380.95 h 80 c 0,138.29 -90.58,306.9 -236.39,440.03"
         style="fill:#406fbf;fill-opacity:1;fill-rule:nonzero;stroke:none"
         id="path80" />
      <path
         d="m 1289.91,991.07 46.87,76.29 v 0 c -174.22,112.59 -306.47,240.77 -403.811,375.77 -13.821,19.16 -26.965,38.51 -39.399,57.93 -35.492,55.43 -65.414,111.79 -90.226,168.45 -3.578,8.18 -7.051,16.36 -10.418,24.55 -61.664,149.88 -88.156,301.38 -88.117,443.77 0.019,83.46 9.164,163.77 25.687,238.76 59.774,271.19 211.813,491.26 418.924,625.75 16.87,-23.6 30.16,-47.76 40.39,-69.48 -188.2,-123.63 -326.47,-325.23 -381.189,-573.49 -15.312,-69.48 -23.766,-143.91 -23.758,-221.29 0.035,-332.12 155.903,-718.66 593.807,-1002.54 l 41.66,67.8 99.03,-207.039 -229.45,-5.231 m 1102.43,1631.56 c -36.55,75.2 -94.6,152.21 -167.3,218.58 -96.09,87.75 -292.89,226.14 -577.62,226.14 -26.52,0 -53.82,-1.2 -81.85,-3.75 -109.9,-10.01 -213.22,-41.07 -306.51,-89.97 -12.12,25.1 -25.54,48.28 -40.17,69.5 103.1,54.45 217.55,89.04 339.42,100.14 30.66,2.79 60.47,4.1 89.48,4.1 311.13,0 526.2,-151.21 631.19,-247.08 87.64,-80.02 155.33,-172.87 195.39,-264.24 -2.32,-0.05 -4.68,-0.15 -7.09,-0.3 -27.06,-1.62 -52.52,-6.12 -74.94,-13.12"
         style="fill:#b8d2ef;fill-opacity:1;fill-rule:nonzero;stroke:none"
         id="path82" />
      <path
         d="m 4139.32,1717.1 c -43.1,-316.9 -240.9,-608.3 -533.4,-742.702 C 3466.12,910.199 3309.52,877 3152.02,877 c -58.7,0 -117.5,4.602 -175.5,13.898 -227.9,36.602 -424.6,145.102 -553.9,305.602 -290.1,360.3 -181.7,847.3 16.5,1183 l 68.9,-40.7 c -184.6,-312.6 -287.6,-763.6 -23.1,-1092.1 267,-331.501 759.7,-350.2 1087.6,-199.6 261,120 439.5,376.8 484.7,658.7 9.1,56.9 12.8,114.8 10.6,172.9 -2.3,65.3 -12.2,130.8 -30,195.1 -39.6,142.9 -168,269.9 -314.6,235.1 -109.4,-26.1 -182.9,-134.4 -167.4,-246.7 13.5,-97.6 96.6,-169.6 169.8,-204.5 l -34.4,-72.3 c -119.2,56.9 -199.5,156.2 -214.6,265.9 -21.1,152.6 79.1,299.9 228.1,335.4 193.5,46.1 360.5,-112.1 410.2,-291.5 16.2,-58.3 26.3,-117.6 30.7,-176.9 5.1,-67.4 2.8,-134.9 -6.3,-201.2"
         style="fill:#17282f;fill-opacity:1;fill-rule:nonzero;stroke:none"
         id="path84" />
      <path
         d="m 3196.13,877.859 c -26.14,23.422 -50.11,49.633 -71.6,78.973 7.01,-0.141 14.01,-0.211 21.01,-0.211 151.89,0 301.48,32.828 426.98,90.479 134.95,62.04 247.85,160.67 331.66,280.41 -2.43,-51.77 -10.36,-103.61 -23.46,-154.63 -77.65,-82.24 -170.16,-150.4 -274.8,-198.482 -13.21,-6.066 -26.57,-11.859 -40.06,-17.367 -25.9,-10.57 -52.29,-20.121 -79.09,-28.633 -93.27,-29.597 -191.48,-46.628 -290.64,-50.539 m -112.65,1.231 c -35.81,2.199 -71.54,6.129 -106.96,11.808 -42.23,6.782 -83.37,16.024 -123.23,27.622 31.39,17.91 61.24,37.449 89.3,58.492 27.13,-5.621 54.51,-10.043 82.01,-13.301 17.74,-30.711 37.44,-58.852 58.88,-84.621 m -334.15,76.191 c -5.6,2.348 -11.14,4.75 -16.67,7.199 -2.44,9.77 -5.09,19.329 -7.97,28.7 2.8,19.72 5.38,38.96 7.73,57.7 34.95,-17.41 71.1,-32.2 108.04,-44.5 -29.45,-18.31 -60.02,-34.669 -91.13,-49.099 M 2532.37,1085.6 c -24.1,19.94 -46.89,41.14 -68.25,63.57 10.62,30.48 20.29,59.62 29.09,87.43 6.55,-7.84 13.24,-15.52 20.04,-23 6.6,-45.09 13.06,-88.43 19.12,-128 m 1450.39,215.97 c 2.59,34.75 2.97,69.56 1.06,104.18 -0.94,16.87 -2.47,33.73 -4.56,50.51 37.59,78.65 64.07,162.9 77.96,249.54 3.49,21.82 6.19,43.8 8.06,65.88 v 0 c -1.87,-22.08 -4.57,-44.06 -8.06,-65.88 24.6,1.5 52.5,4.9 82.1,11.3 -20.21,-148.65 -74.46,-291.68 -156.56,-415.53 m -1697.46,149.5 c -8.57,26.76 -15.68,53.82 -21.43,81.08 8.76,-1.28 17.52,-2.88 26.26,-4.79 2.95,-0.65 5.89,-1.33 8.82,-2.05 -4.43,-23.75 -9.02,-48.63 -13.65,-74.24 m 28.59,152.92 c -2.21,0.52 -4.43,1.02 -6.66,1.51 -18.94,4.15 -37.83,7.09 -56.56,8.84 -3.95,35.09 -5.83,70.42 -5.83,105.75 0,43.75 2.89,87.58 8.31,131.12 12.96,2.66 25.8,5.79 38.49,9.42 10.95,3.13 21.73,6.6 32.38,10.36 4.05,1.44 8.08,2.91 12.1,4.42 0.08,-1.84 0.17,-3.71 0.25,-5.58 -2.08,-13.75 -3.9,-27.57 -5.44,-41.37 -4.43,-20.18 -8.95,-44.39 -10.89,-66.29 -2.01,-22.36 -1.34,-42.32 4.87,-53.06 0.17,-13.71 0.66,-27.43 1.48,-41.11 -3.7,-18.68 -7.91,-40.24 -12.5,-64.01 m 1377.33,181.41 c -28.94,13.81 -55.58,30.12 -79.56,48.48 23.98,-18.35 50.63,-34.64 79.58,-48.43 v 0 l -0.02,-0.05 m 7.42,86.62 c -39.81,23.39 -79.66,56.99 -107.43,99.03 l 0.01,-0.01 c 27.77,-42.02 67.6,-75.59 107.38,-98.97 0.02,-0.03 0.01,-0.02 0.04,-0.05 m 369.18,6.68 v 0 c -2.3,65.3 -12.2,130.8 -30,195.1 -1.84,6.65 -3.88,13.28 -6.1,19.85 -20.02,59.18 -55.06,114.34 -99.94,154.77 -45.03,40.56 -99.96,66.29 -159.52,66.29 -16.04,0 -32.42,-1.87 -49.04,-5.81 -99.33,-23.7 -169.07,-115.19 -169.46,-215.89 -24.31,14.51 -49.38,27.84 -75.1,39.88 -0.63,0.29 -1.27,0.59 -1.9,0.88 17.01,120.22 106.19,223.91 227.96,252.93 23.06,5.49 45.76,8.08 67.91,8.08 163.75,0 298.51,-141.56 342.29,-299.58 16.2,-58.3 26.3,-117.6 30.7,-176.9 0.76,-9.99 1.35,-19.98 1.78,-29.97 v 0 c -0.43,9.99 -1.02,19.98 -1.78,29.97 -22,-13.2 -47.9,-26.9 -77.8,-39.6 m -1800.78,58.11 c 14.23,71.29 34.75,141.26 59.97,208.49 l 8.33,0.38 c -2.25,-25.01 -5.02,-52.91 -3.56,-114.05 0.04,-8.01 0.1,-16.01 0.2,-24.07 0.09,-6.66 0.19,-13.37 0.32,-20.17 0.17,-8.82 0.38,-17.8 0.63,-27.02 -10.38,-4.48 -20.85,-8.65 -31.44,-12.49 -10.49,-3.79 -21.11,-7.25 -31.87,-10.33 v -0.01 c -0.86,-0.24 -1.73,-0.49 -2.58,-0.73 m 123.14,352.91 c 1.01,2.02 2.04,4.04 3.06,6.05 6.89,-1.3 14.95,-1.95 24.36,-1.95 5.88,0 12.28,0.25 19.25,0.75 0.98,-0.31 1.96,-0.6 2.95,-0.89 -12.83,-0.49 -30.06,-1.93 -49.62,-3.96"
         style="fill:#ccd1cf;fill-opacity:1;fill-rule:nonzero;stroke:none"
         id="path86" />
      <path
         d="m 4057.22,1705.8 c 3.49,21.82 6.19,43.8 8.06,65.88 29.13,8.7 56.61,18.78 81.85,29.27 -1.38,-28.1 -4,-56.08 -7.81,-83.85 v 0 c -29.6,-6.4 -57.5,-9.8 -82.1,-11.3"
         style="fill:#9da2a2;fill-opacity:1;fill-rule:nonzero;stroke:none"
         id="path88" />
      <path
         d="m 4068.38,1856.45 c -0.09,7.41 -0.28,14.83 -0.56,22.25 29.9,12.7 55.8,26.4 77.8,39.6 0.76,-9.99 1.35,-19.98 1.78,-29.97 -23.73,-11.02 -50.37,-22.09 -79.02,-31.88"
         style="fill:#9da2a2;fill-opacity:1;fill-rule:nonzero;stroke:none"
         id="path90" />
      <path
         d="m 4383.69,1977.91 -229.39,7.75 43.2,-72.08 c -99.47,-54.16 -299.45,-138.06 -471.85,-55.91 -73.26,34.89 -156.34,106.95 -169.81,204.53 l -79.25,-10.95 c 15.13,-109.62 95.38,-208.99 214.65,-265.8 63.55,-30.28 129.34,-42.04 193.22,-42.04 143.63,0 277.39,59.42 354.18,101.53 l 43.75,-72.98 101.3,205.95"
         style="fill:#17282f;fill-opacity:1;fill-rule:nonzero;stroke:none"
         id="path92" />
      <path
         d="m 3886.38,1743.42 c -10.17,18.98 -21.02,37.59 -32.58,55.87 -5.71,9.04 -11.59,17.99 -17.63,26.84 16.36,-1.95 32.7,-2.85 48.98,-2.85 124.05,0.01 242.79,52.43 312.35,90.3 v 0 0 l -43.2,72.08 229.39,-7.75 -101.3,-205.95 -43.75,72.98 c -25,-13.71 -56.05,-29.26 -91.51,-43.99 -25.24,-10.49 -52.72,-20.57 -81.85,-29.27 -55.05,-16.46 -116.02,-28.03 -178.9,-28.26 m -97.48,9.41 c -32.77,6.72 -65.5,17.29 -97.66,32.62 v 0 c -28.95,13.79 -55.6,30.08 -79.58,48.43 -16.59,12.69 -31.9,26.35 -45.8,40.85 -37.16,38.73 -64.31,83.35 -79.09,130.95 -3.91,12.6 -6.96,25.4 -9.09,38.36 39.94,-21.07 77.9,-45.58 113.53,-72.99 27.77,-42.04 67.62,-75.64 107.43,-99.03 33.71,-37.06 63.97,-77.04 90.26,-119.19"
         style="fill:#ccd1cf;fill-opacity:1;fill-rule:nonzero;stroke:none"
         id="path94" />
      <path
         d="m 4199.39,3088.9 -134.71,185.82 -114.07,-199.15 84.82,4.54 c 6.65,-149.62 -190.17,-198.74 -231.08,-207.29 -67.81,-14.18 -138.12,-20.73 -212.54,-27.68 -165.22,-15.41 -336.05,-31.35 -478.25,-136.14 -110.12,-81.16 -185.41,-214.85 -196.46,-348.9 -11.08,-134.39 47.9,-264.2 150.27,-330.72 46.97,-30.52 99.54,-46.03 151.54,-46.03 37.99,0 75.67,8.27 110.66,25.01 81.91,39.16 136.61,118.97 146.34,213.49 11,106.95 -41.16,226.6 -132.88,304.82 l -51.91,-60.87 c 71.19,-60.71 113.47,-155.46 105.21,-235.76 -6.96,-67.57 -43.86,-122.06 -101.26,-149.51 -58.43,-27.95 -125.54,-22.12 -184.11,15.93 -76.83,49.92 -122.7,153.23 -114.14,257.07 9.22,111.69 72.13,223.22 164.2,291.07 124.3,91.6 276.79,105.83 438.22,120.88 73.37,6.85 149.23,13.93 221.48,29.03 144.25,30.15 302.92,123.78 294.6,289.88 l 84.07,4.51"
         style="fill:#406fbf;fill-opacity:1;fill-rule:nonzero;stroke:none"
         id="path96" />
      <path
         d="m 3327.79,2007.51 c 0.59,0.28 1.19,0.56 1.78,0.85 1.67,0.79 3.32,1.61 4.97,2.44 -1.64,-0.83 -3.29,-1.64 -4.95,-2.44 -0.6,-0.28 -1.2,-0.57 -1.8,-0.85 m -251.31,16.18 c -3.05,1.83 -6.08,3.72 -9.09,5.67 -40.52,26.32 -74.26,62.57 -99.53,105.09 h 0.01 c 25.27,-42.51 58.99,-78.74 99.5,-105.07 3.01,-1.96 6.05,-3.85 9.11,-5.69 m 170.39,41.67 c 16.47,2.69 32.65,7.75 48.22,15.2 8.61,4.11 16.76,8.83 24.42,14.12 -7.67,-5.3 -15.82,-10.03 -24.44,-14.15 -15.56,-7.44 -31.74,-12.49 -48.2,-15.17 m -123.44,23.56 c -4.19,2.35 -8.35,4.87 -12.47,7.54 -9.07,5.9 -17.72,12.55 -25.9,19.85 8.19,-7.31 16.84,-13.95 25.93,-19.85 4.1,-2.67 8.26,-5.19 12.44,-7.54"
         style="fill:#ffffff;fill-opacity:1;fill-rule:nonzero;stroke:none"
         id="path98" />
      <path
         d="m 3218.89,1983.36 c -48.67,0 -97.78,13.58 -142.41,40.33 -3.06,1.84 -6.1,3.73 -9.11,5.69 -40.51,26.33 -74.23,62.56 -99.5,105.07 31.33,3.44 62.75,5.35 94.06,5.71 7.2,-8.55 14.94,-16.54 23.13,-23.85 8.18,-7.3 16.83,-13.95 25.9,-19.85 4.12,-2.67 8.28,-5.19 12.47,-7.54 30.51,-17.18 62.96,-25.86 95.03,-25.86 9.53,0 19.02,0.76 28.41,2.3 16.46,2.68 32.64,7.73 48.2,15.17 8.62,4.12 16.77,8.85 24.44,14.15 4.02,2.78 7.91,5.71 11.66,8.79 28.29,-8.41 56.02,-18.25 83.08,-29.55 -21.86,-25.96 -48.76,-47.48 -79.71,-63.12 -1.65,-0.83 -3.3,-1.65 -4.97,-2.44 -0.59,-0.29 -1.19,-0.57 -1.78,-0.85 -34.49,-16.13 -71.55,-24.15 -108.9,-24.15"
         style="fill:#90b4e3;fill-opacity:1;fill-rule:nonzero;stroke:none"
         id="path100" />
      <path
         d="m 3381.54,2171.46 v 0 c 7.6,18 12.61,37.67 14.75,58.6 6.2,60.4 -16.1,128.8 -57.9,184.9 0.03,0.02 0.06,0.03 0.1,0.04 37.04,-49.82 58.81,-109.45 58.86,-164.45 0.01,-6.92 -0.33,-13.77 -1.02,-20.51 v 0 c -2.16,-20.92 -7.18,-40.59 -14.79,-58.58"
         style="fill:#ffffff;fill-opacity:1;fill-rule:nonzero;stroke:none"
         id="path102" />
      <path
         d="m 3456.14,2143.03 c -24.38,10.57 -49.27,20.04 -74.6,28.43 7.61,17.99 12.63,37.66 14.79,58.58 v 0 0 0 l 79.56,-8.19 c -2.85,-27.76 -9.59,-54.25 -19.75,-78.82"
         style="fill:#90b4e3;fill-opacity:1;fill-rule:nonzero;stroke:none"
         id="path104" />
      <path
         d="m 2933.77,2210.73 c -14.88,46.9 -20.94,97.8 -16.68,149.33 4.06,49.34 16.78,98.6 36.81,145.2 -19.98,-46.61 -32.74,-95.86 -36.8,-145.16 -4.25,-51.57 1.81,-102.47 16.69,-149.37 h -0.02"
         style="fill:#ffffff;fill-opacity:1;fill-rule:nonzero;stroke:none"
         id="path106" />
      <path
         d="m 2933.79,2210.73 c -14.88,46.9 -20.94,97.8 -16.69,149.37 4.06,49.3 16.82,98.55 36.8,145.16 3.15,7.34 6.48,14.61 9.99,21.8 3.37,6.97 6.91,13.87 10.61,20.68 v 0 c -3.7,-6.81 -7.24,-13.71 -10.61,-20.68 29.7,-3.3 56.7,-9.2 81.1,-16.7 -26.8,-48.9 -43.8,-102.8 -48.2,-156.8 -3.83,-46.75 3.34,-93.37 19.39,-135.07 -27.49,-1.5 -54.98,-4.09 -82.39,-7.76"
         style="fill:#90b4e3;fill-opacity:1;fill-rule:nonzero;stroke:none"
         id="path108" />
      <path
         d="m 3475.09,2287.34 c -4.63,37.98 -16.25,76.19 -33.87,112.37 17.63,-36.19 29.25,-74.4 33.87,-112.37 m -33.97,112.57 c -0.01,0.02 -0.01,0.02 -0.02,0.04 0.01,-0.01 0.01,-0.03 0.02,-0.04 m -243.34,269.12 c 56.7,33.87 118.43,54.36 183.6,68.04 h 0.06 c -65.18,-13.68 -126.95,-34.18 -183.66,-68.04 m 828.45,220.28 v 0 c 1.25,1.07 2.48,2.14 3.71,3.22 -1.23,-1.08 -2.46,-2.15 -3.71,-3.22 m -156.98,2.18 h -0.01 c 1.37,0.5 2.76,1.01 4.14,1.53 -1.39,-0.52 -2.76,-1.03 -4.13,-1.53 m 110.24,62.6 c 33.97,30.69 58.31,71.74 55.9,126.02 h 0.04 c 2.41,-54.28 -21.95,-95.33 -55.94,-126.02 m -28.9,121.47 114.1,199.2 78.59,-108.46 -78.6,108.42 -114.07,-199.15 4.3,0.23 -4.32,-0.24 m 164.73,8.8 c 0,0.02 0,0.03 0,0.03 l 84.04,4.51 0.03,-0.04 -84.07,-4.5"
         style="fill:#ffffff;fill-opacity:1;fill-rule:nonzero;stroke:none"
         id="path110" />
      <path
         d="m 3381.44,2737.07 h -0.06 c 69.38,14.56 142.65,21.4 217.86,28.41 73.37,6.85 149.23,13.93 221.48,29.03 72.54,15.16 148.74,46.38 205.51,94.8 v 0 c -56.76,-48.43 -132.96,-79.66 -205.54,-94.85 -72.2,-15.1 -148.1,-22.1 -221.5,-29 -75.18,-7.01 -148.4,-13.84 -217.75,-28.39 m -37.95,73.38 c 81.3,19.12 165.51,27 248.3,34.71 74.4,6.9 144.7,13.5 212.6,27.7 11.69,2.43 36.1,8.18 64.85,18.63 h 0.01 c -28.78,-10.47 -53.21,-16.23 -64.9,-18.67 -67.81,-14.18 -138.12,-20.73 -212.54,-27.68 -82.8,-7.73 -167.01,-15.58 -248.32,-34.69"
         style="fill:#fafaf9;fill-opacity:1;fill-rule:nonzero;stroke:none"
         id="path112" />
      <path
         d="m 3162.19,2645.46 c -33.1,12.3 -64.1,21.2 -91.6,27.5 -8.5,-7.99 -16.71,-16.31 -24.62,-24.93 v 0 c 7.91,8.62 16.12,16.94 24.62,24.93 13.6,12.9 28,25 43,36 70.93,52.28 148.98,82.46 229.9,101.49 81.31,19.11 165.52,26.96 248.32,34.69 74.42,6.95 144.73,13.5 212.54,27.68 11.69,2.44 36.12,8.2 64.9,18.67 1.37,0.5 2.74,1.01 4.13,1.53 34.48,12.9 74.47,32.49 106.11,61.07 33.99,30.69 58.35,71.74 55.94,126.02 h -0.04 c 0,0.02 0,0.03 0,0.05 l -80.48,-4.36 -4.3,-0.23 114.07,199.15 78.6,-108.42 56.08,-77.4 -84.04,-4.51 c 0,0 0,-0.01 0,-0.03 h -0.03 c 4.03,-80.72 -31.35,-144.31 -85.35,-191.83 -1.23,-1.08 -2.46,-2.15 -3.71,-3.22 -56.77,-48.42 -132.97,-79.64 -205.51,-94.8 -72.25,-15.1 -148.11,-22.18 -221.48,-29.03 -75.21,-7.01 -148.48,-13.85 -217.86,-28.41 -65.17,-13.68 -126.9,-34.17 -183.6,-68.04 -12.1,-7.23 -23.96,-15.06 -35.59,-23.57 v 0"
         style="fill:#90b4e3;fill-opacity:1;fill-rule:nonzero;stroke:none"
         id="path114" />
      <path
         d="m 2974.5,2547.74 c 4.32,7.97 8.87,15.83 13.62,23.57 h 0.02 c -4.76,-7.74 -9.31,-15.6 -13.64,-23.57"
         style="fill:#bcbebc;fill-opacity:1;fill-rule:nonzero;stroke:none"
         id="path116" />
      <path
         d="m 3044.99,2510.36 c -24.4,7.5 -51.4,13.4 -81.1,16.7 3.37,6.97 6.91,13.87 10.61,20.68 4.33,7.97 8.88,15.83 13.64,23.57 30.52,-0.92 60.69,-3.95 90.1,-9.27 -12.31,-16.4 -23.44,-33.7 -33.25,-51.68 v 0"
         style="fill:#7192d2;fill-opacity:1;fill-rule:nonzero;stroke:none"
         id="path118" />
      <path
         d="m 3156.84,2641.46 v 0 c 1.39,1.06 2.78,2.1 4.18,3.14 0.17,0.12 0.35,0.25 0.51,0.37 l -0.54,-0.41 c -1.39,-1.02 -2.77,-2.05 -4.15,-3.1"
         style="fill:#c3c5c2;fill-opacity:1;fill-rule:nonzero;stroke:none"
         id="path120" />
      <path
         d="m 3142.46,2629.99 h -0.01 c 4.71,3.94 9.5,7.77 14.39,11.47 v 0 c -4.88,-3.7 -9.68,-7.53 -14.38,-11.47"
         style="fill:#bcbebc;fill-opacity:1;fill-rule:nonzero;stroke:none"
         id="path122" />
      <path
         d="m 3142.45,2629.99 c -31.39,8.47 -63.67,14.43 -96.48,18.04 7.91,8.62 16.12,16.94 24.62,24.93 27.5,-6.3 58.5,-15.2 91.6,-27.5 l -0.66,-0.49 c -0.16,-0.12 -0.34,-0.25 -0.51,-0.37 -1.4,-1.04 -2.79,-2.08 -4.18,-3.14 -4.89,-3.7 -9.68,-7.53 -14.39,-11.47"
         style="fill:#7192d2;fill-opacity:1;fill-rule:nonzero;stroke:none"
         id="path124" />
      <path
         d="m 3475.91,2221.85 -79.58,8.19 c 8.25,80.3 -34.02,175.05 -105.21,235.76 -199.77,170.39 -558.18,117.81 -754.9,-35.97 l -49.26,63.02 c 225.71,176.45 623.56,232.13 856.07,33.82 91.72,-78.22 143.88,-197.87 132.88,-304.82"
         style="fill:#406fbf;fill-opacity:1;fill-rule:nonzero;stroke:none"
         id="path126" />
      <path
         d="m 3475.91,2221.85 h -0.02 l -79.56,8.19 c 0.69,6.74 1.03,13.59 1.02,20.51 -0.07,75.47 -41.02,159.64 -106.23,215.25 -59.65,50.88 -133.47,81.88 -212.88,96.24 -29.41,5.32 -59.58,8.35 -90.1,9.27 h -0.02 c -6.67,0.2 -13.34,0.3 -20.04,0.3 -42.06,0 -84.57,-3.92 -126.43,-11.34 -73.11,-12.95 -144.2,-36.58 -207.29,-68.59 -8.76,10.29 -18.76,20.04 -28.44,32.93 -6.53,8.7 -11.79,20.61 -17.76,33.41 112.41,59.49 247.31,94.25 379.26,94.25 138.07,0 272.95,-38.04 375.61,-125.6 83.57,-71.27 134.29,-176.93 134.33,-276.04 0,-9.67 -0.48,-19.27 -1.45,-28.78"
         style="fill:#90b4e3;fill-opacity:1;fill-rule:nonzero;stroke:none"
         id="path128" />
      <path
         d="m 2867.36,389.852 c -373.86,0 -747.2,160.777 -989.4,440.949 -193.18,223.459 -302.87,527.409 -300.94,833.939 0.72,113.4 16.47,224.6 46.82,330.49 34.1,118.93 89.11,193.62 161.22,269.17 159.8,167.45 392.49,249.5 622.44,219.49 l -10.35,-79.33 c -204.76,26.71 -411.95,-46.32 -554.22,-195.39 -77.65,-81.37 -116.19,-145.33 -142.18,-235.99 -28.35,-98.88 -43.06,-202.83 -43.73,-308.95 -1.81,-287.42 100.78,-572.11 281.45,-781.109 287.07,-332.07 770.87,-485.23 1203.89,-381.121 218.16,52.441 412.83,165.07 548.16,317.129 146.99,165.16 224.76,377.331 213.37,582.141 -15.17,272.88 -199.68,537.77 -459.13,659.15 -248.56,116.29 -562.59,104.81 -819.58,-29.95 -33.23,-17.42 -66.66,-37.34 -98.98,-56.59 -73.26,-43.65 -149.02,-88.78 -234.56,-113.25 l -22,76.92 c 75.53,21.6 143.58,62.14 215.62,105.06 33.24,19.8 67.61,40.28 102.77,58.71 278.66,146.12 619.93,158.21 890.63,31.57 285.36,-133.51 488.35,-425.74 505.11,-727.19 12.55,-225.74 -72.56,-458.919 -233.49,-639.751 -146.08,-164.148 -355.34,-285.508 -589.22,-341.738 -96.33,-23.16 -195.04,-34.359 -293.7,-34.359"
         style="fill:#17282f;fill-opacity:1;fill-rule:nonzero;stroke:none"
         id="path130" />
      <path
         d="m 2867.32,389.852 c -47.57,0 -95.11,2.597 -142.4,7.718 v 0.012 c 47.29,-5.121 94.86,-7.73 142.44,-7.73 37.38,0 74.77,1.609 112.04,4.867 -37.28,-3.258 -74.68,-4.867 -112.08,-4.867 m -429.16,70.828 c -25.59,8.621 -50.92,17.992 -75.93,28.109 h 0.01 c 25,-10.117 50.33,-19.488 75.92,-28.109 v 0 m -82.06,30.609 v 0 c -16.33,6.699 -32.55,13.731 -48.58,21.063 16.05,-7.34 32.23,-14.352 48.58,-21.063"
         style="fill:#ffffff;fill-opacity:1;fill-rule:nonzero;stroke:none"
         id="path132" />
      <path
         d="m 2362.24,488.789 h -0.01 c -2.04,0.832 -4.09,1.672 -6.13,2.5 v 0 c 2.04,-0.828 4.09,-1.668 6.14,-2.5"
         style="fill:#f3f2f1;fill-opacity:1;fill-rule:nonzero;stroke:none"
         id="path134" />
      <path
         d="m 2866.48,469.719 c -21.95,0 -43.91,0.59 -65.82,1.761 21.86,-1.16 43.78,-1.75 65.67,-1.75 71.4,0 142.78,6.239 213.19,19.059 h 0.24 c -70.44,-12.82 -141.85,-19.07 -213.28,-19.07 m 226.57,21.57 h -0.24 c 16.57,3.223 33.07,6.801 49.51,10.762 110.85,26.621 215.65,68.789 309.67,123.769 -94.01,-54.988 -198.79,-97.179 -309.63,-123.82 -16.36,-3.93 -32.82,-7.5 -49.31,-10.711"
         style="fill:#ffffff;fill-opacity:1;fill-rule:nonzero;stroke:none"
         id="path136" />
      <path
         d="m 3079.76,488.789 h -0.24 c 4.43,0.813 8.87,1.641 13.29,2.5 h 0.24 c -4.45,-0.859 -8.83,-1.687 -13.29,-2.5"
         style="fill:#f3f2f1;fill-opacity:1;fill-rule:nonzero;stroke:none"
         id="path138" />
      <path
         d="m 2307.36,512.422 c -0.16,0.078 -0.35,0.16 -0.52,0.238 0.17,-0.078 0.36,-0.16 0.52,-0.238 m -1,0.457 c -0.06,0.031 -0.12,0.062 -0.19,0.082 0.07,-0.02 0.13,-0.051 0.19,-0.082 m 1152.07,24.82 c 0.01,0.012 0,0.012 0.01,0.012 l -0.01,-0.012 m 0.02,0.02 c 9.53,5.152 18.97,10.441 28.32,15.832 v 0 c -9.35,-5.403 -18.79,-10.68 -28.32,-15.832 m 107.41,65.89 v 0.032 c 12.41,8.597 24.61,17.429 36.58,26.468 0.02,0 0.02,0 0.04,-0.007 -11.99,-9.051 -24.2,-17.883 -36.62,-26.493"
         style="fill:#ffffff;fill-opacity:1;fill-rule:nonzero;stroke:none"
         id="path140" />
      <path
         d="m 3486.77,553.551 v 0 c 27.21,15.719 53.6,32.429 79.09,50.09 v -0.032 c -25.49,-17.648 -51.88,-34.347 -79.09,-50.058"
         style="fill:#f3f2f1;fill-opacity:1;fill-rule:nonzero;stroke:none"
         id="path142" />
      <path
         d="m 2141.15,699.672 c -74.58,52.918 -142.91,114.316 -202.68,183.449 -15.15,17.527 -29.77,35.609 -43.8,54.16 h 0.05 c 14.04,-18.551 28.64,-36.601 43.8,-54.133 59.75,-69.136 128.06,-130.546 202.64,-183.468 l -0.01,-0.008 m -248.31,240.109 h -0.06 c -35.05,46.59 -66.53,96.209 -94.24,148.249 h 0.04 c 27.71,-52.04 59.2,-101.659 94.26,-148.249"
         style="fill:#ffffff;fill-opacity:1;fill-rule:nonzero;stroke:none"
         id="path144" />
      <path
         d="m 1894.72,937.281 h -0.05 c -0.64,0.828 -1.26,1.66 -1.89,2.5 h 0.06 c 0.62,-0.832 1.26,-1.679 1.88,-2.5"
         style="fill:#f3f2f1;fill-opacity:1;fill-rule:nonzero;stroke:none"
         id="path146" />
      <path
         d="m 1798.58,1088.03 h -0.04 c -6.4,12.03 -12.61,24.19 -18.61,36.47 h 0.04 c 6,-12.28 12.2,-24.44 18.61,-36.47 m -23.63,46.88 h -0.04 c -23.56,49.46 -43.8,100.79 -60.54,153.46 h 0.02 c 16.74,-52.67 36.99,-104 60.56,-153.46 m -67.86,177.29 h -0.02 c -12.9,43.66 -23.4,88.18 -31.39,133.24 h 0.01 c 7.99,-45.06 18.5,-89.58 31.4,-133.24 m -35.39,157.07 v 0 c -1.51,9.6 -2.9,19.24 -4.18,28.88 v 0 c 1.28,-9.64 2.68,-19.28 4.18,-28.88"
         style="fill:#f7f7f6;fill-opacity:1;fill-rule:nonzero;stroke:none"
         id="path148" />
      <path
         d="m 1779.97,1124.5 h -0.04 c -1.68,3.45 -3.36,6.93 -5.02,10.41 h 0.04 c 1.65,-3.48 3.33,-6.96 5.02,-10.41"
         style="fill:#fefefe;fill-opacity:1;fill-rule:nonzero;stroke:none"
         id="path150" />
      <path
         d="m 1667.52,1498.15 v 0 c -0.33,2.45 -0.64,4.88 -0.95,7.32 v 0 c 0.31,-2.44 0.62,-4.87 0.95,-7.32"
         style="fill:#fefefe;fill-opacity:1;fill-rule:nonzero;stroke:none"
         id="path152" />
      <path
         d="m 1675.69,1445.44 h -0.01 c -1.4,7.93 -2.73,15.86 -3.98,23.83 v 0 c 1.25,-7.97 2.58,-15.9 3.99,-23.83"
         style="fill:#fefefe;fill-opacity:1;fill-rule:nonzero;stroke:none"
         id="path154" />
      <path
         d="m 1714.39,1288.37 h -0.02 c -2.51,7.91 -4.95,15.86 -7.3,23.83 h 0.02 c 2.35,-7.99 4.78,-15.91 7.3,-23.83"
         style="fill:#fefefe;fill-opacity:1;fill-rule:nonzero;stroke:none"
         id="path156" />
      <path
         d="m 2034.72,679.961 c -0.02,0.019 -0.03,0.019 -0.05,0.039 0.02,-0.02 0.03,-0.02 0.05,-0.039 m -0.85,0.68 c -0.03,0.031 -0.06,0.05 -0.1,0.078 0.04,-0.028 0.07,-0.047 0.1,-0.078 m -0.83,0.668 c -0.09,0.07 -0.17,0.14 -0.26,0.211 0.09,-0.071 0.17,-0.141 0.26,-0.211 m -0.85,0.679 c -0.09,0.082 -0.19,0.16 -0.28,0.231 0.09,-0.071 0.19,-0.149 0.28,-0.231 m -0.84,0.684 c -0.14,0.109 -0.32,0.258 -0.46,0.367 0.16,-0.117 0.3,-0.238 0.46,-0.367 m -0.83,0.68 c -0.2,0.148 -0.4,0.32 -0.59,0.468 0.19,-0.148 0.39,-0.32 0.59,-0.468 m -0.84,0.679 c -0.25,0.199 -0.48,0.379 -0.72,0.578 0.24,-0.199 0.47,-0.379 0.72,-0.578 m -0.84,0.68 c -0.26,0.211 -0.53,0.43 -0.79,0.641 0.26,-0.211 0.53,-0.43 0.79,-0.641 m -0.84,0.68 c -54.11,44.058 -104.42,92.629 -150.09,145.461 -1.08,1.25 -2.15,2.5 -3.23,3.75 1.09,-1.27 2.18,-2.532 3.28,-3.801 C 1923.61,778 1973.91,729.43 2028,685.391 m 1659.6,16.289 h -0.04 c 22,20.601 42.94,42.039 62.72,64.269 47.25,53.102 87.97,110.711 121.6,171.332 h 0.03 c -33.63,-60.609 -74.35,-118.242 -121.59,-171.332 -19.78,-22.23 -40.72,-43.668 -62.72,-64.269 m 185.69,238.101 h -0.03 c 62.51,113.469 100.19,237.339 109.47,361.739 0.01,0.02 0.02,0.03 0.03,0.05 -9.29,-124.43 -46.98,-248.32 -109.47,-361.789 m 105.93,516.399 c -12.36,99.49 -44.59,197.08 -92.85,287.24 h 0.01 c 48.27,-90.15 80.5,-187.69 92.88,-287.16 -0.01,-0.03 -0.02,-0.04 -0.04,-0.08"
         style="fill:#ffffff;fill-opacity:1;fill-rule:nonzero;stroke:none"
         id="path158" />
      <path
         d="m 3871.91,937.281 h -0.03 c 0.46,0.828 0.93,1.668 1.38,2.5 h 0.03 c -0.47,-0.851 -0.92,-1.66 -1.38,-2.5"
         style="fill:#f3f2f1;fill-opacity:1;fill-rule:nonzero;stroke:none"
         id="path160" />
      <path
         d="m 3982.73,1301.52 c 2.59,34.76 2.96,69.56 1.04,104.18 -0.94,16.87 -2.46,33.7 -4.55,50.48 0.02,0.04 0.03,0.05 0.04,0.08 2.09,-16.78 3.62,-33.64 4.56,-50.51 1.91,-34.62 1.53,-69.43 -1.06,-104.18 -0.01,-0.02 -0.02,-0.03 -0.03,-0.05"
         style="fill:#e5e8e5;fill-opacity:1;fill-rule:nonzero;stroke:none"
         id="path162" />
      <path
         d="m 3886.37,1743.42 c -10.17,18.98 -21.02,37.59 -32.57,55.87 11.56,-18.28 22.41,-36.89 32.58,-55.87 h -0.01"
         style="fill:#e5e8e5;fill-opacity:1;fill-rule:nonzero;stroke:none"
         id="path164" />
      <path
         d="m 3636.6,763.57 c 0.01,0 0.01,0.008 0.02,0.008 -0.01,0 -0.01,-0.008 -0.02,-0.008 m 0.04,0.032 c 18.85,17.859 36.84,36.398 53.88,55.546 14.92,16.774 29.13,34.012 42.61,51.692 -13.48,-17.68 -27.69,-34.942 -42.61,-51.711 -17.04,-19.149 -35.03,-37.668 -53.88,-55.527 M 1874.56,834.75 c -0.09,0.102 -0.17,0.199 -0.26,0.301 0.1,-0.11 0.16,-0.192 0.26,-0.301 m -0.59,0.691 c -0.01,0.008 -0.03,0.028 -0.04,0.039 0.01,-0.011 0.03,-0.031 0.04,-0.039"
         style="fill:#ffffff;fill-opacity:1;fill-rule:nonzero;stroke:none"
         id="path166" />
      <path
         d="m 1579.36,1579.33 c -1.54,25.24 -2.34,50.57 -2.37,75.89 h 0.01 c 0.03,-25.32 0.82,-50.65 2.36,-75.89 m -2.17,99.72 v 0 c 0.12,6.97 0.3,13.94 0.54,20.88 -0.24,-6.95 -0.41,-13.91 -0.54,-20.88"
         style="fill:#f7f7f6;fill-opacity:1;fill-rule:nonzero;stroke:none"
         id="path168" />
      <path
         d="m 1577,1655.22 h -0.01 c 0,3.18 0,6.35 0.02,9.53 0.04,4.77 0.09,9.54 0.18,14.3 v 0 c -0.08,-4.77 -0.14,-9.54 -0.17,-14.31 -0.02,-3.19 -0.02,-6.34 -0.02,-9.52"
         style="fill:#fefefe;fill-opacity:1;fill-rule:nonzero;stroke:none"
         id="path170" />
      <path
         d="m 1671.37,1840.51 c 1.3,8.19 2.69,16.36 4.17,24.5 v 0 c -1.47,-8.14 -2.87,-16.31 -4.17,-24.5 m 4.74,27.58 v 0.06 c 2.35,12.74 4.91,25.41 7.68,38.02 0.01,-0.01 0.02,-0.01 0.03,-0.02 -2.79,-12.62 -5.36,-25.3 -7.71,-38.06"
         style="fill:#f7f7f6;fill-opacity:1;fill-rule:nonzero;stroke:none"
         id="path172" />
      <path
         d="m 1675.54,1865.01 v 0 c 0.19,1.05 0.38,2.09 0.57,3.14 v -0.06 c -0.19,-1.02 -0.38,-2.06 -0.57,-3.08"
         style="fill:#fefefe;fill-opacity:1;fill-rule:nonzero;stroke:none"
         id="path174" />
      <path
         d="m 2324.02,1870.99 c 4.05,1.44 8.09,2.91 12.1,4.43 0,-0.01 0,0 0,-0.01 -4.02,-1.51 -8.05,-2.98 -12.1,-4.42 m -54.4,66.55 v 0.01 c 10.76,3.08 21.38,6.54 31.87,10.33 -10.49,-3.79 -21.09,-7.26 -31.85,-10.33 v 0 0 c -0.01,0 -0.01,-0.01 -0.02,-0.01"
         style="fill:#e5e8e5;fill-opacity:1;fill-rule:nonzero;stroke:none"
         id="path176" />
      <path
         d="m 1613.81,1957.92 c 1.39,5.55 2.83,11.1 4.3,16.63 1.8,6.9 3.7,13.8 5.71,20.7 2.73,9.56 5.61,18.84 8.62,27.85 v 0 c -3.01,-9.01 -5.89,-18.29 -8.62,-27.85 -2.01,-6.9 -3.91,-13.8 -5.71,-20.7 0.01,0 0.01,0 0.01,-0.01 -1.48,-5.52 -2.92,-11.07 -4.31,-16.62"
         style="fill:#f7f7f6;fill-opacity:1;fill-rule:nonzero;stroke:none"
         id="path178" />
      <path
         d="m 2708.54,2069.08 c 0,0.01 0.01,0.02 0.01,0.03 13.28,5.39 26.64,10.46 40.13,15.24 0,0 0.01,0 0.02,-0.01 -13.49,-4.78 -26.88,-9.86 -40.16,-15.26 m -949.52,36.07 c -0.01,0.01 -0.02,0.01 -0.03,0.02 9.12,14.28 19.22,28.47 30.51,42.87 0,-0.02 0,-0.03 0.01,-0.04 -11.28,-14.4 -21.38,-28.58 -30.49,-42.85 v 0 m -74.96,31.05 v 0 c 5.2,8.67 10.59,17.1 16.15,25.35 20.3,30.04 42.95,57.6 67.89,84.82 0,-0.03 0,-0.06 0,-0.09 -24.92,-27.2 -47.6,-54.76 -67.85,-84.77 -0.01,0.01 -0.02,0.03 -0.04,0.04 -5.56,-8.25 -10.95,-16.68 -16.15,-25.35 m 1213.68,69.06 -0.01,0.01 c 12,2.03 24,3.85 36.04,5.46 0,-0.01 0,0 0,-0.01 -12.03,-1.61 -24.03,-3.43 -36.03,-5.46 m 232.54,13.21 c -18.96,1.05 -37.98,1.58 -57.04,1.58 -18.99,0 -38.01,-0.52 -57.04,-1.56 -0.01,0 0,0 -0.01,0 19.01,1.04 38.02,1.56 56.99,1.56 19.08,0 38.12,-0.52 57.1,-1.58"
         style="fill:#ffffff;fill-opacity:1;fill-rule:nonzero;stroke:none"
         id="path180" />
      <path
         d="m 3016.18,2218.49 v 0 h 0.01 c 0.01,0 0,0 0.01,0 h -0.02"
         style="fill:#90b4e3;fill-opacity:1;fill-rule:nonzero;stroke:none"
         id="path182" />
      <path
         d="m 1853.08,2219.56 c 0,0 0,0 0,0.01 72.46,72.55 160.69,126.06 256.3,157.57 -0.01,-0.01 -0.01,-0.01 -0.02,-0.02 -95.61,-31.5 -183.8,-84.99 -256.28,-157.56 m -5.45,103.06 c 0,0.03 0,0.05 0,0.08 111.4,91.95 248.08,148.66 391.04,163.42 l -0.01,-0.01 c -142.95,-14.77 -279.63,-71.51 -391.03,-163.49 m 397.59,83.74 c 0.01,0.01 0.01,0.01 0.02,0.02 22.62,2.39 45.44,3.6 68.34,3.6 3.96,0 7.93,-0.03 11.9,-0.11 v -0.01 c -3.97,0.07 -7.95,0.11 -11.91,0.11 -22.9,0 -45.71,-1.22 -68.35,-3.61"
         style="fill:#ffffff;fill-opacity:1;fill-rule:nonzero;stroke:none"
         id="path184" />
      <path
         d="m 2933.77,2210.72 h 0.019 v 0.012 h -0.019 z"
         style="fill:#ffffff;fill-opacity:1;fill-rule:nonzero;stroke:none"
         id="path186" />
      <path
         d="m 2933.79,2210.72 c 0,0.01 0,0 0,0.01 27.41,3.67 54.9,6.26 82.39,7.76 v 0 c -27.49,-1.51 -54.98,-4.1 -82.39,-7.77"
         style="fill:#c4d9f2;fill-opacity:1;fill-rule:nonzero;stroke:none"
         id="path188" />
      <path
         d="m 2867.36,389.852 c -47.58,0 -95.15,2.609 -142.44,7.73 4.19,25.078 8.25,51.527 11.99,78.949 21.21,-2.23 42.46,-3.91 63.75,-5.051 21.91,-1.171 43.87,-1.761 65.82,-1.761 71.43,0 142.84,6.25 213.28,19.07 4.46,0.813 8.84,1.641 13.29,2.5 16.49,3.211 32.95,6.781 49.31,10.711 110.84,26.641 215.62,68.832 309.63,123.82 13.18,7.711 26.15,15.668 38.9,23.879 36.49,-8.187 73.77,-14.629 111.55,-19.59 -11.97,-9.039 -24.17,-17.871 -36.58,-26.468 -25.49,-17.661 -51.88,-34.371 -79.09,-50.09 -9.35,-5.391 -18.79,-10.68 -28.32,-15.832 l -0.01,-0.008 c -0.01,0 0,0 -0.01,-0.012 -91.81,-49.66 -192.12,-88.148 -297.42,-113.449 -59.8,-14.41 -120.53,-24.191 -181.61,-29.531 -37.27,-3.258 -74.66,-4.867 -112.04,-4.867 m -429.2,70.828 c -25.59,8.621 -50.92,17.992 -75.92,28.109 -2.05,0.832 -4.1,1.672 -6.14,2.5 -16.35,6.711 -32.53,13.723 -48.58,21.063 -0.07,0.027 -0.1,0.039 -0.16,0.07 -0.16,0.078 -0.35,0.16 -0.52,0.238 -0.16,0.07 -0.32,0.141 -0.48,0.219 -0.06,0.031 -0.12,0.062 -0.19,0.082 -60.4,27.687 -118.66,59.828 -173.98,96.16 12.08,4.949 24.17,10.02 36.23,15.199 16.61,7.129 34.18,14.918 52.41,23.442 55.24,-32.981 113.23,-61.684 173.14,-85.832 15.43,-34.551 30.24,-68.52 44.19,-101.25 m 144.76,5.058 c -2.6,12.563 -5.36,25.453 -8.28,38.582 2.5,-0.601 5.06,-1.199 7.56,-1.781 0.28,-12.391 0.52,-24.687 0.72,-36.801 m -528.41,198.66 c -6.64,5.114 -13.26,10.313 -19.79,15.563 -0.02,0.019 -0.03,0.019 -0.05,0.039 -0.27,0.211 -0.53,0.43 -0.8,0.641 -0.03,0.031 -0.06,0.05 -0.1,0.078 -0.25,0.203 -0.49,0.39 -0.73,0.59 -0.09,0.07 -0.17,0.14 -0.26,0.211 -0.19,0.152 -0.4,0.32 -0.59,0.468 -0.09,0.082 -0.19,0.16 -0.28,0.231 -0.19,0.152 -0.36,0.293 -0.56,0.453 -0.16,0.129 -0.3,0.25 -0.46,0.367 -0.14,0.121 -0.23,0.191 -0.37,0.313 -0.2,0.148 -0.4,0.32 -0.59,0.468 -0.07,0.059 -0.18,0.149 -0.25,0.211 -0.25,0.199 -0.48,0.379 -0.72,0.578 -0.04,0.032 -0.08,0.071 -0.12,0.102 -0.26,0.211 -0.53,0.43 -0.79,0.641 -0.02,0.007 -0.03,0.019 -0.05,0.039 -54.09,44.039 -104.39,92.609 -150.04,145.41 -1.1,1.269 -2.19,2.531 -3.28,3.801 -0.03,0.046 -0.09,0.109 -0.12,0.148 -0.1,0.109 -0.16,0.191 -0.26,0.301 -0.11,0.129 -0.21,0.25 -0.33,0.39 -0.01,0.008 -0.03,0.028 -0.04,0.039 -155.88,182.33 -256.64,417.49 -287.15,663.6 25.62,0.01 52.55,2.03 79.79,6.39 0.31,-2.44 0.62,-4.87 0.95,-7.32 1.28,-9.64 2.67,-19.28 4.18,-28.88 1.25,-7.97 2.58,-15.9 3.98,-23.83 7.99,-45.06 18.49,-89.58 31.39,-133.24 2.35,-7.97 4.79,-15.92 7.3,-23.83 16.74,-52.67 36.98,-104 60.54,-153.46 1.66,-3.48 3.34,-6.96 5.02,-10.41 6,-12.28 12.21,-24.44 18.61,-36.47 27.71,-52.04 59.19,-101.659 94.24,-148.249 0.63,-0.84 1.25,-1.672 1.89,-2.5 14.03,-18.551 28.65,-36.633 43.8,-54.16 59.77,-69.133 128.1,-130.531 202.68,-183.449 -1.44,-0.621 -2.88,-1.242 -4.31,-1.852 -27.39,-11.769 -54.87,-22.922 -82.33,-33.422 m 1633.05,37.282 c -36.17,2.922 -72.02,7.05 -107.22,12.64 19.51,15.782 38.28,32.211 56.26,49.25 0.01,0 0.01,0.008 0.02,0.008 0.01,0.012 0.01,0.012 0.02,0.024 18.85,17.859 36.84,36.378 53.88,55.527 14.92,16.769 29.13,34.031 42.61,51.711 119.26,156.42 181.03,346.41 170.79,530.41 -15.2,272.9 -199.7,537.8 -459.21,659.2 -113.98,53.34 -241.77,79.8 -371.49,79.8 -37.06,0 -74.3,-2.16 -111.4,-6.46 -19.9,23.99 -41.25,47.97 -64.08,71.47 12,2.03 24,3.85 36.03,5.46 h 0.02 c 27.41,3.67 54.9,6.26 82.39,7.77 h 0.02 c 19.03,1.04 38.05,1.56 57.04,1.56 19.06,0 38.08,-0.53 57.04,-1.58 121.69,-6.75 240.59,-35.19 348.34,-85.62 154.84,-72.43 285.43,-191.58 375.18,-333.56 11.55,-18.28 22.4,-36.89 32.57,-55.87 v 0 c 48.26,-90.16 80.49,-187.75 92.85,-287.24 v 0 c 2.09,-16.78 3.61,-33.61 4.55,-50.48 1.92,-34.62 1.55,-69.42 -1.04,-104.18 v 0 c -9.28,-124.4 -46.96,-248.27 -109.47,-361.739 -0.45,-0.832 -0.92,-1.672 -1.38,-2.5 -33.63,-60.621 -74.35,-118.23 -121.6,-171.332 -19.78,-22.23 -40.72,-43.668 -62.72,-64.269 m -2100.39,877.33 c -2.61,0 -5.22,0.02 -7.8,0.07 0,0.1 -0.01,0.16 -0.01,0.25 -1.54,25.24 -2.33,50.57 -2.36,75.89 0,3.18 0,6.33 0.02,9.52 0.03,4.77 0.09,9.54 0.17,14.31 0.13,6.97 0.3,13.93 0.54,20.88 3,87.99 15.09,174.47 36.08,257.99 1.39,5.55 2.83,11.1 4.31,16.62 21.29,-24.98 43.68,-47.88 65.67,-68.37 -2.77,-12.61 -5.33,-25.28 -7.68,-38.02 -0.19,-1.05 -0.38,-2.09 -0.57,-3.14 -1.48,-8.14 -2.87,-16.31 -4.17,-24.5 -9.18,-57.72 -13.99,-116.65 -14.36,-176.26 -0.16,-26.42 0.56,-52.83 2.13,-79.15 -24.48,-4.19 -48.84,-6.09 -71.97,-6.09 m 1121.38,490.1 c 0.03,0.1 0.06,0.21 0.08,0.31 v 0 c 2.49,9.06 5.12,18.41 7.85,28.06 0.17,0.6 0.34,1.19 0.51,1.79 11,-4.85 21.65,-9.91 31.69,-14.92 -13.49,-4.78 -26.85,-9.85 -40.13,-15.24 m -949.56,36.06 c -21.78,18.78 -41.55,38.16 -58.74,56.34 20.25,30.01 42.93,57.57 67.85,84.77 0.34,-3.26 0.69,-6.57 1.1,-9.8 3.71,-30.09 11.01,-59.53 20.3,-88.44 -11.29,-14.4 -21.39,-28.59 -30.51,-42.87 m 94.09,114.4 c -1.85,8.93 -3.35,17.85 -4.48,26.81 -1.78,14.25 -2.66,28.44 -2.66,42.49 0,11.35 0.57,22.62 1.69,33.75 111.4,91.98 248.08,148.72 391.03,163.49 -39.44,-27.82 -76.58,-57.85 -112.11,-92.06 -5.53,-5.17 -11.31,-10.84 -17.17,-16.91 -95.61,-31.51 -183.84,-85.02 -256.3,-157.57 m 392.16,186.81 c 15.89,17.66 32.15,35.13 48.4,52.29 8.17,8.11 10.37,20.71 5.23,31.15 4.86,0.1 9.72,0.15 14.59,0.15 1.36,0 2.73,0 4.09,-0.01 0.28,-0.53 0.56,-1.06 0.84,-1.59 -1.39,-27.08 1.49,-54.48 7.09,-78.5 -3.97,0.08 -7.94,0.11 -11.9,0.11 -22.9,0 -45.72,-1.21 -68.34,-3.6"
         style="fill:#849193;fill-opacity:1;fill-rule:nonzero;stroke:none"
         id="path190" />
      <path
         d="m 1683.82,1906.15 c -0.01,0.01 -0.02,0.01 -0.03,0.02 0.85,3.83 1.71,7.65 2.59,11.46 -0.88,-3.82 -1.73,-7.64 -2.56,-11.48 v 0 m -65.7,68.39 c 0,0.01 0,0.01 -0.01,0.01 1.8,6.9 3.7,13.8 5.71,20.7 2.73,9.56 5.61,18.84 8.62,27.85 h 0.04 c -3.01,-9.02 -5.89,-18.3 -8.64,-27.87 -1.97,-6.87 -3.87,-13.76 -5.72,-20.69 m 17.94,58.98 h -0.05 c 3.28,9.28 6.7,18.27 10.26,27.01 0.02,-0.01 0.03,-0.02 0.04,-0.04 -3.56,-8.72 -6.98,-17.71 -10.25,-26.97"
         style="fill:#bcbebc;fill-opacity:1;fill-rule:nonzero;stroke:none"
         id="path192" />
      <path
         d="m 1632.48,2023.1 h -0.04 c 1.17,3.51 2.36,6.99 3.57,10.42 h 0.05 c -1.22,-3.44 -2.41,-6.9 -3.58,-10.42"
         style="fill:#c1c2c0;fill-opacity:1;fill-rule:nonzero;stroke:none"
         id="path194" />
      <path
         d="m 1683.79,1906.17 c -21.99,20.49 -44.38,43.39 -65.67,68.37 1.85,6.93 3.75,13.82 5.72,20.69 2.75,9.57 5.63,18.85 8.64,27.87 1.17,3.52 2.36,6.98 3.58,10.42 3.27,9.26 6.69,18.25 10.25,26.97 20.71,-20.43 41.98,-39.5 63.84,-57.25 -3.34,-9.72 -6.47,-19.73 -9.43,-30.09 -5.24,-18.35 -10.05,-36.84 -14.34,-55.52 -0.88,-3.81 -1.74,-7.63 -2.59,-11.46"
         style="fill:#656f74;fill-opacity:1;fill-rule:nonzero;stroke:none"
         id="path196" />
      <path
         d="m 1743.7,2079.45 c 0,0.01 0,0 0,0.01 4.77,8.65 9.85,17.2 15.29,25.71 0.01,-0.01 0.02,-0.01 0.03,-0.02 -5.45,-8.51 -10.54,-17.05 -15.32,-25.7 m -59.6,56.71 c -0.01,0.02 -0.02,0.03 -0.04,0.04 5.2,8.67 10.59,17.1 16.15,25.35 0.02,-0.01 0.03,-0.03 0.04,-0.04 -5.57,-8.25 -10.95,-16.69 -16.15,-25.35"
         style="fill:#c3c5c2;fill-opacity:1;fill-rule:nonzero;stroke:none"
         id="path198" />
      <path
         d="m 1743.7,2079.46 c -20.39,17.53 -40.25,36.42 -59.6,56.7 5.2,8.66 10.58,17.1 16.15,25.35 17.19,-18.18 36.96,-37.56 58.74,-56.34 -5.44,-8.51 -10.52,-17.06 -15.29,-25.71"
         style="fill:#656f74;fill-opacity:1;fill-rule:nonzero;stroke:none"
         id="path200" />
      <path
         d="m 2588.03,2101.32 c -35.16,-18.43 -69.53,-38.91 -102.77,-58.71 -72.04,-42.92 -140.09,-83.46 -215.62,-105.06 -155.38,-44.45 -345.42,0.55 -495.96,117.4 -123.98,96.23 -228.66,239.33 -320.02,437.48 -42.08,91.26 -78.75,187.3 -114.21,280.18 -20.85,54.6 -42.42,111.07 -64.96,166.3 -50.78,124.41 -130.84,208.64 -229.75,244.12 l 37.17,76.09 -227.879,-27.32 118.52,-196.54 36.819,75.37 c 107.33,-34.3 164.91,-137.9 191.05,-201.96 22.2,-54.38 43.6,-110.41 64.29,-164.6 35.93,-94.11 73.09,-191.43 116.3,-285.14 96.86,-210.08 209.26,-362.9 343.62,-467.18 127.4,-98.9 276.03,-151.53 418.31,-151.53 50.79,0 100.78,6.71 148.7,20.41 85.54,24.47 161.3,69.6 234.56,113.25 32.32,19.25 65.75,39.17 98.98,56.59 l -37.15,70.85"
         style="fill:#17282f;fill-opacity:1;fill-rule:nonzero;stroke:none"
         id="path202" />
      <path
         d="m 2142.94,1840.22 c -56.79,0 -114.61,8.39 -171.67,24.76 -3.86,31.31 -11.64,61.99 -21.42,91.91 64.7,-23.79 131.24,-36.19 195.48,-36.19 42.87,0.01 84.72,5.52 124.31,16.85 21.62,6.18 42.63,13.92 63.29,22.82 0.7,-25.64 1.74,-53.24 3.19,-84.95 -4.01,-1.52 -8.05,-2.99 -12.1,-4.43 -10.65,-3.76 -21.43,-7.23 -32.38,-10.36 -12.69,-3.63 -25.53,-6.76 -38.49,-9.42 -35.97,-7.36 -72.87,-10.99 -110.21,-10.99 m -258.31,56.04 c -22.14,9.68 -44.02,20.58 -65.54,32.68 -7.25,4.07 -14.43,8.27 -21.59,12.61 -24.9,15.12 -49.26,31.87 -72.87,50.2 -4.86,3.77 -9.68,7.6 -14.48,11.49 -21.86,17.75 -43.13,36.82 -63.84,57.25 -100.54,99.21 -187.88,230.53 -265.3,398.44 -43.21,93.71 -80.37,191.03 -116.3,285.14 -20.69,54.19 -42.09,110.22 -64.29,164.6 -3.09,7.57 -6.62,15.69 -10.61,24.19 -10.23,21.72 -23.52,45.88 -40.39,69.48 -13.29,18.59 -28.81,36.84 -46.78,53.25 -25.78,23.54 -56.63,43.32 -93.27,55.04 l -26.89,-55.04 -9.929,-20.33 -118.52,196.54 227.879,27.32 -37.17,-76.09 v 0 c 98.91,-35.48 178.97,-119.71 229.75,-244.12 22.54,-55.23 44.11,-111.7 64.96,-166.3 35.46,-92.88 72.13,-188.92 114.21,-280.18 91.36,-198.15 196.04,-341.25 320.02,-437.48 23.12,-17.94 47.18,-34.2 71.89,-48.69 15.9,-37.99 30.13,-74.36 39.06,-110"
         style="fill:#849193;fill-opacity:1;fill-rule:nonzero;stroke:none"
         id="path204" />
      <path
         d="m 2626.85,2433.99 c 0,-80.7 -65.42,-146.12 -146.12,-146.12 -80.7,0 -146.12,65.42 -146.12,146.12 0,80.7 65.42,146.12 146.12,146.12 80.7,0 146.12,-65.42 146.12,-146.12"
         style="fill:#406fbf;fill-opacity:1;fill-rule:nonzero;stroke:none"
         id="path206" />
      <path
         d="m 2439.8,2293.68 c -0.99,0.29 -1.97,0.58 -2.95,0.89 4.69,0.34 9.64,0.79 14.86,1.34 -1.24,-0.63 -2.45,-1.28 -3.64,-1.95 -0.36,-0.03 -0.72,-0.07 -1.08,-0.11 -2.21,-0.01 -4.6,-0.07 -7.19,-0.17 m 122.34,18.95 c -3.26,0.35 -6.71,0.6 -10.31,0.76 -0.09,0.12 -0.17,0.25 -0.25,0.37 7.14,1.89 13.85,3.86 20.18,5.92 -3.11,-2.48 -6.32,-4.83 -9.62,-7.05"
         style="fill:#90b4e3;fill-opacity:1;fill-rule:nonzero;stroke:none"
         id="path208" />
      <path
         d="m 4068.1,624.879 c -73.6,-5.199 -150.4,-9 -227.5,-9 -327.7,0 -665.2,66.902 -825.4,364.703 -59.3,110.298 -93.4,238.298 -100.1,367.798 -3.2,60.4 -0.4,121.1 8.5,180.5 3.8,25.2 8.7,50.1 14.7,74.7 20.2,82.7 58.3,151.4 110.2,198.7 53.3,48.7 124.8,72.1 201.1,65.9 81.7,-6.6 159.9,-47.7 209,-109.8 l -62.7,-49.7 c -35.7,45.1 -92.8,74.9 -152.7,79.8 -54.1,4.3 -104,-11.7 -140.8,-45.3 -40.1,-36.5 -70,-91.4 -86.4,-158.7 -7.1,-29 -12.5,-58.5 -16.1,-88.4 -7.4,-59.3 -8.1,-119.8 -2.4,-179.5 10,-105.3 39.8,-208.2 88.2,-298.1 176.2,-327.5 614.5,-339.8 976.7,-313.8 l 5.7,-79.801"
         style="fill:#406fbf;fill-opacity:1;fill-rule:nonzero;stroke:none"
         id="path210" />
      <path
         d="m 2426.6,2526.18 -76.3,-23.9 c -13.9,44.3 -43.8,75.7 -88.9,93 -83.7,32.3 -195,9.4 -261.8,-29.9 -70.2,-41.2 -119.7,-108.6 -141.4,-186.5 -11.7,-41.9 -15.3,-86.9 -9.6,-132.5 1.8,-14.2 4.5,-28.3 8.1,-42.5 11.3,-45.4 30.6,-91.1 50.9,-138.8 48.4,-114.2 103.3,-243.6 32.5,-380.1 -71.8,-138.3 -228.4,-185.9 -353.7,-185.9 -11.3,0 -22.3,0.4 -33,1.1 -190.4,13.2 -415.3,148.1 -522.9,313.9 -74.598,114.8 -91.801,236 -50.102,350.7 l 75.202,-27.4 c -41.5,-113.9 -0.1,-215 42,-279.7 95.2,-146.7 293.6,-266.1 461.3,-277.7 105.3,-7.3 249.7,25.5 310.2,141.9 53.5,103 12.4,199.9 -35.2,312 -27.5,64.9 -56,132 -64.7,202.6 -0.5,3.9 -0.9,7.9 -1.3,11.8 -5.1,53.1 -0.1,105.5 14,154.5 27.4,96.5 89.5,180 177.1,231.6 80.8,47.5 218.9,78.9 331.2,35.6 68,-26.2 115.2,-76 136.4,-143.8"
         style="fill:#406fbf;fill-opacity:1;fill-rule:nonzero;stroke:none"
         id="path212" />
      <path
         d="m 4194.65,665.191 -198.57,115.09 12.06,-248.84 z"
         style="fill:#406fbf;fill-opacity:1;fill-rule:nonzero;stroke:none"
         id="path214" />
      <path
         d="m 1856.7,2203.88 c -25.4,15.5 -55.4,31.4 -88.8,44.4 v 0 c -1.29,13.48 -1.94,26.92 -1.95,40.26 -0.02,39.23 5.43,77.68 15.95,114.24 24.4,-6.4 50.4,-14.3 76.3,-23.9 -8.04,-28.81 -12.26,-59.08 -12.26,-90.01 0,-14.05 0.88,-28.24 2.66,-42.49 1.8,-14.2 4.5,-28.3 8.1,-42.5"
         style="fill:#3563b7;fill-opacity:1;fill-rule:nonzero;stroke:none"
         id="path216" />
      <path
         d="m 2997.5,1316.58 c -25.4,7.5 -53.5,17.7 -82.4,31.8 v 0 c -0.85,16.04 -1.28,32.1 -1.28,48.16 0,44.39 3.24,88.71 9.78,132.34 20.8,-10.6 46.1,-21.9 76.3,-32.8 -4.13,-33.13 -6.18,-66.63 -6.18,-100.15 -0.01,-26.49 1.26,-53 3.78,-79.35"
         style="fill:#3563b7;fill-opacity:1;fill-rule:nonzero;stroke:none"
         id="path218" />
      <path
         d="m 2385.16,791.559 c -107.65,0 -207.91,21.57 -292.42,63.929 -162.57,81.5 -300.73,271.782 -250.24,477.732 28.11,114.75 113.29,212.86 222.27,256.06 l 29.48,-74.38 c -85.31,-33.8 -152,-110.72 -174.06,-200.72 -40.51,-165.28 74.18,-319.879 208.4,-387.168 114.59,-57.442 264.41,-70.832 421.87,-37.703 274.23,57.691 592.4,257.211 586.62,629.621 -2.1,135.6 -46.75,278.27 -129.12,412.59 -90.23,147.14 -246.36,340.78 -477.68,427.69 l 28.13,74.89 c 252.57,-94.89 420.96,-302.94 517.75,-460.77 89.87,-146.53 138.59,-303.23 140.91,-453.15 2.81,-180.78 -64.28,-344.59 -194.01,-473.71 C 2908.47,932.41 2746.48,848.801 2566.93,811.031 2505.05,798.012 2444,791.559 2385.16,791.559"
         style="fill:#17282f;fill-opacity:1;fill-rule:nonzero;stroke:none"
         id="path220" />
      <path
         d="m 2749.46,867.57 -0.01,0.032 c 36.08,15.058 70.77,32.089 103.78,50.937 0.01,-0.008 0.05,-0.019 0.06,-0.019 -33.02,-18.848 -67.74,-35.891 -103.83,-50.95 m 193.13,109.442 c -0.03,0 -0.04,0.008 -0.06,0.008 18.39,13.789 36,28.21 52.77,43.24 0.01,-0.02 0.01,-0.02 0.01,-0.03 -16.75,-15.03 -34.34,-29.441 -52.72,-43.218"
         style="fill:#ffffff;fill-opacity:1;fill-rule:nonzero;stroke:none"
         id="path222" />
      <path
         d="m 2853.29,918.52 c -0.01,0 -0.05,0.011 -0.06,0.019 31.38,17.902 61.25,37.461 89.3,58.481 0.02,0 0.03,-0.008 0.06,-0.008 -28.06,-21.043 -57.91,-40.582 -89.3,-58.492"
         style="fill:#d6d9d8;fill-opacity:1;fill-rule:nonzero;stroke:none"
         id="path224" />
      <path
         d="m 3055.78,1081.23 c -0.01,0.01 -0.01,0.02 -0.01,0.03 108.26,123.22 163.86,274 161.3,438.92 -1.32,85.69 -17.82,173.62 -48.48,260.57 0,0.01 0,0.01 0.01,0.01 30.68,-86.98 47.19,-174.89 48.5,-260.58 2.55,-164.95 -53.07,-315.74 -161.32,-438.95 m 82.95,774.02 c -17.91,39.86 -38.8,79.33 -62.57,118.08 -30.76,50.16 -68.74,105.38 -114.37,160.44 h 0.04 c 45.62,-55.04 83.61,-110.25 114.37,-160.39 23.75,-38.77 44.63,-78.25 62.54,-118.12 0,-0.01 0,-0.01 -0.01,-0.01 m -241.02,350.02 c -27.95,28.77 -58.09,56.82 -90.55,83.4 32.46,-26.57 62.62,-54.63 90.57,-83.4 h -0.02"
         style="fill:#ffffff;fill-opacity:1;fill-rule:nonzero;stroke:none"
         id="path226" />
      <path
         d="m 2961.79,2133.77 -0.01,0.01 c 0.02,0 0.02,0 0.04,0.01 0.01,-0.01 0,-0.01 0.01,-0.02 h -0.04"
         style="fill:#405158;fill-opacity:1;fill-rule:nonzero;stroke:none"
         id="path228" />
      <path
         d="m 2897.72,2205.26 -0.01,0.01 h 0.02 l 0.01,-0.01 h -0.02"
         style="fill:#ffffff;fill-opacity:1;fill-rule:nonzero;stroke:none"
         id="path230" />
      <path
         d="m 2961.78,2133.78 c -19.89,24 -41.23,47.97 -64.06,71.48 h 0.02 c 22.83,-23.5 44.18,-47.48 64.08,-71.47 -0.02,-0.01 -0.02,-0.01 -0.04,-0.01"
         style="fill:#9ca5a7;fill-opacity:1;fill-rule:nonzero;stroke:none"
         id="path232" />
      <path
         d="m 2995.31,1020.23 c 0,0.01 0,0.01 -0.01,0.03 9.53,8.54 18.79,17.28 27.76,26.21 11.38,11.33 22.29,22.93 32.71,34.79 0,-0.01 0,-0.02 0.01,-0.03 -10.41,-11.84 -21.3,-23.43 -32.68,-34.75 -8.98,-8.94 -18.24,-17.7 -27.79,-26.25 m 173.28,760.52 c -8.8,24.94 -18.75,49.79 -29.86,74.5 0.01,0 0.01,0 0.01,0.01 11.1,-24.71 21.06,-49.57 29.86,-74.5 -0.01,0 -0.01,0 -0.01,-0.01"
         style="fill:#5d87cd;fill-opacity:1;fill-rule:nonzero;stroke:none"
         id="path234" />
      <path
         d="m 2121.43,842.172 c -9.77,4.18 -19.35,8.609 -28.73,13.308 -41.35,20.731 -81.11,48.508 -116.61,81.801 h 0.03 c 35.49,-33.281 75.27,-61.051 116.62,-81.793 9.38,-4.699 18.94,-9.136 28.69,-13.316 m -147.96,97.609 h -0.02 c -44.04,41.891 -81.29,92.289 -106.51,148.249 h 0.01 c 25.22,-55.95 62.48,-106.37 106.52,-148.249"
         style="fill:#ffffff;fill-opacity:1;fill-rule:nonzero;stroke:none"
         id="path236" />
      <path
         d="m 1976.12,937.281 h -0.03 c -0.87,0.821 -1.77,1.668 -2.64,2.5 h 0.02 c 0.88,-0.84 1.76,-1.672 2.65,-2.5"
         style="fill:#ececea;fill-opacity:1;fill-rule:nonzero;stroke:none"
         id="path238" />
      <path
         d="m 1866.95,1088.03 h -0.01 c -5.36,11.91 -10.19,24.08 -14.42,36.47 h 0.01 c 4.22,-12.39 9.05,-24.56 14.42,-36.47 m -17.82,46.88 v 0 c -9.91,31.84 -15.85,65.05 -16.99,99.2 1.14,-34.14 7.09,-67.37 16.99,-99.2"
         style="fill:#f0f0ee;fill-opacity:1;fill-rule:nonzero;stroke:none"
         id="path240" />
      <path
         d="m 1852.53,1124.5 h -0.01 c -1.17,3.44 -2.31,6.93 -3.39,10.41 v 0 c 1.09,-3.49 2.22,-6.96 3.4,-10.41"
         style="fill:#fbfbfa;fill-opacity:1;fill-rule:nonzero;stroke:none"
         id="path242" />
      <path
         d="m 2239.09,887.602 c -2.43,0.57 -4.85,1.148 -7.26,1.75 2.41,-0.602 4.83,-1.18 7.26,-1.75 v 0 m -7.27,1.75 c -0.23,0.058 -0.47,0.117 -0.69,0.179 0.22,-0.062 0.46,-0.121 0.69,-0.179 m -1.06,0.269 c -0.05,0.008 -0.12,0.027 -0.16,0.039 0.05,-0.019 0.11,-0.031 0.16,-0.039 M 1982.95,1048.2 c -19.98,26.33 -36.67,55.1 -48.84,85.62 v 0.02 c 12.17,-30.52 28.86,-59.31 48.84,-85.64 m -48.84,308.01 v 0.06 c 29.97,71.43 88.49,130.24 160.14,158.63 v 0.01 c 0.01,0 0.02,0 0.03,0.01 l 0.02,-0.04 c -71.75,-28.4 -130.23,-87.22 -160.19,-158.67 m 145.4,195.88 -14.73,37.18 v 0 l 14.73,-37.18"
         style="fill:#ffffff;fill-opacity:1;fill-rule:nonzero;stroke:none"
         id="path244" />
      <path
         d="m 1934.11,1133.82 c -22.23,55.72 -29.38,117.26 -13.92,180.36 3.53,14.41 8.21,28.48 13.92,42.09 v -0.06 c -5.71,-13.59 -10.38,-27.65 -13.91,-42.03 -15.46,-63.09 -8.31,-124.63 13.91,-180.34 v -0.02"
         style="fill:#f0f0ee;fill-opacity:1;fill-rule:nonzero;stroke:none"
         id="path246" />
      <path
         d="m 3067.69,1818.14 c -10.1,22.8 -21.28,45.49 -33.5,67.99 12.23,-22.51 23.4,-45.18 33.51,-67.98 l -0.01,-0.01"
         style="fill:#ffffff;fill-opacity:1;fill-rule:nonzero;stroke:none"
         id="path248" />
      <path
         d="m 3089.3,1764.84 c -6.55,17.82 -13.75,35.59 -21.61,53.3 l 0.01,0.01 c 7.85,-17.71 15.05,-35.5 21.6,-53.31"
         style="fill:#5d87cd;fill-opacity:1;fill-rule:nonzero;stroke:none"
         id="path250" />
      <path
         d="m 2965.91,1996 c -5.25,7.56 -10.64,15.18 -16.2,22.84 v 0 c 5.56,-7.66 10.96,-15.28 16.2,-22.84 m -296.36,293.62 c -0.01,0 -0.02,0 -0.03,0 -22.86,14.43 -46.65,27.87 -71.45,40.13 0.01,0 0.02,0 0.02,0.01 24.8,-12.26 48.6,-25.71 71.46,-40.14"
         style="fill:#ffffff;fill-opacity:1;fill-rule:nonzero;stroke:none"
         id="path252" />
      <path
         d="m 2246.9,804.281 v 0 c -44.26,8.481 -86.34,21.129 -125.47,37.891 -9.75,4.18 -19.31,8.617 -28.69,13.316 -41.35,20.742 -81.13,48.512 -116.62,81.793 -0.89,0.828 -1.77,1.66 -2.65,2.5 -44.04,41.879 -81.3,92.299 -106.52,148.249 -5.37,11.91 -10.2,24.08 -14.42,36.47 -1.18,3.45 -2.31,6.92 -3.4,10.41 -9.9,31.83 -15.85,65.06 -16.99,99.2 -1.09,32.33 2.13,65.5 10.36,99.07 28.1,114.79 113.29,212.88 222.28,256.09 l 14.73,-37.18 14.74,-37.19 v 0 0 c -71.65,-28.39 -130.17,-87.2 -160.14,-158.63 -5.71,-13.61 -10.39,-27.68 -13.92,-42.09 -15.46,-63.1 -8.31,-124.64 13.92,-180.36 12.17,-30.52 28.86,-59.29 48.84,-85.62 39.08,-51.528 90.73,-93.68 145.65,-121.22 31.52,-15.8 65.72,-28.25 102,-37.32 0.04,-0.012 0.11,-0.031 0.16,-0.039 0.12,-0.031 0.24,-0.062 0.37,-0.09 0.22,-0.062 0.46,-0.121 0.69,-0.179 0.01,0 0,0 0.01,0 2.41,-0.602 4.83,-1.18 7.26,-1.75 4.92,-13.672 10.8,-27.071 17.63,-40.102 4.25,-8.121 8.51,-16.32 12.76,-24.602 -7.02,-6.179 -14.53,-12.386 -22.58,-18.617 m 502.55,63.321 c -3.23,28.117 -7.7,55.418 -13.6,81.488 214.3,95.13 405.75,280.2 401.25,569.89 -1.25,80.55 -17.53,163.58 -47.8,245.86 -6.55,17.81 -13.75,35.6 -21.6,53.31 -10.11,22.8 -21.28,45.47 -33.51,67.98 -8.25,15.21 -16.99,30.33 -26.19,45.35 -12.72,20.72 -26.74,42.38 -42.09,64.52 -5.24,7.56 -10.64,15.18 -16.2,22.84 1.84,33.45 -13.66,67.24 -37.59,99.06 l 8.34,7.11 v 0 c -44.18,68.92 -156.86,150.07 -234.8,162.45 -1.26,0.23 -2.54,0.44 -3.83,0.62 -4.02,0.52 -8.11,1.04 -12.28,1.54 -22.86,14.43 -46.66,27.88 -71.46,40.14 34.68,15.68 52.4,35.34 59.3,59.43 54.5,-29.13 104.38,-63.36 149.77,-100.52 32.46,-26.58 62.6,-54.63 90.55,-83.4 l 0.01,-0.01 c 22.83,-23.51 44.17,-47.48 64.06,-71.48 l 0.01,-0.01 c 45.63,-55.06 83.61,-110.28 114.37,-160.44 23.77,-38.75 44.66,-78.22 62.57,-118.08 11.11,-24.71 21.06,-49.56 29.86,-74.5 30.66,-86.95 47.16,-174.88 48.48,-260.57 2.56,-164.92 -53.04,-315.7 -161.3,-438.92 -10.42,-11.86 -21.33,-23.46 -32.71,-34.79 -8.97,-8.93 -18.23,-17.67 -27.76,-26.21 -16.77,-15.03 -34.38,-29.451 -52.77,-43.24 v 0 c -28.05,-21.02 -57.92,-40.579 -89.3,-58.481 v 0 c -33.01,-18.848 -67.7,-35.879 -103.78,-50.937"
         style="fill:#405158;fill-opacity:1;fill-rule:nonzero;stroke:none"
         id="path254" />
      <path
         d="m 2486.84,797.77 v 0 c 4.75,0.57 9.52,1.179 14.29,1.832 -4.78,-0.653 -9.54,-1.262 -14.29,-1.832"
         style="fill:#c4c5c2;fill-opacity:1;fill-rule:nonzero;stroke:none"
         id="path256" />
      <path
         d="m 2486.84,797.77 c -2.36,5.89 -4.75,11.742 -7.18,17.582 23.99,22.378 46.76,46.738 67.62,73.25 1.07,0.23 2.15,0.449 3.22,0.679 2.97,0.617 5.94,1.258 8.92,1.918 2.72,-26.078 5.19,-52.847 7.41,-80.14 -22.01,-4.661 -43.94,-8.477 -65.7,-11.457 -4.77,-0.653 -9.54,-1.262 -14.29,-1.832"
         style="fill:#313d43;fill-opacity:1;fill-rule:nonzero;stroke:none"
         id="path258" />
      <path
         d="m 2281.89,798.551 c -11.8,1.621 -23.47,3.539 -34.99,5.73 8.05,6.231 15.56,12.438 22.58,18.617 4.14,-8.058 8.27,-16.168 12.41,-24.347"
         style="fill:#313d43;fill-opacity:1;fill-rule:nonzero;stroke:none"
         id="path260" />
      <path
         d="m 2497.37,245.359 c -0.48,-1.148 -1.18,-3.179 -0.33,-3.988 2.75,-2.57 16.22,0.609 28.78,5.367 -5.91,2.434 -16.33,5.891 -23.14,3.543 -1.15,-0.402 -2.14,-0.949 -2.97,-1.66 -0.99,-0.851 -1.77,-1.93 -2.34,-3.262 m 6.45,-22.629 c -0.47,-1.39 -0.41,-2.601 0.2,-3.679 1.62,-2.922 3,-2.852 3.45,-2.832 5.18,0.25 13.57,13.679 19.27,25.562 -8.49,-4.66 -20.77,-12.57 -22.92,-19.051 m 3.88,-10.82 c -2.13,-0.101 -5.19,0.699 -7.65,5.11 -1.19,2.14 -1.36,4.5 -0.51,7.031 1.58,4.758 6.91,9.66 12.7,13.828 -7.61,-1.848 -15.13,-2.598 -18.34,0.41 -2.09,1.961 -2.31,4.891 -0.69,8.711 1.53,3.57 4.21,6.039 7.95,7.332 11.77,4.066 30.43,-5.371 31.28,-5.801 l 0.79,-0.672 v -0.007 0 l 0.24,-0.422 v -0.008 l 0.16,-0.891 -0.13,-0.64 h -0.01 v -0.012 l -0.03,-0.078 c -1.9,-4.469 -10.16,-23.082 -19.03,-30.66 -2.24,-1.911 -4.51,-3.121 -6.73,-3.231"
         style="fill:#406fbf;fill-opacity:1;fill-rule:nonzero;stroke:none"
         id="path262" />
      <path
         d="m 2597.19,313.922 c -4.8,4.808 -64.12,-54.152 -64.12,-54.152 0,0 -2.79,-71.688 -32.36,-113.122 -29.56,-41.418 12.08,-44.668 54.15,-7.867 42.07,36.801 74.18,64.891 104.07,91.039 29.89,26.149 -12.02,34.231 -61.74,84.102"
         style="fill:#406fbf;fill-opacity:1;fill-rule:nonzero;stroke:none"
         id="path264" />
      <path
         d="m 2491.51,119.512 c -0.5,1.238 -0.76,2.66 -0.76,4.269 -0.01,5.489 3.01,13.129 9.96,22.867 24.18,33.883 30.45,88.012 31.94,106.602 21.2,2.941 37.09,8.41 49.91,14.82 -0.78,-32.468 -1.92,-61.172 -3.38,-84.961 1.82,-1.007 4.21,-2.039 7.08,-3.07 -1.41,-1.348 -3.67,-3.469 -6.63,-6.129 -0.88,2.199 -8.13,19.789 -19.26,24.078 -1.68,0.653 -3.37,0.973 -5.05,0.973 -2.01,0 -4,-0.461 -5.97,-1.379 -3.87,-1.812 -5.72,-4.152 -5.52,-6.941 0.31,-4.289 6.44,-8.539 13.41,-12 -2.01,0.16 -4.03,0.25 -6,0.25 -5.1,0 -9.84,-0.641 -13.08,-2.481 -2.39,-1.351 -3.9,-3.219 -4.49,-5.578 -1.23,-4.863 0.5,-7.41 2.17,-8.691 1.73,-1.34 4.27,-1.879 7.26,-1.879 9.37,0 23.2,5.359 30.85,8.679 -17.71,-15.191 -49.84,-39.722 -82.44,-49.429 m 51.4,44.988 c -1.89,0 -3.36,0.309 -4.26,1 -0.35,0.281 -1.43,1.102 -0.61,4.32 0.3,1.192 1.08,2.129 2.4,2.879 2.45,1.391 6.29,1.91 10.62,1.91 6.45,0 13.98,-1.148 19.71,-2.3 -9.72,-4.079 -21.29,-7.809 -27.86,-7.809 m 30.61,12.09 c -12.68,4.461 -24.94,10.68 -25.21,14.351 -0.08,1.141 1.85,2.219 3.01,2.758 1.34,0.633 2.68,0.949 4.01,0.949 1.11,0 2.23,-0.218 3.36,-0.66 6.72,-2.578 12.1,-11.808 14.83,-17.398"
         style="fill:#557ec8;fill-opacity:1;fill-rule:nonzero;stroke:none"
         id="path266" />
      <path
         d="m 2551.32,193.699 c -1.16,-0.539 -3.09,-1.617 -3.01,-2.758 0.27,-3.671 12.53,-9.89 25.21,-14.351 -2.73,5.59 -8.11,14.82 -14.83,17.398 -1.13,0.442 -2.25,0.66 -3.36,0.66 -1.33,0 -2.67,-0.316 -4.01,-0.949 m -10.88,-21 c -1.32,-0.75 -2.1,-1.687 -2.4,-2.879 -0.82,-3.218 0.26,-4.039 0.61,-4.32 4.04,-3.109 19.62,1.57 32.12,6.809 -9.58,1.929 -24.23,3.851 -30.33,0.39 m -4.6,-10.558 c -1.67,1.281 -3.4,3.828 -2.17,8.691 0.59,2.359 2.1,4.227 4.49,5.578 4.49,2.551 11.86,2.801 19.08,2.231 -6.97,3.461 -13.1,7.711 -13.41,12 -0.2,2.789 1.65,5.129 5.52,6.941 3.62,1.688 7.33,1.828 11.02,0.406 11.61,-4.468 19,-23.418 19.33,-24.277 l 0.13,-1.012 v 0 -0.008 l -0.12,-0.461 v -0.011 l -0.5,-0.758 -0.54,-0.402 h -0.01 v 0 l -0.09,-0.039 c -4.51,-2.129 -23.58,-10.758 -35.47,-10.758 -2.99,0 -5.53,0.539 -7.26,1.879"
         style="fill:#406fbf;fill-opacity:1;fill-rule:nonzero;stroke:none"
         id="path268" />
      <path
         d="m 2673.4,181.25 c -0.24,6.648 -85.43,0.449 -85.43,0.449 0,0 -51.8,-51.758 -102.6,-63.84 -50.81,-12.078 -21.97,-41.0699 34.97,-40.4176 56.94,0.6602 100.4,1.1602 140.86,1.6289 40.45,0.461 14.75,33.2187 12.2,102.1797"
         style="fill:#406fbf;fill-opacity:1;fill-rule:nonzero;stroke:none"
         id="path270" />
      <path
         d="m 2518.45,77.4297 c -35.34,0 -59.39,11.4805 -59.39,22.9223 0,6.578 7.96,13.148 26.31,17.507 45.37,10.789 91.54,53.231 100.89,62.18 14.24,-5.098 40.03,-9.918 63.15,-9.918 8.8,0 17.2,0.699 24.45,2.348 2.31,-34.547 9.92,-59.18 9.93,-74.4377 0.01,-12.5508 -5.13,-18.7618 -22.59,-18.961 -40.46,-0.4687 -83.92,-0.9687 -140.86,-1.6289 -0.63,0 -1.26,-0.0117 -1.89,-0.0117"
         style="fill:#6d97d6;fill-opacity:1;fill-rule:nonzero;stroke:none"
         id="path272" />
      <path
         d="m 2256.72,847.5 c 31.09,-59.391 62.42,-123.391 92.38,-187.34 39.45,-84.422 76.55,-168.949 108.08,-244.578 22.56,-53.98 51.93,-122.113 67.38,-163.293 48.29,4.902 70.89,22.301 90.04,36.633 -11.52,74.18 -42.43,266.668 -100.77,436.09 -30.69,89.117 -68.95,177.058 -116.07,248.668 220.4,545.05 177.72,753.2 177.72,753.2 l -233.81,17.18 c 0,0 -42.19,-204.25 -77.53,-413.95 v -0.1 c -18.42,-109.94 -34.94,-221.35 -42.53,-305.64 l -0.03,-0.84 c -5.44,-60.721 6.63,-121.6 35.14,-176.03"
         style="fill:#17282f;fill-opacity:1;fill-rule:nonzero;stroke:none"
         id="path274" />
      <path
         d="m 2459.48,1135.92 c -0.01,0.06 -0.02,0.13 -0.03,0.18 1.56,4.41 3.09,8.78 4.61,13.13 0.02,-0.02 0.04,-0.04 0.06,-0.06 -1.53,-4.39 -3.08,-8.8 -4.64,-13.25 m 33.73,100.68 -0.03,0.03 c 3.97,12.52 7.76,24.8 11.38,36.79 0,-0.02 0,-0.02 0.01,-0.04 -3.62,-12 -7.4,-24.25 -11.36,-36.78"
         style="fill:#c3c5c2;fill-opacity:1;fill-rule:nonzero;stroke:none"
         id="path276" />
      <path
         d="m 2464.12,1149.17 c -0.02,0.02 -0.04,0.04 -0.06,0.06 10.64,30.48 20.32,59.6 29.12,87.4 l 0.03,-0.03 c -8.8,-27.81 -18.47,-56.95 -29.09,-87.43"
         style="fill:#9da2a2;fill-opacity:1;fill-rule:nonzero;stroke:none"
         id="path278" />
      <path
         d="m 2459.45,1136.1 c -19.86,133.31 -11.19,240.62 -1.01,305.38 8.97,-7.88 17.55,-16.15 25.7,-24.77 6.63,-47.09 13.54,-95.62 20.42,-143.29 -3.62,-11.99 -7.41,-24.27 -11.38,-36.79 v 0 c -8.8,-27.8 -18.48,-56.92 -29.12,-87.4 v 0 c -1.52,-4.35 -3.05,-8.72 -4.61,-13.13"
         style="fill:#111d23;fill-opacity:1;fill-rule:nonzero;stroke:none"
         id="path280" />
      <path
         d="m 2524.56,252.289 c -15.45,41.18 -44.82,109.313 -67.38,163.293 13.53,103.898 36.51,218.68 56.65,309.43 29.85,-86.692 52.53,-179.442 69.09,-259.274 1.21,-73.297 0.99,-141.179 -0.36,-197.668 -12.82,-6.41 -28.71,-11.879 -49.91,-14.82 -2.62,-0.359 -5.31,-0.68 -8.09,-0.961"
         style="fill:#111d23;fill-opacity:1;fill-rule:nonzero;stroke:none"
         id="path282" />
      <path
         d="m 2435.93,1765.95 c 0,0 68.18,-506 107.26,-749.51 41.04,-255.741 46.25,-666.1 35.99,-833.331 14.94,-8.32 69.39,-18.39 98.81,-9.558 0,0 139.06,517.219 46.7,817.629 84.1,591.73 -37.62,736.64 -37.62,736.64 l -251.14,38.13"
         style="fill:#17282f;fill-opacity:1;fill-rule:nonzero;stroke:none"
         id="path284" />
      <path
         d="m 2424.79,2183.57 c -93.22,-22.35 -249.97,-56.96 -339.77,-15.64 -105.98,59.84 -17.36,170.95 41.53,226.12 41.68,40.14 85.59,74.52 132.82,106.34 12.42,8.36 29.27,5.08 37.63,-7.34 7.4,-10.97 5.67,-25.41 -3.36,-34.38 -36.81,-38.86 -73.64,-79.31 -106.26,-120.08 -21.3,-27.71 -45.04,-57.22 -54.1,-88.03 -1.4,-6.26 0.55,-5.8 -0.56,-1 -0.57,2.6 -3.09,7.08 -4.76,8.52 -0.08,0.35 -0.1,0.28 0.84,0.05 35.8,-8.78 75.72,-2.63 114.33,1.76 50.95,7.1 104.24,17.75 154.65,29.29 70.33,15.24 96.09,-85.13 27.01,-105.61"
         style="fill:#f9a8b3;fill-opacity:1;fill-rule:nonzero;stroke:none"
         id="path286" />
      <path
         d="m 2451.64,2293.82 c -54.46,1.34 -277.97,-33.2 -277.97,-33.2 l 21.56,-120.34 159.1,6.28 97.31,147.26"
         style="fill:#406fbf;fill-opacity:1;fill-rule:nonzero;stroke:none"
         id="path288" />
      <path
         d="m 2195.23,2140.23 -0.89,4.99 0.89,-4.94 113.64,4.49 c -0.03,-0.11 -0.06,-0.21 -0.09,-0.32 v 0 l -113.55,-4.22 m -21.52,120.4 -0.01,0.01 c 0,0 36.93,5.7 84.42,12.38 -46.65,-6.57 -83.11,-12.19 -84.41,-12.39"
         style="fill:#ffffff;fill-opacity:1;fill-rule:nonzero;stroke:none"
         id="path290" />
      <path
         d="m 2195.23,2140.28 -0.89,4.94 -20.63,115.41 c 1.3,0.2 37.76,5.82 84.41,12.39 65.97,9.27 152.33,20.42 188.41,20.79 -0.94,-0.1 -1.89,-0.2 -2.83,-0.3 -47.64,-4.96 -86.58,-49.73 -101.03,-97.46 -13.64,-10.97 -26.99,-27.29 -33.8,-51.28 l -113.64,-4.49"
         style="fill:#b8d2ef;fill-opacity:1;fill-rule:nonzero;stroke:none"
         id="path292" />
      <path
         d="m 2308.78,2144.45 c 0.03,0.11 0.06,0.21 0.09,0.32 l 18.21,0.72 c -0.03,-0.08 -0.05,-0.12 -0.07,-0.19 l -18.23,-0.85"
         style="fill:#c4c5c3;fill-opacity:1;fill-rule:nonzero;stroke:none"
         id="path294" />
      <path
         d="m 2327.01,2145.3 c 0.02,0.07 0.04,0.11 0.07,0.19 l 8.27,0.32 c 0,-0.04 -0.01,-0.09 -0.01,-0.13 l -8.33,-0.38"
         style="fill:#b8bab8;fill-opacity:1;fill-rule:nonzero;stroke:none"
         id="path296" />
      <path
         d="m 2308.87,2144.77 c 6.81,23.99 20.16,40.31 33.8,51.28 -3.13,-10.36 -5.11,-20.86 -5.78,-31.11 -0.43,-6.53 -0.97,-12.74 -1.54,-19.13 l -8.27,-0.32 -18.21,-0.72"
         style="fill:#8fa5cb;fill-opacity:1;fill-rule:nonzero;stroke:none"
         id="path298" />
      <path
         d="m 2249.26,2480.56 11.07,86.65 40.87,59.95 32.46,-54.22 -11.12,-37.29 c 0,0 12.22,-49.04 -27.46,-75.69 l -45.82,20.6"
         style="fill:#f9a8b3;fill-opacity:1;fill-rule:nonzero;stroke:none"
         id="path300" />
      <path
         d="m 2337.09,1854.58 c -3.54,73.37 -5.06,124.93 -5.31,177.05 -1.84,76.87 3.02,101.2 5.11,133.31 3.74,57.54 48.84,122.53 106.81,128.57 16.06,1.68 32.85,3.14 49.04,4.05 48.84,2.75 93.72,-0.54 148.44,-5.06 14.07,-1.17 27.78,-2.73 40.68,-4.49 48.29,-6.57 77.07,-53.75 61.82,-101.32 -46.93,-146.4 -67.65,-241.56 -74.43,-317.61 8.33,-23.3 52.3,-149.25 34.31,-163.54 -19.84,-15.75 -350.34,-27.57 -375.94,0 -19.87,21.4 -0.29,110.3 9.47,149.04"
         style="fill:#406fbf;fill-opacity:1;fill-rule:nonzero;stroke:none"
         id="path302" />
      <path
         d="m 2333.12,1701.85 c -2.48,1.12 -4.35,2.32 -5.55,3.6 -0.98,1.06 -1.87,2.29 -2.66,3.66 0,0.05 0,0.12 0,0.17 0.8,-1.41 1.71,-2.66 2.71,-3.74 1.19,-1.29 3.05,-2.49 5.52,-3.61 -0.01,-0.03 -0.01,-0.06 -0.02,-0.08"
         style="fill:#ffffff;fill-opacity:1;fill-rule:nonzero;stroke:none"
         id="path304" />
      <path
         d="m 2324.91,1709.11 c -6.21,10.74 -6.88,30.7 -4.87,53.06 -1.99,-22.28 -1.3,-42.15 4.87,-52.89 0,-0.05 0,-0.12 0,-0.17"
         style="fill:#eef0ee;fill-opacity:1;fill-rule:nonzero;stroke:none"
         id="path306" />
      <path
         d="m 2701.01,1704.07 c -0.01,0.02 -0.02,0.05 -0.03,0.07 1.12,0.46 1.99,0.93 2.58,1.4 8.5,6.75 3.16,38.46 -5.72,72.48 0.01,0 0.01,0.01 0.02,0.01 8.9,-34.05 14.24,-65.79 5.71,-72.58 -0.59,-0.46 -1.45,-0.92 -2.56,-1.38"
         style="fill:#ffffff;fill-opacity:1;fill-rule:nonzero;stroke:none"
         id="path308" />
      <path
         d="m 2446.33,1689.37 c -52.33,1.16 -96.52,4.95 -113.21,12.48 0.01,0.02 0.01,0.05 0.02,0.08 16.65,-7.57 60.84,-11.38 113.19,-12.54 0,-0.01 0,0 0,-0.02"
         style="fill:#b1baba;fill-opacity:1;fill-rule:nonzero;stroke:none"
         id="path310" />
      <path
         d="m 2483.71,1688.98 c -12.73,0 -25.27,0.13 -37.38,0.39 0,0.02 0,0.01 0,0.02 12.06,-0.26 24.55,-0.39 37.24,-0.39 93.3,0 197.19,6.86 217.41,15.14 0.01,-0.02 0.02,-0.05 0.03,-0.07 -20.14,-8.27 -123.98,-15.09 -217.3,-15.09"
         style="fill:#b1baba;fill-opacity:1;fill-rule:nonzero;stroke:none"
         id="path312" />
      <path
         d="m 2676.95,1929.05 c 6.58,40 16.71,85.64 31.56,140.02 l 0.03,0.01 c -7.35,-26.78 -13.44,-51.46 -18.59,-74.27 -5.38,-23.65 -9.65,-45.43 -13,-65.76"
         style="fill:#ffffff;fill-opacity:1;fill-rule:nonzero;stroke:none"
         id="path314" />
      <path
         d="m 2708.51,2069.07 c 0,0.01 0.01,0.02 0.01,0.03 0.01,0 0.01,0 0.03,0.01 0,-0.01 -0.01,-0.02 -0.01,-0.03 l -0.03,-0.01"
         style="fill:#ffffff;fill-opacity:1;fill-rule:nonzero;stroke:none"
         id="path316" />
      <path
         d="m 2708.52,2069.1 c 0.03,0.11 0.06,0.22 0.09,0.33 0.01,0 0.02,-0.01 0.02,-0.01 -0.02,-0.1 -0.05,-0.21 -0.08,-0.31 -0.02,-0.01 -0.02,-0.01 -0.03,-0.01"
         style="fill:#d6dbda;fill-opacity:1;fill-rule:nonzero;stroke:none"
         id="path318" />
      <path
         d="m 2332.3,1987.39 c -0.13,6.8 -0.23,13.51 -0.32,20.17 0.09,-6.66 0.19,-13.37 0.32,-20.17"
         style="fill:#eef0ee;fill-opacity:1;fill-rule:nonzero;stroke:none"
         id="path320" />
      <path
         d="m 2669.56,2289.59 c -9.19,1.11 -18.7,2.11 -28.38,2.91 -11.8,0.97 -23.14,1.89 -34.16,2.7 0,0.01 -0.01,0.02 -0.02,0.02 11.01,-0.81 22.33,-1.73 34.09,-2.71 9.72,-0.8 19.24,-1.8 28.43,-2.89 0.01,-0.01 0.03,-0.02 0.04,-0.03"
         style="fill:#ffffff;fill-opacity:1;fill-rule:nonzero;stroke:none"
         id="path322" />
      <path
         d="m 2669.6,2289.59 c -0.02,0 -0.03,0 -0.04,0 -0.01,0.01 -0.03,0.02 -0.04,0.03 0.01,0 0.02,0 0.03,0 0.01,-0.01 0.03,-0.02 0.05,-0.03"
         style="fill:#ffffff;fill-opacity:1;fill-rule:nonzero;stroke:none"
         id="path324" />
      <path
         d="m 2685.66,2287.46 c -1.28,0.2 -2.54,0.39 -3.8,0.55 v 0 c -4.01,0.55 -8.11,1.08 -12.26,1.58 -0.02,0.01 -0.04,0.02 -0.05,0.03 4.17,-0.5 8.26,-1.02 12.28,-1.54 1.29,-0.18 2.57,-0.39 3.83,-0.62"
         style="fill:#c0c6c6;fill-opacity:1;fill-rule:nonzero;stroke:none"
         id="path326" />
      <path
         d="m 2483.57,1689 c -12.69,0 -25.18,0.13 -37.24,0.39 -52.35,1.16 -96.54,4.97 -113.19,12.54 -2.47,1.12 -4.33,2.32 -5.52,3.61 -1,1.08 -1.91,2.33 -2.71,3.74 v 0 c -6.17,10.74 -6.86,30.61 -4.87,52.89 2.93,32.69 11.59,70.54 17.13,92.4 -2.58,52.83 -4.12,94.3 -4.87,132.82 -0.13,6.8 -0.23,13.51 -0.32,20.17 -0.09,8.06 -0.16,16.07 -0.19,24.08 -1.79,76.83 3.06,101.21 5.17,133.29 3.69,57.51 48.75,122.51 106.79,128.53 1.41,0.16 2.83,0.31 4.25,0.47 -53.24,-29.77 -54.51,-84.5 -54.51,-84.5 0,0 24.54,34.48 32.52,34.48 0.58,0 1.08,-0.19 1.47,-0.59 5.7,-5.85 39.05,-70.26 39.05,-70.26 0,0 68.13,78.45 96.49,78.45 1.02,0 1.99,-0.11 2.91,-0.32 26.27,-6.06 53.21,-18.18 53.21,-18.18 3.94,25.28 2.76,47.52 -12.12,62.19 11.02,-0.81 22.36,-1.73 34.16,-2.7 9.68,-0.8 19.19,-1.8 28.38,-2.91 0.01,0 0.02,0 0.04,0 4.15,-0.5 8.25,-1.03 12.26,-1.58 v 0 0 c 0,0 -41.61,-5.83 -46.05,-62.41 -0.32,-3.98 -0.46,-7.92 -0.46,-11.8 0.03,-51.36 25.58,-93.28 25.58,-93.28 8.97,-2.75 17.99,-5.88 26.95,-9.28 0.22,-15.08 4.37,-32.95 20.73,-41.81 -0.03,-0.11 -0.06,-0.22 -0.09,-0.33 0,-0.01 -0.01,-0.02 -0.01,-0.03 -14.85,-54.38 -24.98,-100.02 -31.56,-140.02 -3.54,-21.47 -6.05,-41.32 -7.79,-60.03 2.31,-6.36 7.25,-20.34 12.86,-37.6 -2.13,-1.95 -4.26,-3.91 -6.38,-5.86 -9.7,-8.09 -12.74,-22.19 -6.46,-33.75 4.91,-9.07 14.24,-14.22 23.87,-14.21 1.6,0 3.2,0.14 4.79,0.42 8.88,-34.02 14.22,-65.73 5.72,-72.48 -0.59,-0.47 -1.46,-0.94 -2.58,-1.4 -20.22,-8.28 -124.11,-15.14 -217.41,-15.14"
         style="fill:#b8d2ef;fill-opacity:1;fill-rule:nonzero;stroke:none"
         id="path328" />
      <path
         d="m 2708.63,2069.42 c 0,0 -0.01,0.01 -0.02,0.01 2.49,9.1 5.11,18.45 7.87,28.05 -2.73,-9.65 -5.36,-19 -7.85,-28.06 v 0"
         style="fill:#a6aaaa;fill-opacity:1;fill-rule:nonzero;stroke:none"
         id="path330" />
      <path
         d="m 2708.61,2069.43 c -16.36,8.86 -20.51,26.73 -20.73,41.81 9.84,-3.72 19.6,-7.77 29.1,-11.96 -0.17,-0.6 -0.34,-1.2 -0.5,-1.8 -2.76,-9.6 -5.38,-18.95 -7.87,-28.05"
         style="fill:#8fa5cb;fill-opacity:1;fill-rule:nonzero;stroke:none"
         id="path332" />
      <path
         d="m 2721.78,1813.62 20.1,-85.01 -17.18,-70.49 -49.45,39.35 -2.7,38.81 c 0,0 -28.68,41.62 -0.91,80.51 l 50.14,-3.17"
         style="fill:#f9a8b3;fill-opacity:1;fill-rule:nonzero;stroke:none"
         id="path334" />
      <path
         d="m 2744.5,2262.77 c 75,-50.28 238.62,-166.25 199.37,-271.95 -36.36,-89.64 -156.65,-164.2 -237.93,-209.95 -13.17,-7.13 -29.63,-2.23 -36.76,10.94 -6.28,11.56 -3.24,25.66 6.46,33.75 58.96,54.32 122.78,107.73 166.61,174.29 5.08,9.08 10.18,18.57 9.45,23.81 -0.32,-0.93 -0.44,-0.15 -1.44,1.8 -12.11,22.6 -34.44,43.07 -56.15,62.53 -33.97,29.5 -73.3,58.49 -110.12,84.15 -56.22,42.13 0.07,126.29 60.51,90.63"
         style="fill:#f9a8b3;fill-opacity:1;fill-rule:nonzero;stroke:none"
         id="path336" />
      <path
         d="m 2681.86,2288.01 c 78.03,-10.27 193.69,-92.95 238.6,-163 l -97,-82.63 c 0,0 -83.47,53.89 -162.53,78.14 0,0 -29.56,48.5 -25.12,105.08 4.44,56.58 46.05,62.41 46.05,62.41"
         style="fill:#406fbf;fill-opacity:1;fill-rule:nonzero;stroke:none"
         id="path338" />
      <path
         d="m 2823.46,2042.38 c 0,0 -48.44,31.28 -106.48,56.9 -9.5,4.19 -19.26,8.24 -29.1,11.96 -8.96,3.4 -17.98,6.53 -26.95,9.28 0,0 -25.55,41.92 -25.58,93.28 0,3.88 0.14,7.82 0.46,11.8 4.44,56.58 46.05,62.41 46.05,62.41 78.03,-10.27 193.69,-92.95 238.6,-163 l -8.34,-7.11 -79.41,-67.64 -9.25,-7.88"
         style="fill:#b8d2ef;fill-opacity:1;fill-rule:nonzero;stroke:none"
         id="path340" />
      <path
         d="m 2393.49,2209.43 c 0,0 2.07,88.91 111.16,101.71 109.1,12.8 122.57,-26.27 114.49,-78.13 0,0 -26.94,12.12 -53.21,18.18 -26.27,6.07 -99.4,-78.13 -99.4,-78.13 0,0 -33.35,64.41 -39.05,70.26 -5.7,5.85 -33.99,-33.89 -33.99,-33.89"
         style="fill:#406fbf;fill-opacity:1;fill-rule:nonzero;stroke:none"
         id="path342" />
      <path
         d="m 2310.61,2504.28 c 21.02,-47.44 49.35,-66.42 45.36,-135.57 -3.99,-69.15 11.28,-88.05 141.08,-66.39 129.81,21.64 165.37,59.48 163.83,117.75 -1.53,58.28 -29.33,70.42 -54.96,104.54 -25.63,34.12 -31.52,117.58 -138.64,111.14 -107.13,-6.43 -189.27,-57.9 -156.67,-131.47"
         style="fill:#17282f;fill-opacity:1;fill-rule:nonzero;stroke:none"
         id="path344" />
      <path
         d="m 2511.86,2441.92 c 6.65,-49.06 26.04,-135.91 67.05,-153.23 0,0 -44.36,-11.33 -109.83,-103.43 -22.72,34.28 -31.14,76.71 -31.14,76.71 45.04,32.8 35.23,38.85 14.8,70.54 l 59.12,109.41"
         style="fill:#f9a8b3;fill-opacity:1;fill-rule:nonzero;stroke:none"
         id="path346" />
      <path
         d="m 2465.42,2309.29 c -2.78,6.65 -6.33,13.16 -10.24,19.47 4.86,-7.4 8.95,-13.34 11.58,-18.63 -0.45,-0.29 -0.9,-0.57 -1.34,-0.84"
         style="fill:#111d23;fill-opacity:1;fill-rule:nonzero;stroke:none"
         id="path348" />
      <path
         d="m 2466.76,2310.13 c -2.63,5.29 -6.72,11.23 -11.58,18.63 -0.29,0.47 -0.58,0.94 -0.88,1.41 15.41,5.99 30.22,15.87 43.07,29.74 -2.62,-18.86 -16.68,-40.6 -30.61,-49.78"
         style="fill:#be848c;fill-opacity:1;fill-rule:nonzero;stroke:none"
         id="path350" />
      <path
         d="m 2533.93,2528.8 c 3.77,-78.43 7,-111.46 -27.26,-157.67 -51.54,-69.49 -146.89,-61.92 -173.57,12.6 -24.02,67.07 -26.14,184.05 45.31,227.26 70.4,42.56 151.75,-3.77 155.52,-82.19"
         style="fill:#f9a8b3;fill-opacity:1;fill-rule:nonzero;stroke:none"
         id="path352" />
      <path
         d="m 2385.97,2472.46 c 0,0 -8.15,-30.01 -18.73,-45.57 9.1,-6.74 22.97,-0.75 22.97,-0.75 l -4.24,46.32"
         style="fill:#f06b74;fill-opacity:1;fill-rule:nonzero;stroke:none"
         id="path354" />
      <path
         d="m 2566.21,2468.97 c -6.92,-17.16 -20.38,-29.22 -33.53,-34.55 -19.78,-8.01 -31.31,11.01 -27.2,32.53 3.71,19.37 18.46,46.88 38.98,45.64 20.2,-1.21 29.66,-23.99 21.75,-43.62"
         style="fill:#f9a8b3;fill-opacity:1;fill-rule:nonzero;stroke:none"
         id="path356" />
      <path
         d="m 2357.43,2522.37 c 0.91,0.27 1.9,0.2 2.76,-0.27 1.77,-0.99 2.34,-3.33 1.27,-5.24 -10.73,-19.08 -28.05,-21.11 -28.79,-21.18 -2.08,-0.22 -3.82,1.33 -3.89,3.47 -0.07,2.13 1.55,4.03 3.62,4.26 0.68,0.07 14.1,1.84 22.63,17.02 0.55,0.98 1.43,1.65 2.4,1.94"
         style="fill:#17282f;fill-opacity:1;fill-rule:nonzero;stroke:none"
         id="path358" />
      <path
         d="m 2411.17,2528.93 c -0.95,-0.07 -1.85,-0.48 -2.49,-1.23 -1.31,-1.55 -1.02,-3.94 0.65,-5.35 16.77,-14.07 33.7,-9.86 34.42,-9.67 2.01,0.53 3.09,2.59 2.41,4.62 -0.68,2.02 -2.87,3.22 -4.89,2.71 -0.66,-0.18 -13.84,-3.25 -27.17,7.94 -0.87,0.73 -1.93,1.05 -2.93,0.98"
         style="fill:#17282f;fill-opacity:1;fill-rule:nonzero;stroke:none"
         id="path360" />
      <path
         d="m 2443.42,2491.15 0.65,-2.21 c 1.47,-6.44 -0.59,-12.63 -4.6,-13.8 -3.95,-1.26 -8.43,3.02 -9.9,9.46 -0.37,1.77 -0.54,3.41 -0.41,4.99 l 0.08,0.06 c 0.13,4.32 1.99,7.88 4.94,8.76 3.59,1.03 7.33,-2.09 9.24,-7.26"
         style="fill:#17282f;fill-opacity:1;fill-rule:nonzero;stroke:none"
         id="path362" />
      <path
         d="m 2436.8,2497.83 h -15.76 c 0,0 10.32,-9.78 15.76,0"
         style="fill:#17282f;fill-opacity:1;fill-rule:nonzero;stroke:none"
         id="path364" />
      <path
         d="m 2457.12,2394.57 c -11.48,-5.35 -43.91,-12.22 -42.82,-14.92 -0.02,-0.01 -0.9,2.36 -2.99,5.16 l -0.03,0.1 c -3.35,4.9 -10.32,11.59 -20.1,9.49 -6.13,2.45 41.71,48.98 65.52,12.59 3.64,-6.13 2.99,-10.05 0.42,-12.42"
         style="fill:#17282f;fill-opacity:1;fill-rule:nonzero;stroke:none"
         id="path366" />
      <path
         d="m 2457.12,2394.57 c -11.48,-5.35 -43.91,-12.22 -42.82,-14.92 -0.02,-0.01 -0.9,2.36 -2.99,5.16 l -0.03,0.1 c 5.16,12.75 25.74,27.14 45.84,9.66"
         style="fill:#bb2329;fill-opacity:1;fill-rule:nonzero;stroke:none"
         id="path368" />
      <path
         d="m 2442.85,2465.7 c -11.17,0 -16.54,13.2 -16.6,13.35 l 0.74,1.7 1.72,-0.73 c 0.2,-0.52 4.78,-11.69 14.11,-11.69 0.85,0 1.74,0.09 2.68,0.3 l 1.57,-1.02 -1.02,-1.56 c -1.11,-0.24 -2.18,-0.35 -3.2,-0.35"
         style="fill:#be848c;fill-opacity:1;fill-rule:nonzero;stroke:none"
         id="path370" />
      <path
         d="m 2354.33,2475.53 -16.88,2.32 c 0,0 9.61,-11.99 16.88,-2.32"
         style="fill:#17282f;fill-opacity:1;fill-rule:nonzero;stroke:none"
         id="path372" />
      <path
         d="m 2345.39,2476.76 c 0,0 14.09,17.26 31.39,4 0,0 -14.51,4.66 -24.8,-7.57 l -6.59,3.57"
         style="fill:#17282f;fill-opacity:1;fill-rule:nonzero;stroke:none"
         id="path374" />
      <path
         d="m 2359.14,2458.35 -1.24,0.87 0.78,1.69 c 13.62,4.98 16.79,15.82 16.83,15.93 l 1.62,0.92 0.92,-1.62 c -0.13,-0.5 -3.51,-12.25 -18.46,-17.71 l -0.45,-0.08"
         style="fill:#be848c;fill-opacity:1;fill-rule:nonzero;stroke:none"
         id="path376" />
      <path
         d="m 2412.91,2597.01 c 0,0 30.28,-112.15 102.53,-136.72 72.24,-24.58 68.78,-101.24 42.4,-116.99 0,0 59.62,-9.86 74.76,46.54 15.14,56.4 -27.7,107.13 -38.43,186.51 -10.73,79.38 -126.21,88.51 -195.15,71.29 -68.94,-17.22 -116.71,-57.55 -88.41,-143.36 0,0 10.98,86.38 102.3,92.73"
         style="fill:#17282f;fill-opacity:1;fill-rule:nonzero;stroke:none"
         id="path378" />
      <path
         d="m 3199.47,1357.61 c -58,0 -114.83,9.77 -166.37,19.85 -172.44,33.78 -309.37,75.36 -430.91,130.84 -150.28,68.59 -274.3,158.67 -368.64,267.77 -52.3,60.5 -89,128.98 -124.5,195.21 -50.53,94.3 -98.25,183.37 -186.25,243.6 -168.03,115.03 -376.71,126.4 -522.2,115.69 -66.18,-4.87 -286.66,-33.22 -344.99,-193.22 l -75.161,27.4 c 50.451,138.4 205.321,230.21 414.281,245.6 158.21,11.67 386.12,-1.34 573.26,-129.45 104.1,-71.26 158.74,-173.22 211.58,-271.83 34.97,-65.26 68,-126.9 114.5,-180.68 86.75,-100.33 201.6,-183.53 341.33,-247.31 115.7,-52.82 246.95,-92.57 413.07,-125.1 72.61,-14.22 156.37,-27.83 231.66,-9.37 65.18,16 120.44,64.65 140.78,123.96 11.62,33.89 16.73,85.38 -25.01,138.14 l 62.74,49.63 c 50.04,-63.26 63.52,-139.17 37.94,-213.73 -29.4,-85.7 -105.03,-153.03 -197.38,-175.69 -33.11,-8.13 -66.61,-11.31 -99.73,-11.31"
         style="fill:#406fbf;fill-opacity:1;fill-rule:nonzero;stroke:none"
         id="path380" />
      <path
         d="m 2655.32,1239.09 c -21.24,172.82 -167.63,326.92 -348.09,366.41 -84.92,18.59 -168.76,12.98 -242.45,-16.22 l 29.47,-74.38 c 57.99,22.99 127.55,27.43 195.88,12.46 148.37,-32.48 268.56,-157.82 285.78,-298.02 10.44,-84.97 -13.6,-176.72 -67.69,-258.34 C 2413.84,828.602 2251.07,746.891 2136.84,697.82 1720.89,519.121 1293.46,486.391 978.871,606.551 L 1008.73,683.18 783.895,637.109 918.27,451.051 949.789,531.93 c 133.731,-51.071 286.001,-76.399 448.471,-76.391 243.3,0 509.43,56.77 770.16,168.781 123.64,53.102 300.29,142.25 406.49,302.481 64.61,97.509 93.17,208.419 80.41,312.289"
         style="fill:#17282f;fill-opacity:1;fill-rule:nonzero;stroke:none"
         id="path382" />
      <path
         d="M 918.27,451.051 783.895,637.109 1008.73,683.18 978.871,606.551 v 0 c 124.749,-47.653 267.209,-71.262 419.689,-71.25 232.05,0 487.27,54.679 738.28,162.519 114.23,49.071 277,130.782 371.38,273.18 45.85,69.19 70.11,145.65 70.08,219.09 -0.01,13.2 -0.8,26.3 -2.39,39.25 -17.22,140.2 -137.41,265.54 -285.78,298.02 -26.59,5.82 -53.36,8.71 -79.56,8.71 -41.15,0 -80.89,-7.12 -116.32,-21.17 l -29.47,74.38 c 45.25,17.93 94.32,26.97 145.13,26.97 31.93,0 64.55,-3.57 97.32,-10.75 180.46,-39.49 326.85,-193.59 348.09,-366.41 1.99,-16.23 2.98,-32.63 2.97,-49.12 -0.01,-89.08 -28.86,-180.9 -83.38,-263.169 -5.4,-8.153 -10.99,-16.121 -16.74,-23.903 -23.73,-32.136 -50.27,-61.199 -78.51,-87.546 -47.49,-44.313 -99.74,-80.911 -151.33,-111.332 -36.83,-21.711 -73.32,-40.278 -107.5,-56.258 -18.23,-8.524 -35.8,-16.313 -52.41,-23.442 -12.06,-5.179 -24.15,-10.25 -36.23,-15.199 v 0 c -124.12,-50.801 -249.13,-89.101 -372.07,-114.75 -5.02,-1.051 -10.02,-2.07 -15.04,-3.082 -4.22,-0.84 -8.46,-1.68 -12.68,-2.5 -114.23,-22.117 -226.42,-33.25 -334.14,-33.25 -142.07,-0.008 -276.34,19.359 -397.24,58.371 -17.356,5.602 -34.442,11.61 -51.231,18.02 l -15.836,-40.641 -0.973,-2.5 -14.71,-37.738"
         style="fill:#405158;fill-opacity:1;fill-rule:nonzero;stroke:none"
         id="path384" />
      <path
         d="m 2532.24,2741.5 -33.76,252.08 h 67.51 z"
         style="fill:#406fbf;fill-opacity:1;fill-rule:nonzero;stroke:none"
         id="path386" />
      <path
         d="m 2578.93,2726.98 111.07,292.34 60.14,-30.65 z"
         style="fill:#406fbf;fill-opacity:1;fill-rule:nonzero;stroke:none"
         id="path388" />
      <path
         d="m 2613.94,2692.85 169.76,165.06 39.68,-54.61 z"
         style="fill:#406fbf;fill-opacity:1;fill-rule:nonzero;stroke:none"
         id="path390" />
    </g>
  </g>
</svg>
