<?xml version="1.0" encoding="UTF-8" standalone="no"?>
<!-- Created with Inkscape (http://www.inkscape.org/) -->

<svg
   version="1.1"
   id="svg2"
   width="3628"
   height="2666.6667"
   viewBox="0 0 3628 2666.6667"
   sodipodi:docname="10084.eps"
   xmlns:inkscape="http://www.inkscape.org/namespaces/inkscape"
   xmlns:sodipodi="http://sodipodi.sourceforge.net/DTD/sodipodi-0.dtd"
   xmlns="http://www.w3.org/2000/svg"
   xmlns:svg="http://www.w3.org/2000/svg">
  <defs
     id="defs6" />
  <sodipodi:namedview
     id="namedview4"
     pagecolor="#ffffff"
     bordercolor="#000000"
     borderopacity="0.25"
     inkscape:showpageshadow="2"
     inkscape:pageopacity="0.0"
     inkscape:pagecheckerboard="0"
     inkscape:deskcolor="#d1d1d1" />
  <g
     id="g8"
     inkscape:groupmode="layer"
     inkscape:label="ink_ext_XXXXXX"
     transform="matrix(1.3333333,0,0,-1.3333333,0,2666.6667)">
    <g
       id="g10"
       transform="scale(0.1)">
      <path
         d="M 0,0 H 27210 V 20000 H 0 Z"
         style="fill:#ffffff;fill-opacity:1;fill-rule:nonzero;stroke:none"
         id="path12" />
      <path
         d="m 17528.1,6780.1 h -7021.8 v 11314.2 h 7021.8 V 6780.1 m -3496,43.3 c 22.1,0 44.2,-0.1 66.3,-0.3 5.1,0 10.3,-0.1 15.4,-0.1 364.4,0 636.1,111.8 687.5,134.5 h 2476 V 17929.6 H 10754.4 V 6957.5 h 1240.8 1304 c 95.3,-42.2 339.6,-134.5 652.9,-134.5 4.6,0 9.2,0.1 13.8,0.1 22.1,0.2 44.2,0.3 66.2,0.3"
         style="fill:#cde0fc;fill-opacity:1;fill-rule:nonzero;stroke:none"
         id="path14" />
      <path
         d="m 17277.3,6957.5 h -2476 c 5.8,2.5 8.8,3.9 8.8,3.9 l -114.9,1229.4 c 0,0 357,-878.4 396.6,-918 39.7,-39.7 1260.5,-297.6 1260.5,-297.6 l 58.9,227.2 -1024.7,433 c 0,0 -436.3,1246.7 -510,1343.1 -14.1,18.4 -42.6,37.7 -79.4,56.9 l 2088.3,8894.2 h -774.6 L 14059.6,9193.8 h -27.5 -306 c 0,0 -464.7,-119 -538.3,-215.3 -73.7,-96.4 -510,-1343.1 -510,-1343.1 l -580.7,-244.1 2474.4,10538.3 H 12974.8 L 10754.4,8473 V 6957.5 17929.6 h 6522.9 V 6957.5 m -3978.1,0 h -1304 l 19.8,84.1 c 366.8,79.2 930.8,204.5 957.4,231.2 39.7,39.6 396.7,918 396.7,918 l -113.3,-1212.7 c 0,0 15.1,-8.1 43.4,-20.6"
         style="fill:#e2eefc;fill-opacity:1;fill-rule:nonzero;stroke:none"
         id="path16" />
      <path
         d="m 14797.1,9035.4 c -155.4,80.7 -458.9,158.4 -458.9,158.4 h -278.6 l 2051.2,8735.8 h 774.6 L 14797.1,9035.4"
         style="fill:#eff6fd;fill-opacity:1;fill-rule:nonzero;stroke:none"
         id="path18" />
      <path
         d="M 11995.2,6957.5 H 10754.4 V 8473 l 2220.4,9456.6 h 1596.7 l -2474.4,-10538.3 -444.5,-186.9 51.4,-229.2 c 0,0 132.1,27.7 311,66.4 l -19.8,-84.1"
         style="fill:#eff6fd;fill-opacity:1;fill-rule:nonzero;stroke:none"
         id="path20" />
      <path
         d="m 14833.2,17921.1 c 8.2,-11.4 20.6,-27.2 38.6,-49.1 l 0.7,-0.9 c -0.7,-2.6 -228.9,-829.3 -49.2,-892.1 164.9,-57.6 178.8,548.6 112,802.6 36.5,-56.4 69.2,-115.7 96.3,-177.7 46.3,-105.9 78,-242.5 98.9,-394.9 -33.5,-54.9 -238.2,-399.8 -135.7,-470.8 83.2,-57.6 137.7,169.2 152.7,319 12,-135.4 17.2,-278.5 17.8,-420.6 -110.8,-27.2 -445.3,-123.3 -451.6,-294.9 -7,-191.8 280.5,-135.2 451.5,220.5 -0.9,-141.3 -6.1,-280 -13.3,-407.3 -79.6,-71.8 -407.1,-380.7 -354.3,-559.1 53.5,-180.8 258.9,26.2 345.5,421.1 -16,-226.1 -36.5,-397.8 -45.5,-452 -3,-17.8 -6.3,-40.8 -9.9,-67.9 v 0 c -1.3,-9.9 -2.6,-20.4 -4,-31.3 v 0 c 0,0 -509,-685.9 -363.2,-843.8 103.3,-112 258,346.2 339.3,622.4 -28.2,-293.2 -52.9,-675.6 -29.3,-793.6 l 1.9,0.4 c -18,-264.4 -30.4,-745.2 115.3,-769.5 201.5,-33.6 0,503.7 0,503.7 0,0 245.9,-98.1 268.7,0 38.1,164.3 -306.3,395.7 -361.9,431.8 0.7,146 13.9,353 30.5,540.9 18.6,-403 119.2,-522.8 158.5,-536.1 48.6,-16.4 148.6,82.2 114.3,393.7 -26.7,242 -174.9,398.5 -239.7,456.3 4.4,34.4 8.7,64 12.6,87.5 8.7,52 27.7,211.4 43.4,423.4 39.4,-331.4 132.6,-602.5 216.6,-434.5 81.9,163.6 -131.9,476.8 -207,578.6 8.7,147.8 14.8,312.1 14.8,478.9 62.5,-163.8 336.6,-471.8 370.8,-295.5 33.6,173.3 -306.6,353.6 -371.4,386.3 -1.9,142.8 -8.8,285.5 -22.8,419.5 76.1,-135.1 308.1,-411.7 335.6,-262.4 31.5,170.5 -357.5,432.3 -357.5,432.3 l -0.6,-0.7 c -21,126.8 -50.2,240.6 -90.2,332.1 -25.9,59.1 -56.7,115.9 -91,170.1 143.8,-97.6 363.8,-184.3 355,-82.5 -9.7,110.4 -348.1,199.8 -456,225.5 -3.7,5.3 -6.2,7.5 -7.7,7.5 -38.7,47.5 -79.4,92.4 -120.9,134.7 h -47.2 c 47.6,-47 94.5,-97.5 138.6,-151.6"
         style="fill:#327f6b;fill-opacity:1;fill-rule:nonzero;stroke:none"
         id="path22" />
      <path
         d="m 14540.4,17633.5 c 107.4,-60.5 68.1,241.6 32.4,439.2 h -104.9 c -19.4,-165.2 -24,-384.8 72.5,-439.2"
         style="fill:#327f6b;fill-opacity:1;fill-rule:nonzero;stroke:none"
         id="path24" />
      <path
         d="m 14680.8,17650.5 c 142.7,19.9 14.4,235.3 -186.6,422.2 h -210.5 c 106.1,-194.5 267.6,-440.4 397.1,-422.2"
         style="fill:#327f6b;fill-opacity:1;fill-rule:nonzero;stroke:none"
         id="path26" />
      <path
         d="m 14110.5,18072.7 h -215.8 c -110.7,-138.1 -194.3,-308 -119,-460.4 106.2,-215.3 249.4,171.1 334.8,460.4"
         style="fill:#327f6b;fill-opacity:1;fill-rule:nonzero;stroke:none"
         id="path28" />
      <path
         d="m 14242.6,18072.7 h -35.8 c 9.2,-63.9 19.1,-134.8 29.5,-211.5 -86.4,-170.4 -527.6,-1069.8 -317.3,-1262.8 232.5,-213.4 315.3,879 315.3,879 l 12.2,307.7 c 35.2,-265.4 74.1,-588.9 104.8,-923 -80,-65.8 -410.7,-356.1 -273.1,-547.1 128.1,-177.7 241.2,313.6 277.7,495.8 19.6,-221 35.4,-445.5 43.9,-659.7 -84.5,-39.3 -440.8,-216.5 -343.1,-371.2 94.7,-149.8 291.3,182.7 346.2,282 4,-131.3 5,-257.9 2.1,-376.5 -92.3,-43.4 -505.2,-245.5 -403.2,-341.8 114.6,-108.3 350.3,181.6 350.3,181.6 0,0 -184.7,-742.1 16.1,-662.5 200.9,79.6 66.7,707 73.1,722.9 l -3.4,20.2 c 3.9,97.6 4.9,201.3 3.6,309.3 37.3,-95.5 109.3,-254.7 152.7,-186.1 51,80.6 -104.8,245 -154.8,294.5 -3.8,147.2 -11.5,300.7 -22,455.9 72.5,-183.2 224,-447.8 301,-323.7 86.3,139.2 -238.1,499.2 -321.2,587.7 -19.3,228 -43.1,453.8 -67.6,662.6 102,-266.9 434.3,-831.5 541.7,-638.8 111.7,200.7 -464.3,829.3 -580.6,953 -17.1,131.6 -33.6,250.8 -48.1,352.5"
         style="fill:#3c8f7c;fill-opacity:1;fill-rule:nonzero;stroke:none"
         id="path30" />
      <path
         d="m 13078.6,17866.8 c 87.1,-232.3 259.2,-624.1 428.2,-619.6 227.8,6.2 -97.4,514.5 -432.9,751.4 -0.7,16.4 -1.3,31.8 -1.9,46.2 -54.7,-11.2 -108.3,-25.7 -160.9,-43.2 -191.2,-133.2 -515.7,-407.9 -416.3,-683.5 117.3,-324.8 426.9,448.2 519.6,694.2 4.5,-115.1 10.4,-284.6 14.9,-489.1 -136.7,-209.6 -706.8,-1115.9 -502,-1351.1 231.9,-266.6 460.9,938.5 460.9,938.5 l 43.6,284.8 c 5.2,-290.3 7.2,-635.8 -0.2,-990.5 -111.8,-74 -487.9,-345.4 -362.6,-568.2 114.1,-203 289,267.4 360.6,484.9 -6,-239.1 -16.4,-480.7 -33.2,-710.8 -114.1,-39.1 -505,-187.9 -418.4,-366.7 82.7,-170.6 324.1,137 409.6,255.1 -11.9,-142.4 -26.5,-279.4 -44.1,-407.4 -125.2,-43.1 -579.8,-209.8 -481.3,-326.3 114,-134.9 412.6,158.2 412.6,158.2 0,0 -298.5,-802.7 -65.1,-739.2 205.7,55.9 175.3,617.6 171.4,761.8 19.2,116.5 35.4,242.2 49,374.2 31.4,-111.3 86.9,-266 139.5,-200.5 63.4,79 -70.3,264.8 -126.6,336.2 13.8,158.4 24.4,323.9 32.2,491.7 61.6,-210.9 189.5,-491.2 286.1,-368.6 109.5,139.1 -181,555 -274.5,681.7 7,247.4 9.1,493.3 8.3,722.4 92.2,-322.3 374.6,-936.3 512.9,-742.8 145.6,203.7 -383.6,940.7 -516.7,1119.8 -3.3,197.2 -8.1,370.5 -12.7,506.4"
         style="fill:#3c8f7c;fill-opacity:1;fill-rule:nonzero;stroke:none"
         id="path32" />
      <path
         d="m 13313.8,17492.3 c 122.2,-143.2 248.6,326.3 304.5,572 1.8,-168.5 3.9,-394.1 5.2,-655.4 -75.5,-77.4 -309.2,-335.2 -276.6,-526.1 31.6,-185.4 211.9,200.7 277.3,349.4 0.5,-136.5 0.7,-280.5 0.5,-429.6 -94.5,-82.1 -322.8,-304.8 -213.9,-455.9 88.2,-122.4 168.3,120 213.6,305 -0.5,-169.6 -1.5,-344.4 -3.1,-520.7 -114.2,-91.4 -431.8,-374.2 -315.9,-609.1 102.9,-208.4 245.6,231.8 314.6,482 -2.1,-187.9 -5,-376.5 -8.9,-561.5 -62.6,-104.8 -291,-506.4 -166,-593 67.6,-46.8 120.5,51.7 155.3,179.4 -5.4,-172.5 -11.8,-338.4 -19.6,-493.7 -83.3,-55.2 -427.5,-295 -387.4,-467.5 24.9,-107.7 294.8,0 294.8,0 0,0 -221.1,-589.7 0,-552.8 156.8,26.1 146.8,533.9 127.8,827.2 3.2,53.9 6.3,109.5 9.2,166.6 32.7,-122.8 88.2,-211.7 150.9,-136.6 110.4,132.1 -94,445.7 -135,505.8 5.8,161.4 10.5,330 14.4,502.1 84.8,-165.2 407.5,-559.7 444.5,-359 35.6,192.9 -345.2,476.2 -440.7,543.8 3.1,171.4 5.5,344.9 7.3,517.3 61.2,-130.6 270.3,-548.7 426.3,-526.8 181,25.3 -139.1,412.1 -426.1,556.4 1.7,169.1 2.7,336.9 3.2,500.3 0.6,-4.3 1.2,-8.5 1.9,-13.1 17.2,-110.8 210,-529.2 295.9,-390.7 85.9,138.6 -295.9,528.6 -295.9,528.6 0,0 -0.7,-1.1 -1.6,-3.5 0.3,157.8 0.2,310.6 -0.2,455.4 60.7,-153.5 273,-494 341,-379.8 64.6,108.4 -237.8,430.5 -341.6,536.1 -0.9,209.5 -2.3,398.2 -3.8,555.5 72,-157.8 290.5,-592.1 357.2,-434.7 71.2,167.7 -277.6,490.2 -358.5,561.9 -0.2,15.5 -0.3,30.5 -0.5,45.1 h -173.4 c -128.4,-189.8 -278.1,-461.8 -176.7,-580.4"
         style="fill:#327f6b;fill-opacity:1;fill-rule:nonzero;stroke:none"
         id="path34" />
      <path
         d="m 25655.3,6780.1 h -7021.8 v 11314.2 h 7021.8 V 6780.1 m -3218.9,177.4 h 2968.2 V 17929.6 H 18881.7 V 6957.5 h 1240.7 1539.4 774.6"
         style="fill:#cde0fc;fill-opacity:1;fill-rule:nonzero;stroke:none"
         id="path36" />
      <path
         d="m 25404.6,6957.5 h -2968.2 l 2576.2,10972.1 H 24238 L 21661.8,6957.5 h -1539.4 l 2576.3,10972.1 H 21102.1 L 18881.7,8473 V 6957.5 17929.6 h 6522.9 V 6957.5"
         style="fill:#e2eefc;fill-opacity:1;fill-rule:nonzero;stroke:none"
         id="path38" />
      <path
         d="m 22436.4,6957.5 h -774.6 L 24238,17929.6 h 774.6 L 22436.4,6957.5"
         style="fill:#eff6fd;fill-opacity:1;fill-rule:nonzero;stroke:none"
         id="path40" />
      <path
         d="M 20122.4,6957.5 H 18881.7 V 8473 l 2220.4,9456.6 h 1596.6 L 20122.4,6957.5"
         style="fill:#eff6fd;fill-opacity:1;fill-rule:nonzero;stroke:none"
         id="path42" />
      <path
         d="M 9400.89,6780.1 H 2379.05 V 18094.3 H 9400.89 V 6780.1 M 6181.95,6957.5 H 9150.11 V 17929.6 H 2627.22 V 6957.5 h 1240.79 1539.33 774.61"
         style="fill:#cde0fc;fill-opacity:1;fill-rule:nonzero;stroke:none"
         id="path44" />
      <path
         d="M 9150.11,6957.5 H 6181.95 L 8758.19,17929.6 H 7983.58 L 5407.34,6957.5 H 3868.01 L 6444.25,17929.6 H 4847.62 L 2627.22,8473 V 6957.5 17929.6 H 9150.11 V 6957.5"
         style="fill:#e2eefc;fill-opacity:1;fill-rule:nonzero;stroke:none"
         id="path46" />
      <path
         d="m 6181.95,6957.5 h -774.61 l 2576.24,10972.1 h 774.61 L 6181.95,6957.5"
         style="fill:#eff6fd;fill-opacity:1;fill-rule:nonzero;stroke:none"
         id="path48" />
      <path
         d="M 3868.01,6957.5 H 2627.22 V 8473 l 2220.4,9456.6 H 6444.25 L 3868.01,6957.5"
         style="fill:#eff6fd;fill-opacity:1;fill-rule:nonzero;stroke:none"
         id="path50" />
      <path
         d="m 2607.43,17954.2 c -8.79,-12.2 -22.01,-29.2 -41.34,-52.6 l -0.76,-1 c 0.76,-2.8 245.28,-888.3 52.7,-955.6 -176.6,-61.7 -191.48,587.6 -119.88,859.8 -39.13,-60.5 -74.17,-124 -103.2,-190.4 -49.63,-113.5 -83.6,-259.8 -105.99,-423 35.9,-58.8 255.21,-428.3 145.39,-504.3 -89.11,-61.7 -147.47,181.2 -163.56,341.7 -12.88,-145.1 -18.47,-298.4 -19.1,-450.6 118.69,-29.1 477.01,-132 483.76,-315.9 7.55,-205.5 -300.48,-144.9 -483.66,236.2 1.03,-151.3 6.56,-299.9 14.25,-436.2 85.33,-77 436.09,-407.9 379.55,-599 -57.27,-193.7 -277.3,28.1 -370.13,451.1 17.25,-242.2 39.13,-426.1 48.81,-484.2 3.19,-19.1 6.76,-43.7 10.57,-72.7 v 0 c 1.4,-10.6 2.83,-21.8 4.29,-33.6 0,0 545.25,-734.7 389.12,-903.8 -110.71,-120 -276.4,370.9 -363.48,666.7 30.15,-314.1 56.61,-723.8 31.33,-850.1 l -1.97,0.4 c 19.28,-283.3 32.5,-798.2 -123.58,-824.3 -215.83,-35.9 0,539.6 0,539.6 0,0 -263.39,-105.1 -287.78,0 -40.82,176 328.13,423.8 387.64,462.5 -0.69,156.4 -14.93,378.1 -32.68,579.5 -19.85,-431.7 -127.72,-560.1 -169.74,-574.3 -52.04,-17.6 -159.19,88 -122.45,421.7 28.54,259.2 187.31,426.9 256.75,488.8 -4.76,36.8 -9.32,68.6 -13.51,93.7 -9.28,55.7 -29.69,226.5 -46.51,453.6 -42.19,-355 -142.02,-645.4 -232.03,-465.5 -87.74,175.3 141.38,510.8 221.78,619.8 -9.3,158.3 -15.85,334.3 -15.88,513 -66.95,-175.4 -360.52,-505.4 -397.16,-316.6 -36.02,185.7 328.39,378.9 397.81,413.9 2.1,152.9 9.48,305.8 24.46,449.3 -81.48,-144.6 -330.06,-441 -359.56,-281 -33.67,182.6 383.05,463 383.05,463 l 0.61,-0.7 c 22.44,135.9 53.8,257.8 96.65,355.7 27.71,63.4 60.71,124.2 97.47,182.2 -154.05,-104.5 -389.74,-197.4 -380.26,-88.4 10.29,118.4 372.83,214.1 488.44,241.6 3.94,5.7 6.59,8.1 8.26,8 41.42,51 85.05,99.1 129.49,144.3 h 50.53 c -50.98,-50.3 -101.19,-104.4 -148.5,-162.3"
         style="fill:#327f6b;fill-opacity:1;fill-rule:nonzero;stroke:none"
         id="path52" />
      <path
         d="m 2921.12,17646.1 c -115.01,-64.8 -72.92,258.8 -34.68,470.4 h 112.38 c 20.75,-176.9 25.71,-412.1 -77.7,-470.4"
         style="fill:#327f6b;fill-opacity:1;fill-rule:nonzero;stroke:none"
         id="path54" />
      <path
         d="m 2770.71,17664.3 c -152.79,21.4 -15.46,252.1 199.89,452.2 h 225.55 c -113.72,-208.3 -286.64,-471.7 -425.44,-452.2"
         style="fill:#327f6b;fill-opacity:1;fill-rule:nonzero;stroke:none"
         id="path56" />
      <path
         d="m 3381.58,18116.5 h 231.19 c 118.57,-147.8 208.13,-329.9 127.54,-493.2 -113.77,-230.5 -267.16,183.4 -358.73,493.2"
         style="fill:#327f6b;fill-opacity:1;fill-rule:nonzero;stroke:none"
         id="path58" />
      <path
         d="m 3240.17,18116.5 h 38.3 c -9.83,-68.4 -20.48,-144.3 -31.62,-226.5 92.55,-182.6 565.15,-1146 339.94,-1352.7 -249.05,-228.6 -337.75,941.6 -337.75,941.6 l -13.12,329.6 c -37.71,-284.3 -79.37,-630.9 -112.19,-988.7 85.68,-70.5 439.92,-381.5 292.48,-586.1 -137.15,-190.4 -258.34,335.9 -297.45,531.1 -21.04,-236.7 -37.94,-477.2 -47.04,-706.7 90.53,-42 472.22,-231.8 367.51,-397.6 -101.41,-160.5 -312.06,195.7 -370.85,302.1 -4.26,-140.7 -5.28,-276.3 -2.21,-403.3 98.84,-46.5 541.2,-262.9 431.92,-366.2 -122.82,-116 -375.28,194.6 -375.28,194.6 0,0 197.87,-795 -17.26,-709.7 -215.13,85.3 -71.44,757.4 -78.26,774.4 l 3.68,21.7 c -4.19,104.4 -5.31,215.5 -3.87,331.2 -39.93,-102.3 -117.09,-272.8 -163.57,-199.4 -54.68,86.4 112.27,262.6 165.82,315.6 4.08,157.6 12.34,322.1 23.55,488.3 -77.69,-196.2 -240.01,-479.6 -322.42,-346.7 -92.43,149.1 254.99,534.7 344.01,629.5 20.71,244.3 46.16,486.1 72.42,709.8 -109.24,-285.9 -465.18,-890.7 -580.19,-684.3 -119.75,215 497.26,888.3 621.84,1020.8 18.33,141.1 35.99,268.7 51.61,377.6"
         style="fill:#3c8f7c;fill-opacity:1;fill-rule:nonzero;stroke:none"
         id="path60" />
      <path
         d="m 4486.98,17905.7 c -93.29,-248.9 -277.65,-668.6 -458.63,-663.7 -244.09,6.6 104.33,551.1 463.72,804.9 0.67,17.6 1.33,34 1.95,49.4 58.57,-11.3 116.8,-23.4 173.05,-42.2 204.82,-142.6 551.81,-440.9 445.26,-736.2 -125.56,-348 -457.29,480.1 -556.57,743.6 -4.84,-123.3 -11.08,-304.8 -15.93,-523.9 146.4,-224.5 757.05,-1195.3 537.75,-1447.3 -248.48,-285.5 -493.78,1005.4 -493.78,1005.4 l -46.71,305 c -5.56,-311 -7.66,-681.1 0.3,-1060.9 119.7,-79.4 522.61,-370.1 388.43,-608.7 -122.32,-217.5 -309.66,286.4 -386.37,519.3 6.44,-256.1 17.66,-514.9 35.65,-761.4 122.23,-41.8 540.95,-201.3 448.13,-392.8 -88.58,-182.8 -347.19,146.8 -438.77,273.3 12.77,-152.6 28.37,-299.3 47.29,-436.4 134.04,-46.2 621.1,-224.7 515.53,-349.6 -122.12,-144.4 -441.93,169.5 -441.93,169.5 0,0 319.77,-859.8 69.7,-791.8 -220.37,59.8 -187.76,661.6 -183.57,816.1 -20.57,124.7 -37.94,259.4 -52.51,400.8 -33.59,-119.3 -93.06,-285 -149.46,-214.7 -67.9,84.5 75.36,283.5 135.65,360.1 -14.85,169.6 -26.14,346.9 -34.53,526.6 -66,-225.9 -202.97,-526.1 -306.45,-394.7 -117.31,148.9 193.85,594.5 293.99,730.1 -7.49,265.1 -9.71,528.5 -8.87,773.9 -98.76,-345.2 -401.26,-1003 -549.39,-795.7 -155.95,218.2 410.89,1007.6 553.48,1199.6 3.51,211.1 8.69,396.8 13.59,542.4"
         style="fill:#3c8f7c;fill-opacity:1;fill-rule:nonzero;stroke:none"
         id="path62" />
      <path
         d="m 4235.11,17494.8 c -131,-153.3 -266.3,349.6 -326.18,612.8 -2.02,-180.5 -4.24,-422.2 -5.61,-702.1 80.84,-83 331.24,-359.1 296.32,-563.6 -33.89,-198.5 -227.03,215.1 -297.1,374.3 -0.47,-146.2 -0.68,-300.5 -0.51,-460.1 101.23,-88 345.78,-326.5 229.08,-488.5 -94.47,-131.1 -180.24,128.7 -228.76,326.8 0.51,-181.7 1.55,-369 3.31,-557.8 122.36,-97.9 462.56,-400.8 338.38,-652.4 -110.2,-223.3 -263.13,248.3 -336.99,516.3 2.25,-201.3 5.35,-403.3 9.52,-601.5 67.13,-112.3 311.77,-542.5 177.86,-635.2 -72.4,-50.1 -129.1,55.3 -166.4,192.1 5.76,-184.8 12.7,-362.5 21,-528.8 89.26,-59.2 457.91,-316 415.05,-500.8 -26.77,-115.4 -315.84,0 -315.84,0 0,0 236.88,-631.7 0,-592.2 -167.95,28 -157.28,571.9 -136.85,886.1 -3.51,57.8 -6.83,117.4 -9.95,178.5 -35.01,-131.6 -94.42,-226.8 -161.64,-146.3 -118.21,141.5 100.69,477.4 144.67,541.8 -6.21,172.9 -11.29,353.4 -15.41,537.8 -90.88,-177 -436.59,-599.5 -476.23,-384.5 -38.11,206.6 369.84,510.1 472.18,582.5 -3.41,183.5 -5.96,369.4 -7.82,554.1 -65.61,-139.8 -289.6,-587.7 -456.71,-564.3 -193.84,27.1 149.01,441.4 456.4,596.1 -1.74,181.1 -2.82,360.8 -3.39,535.8 -0.64,-4.6 -1.24,-9.1 -2,-14 -18.43,-118.7 -224.96,-566.9 -316.97,-418.5 -92.01,148.4 316.97,566.2 316.97,566.2 0,0 0.69,-1.1 1.67,-3.7 -0.32,169 -0.2,332.7 0.24,487.8 -65.06,-164.4 -292.49,-529.2 -365.32,-406.9 -69.16,116.2 254.72,461.3 365.91,574.3 0.97,224.4 2.51,426.5 4.11,595.1 -77.17,-169 -311.16,-634.3 -382.68,-465.7 -76.22,179.7 297.47,525.2 384.06,602 0.18,16.5 0.36,32.6 0.53,48.2 h 185.73 c 137.59,-203.2 297.91,-494.6 189.37,-621.7"
         style="fill:#327f6b;fill-opacity:1;fill-rule:nonzero;stroke:none"
         id="path64" />
      <path
         d="m 25595,17954.2 c 8.8,-12.2 22,-29.2 41.3,-52.6 l 0.8,-1 c -0.8,-2.8 -245.3,-888.3 -52.7,-955.6 176.6,-61.7 191.5,587.6 119.9,859.8 39.1,-60.5 74.1,-124 103.2,-190.4 49.6,-113.5 83.6,-259.8 106,-423 -35.9,-58.8 -255.3,-428.3 -145.4,-504.3 89.1,-61.7 147.4,181.2 163.5,341.7 12.9,-145.1 18.5,-298.4 19.1,-450.6 -118.7,-29.1 -477,-132 -483.7,-315.9 -7.6,-205.5 300.4,-144.9 483.6,236.2 -1,-151.3 -6.5,-299.9 -14.2,-436.2 -85.3,-77 -436.1,-407.9 -379.6,-599 57.3,-193.7 277.3,28.1 370.2,451.1 -17.3,-242.2 -39.2,-426.1 -48.8,-484.2 -3.2,-19.1 -6.8,-43.7 -10.6,-72.7 v 0 c -1.4,-10.6 -2.9,-21.8 -4.3,-33.6 0,0 -545.3,-734.7 -389.1,-903.8 110.7,-120 276.4,370.9 363.5,666.7 -30.2,-314.1 -56.7,-723.8 -31.4,-850.1 l 2,0.4 c -19.3,-283.3 -32.5,-798.2 123.6,-824.3 215.8,-35.9 0,539.6 0,539.6 0,0 263.4,-105.1 287.7,0 40.9,176 -328.1,423.8 -387.6,462.5 0.7,156.4 14.9,378.1 32.7,579.5 19.8,-431.7 127.7,-560.1 169.7,-574.3 52.1,-17.6 159.2,88 122.5,421.7 -28.6,259.2 -187.3,426.9 -256.8,488.8 4.8,36.8 9.3,68.6 13.5,93.7 9.3,55.7 29.7,226.5 46.6,453.6 42.1,-355 142,-645.4 232,-465.5 87.7,175.3 -141.4,510.8 -221.8,619.8 9.3,158.3 15.9,334.3 15.9,513 66.9,-175.4 360.5,-505.4 397.1,-316.6 36.1,185.7 -328.4,378.9 -397.8,413.9 -2.1,152.9 -9.5,305.8 -24.4,449.3 81.4,-144.6 330,-441 359.5,-281 33.7,182.6 -383,463 -383,463 l -0.6,-0.7 c -22.5,135.9 -53.8,257.8 -96.7,355.7 -27.7,63.4 -60.7,124.2 -97.5,182.2 154.1,-104.5 389.8,-197.4 380.3,-88.4 -10.3,118.4 -372.8,214.1 -488.4,241.6 -4,5.7 -6.6,8.1 -8.3,8 -41.4,51 -85,99.1 -129.5,144.3 h -50.5 c 51,-50.3 101.2,-104.4 148.5,-162.3"
         style="fill:#327f6b;fill-opacity:1;fill-rule:nonzero;stroke:none"
         id="path66" />
      <path
         d="m 25281.3,17646.1 c 115,-64.8 72.9,258.8 34.7,470.4 h -112.4 c -20.8,-176.9 -25.7,-412.1 77.7,-470.4"
         style="fill:#327f6b;fill-opacity:1;fill-rule:nonzero;stroke:none"
         id="path68" />
      <path
         d="m 25431.7,17664.3 c 152.8,21.4 15.5,252.1 -199.9,452.2 h -225.5 c 113.7,-208.3 286.6,-471.7 425.4,-452.2"
         style="fill:#327f6b;fill-opacity:1;fill-rule:nonzero;stroke:none"
         id="path70" />
      <path
         d="m 24820.8,18116.5 h -231.2 c -118.5,-147.8 -208.1,-329.9 -127.5,-493.2 113.8,-230.5 267.2,183.4 358.7,493.2"
         style="fill:#327f6b;fill-opacity:1;fill-rule:nonzero;stroke:none"
         id="path72" />
      <path
         d="m 24962.2,18116.5 h -38.3 c 9.9,-68.4 20.5,-144.3 31.7,-226.5 -92.6,-182.6 -565.2,-1146 -340,-1352.7 249.1,-228.6 337.8,941.6 337.8,941.6 l 13.1,329.6 c 37.7,-284.3 79.4,-630.9 112.2,-988.7 -85.7,-70.5 -439.9,-381.5 -292.5,-586.1 137.1,-190.4 258.3,335.9 297.5,531.1 21,-236.7 37.9,-477.2 47,-706.7 -90.5,-42 -472.2,-231.8 -367.5,-397.6 101.4,-160.5 312,195.7 370.8,302.1 4.3,-140.7 5.3,-276.3 2.2,-403.3 -98.8,-46.5 -541.2,-262.9 -431.9,-366.2 122.8,-116 375.3,194.6 375.3,194.6 0,0 -197.9,-795 17.3,-709.7 215.1,85.3 71.4,757.4 78.2,774.4 l -3.7,21.7 c 4.2,104.4 5.4,215.5 3.9,331.2 39.9,-102.3 117.1,-272.8 163.6,-199.4 54.7,86.4 -112.3,262.6 -165.8,315.6 -4.1,157.6 -12.4,322.1 -23.6,488.3 77.7,-196.2 240,-479.6 322.4,-346.7 92.5,149.1 -254.9,534.7 -344,629.5 -20.7,244.3 -46.1,486.1 -72.4,709.8 109.2,-285.9 465.2,-890.7 580.2,-684.3 119.7,215 -497.3,888.3 -621.9,1020.8 -18.3,141.1 -35.9,268.7 -51.6,377.6"
         style="fill:#3c8f7c;fill-opacity:1;fill-rule:nonzero;stroke:none"
         id="path74" />
      <path
         d="m 23715.4,17905.7 c 93.3,-248.9 277.7,-668.6 458.7,-663.7 244.1,6.6 -104.4,551.1 -463.7,804.9 -0.7,17.6 -1.4,34 -2,49.4 -58.6,-11.3 -116.8,-23.4 -173,-42.2 -204.9,-142.6 -551.9,-440.9 -445.3,-736.2 125.5,-348 457.3,480.1 556.6,743.6 4.8,-123.3 11,-304.8 15.9,-523.9 -146.4,-224.5 -757.1,-1195.3 -537.8,-1447.3 248.5,-285.5 493.8,1005.4 493.8,1005.4 l 46.7,305 c 5.6,-311 7.7,-681.1 -0.3,-1060.9 -119.7,-79.4 -522.6,-370.1 -388.4,-608.7 122.3,-217.5 309.7,286.4 386.4,519.3 -6.5,-256.1 -17.7,-514.9 -35.7,-761.4 -122.2,-41.8 -540.9,-201.3 -448.1,-392.8 88.6,-182.8 347.2,146.8 438.8,273.3 -12.8,-152.6 -28.4,-299.3 -47.3,-436.4 -134.1,-46.2 -621.1,-224.7 -515.6,-349.6 122.2,-144.4 442,169.5 442,169.5 0,0 -319.8,-859.8 -69.7,-791.8 220.3,59.8 187.7,661.6 183.5,816.1 20.6,124.7 38,259.4 52.5,400.8 33.6,-119.3 93.1,-285 149.5,-214.7 67.9,84.5 -75.4,283.5 -135.6,360.1 14.8,169.6 26.1,346.9 34.5,526.6 66,-225.9 203,-526.1 306.4,-394.7 117.3,148.9 -193.8,594.5 -294,730.1 7.5,265.1 9.8,528.5 8.9,773.9 98.8,-345.2 401.3,-1003 549.4,-795.7 156,218.2 -410.9,1007.6 -553.5,1199.6 -3.5,211.1 -8.7,396.8 -13.6,542.4"
         style="fill:#3c8f7c;fill-opacity:1;fill-rule:nonzero;stroke:none"
         id="path76" />
      <path
         d="m 23967.3,17494.8 c 131,-153.3 266.3,349.6 326.2,612.8 2,-180.5 4.2,-422.2 5.6,-702.1 -80.8,-83 -331.2,-359.1 -296.3,-563.6 33.9,-198.5 227,215.1 297.1,374.3 0.5,-146.2 0.7,-300.5 0.5,-460.1 -101.2,-88 -345.8,-326.5 -229.1,-488.5 94.5,-131.1 180.2,128.7 228.8,326.8 -0.5,-181.7 -1.6,-369 -3.3,-557.8 -122.4,-97.9 -462.6,-400.8 -338.4,-652.4 110.2,-223.3 263.1,248.3 337,516.3 -2.3,-201.3 -5.4,-403.3 -9.6,-601.5 -67.1,-112.3 -311.7,-542.5 -177.8,-635.2 72.4,-50.1 129.1,55.3 166.4,192.1 -5.8,-184.8 -12.7,-362.5 -21,-528.8 -89.3,-59.2 -457.9,-316 -415.1,-500.8 26.8,-115.4 315.9,0 315.9,0 0,0 -236.9,-631.7 0,-592.2 167.9,28 157.3,571.9 136.8,886.1 3.5,57.8 6.9,117.4 10,178.5 35,-131.6 94.4,-226.8 161.6,-146.3 118.2,141.5 -100.7,477.4 -144.7,541.8 6.3,172.9 11.3,353.4 15.5,537.8 90.8,-177 436.6,-599.5 476.2,-384.5 38.1,206.6 -369.9,510.1 -472.2,582.5 3.4,183.5 6,369.4 7.8,554.1 65.6,-139.8 289.6,-587.7 456.7,-564.3 193.9,27.1 -149,441.4 -456.4,596.1 1.8,181.1 2.9,360.8 3.4,535.8 0.7,-4.6 1.3,-9.1 2,-14 18.5,-118.7 225,-566.9 317,-418.5 92,148.4 -317,566.2 -317,566.2 0,0 -0.7,-1.1 -1.6,-3.7 0.3,169 0.2,332.7 -0.3,487.8 65.1,-164.4 292.5,-529.2 365.3,-406.9 69.2,116.2 -254.7,461.3 -365.9,574.3 -0.9,224.4 -2.5,426.5 -4.1,595.1 77.2,-169 311.2,-634.3 382.7,-465.7 76.2,179.7 -297.5,525.2 -384.1,602 -0.1,16.5 -0.3,32.6 -0.5,48.2 h -185.7 c -137.6,-203.2 -297.9,-494.6 -189.4,-621.7"
         style="fill:#327f6b;fill-opacity:1;fill-rule:nonzero;stroke:none"
         id="path78" />
      <path
         d="m 7466.89,14514.3 h -37.4 v 3536.5 c -375.99,-262.7 -795.87,-426.8 -1248.6,-487.7 -371.42,-49.9 -765.53,-31 -1171.41,56.4 -596.33,128.4 -1044.92,369.5 -1159.41,434.9 v -1445.7 h -37.4 v 1511.7 l 28.5,-17.5 c 4.85,-3 492.76,-299.9 1177.35,-447.1 630.47,-135.5 1561.87,-168.1 2418.77,446.4 l 29.6,21.2 v -3609.1"
         style="fill:#13375b;fill-opacity:1;fill-rule:nonzero;stroke:none"
         id="path80" />
      <path
         d="m 11277.4,16234.7 h -37.4 v 1792.9 l 26.7,-12.8 c 5.9,-2.8 597.5,-283 1475.1,-422 809.3,-128.1 2034.3,-158.9 3274.8,422.1 l 26.7,12.5 v -1162.8 h -37.4 v 1104 c -544.3,-251.2 -1130,-407.8 -1741.2,-465.6 -496.8,-46.9 -1011.6,-29.1 -1530,53.1 -777.3,123.2 -1332,356.8 -1457.3,412.8 v -1734.2"
         style="fill:#13375b;fill-opacity:1;fill-rule:nonzero;stroke:none"
         id="path82" />
      <path
         d="M 17367.6,17997.9 H 2117.48 V 18176 H 17367.6 v -178.1"
         style="fill:#13375b;fill-opacity:1;fill-rule:nonzero;stroke:none"
         id="path84" />
      <path
         d="m 3831.38,16864.6 h -0.01 c -188.91,0 -342.06,-153.1 -342.06,-342 v -729.7 h 684.13 v 729.7 c 0,188.9 -153.15,342 -342.06,342"
         style="fill:#f7cc7f;fill-opacity:1;fill-rule:nonzero;stroke:none"
         id="path86" />
      <path
         d="m 7448.19,14647.7 v 0 c -188.92,0 -342.07,-153.1 -342.07,-342 V 13576 h 684.13 v 729.7 c 0,188.9 -153.15,342 -342.06,342"
         style="fill:#f47458;fill-opacity:1;fill-rule:nonzero;stroke:none"
         id="path88" />
      <path
         d="m 11272.6,16328.8 v 0 c -189,0 -342.1,-153.2 -342.1,-342.1 V 15257 h 684.1 v 729.7 c 0,188.9 -153.1,342.1 -342,342.1"
         style="fill:#f7cc7f;fill-opacity:1;fill-rule:nonzero;stroke:none"
         id="path90" />
      <path
         d="m 16024.6,17087.3 v 0 c -188.9,0 -342.1,-153.2 -342.1,-342.1 v -729.7 h 684.1 v 729.7 c 0,188.9 -153.1,342.1 -342,342.1"
         style="fill:#f47458;fill-opacity:1;fill-rule:nonzero;stroke:none"
         id="path92" />
      <path
         d="m 19759.4,14514.3 h 37.4 v 3536.5 c 376,-262.7 795.9,-426.8 1248.6,-487.7 371.4,-49.9 765.5,-31 1171.4,56.4 596.3,128.4 1044.9,369.5 1159.4,434.9 v -1445.7 h 37.4 v 1511.7 l -28.5,-17.5 c -4.8,-3 -492.7,-299.9 -1177.3,-447.1 -630.5,-135.5 -1561.9,-168.1 -2418.8,446.4 l -29.6,21.2 v -3609.1"
         style="fill:#13375b;fill-opacity:1;fill-rule:nonzero;stroke:none"
         id="path94" />
      <path
         d="M 26000.9,17997.9 H 15655 v 178.1 h 10345.9 v -178.1"
         style="fill:#13375b;fill-opacity:1;fill-rule:nonzero;stroke:none"
         id="path96" />
      <path
         d="m 23394.9,16864.6 v 0 c 188.9,0 342.1,-153.1 342.1,-342 v -729.7 h -684.1 v 729.7 c 0,188.9 153.1,342 342,342"
         style="fill:#f47458;fill-opacity:1;fill-rule:nonzero;stroke:none"
         id="path98" />
      <path
         d="m 19778.1,14647.7 v 0 c 188.9,0 342.1,-153.1 342.1,-342 V 13576 H 19436 v 729.7 c 0,188.9 153.2,342 342.1,342"
         style="fill:#f7cc7f;fill-opacity:1;fill-rule:nonzero;stroke:none"
         id="path100" />
      <path
         d="m 3229.33,4124.7 c 0,0 3616.49,157.8 4011.02,144.7 394.53,-13.2 3800.65,-78.2 4247.75,-72 l -368.2,-1019.6 c 0,0 -2261.99,78.9 -2945.84,0 -683.85,-78.9 -1117.82,-92 -1880.57,0 -762.76,92.1 -2064.7,0 -2603.88,13.2 -539.19,13.1 -1117.83,13.1 -1117.83,13.1 l 657.55,920.6"
         style="fill:#f7cc7f;fill-opacity:1;fill-rule:nonzero;stroke:none"
         id="path102" />
      <path
         d="m 10288.2,6394.7 c 0,0 3374.5,157.8 3742.6,144.6 368.1,-13.1 3546.3,-78.1 3963.5,-71.9 l -343.6,-1019.6 c 0,0 -2110.6,78.9 -2748.7,0 -638.1,-78.9 -1043,-92.1 -1754.7,0 -711.7,92.1 -1926.6,0 -2429.7,13.1 -503.1,13.2 -1042.99,13.2 -1042.99,13.2 l 613.59,920.6"
         style="fill:#f47458;fill-opacity:1;fill-rule:nonzero;stroke:none"
         id="path104" />
      <path
         d="m 16182.8,4349.3 c 0,0 3616.5,157.9 4011,144.7 394.5,-13.1 3800.6,-78.1 4247.7,-71.9 l -368.2,-1019.6 c 0,0 -2262,78.9 -2945.8,0 -683.8,-78.9 -1117.8,-92.1 -1880.6,0 -762.7,92 -2064.7,0 -2603.9,13.1 -539.1,13.2 -1117.8,13.2 -1117.8,13.2 l 657.6,920.5"
         style="fill:#466eb6;fill-opacity:1;fill-rule:nonzero;stroke:none"
         id="path106" />
      <path
         d="m 9525.77,1969.2 c 0,0 3616.53,157.9 4011.03,144.7 394.5,-13.1 3800.6,-78.1 4247.7,-71.9 l -368.2,-1019.6 c 0,0 -2261.9,78.9 -2945.8,0 -683.8,-78.9 -1117.8,-92.099 -1880.6,0 -762.7,92 -2064.7,0 -2603.85,13.1 -539.18,13.2 -1117.83,13.2 -1117.83,13.2 l 657.55,920.5"
         style="fill:#96d9c9;fill-opacity:1;fill-rule:nonzero;stroke:none"
         id="path108" />
      <path
         d="m 2598.65,7122.5 h -39.51 c -13.02,133 -38.61,280 -84.16,433.7 -172.27,581.4 -96.9,656.6 -387.6,1020.1 -290.7,363.4 -312.23,1117.1 -312.23,1117.1 0,0 -139.97,855.9 0,1232.8 139.96,376.8 150.73,753.6 489.88,1152 0,0 64.59,-533 145.35,-775.2 80.74,-242.3 157.42,-473.7 97.55,-1055.1 -59.87,-581.4 -97.06,-629.9 -110.77,-780.6 -13.7,-150.8 7.84,-786.1 -24.46,-891 -32.31,-104.9 188.41,-831.7 204.56,-1143.9 4.85,-93.8 13.58,-200.8 21.39,-309.9"
         style="fill:#215e4b;fill-opacity:1;fill-rule:nonzero;stroke:none"
         id="path110" />
      <path
         d="m 2399.46,7364.1 c -46.7,81.8 -121.64,159.9 -242.05,198.5 -314.95,100.9 -517.14,75.7 -691.96,381.9 -174.81,306.3 -223.24,745.9 -281.52,831.7 0,0 126.29,35.6 280.34,-180.7 154.06,-216.3 260.22,-378.3 349.28,-504.1 89.07,-125.8 192.15,-76.5 294.5,-168.3 85.78,-76.9 178.18,-267.8 216.08,-365.6 12.31,-31.7 28.43,-61.9 48.38,-89.5 18.14,-25.1 39.6,-55.8 52.88,-77.8 2.95,-4.9 6.19,-12.6 9.61,-22.2 l -35.54,-3.9"
         style="fill:#3c8f7c;fill-opacity:1;fill-rule:nonzero;stroke:none"
         id="path112" />
      <path
         d="m 3750.82,9418.8 c 32.3,-414.5 -231.49,-382.2 -242.26,-646 -10.76,-263.7 -355.29,-710.6 -514.9,-1028.2 -83.02,-165.2 -113.67,-417.7 -123.99,-622.1 h -128.24 c 49.61,517.3 259.47,877.3 384.92,1165.8 161.5,371.5 185.73,541.1 48.45,831.8 -137.27,290.7 64.6,1041.6 -130.82,1376.4 -195.43,334.8 -95.27,860.3 -50.32,1062.2 44.94,201.9 -4.58,339.1 -44.95,552 -40.38,212.8 44.95,522 44.95,522 7.27,-263.8 208.06,-624.5 353.41,-856 145.35,-231.5 419.89,-861.3 387.6,-1146.6 -32.3,-285.3 -16.15,-306.9 -16.15,-306.9 102.28,-382.2 0,-489.9 32.3,-904.4"
         style="fill:#215e4b;fill-opacity:1;fill-rule:nonzero;stroke:none"
         id="path114" />
      <path
         d="m 2981.36,7459.3 c -16.5,-49.4 -69.37,-175.8 -117.76,-336.8 h -78.64 c 35.78,205 97.54,442.8 201.78,579.1 209.95,274.5 629.85,393 678.29,592.1 48.46,199.2 -5.38,796.8 301.47,1130.5 0,0 -43.07,-371.5 0,-471.1 43.07,-99.5 409.13,-562.5 193.8,-950.1 -215.33,-387.6 -699.83,-339.1 -850.56,-425.2 -150.74,-86.2 -301.47,-37.7 -328.38,-118.5"
         style="fill:#3c8f7c;fill-opacity:1;fill-rule:nonzero;stroke:none"
         id="path116" />
      <path
         d="m 3175.16,9246.9 c 5.38,-398.3 -306.85,-549.1 -301.47,-769.8 5.39,-220.7 -64.6,-457.6 -123.81,-635.2 -37.49,-112.5 -16.74,-425.6 -10.1,-719.4 h -86.65 c -21.81,215.9 -45.73,527.5 -37.84,665.5 10.77,188.5 -75.36,339.2 -86.13,667.6 -10.77,328.4 -80.75,624.4 64.6,1039 145.35,414.5 118.43,909.7 726.74,1367.3 0,0 107.67,-484.5 26.92,-748.3 -80.75,-263.7 -177.65,-468.3 -172.26,-866.7"
         style="fill:#3c8f7c;fill-opacity:1;fill-rule:nonzero;stroke:none"
         id="path118" />
      <path
         d="m 3175.16,9246.9 c 5.38,-398.3 -306.85,-549.1 -301.47,-769.8 5.39,-220.7 -64.6,-457.6 -123.81,-635.2 -37.49,-112.5 -16.74,-425.6 -10.1,-719.4 h -35.96 c -4.86,61.4 -9.57,99.9 -9.57,99.9 l -17.95,742.9 c 0,0 35.89,581.4 100.49,1055.2 64.6,473.7 543.71,1841.4 543.71,1841.4 0,0 107.67,-484.5 26.92,-748.3 -80.75,-263.7 -177.65,-468.3 -172.26,-866.7"
         style="fill:#327f6b;fill-opacity:1;fill-rule:nonzero;stroke:none"
         id="path120" />
      <path
         d="m 2702.18,7508.8 h 833.8 c 57.01,0 99.07,-53.3 85.89,-108.9 L 3317.92,6118.2 c -9.45,-39.9 -45,-68 -85.88,-68 h -471.75 -58.11 -471.74 c -40.89,0 -76.44,28.1 -85.89,68 l -303.94,1281.7 c -13.19,55.6 28.88,108.9 85.88,108.9 h 775.69"
         style="fill:#f47458;fill-opacity:1;fill-rule:nonzero;stroke:none"
         id="path122" />
      <path
         d="m 25177.5,8349.3 c -12,106.1 -26.3,214.6 -75.5,309.3 -59.9,115.1 -165.1,198.2 -257,289.7 -171.7,171 -303.8,381.6 -383.2,610.8 -61.3,177.2 -91.9,366 -176.4,533.3 -51.6,102.2 -122,193.6 -180.6,291.9 -138.5,232.4 -213.9,507 -401.8,701.5 -36.2,-235.8 35.3,-486.1 190.4,-667 46.3,-54 100,-102.6 135.2,-164.4 64,-112.1 58.2,-248.9 65.7,-377.9 14.1,-242.3 82.4,-481.3 198.4,-694.4 123.3,-226.4 301.2,-427.9 367.1,-677.2 49.4,-186.8 34.7,-396.3 140,-558.2 11.4,-17.5 24.5,-35.2 27.3,-55.9 1.5,-11.7 -0.3,-23.5 -2.1,-35.1 -2.4,-15 -4.7,-30.1 -7.1,-45.1 -23.9,-152.9 -48.7,-347.4 82.7,-461.9 91,-79.2 208.2,-81 273.6,24.3 65.8,106.1 60,261.3 55.1,380.7 -8.1,198.7 -29.4,398 -51.8,595.6"
         style="fill:#3c8f7c;fill-opacity:1;fill-rule:nonzero;stroke:none"
         id="path124" />
      <path
         d="m 25414.1,8472.3 c -51.1,177 -130.4,345.5 -170.2,525.4 -38.5,174.5 -38.8,354.8 -38.9,533.5 -0.2,195.9 -0.3,391.7 -0.5,587.5 0,121.9 -0.2,244.5 -20.3,364.7 -43.4,258.7 -177.8,497.9 -200.6,759.2 -9.8,113 1.6,227.2 -10.8,339.9 -7.1,64.4 -23.6,130.2 -53.5,187.3 -32,61.5 -120.6,58.7 -149.7,-4.2 -65.3,-141.5 -106.7,-294.4 -80.3,-446 15.8,-90.9 55.2,-175.8 84.6,-263.2 131,-389.6 61.5,-820.8 162.8,-1219.1 30.6,-120.2 76.8,-238.1 82.2,-362.1 12.9,-296.7 -208.7,-567.7 -188.4,-864 16.7,-242.9 191.3,-443.9 264.6,-676 41,-130 49.8,-268.7 93.8,-397.6 34.1,-100.3 113.6,-222 236.9,-191.5 117.2,28.8 81.8,124.4 76.5,215.8 -17.7,308.9 -1,608.6 -88.2,910.4"
         style="fill:#215e4b;fill-opacity:1;fill-rule:nonzero;stroke:none"
         id="path126" />
      <path
         d="m 25682.2,8310.1 c -5.1,92 57.2,138.3 70.1,229.5 10.8,77 23.1,198.8 45,273.5 41,139.8 -8.3,283.5 1.7,428.9 18,264.3 36.1,528.7 54.1,793 28.1,410.9 56.3,822.9 133.2,1227.5 21.3,112.4 45.2,234.1 -5.2,336.6 -10.7,21.7 -31.6,44.6 -54.6,37.4 -16.3,-5.1 -24.4,-23.1 -30.3,-39.2 -167.9,-456.4 -231.4,-947.8 -418.9,-1396.5 -44.9,-107.5 -97.1,-213.2 -120.3,-327.4 -27.9,-137.1 -12.6,-278.7 -9,-418.6 5.2,-200.6 -14.4,-402.7 -69.8,-595.6 -29,-100.9 -67.8,-199.5 -83.6,-303.3 -19.8,-129.4 -3.2,-261.2 9.2,-391.5 23.8,-250.6 31.9,-502.6 24.1,-754.2 -4.5,-147.9 120.3,-144 203,-53.1 57.9,63.5 57.3,133.3 77.1,212.4 65.1,259.6 190,459.1 174.2,740.6"
         style="fill:#3c8f7c;fill-opacity:1;fill-rule:nonzero;stroke:none"
         id="path128" />
      <path
         d="m 24902.2,7909.1 c -110.4,177.4 -330.3,278.2 -400.9,474.9 -17.9,50.1 -24.9,103.9 -46.9,152.4 -48.7,107.6 -159.4,168.4 -268.3,217.9 -15.2,6.9 -32.3,-4.1 -32.6,-20.7 -0.3,-26.5 12.2,-51.7 34.1,-66.5 83.9,-56.5 147.7,-142.8 176,-240.1 33.7,-115.3 19.1,-241.6 60.9,-354.2 35.1,-94.5 107.3,-171.8 141.3,-266.7 31,-86.8 27.8,-181.6 42.3,-272.6 14.6,-91.1 55.1,-187.7 138.6,-226.2 302.4,-139.3 226.8,487.2 155.5,601.8"
         style="fill:#215e4b;fill-opacity:1;fill-rule:nonzero;stroke:none"
         id="path130" />
      <path
         d="m 26160,7967.6 c -4.7,-85.7 8.4,-175.6 -25.2,-254.7 -21.5,-50.5 -60.1,-91.4 -91.8,-136.3 -111.3,-157.4 -151.7,-380.5 -322.7,-469.1 -11.3,-5.9 -23.9,-11.1 -36.4,-8.8 -17.5,3.3 -29,20.2 -36,36.6 -42,97.7 5.1,207.7 32.9,310.4 4.9,17.9 9,37.9 0.5,54.4 -9.5,18.2 -30.9,26.1 -45.6,40.3 -29.2,28.5 -26.5,75.5 -20.7,115.9 14.6,100.9 34.9,201 61.1,299.5 14.8,55.9 31.9,112.3 64.1,160.3 35.4,52.8 86.9,92.2 135.1,133.7 213,183.2 376.1,424 467.4,690 19.8,57.6 37.4,118.4 78.3,163.5 40.8,45 113.6,68.3 163.3,33.3 35.4,-24.9 -109.5,-258.1 -126.4,-286 -48.3,-79.9 -49,-149.4 -76.2,-238.1 -66.9,-217.4 -208.9,-412 -221.7,-644.9"
         style="fill:#3c8f7c;fill-opacity:1;fill-rule:nonzero;stroke:none"
         id="path132" />
      <path
         d="m 25991.4,7868.5 c 31.6,81.8 63.5,164.6 74,251.8 11.6,96.8 -3.8,195.8 12.7,291.9 21.3,123.6 93.3,232.3 129,352.5 25.7,86.8 32.1,178 47.5,267.2 44.3,255.1 164.2,504.4 129.8,761 -7.5,55.8 -32.7,120.9 -88.1,130.4 -50.1,8.6 -95.8,-37.2 -108.8,-86.5 -13.1,-49.3 -3.3,-101.3 0.2,-152.1 10,-141.8 -30.4,-286.7 -112.5,-402.8 -78.7,-111.5 -193.1,-195.4 -264,-312.1 -86.9,-143.1 -98.8,-317.8 -143.1,-479.4 -88.3,-321.3 -309.6,-601.6 -350,-932.3 -16,-131.7 14.8,-291.7 136.3,-344.2 351.3,-152.1 457.4,448.7 537,654.6"
         style="fill:#215e4b;fill-opacity:1;fill-rule:nonzero;stroke:none"
         id="path134" />
      <path
         d="m 25377.2,7460.7 h -806.3 c -55.1,0 -95.8,-51.6 -83,-105.3 L 24781.8,6116 c 9.1,-38.6 43.5,-65.8 83,-65.8 h 456.2 56.2 456.2 c 39.5,0 73.9,27.2 83,65.8 l 294,1239.4 c 12.7,53.7 -28,105.3 -83.1,105.3 h -750.1"
         style="fill:#f7cc7f;fill-opacity:1;fill-rule:nonzero;stroke:none"
         id="path136" />
      <path
         d="m 17824.5,5168.7 c 0,0 -20.6,18 -9.3,18.9 11.2,1 60.9,0.6 60.9,0.6 l 62.8,5 c 0,0 59,-229.5 55.3,-229.5 -3.8,0 -121.9,2.8 -124.7,0 -2.8,-2.9 -45,205 -45,205"
         style="fill:#f7a491;fill-opacity:1;fill-rule:nonzero;stroke:none"
         id="path138" />
      <path
         d="m 17894.2,5088.2 c 0,0 -11.6,86.5 -18.1,100 -6.5,13.4 -149.7,127.4 -169,130.4 -19.2,2.9 -116.6,-24.1 -128.7,-26.2 0,0 -0.2,-34.7 29.8,-41.3 30,-6.6 89,-2.4 89,-2.4 l 44.1,-41.3 c 0,0 -30.4,-43.8 -39.9,-45 -9.6,-1.2 -103.9,-11.1 -113.2,-4.5 -9.3,6.6 -43.2,35.9 -43.2,35.9 l -81.6,-20.1 51.6,-45.4 -196,-25.7 c 0,0 -22.9,-3.1 -27.7,-13.7 -4.8,-10.6 6.4,-25.8 14.9,-29.8 8.4,-4.1 60.7,-7.2 60.7,-7.2 0,0 -24.5,-22.6 -16.2,-39.1 8.3,-16.5 80.2,-14.8 80.2,-14.8 0,0 -24.8,-24.6 -5.8,-39.3 18.9,-14.7 47.3,-12.8 66.4,-12.9 19,-0.2 167.2,-3.1 167.2,-3.1 0,0 134.9,-1.5 210.8,21 33.6,9.9 24.7,124.5 24.7,124.5"
         style="fill:#f7a491;fill-opacity:1;fill-rule:nonzero;stroke:none"
         id="path140" />
      <path
         d="m 17597,5275.7 c 0,0 -34.6,-69.5 -52,-81.9 -17.4,-12.3 -64.2,-35.1 -81.6,-20.1 -17.4,15 94.6,125.4 115,118.7 20.4,-6.6 18.6,-16.7 18.6,-16.7"
         style="fill:#f7a491;fill-opacity:1;fill-rule:nonzero;stroke:none"
         id="path142" />
      <path
         d="m 17366.9,5051.9 191,15.5 -1.4,12.6 z"
         style="fill:#e08685;fill-opacity:1;fill-rule:nonzero;stroke:none"
         id="path144" />
      <path
         d="m 17430.9,4998 153.8,12.9 -1.6,12.5 z"
         style="fill:#e08685;fill-opacity:1;fill-rule:nonzero;stroke:none"
         id="path146" />
      <path
         d="m 22695.4,5168.7 c 0,0 20.6,18 9.3,18.9 -11.2,1 -60.9,0.6 -60.9,0.6 l -62.8,5 c 0,0 -59,-229.5 -55.3,-229.5 3.8,0 121.9,2.8 124.7,0 2.8,-2.9 45,205 45,205"
         style="fill:#f7a491;fill-opacity:1;fill-rule:nonzero;stroke:none"
         id="path148" />
      <path
         d="m 22625.7,5088.2 c 0,0 11.6,86.5 18.1,100 6.5,13.4 149.7,127.4 169,130.4 19.2,2.9 116.6,-24.1 128.7,-26.2 0,0 0.2,-34.7 -29.8,-41.3 -30,-6.6 -89,-2.4 -89,-2.4 l -44.1,-41.3 c 0,0 30.4,-43.8 39.9,-45 9.6,-1.2 103.9,-11.1 113.2,-4.5 9.3,6.6 43.2,35.9 43.2,35.9 l 81.6,-20.1 -51.6,-45.4 196,-25.7 c 0,0 22.9,-3.1 27.7,-13.7 4.8,-10.6 -6.4,-25.8 -14.8,-29.8 -8.5,-4.1 -60.8,-7.2 -60.8,-7.2 0,0 24.5,-22.6 16.2,-39.1 -8.3,-16.5 -80.2,-14.8 -80.2,-14.8 0,0 24.8,-24.6 5.8,-39.3 -18.9,-14.7 -47.3,-12.8 -66.4,-12.9 -19,-0.2 -167.2,-3.1 -167.2,-3.1 0,0 -134.9,-1.5 -210.8,21 -33.6,9.9 -24.7,124.5 -24.7,124.5"
         style="fill:#f7a491;fill-opacity:1;fill-rule:nonzero;stroke:none"
         id="path150" />
      <path
         d="m 22922.9,5275.7 c 0,0 34.6,-69.5 52,-81.9 17.4,-12.3 64.2,-35.1 81.6,-20.1 17.4,15 -94.6,125.4 -115,118.7 -20.4,-6.6 -18.6,-16.7 -18.6,-16.7"
         style="fill:#f7a491;fill-opacity:1;fill-rule:nonzero;stroke:none"
         id="path152" />
      <path
         d="m 23153,5051.9 -191,15.5 1.4,12.6 z"
         style="fill:#e08685;fill-opacity:1;fill-rule:nonzero;stroke:none"
         id="path154" />
      <path
         d="m 23089,4998 -153.8,12.9 1.6,12.5 z"
         style="fill:#e08685;fill-opacity:1;fill-rule:nonzero;stroke:none"
         id="path156" />
      <path
         d="m 19699.8,8144 c 108.4,374.8 489.9,604.7 827.3,372.1 75.9,-52.3 175,-151.3 221.8,-230.7 126.5,-214.8 133.9,-460.7 266.1,-670.5 -63.3,-36.2 -138.9,-73 -227.6,-106.2 l -80.7,143 12.5,-167 c -257.9,-84.7 -613.2,-136 -1081.7,-72.2 -24.4,273.3 4.5,531.6 62.3,731.5"
         style="fill:#f7cc7f;fill-opacity:1;fill-rule:nonzero;stroke:none"
         id="path158" />
      <path
         d="m 22095,5066.3 c 0,0 -1375.7,-135 -1491.9,-191.2 -116.2,-56.2 -423.6,-194.9 -461.1,-588.5 -37.5,-393.6 1050.8,7.5 1112.1,30 61.2,22.5 848.4,446.1 840.9,464.8 -7.5,18.7 0,284.9 0,284.9"
         style="fill:#00213d;fill-opacity:1;fill-rule:nonzero;stroke:none"
         id="path160" />
      <path
         d="m 18574.2,5066.3 c 0,0 1375.8,-135 1492,-191.2 116.2,-56.2 612.5,175.7 649.9,-217.9 37.5,-393.6 -1239.7,-363.1 -1300.9,-340.6 -61.3,22.5 -848.5,446.1 -841,464.8 7.5,18.7 0,284.9 0,284.9"
         style="fill:#00213d;fill-opacity:1;fill-rule:nonzero;stroke:none"
         id="path162" />
      <path
         d="m 20575.6,7165 h -17.3 c -40.9,0 -75.4,30.5 -80.4,71.1 l -47.6,390.7 c 0,0 -343.6,81.4 -323.6,-43.4 13.1,-81.8 -9.9,-246.7 -27.3,-350.9 -6.5,-39 -40.2,-67.5 -79.8,-67.5 h -31.3 l -85.5,-168.2 c 0,0 178.1,-324 215.3,-357.7 37.2,-33.8 353.4,-22 389,-22 35.6,0 143.9,393.4 143.9,398.8 0,5.5 -55.4,149.1 -55.4,149.1"
         style="fill:#f7a491;fill-opacity:1;fill-rule:nonzero;stroke:none"
         id="path164" />
      <path
         d="m 21615.8,5618.7 c 0,0 -433,1237 -506.1,1332.6 -73.1,95.6 -534.1,213.7 -534.1,213.7 0,0 -62.3,-258.3 -321.5,-257.3 -201,0.7 -285.8,257.3 -285.8,257.3 0,0 -461.1,-118.1 -534.1,-213.7 -73.1,-95.6 -506.1,-1332.6 -506.1,-1332.6 l -1029,-382.3 78.8,-303.7 c 0,0 1203.2,286.8 1242.6,326.1 39.3,39.4 393.6,910.9 393.6,910.9 0,0 50.8,-415.9 61.7,-525.6 11,-109.6 -174.2,-677.6 -174.2,-677.6 0,0 294.3,-157.3 704.6,-153.8 43.8,0.4 87.6,0.4 131.5,0 410.2,-3.5 706.1,137.3 706.1,137.3 l -3.3,35.8 -4.4,-19.3 c 0,0 -185.2,568 -174.2,677.6 11,109.7 61.7,525.6 61.7,525.6 l 9.6,-36.1 -3.4,36.1 c 0,0 354.2,-871.5 393.6,-910.9 39.4,-39.3 1242.6,-326.1 1242.6,-326.1 l 78.8,303.7 -1029,382.3"
         style="fill:#96d9c9;fill-opacity:1;fill-rule:nonzero;stroke:none"
         id="path166" />
      <path
         d="m 20106.7,7583.4 c -20,124.8 323.6,43.4 323.6,43.4 l 5.6,-36.6 c -10.1,-24.5 -22.4,-45.4 -37.3,-61.5 -76.8,-82.6 -193.8,-141 -297.6,-144.8 10.4,67.3 13.9,148.3 5.7,199.5"
         style="fill:#f47458;fill-opacity:1;fill-rule:nonzero;stroke:none"
         id="path168" />
      <path
         d="m 20457.7,3987.8 c 0,33.1 26.1,60.9 59.1,61.7 31.9,0.8 68.4,5.9 87.1,22.7 37.5,33.8 164.9,71.2 277.4,48.8 112.4,-22.5 404.8,29.9 494.8,-45 89.9,-75 217.4,-202.4 127.4,-262.4 -89.9,-60 -442.3,-123.7 -524.8,-105 -66.3,15.1 -352.2,36.7 -465.9,44.8 -25.1,1.9 -55.1,23.5 -55.1,48.7 v 185.7"
         style="fill:#96d9c9;fill-opacity:1;fill-rule:nonzero;stroke:none"
         id="path170" />
      <path
         d="m 20463.2,4013.3 -266.7,149.4 -45.4,-305.8 359.6,-103.3 c 0,0 -6.4,204.3 -13.9,215.6 -7.5,11.2 -33.6,44.1 -33.6,44.1"
         style="fill:#f8a492;fill-opacity:1;fill-rule:nonzero;stroke:none"
         id="path172" />
      <path
         d="m 17986.6,4736.4 c 0,0 -52.5,258.7 82.5,329.9 134.9,71.2 419.8,60 682.2,-60 262.4,-119.9 1851.8,-884.6 1851.8,-884.6 0,0 -97.5,-281.2 -168.7,-367.4 0,0 -1424.4,412.3 -1750.6,506.1 -326.1,93.7 -603.5,93.7 -697.2,476"
         style="fill:#223c56;fill-opacity:1;fill-rule:nonzero;stroke:none"
         id="path174" />
      <path
         d="m 19800.8,3974.4 c 0,33.1 -26.1,60.9 -59.1,61.7 -31.9,0.8 -68.4,5.9 -87.1,22.7 -37.5,33.8 -164.9,71.2 -277.4,48.7 -112.4,-22.4 -404.8,30 -494.8,-44.9 -89.9,-75 -217.4,-202.5 -127.4,-262.4 89.9,-60 442.3,-123.7 524.8,-105 66.3,15.1 352.2,36.7 465.9,44.8 25.1,1.8 55.1,23.5 55.1,48.7 v 185.7"
         style="fill:#96d9c9;fill-opacity:1;fill-rule:nonzero;stroke:none"
         id="path176" />
      <path
         d="m 19795.3,3999.9 266.7,149.4 63.8,-376.7 -378,-32.4 c 0,0 6.4,204.3 13.9,215.6 7.5,11.2 33.6,44.1 33.6,44.1"
         style="fill:#f8a492;fill-opacity:1;fill-rule:nonzero;stroke:none"
         id="path178" />
      <path
         d="m 22557.3,4736.4 c 0,0 52.4,258.7 -82.5,329.9 -134.9,71.2 -419.8,60 -682.2,-60 -262.4,-119.9 -1851.8,-884.6 -1851.8,-884.6 0,0 97.5,-281.2 168.7,-367.4 0,0 1424.4,412.3 1750.5,506.1 326.2,93.7 603.6,93.7 697.3,476"
         style="fill:#264160;fill-opacity:1;fill-rule:nonzero;stroke:none"
         id="path180" />
      <path
         d="m 20256.9,6970.7 c -201,0.8 -288.6,194.3 -288.6,194.3 l 303.6,-1613.8 303.7,1613.8 c 0,0 -59.6,-195.2 -318.7,-194.3"
         style="fill:#96d9c9;fill-opacity:1;fill-rule:nonzero;stroke:none"
         id="path182" />
      <path
         d="m 20216.5,8386.1 c 0,0 148.1,15.3 239.3,-105.5 91.2,-120.8 186.7,-492.1 -45.9,-690.6 -232.6,-198.5 -457.3,32.1 -488.2,274 -30.8,241.9 -40.4,534.8 294.8,522.1"
         style="fill:#f7a491;fill-opacity:1;fill-rule:nonzero;stroke:none"
         id="path184" />
      <path
         d="m 19853.7,7868.3 c 26.8,-53.6 72.6,-83.7 102.2,-67.2 29.6,16.6 31.9,73.5 5,127.2 -26.8,53.7 -72.6,83.8 -102.2,67.2 -29.6,-16.6 -31.9,-73.5 -5,-127.2"
         style="fill:#f7a491;fill-opacity:1;fill-rule:nonzero;stroke:none"
         id="path186" />
      <path
         d="m 20200.5,8425.9 c 0,0 193.3,-354.4 334.3,-372.3 141.1,-18 157.4,-205.2 157.4,-205.2 0,0 -45.3,431.5 -184.2,516.3 -138.9,84.8 -307.5,61.2 -307.5,61.2"
         style="fill:#f7cc7f;fill-opacity:1;fill-rule:nonzero;stroke:none"
         id="path188" />
      <path
         d="m 20496.7,7965.6 c -12.2,-62.4 10.2,-120 50.1,-128.7 39.9,-8.6 82.2,34.9 94.4,97.2 12.3,62.4 -10.2,120 -50.1,128.7 -39.9,8.7 -82.1,-34.8 -94.4,-97.2"
         style="fill:#f7a491;fill-opacity:1;fill-rule:nonzero;stroke:none"
         id="path190" />
      <path
         d="m 20098.6,7744.9 227.1,9 c 0,0 -1.8,-86.5 -101.6,-93.4 -121.6,-8.3 -125.5,84.4 -125.5,84.4"
         style="fill:#ffffff;fill-opacity:1;fill-rule:nonzero;stroke:none"
         id="path192" />
      <path
         d="m 16474.6,7182 c 0,0 20.7,18 9.4,19 -11.3,0.9 -61.4,0.5 -61.4,0.5 l -63.3,5.1 c 0,0 -11.6,-231.2 -7.8,-231.2 3.8,0 74.9,2.7 77.7,-0.2 2.9,-2.8 45.4,206.8 45.4,206.8"
         style="fill:#f7a491;fill-opacity:1;fill-rule:nonzero;stroke:none"
         id="path194" />
      <path
         d="m 16404.4,7100.8 c 0,0 11.7,87.1 18.2,100.7 6.5,13.6 150.9,128.4 170.3,131.4 19.4,3 117.5,-24.2 129.7,-26.3 0,0 0.2,-35 -30,-41.7 -30.3,-6.6 -89.7,-2.4 -89.7,-2.4 l -44.5,-41.6 c 0,0 30.7,-44.1 40.3,-45.4 9.6,-1.2 104.6,-11.1 114,-4.5 9.4,6.7 43.6,36.2 43.6,36.2 l 82.3,-20.3 -52.1,-45.7 197.5,-25.9 c 0,0 23.1,-3.2 28,-13.8 4.8,-10.7 -6.4,-26.1 -15,-30.1 -8.6,-4.1 -61.2,-7.2 -61.2,-7.2 0,0 24.6,-22.8 16.3,-39.4 -8.4,-16.7 -80.8,-14.9 -80.8,-14.9 0,0 25,-24.9 5.8,-39.6 -19,-14.8 -47.7,-12.9 -66.9,-13.1 -19.1,-0.1 -168.5,-3.1 -168.5,-3.1 0,0 -136,-1.4 -212.5,21.1 -33.8,10 -24.8,125.6 -24.8,125.6"
         style="fill:#f7a491;fill-opacity:1;fill-rule:nonzero;stroke:none"
         id="path196" />
      <path
         d="m 16703.9,7289.7 c 0,0 34.8,-70 52.4,-82.5 17.5,-12.4 64.7,-35.4 82.3,-20.3 17.5,15.1 -95.4,126.4 -116,119.7 -20.5,-6.7 -18.7,-16.9 -18.7,-16.9"
         style="fill:#f7a491;fill-opacity:1;fill-rule:nonzero;stroke:none"
         id="path198" />
      <path
         d="m 16935.8,7064.2 -192.5,15.6 1.4,12.7 z"
         style="fill:#e08685;fill-opacity:1;fill-rule:nonzero;stroke:none"
         id="path200" />
      <path
         d="m 16871.3,7009.9 -155,12.9 1.5,12.7 z"
         style="fill:#e08685;fill-opacity:1;fill-rule:nonzero;stroke:none"
         id="path202" />
      <path
         d="m 11565.5,7182 c 0,0 -20.7,18 -9.4,19 11.3,0.9 61.4,0.5 61.4,0.5 l 63.3,5.1 c 0,0 27,-231.4 23.2,-231.4 -3.7,0 -90.3,2.9 -93.1,0 -2.9,-2.8 -45.4,206.8 -45.4,206.8"
         style="fill:#f7a491;fill-opacity:1;fill-rule:nonzero;stroke:none"
         id="path204" />
      <path
         d="m 11635.8,7100.8 c 0,0 -11.8,87.1 -18.3,100.7 -6.5,13.6 -150.9,128.4 -170.3,131.4 -19.4,3 -117.5,-24.2 -129.7,-26.3 0,0 -0.2,-35 30,-41.7 30.3,-6.6 89.7,-2.4 89.7,-2.4 l 44.5,-41.6 c 0,0 -30.7,-44.1 -40.3,-45.4 -9.6,-1.2 -104.6,-11.1 -114,-4.5 -9.4,6.7 -43.6,36.2 -43.6,36.2 l -82.2,-20.3 52,-45.7 -197.5,-25.9 c 0,0 -23.1,-3.2 -28,-13.8 -4.8,-10.7 6.4,-26.1 15,-30.1 8.6,-4.1 61.2,-7.2 61.2,-7.2 0,0 -24.6,-22.8 -16.3,-39.4 8.4,-16.7 80.8,-14.9 80.8,-14.9 0,0 -24.9,-24.9 -5.9,-39.6 19.1,-14.8 47.8,-12.9 67,-13.1 19.1,-0.1 168.5,-3.1 168.5,-3.1 0,0 136,-1.4 212.5,21.1 33.8,10 24.9,125.6 24.9,125.6"
         style="fill:#f7a491;fill-opacity:1;fill-rule:nonzero;stroke:none"
         id="path206" />
      <path
         d="m 11336.2,7289.7 c 0,0 -34.8,-70 -52.4,-82.5 -17.5,-12.4 -64.7,-35.4 -82.2,-20.3 -17.6,15.1 95.3,126.4 115.9,119.7 20.5,-6.7 18.7,-16.9 18.7,-16.9"
         style="fill:#f7a491;fill-opacity:1;fill-rule:nonzero;stroke:none"
         id="path208" />
      <path
         d="m 11104.3,7064.2 192.5,15.6 -1.4,12.7 z"
         style="fill:#e08685;fill-opacity:1;fill-rule:nonzero;stroke:none"
         id="path210" />
      <path
         d="m 11168.8,7009.9 155,12.9 -1.5,12.7 z"
         style="fill:#e08685;fill-opacity:1;fill-rule:nonzero;stroke:none"
         id="path212" />
      <path
         d="m 13878.3,9657 -67.5,-444.4 c 0,0 246.3,-529.1 393.3,-483.2 123.3,38.5 47.4,506.7 47.4,506.7 0,0 -67.2,251.4 -47,377.2 20.1,125.9 -326.2,43.7 -326.2,43.7"
         style="fill:#f7a491;fill-opacity:1;fill-rule:nonzero;stroke:none"
         id="path214" />
      <path
         d="m 14204.5,9613.3 c 20.1,125.9 -326.2,43.7 -326.2,43.7 l -5.6,-36.8 c 10.1,-24.7 22.5,-45.8 37.5,-62 77.4,-83.2 198.3,-133.2 302.9,-137 -10.5,67.8 -16.9,140.5 -8.6,192.1"
         style="fill:#f47458;fill-opacity:1;fill-rule:nonzero;stroke:none"
         id="path216" />
      <path
         d="m 13817.1,10350.5 c -10.5,3.8 -83.9,-541.5 55.5,-691.6 139.4,-150 411.1,-199.1 508.6,-81 107.7,130.8 102.3,716.9 -114.5,871.2 -216.8,154.4 -449.6,-98.6 -449.6,-98.6"
         style="fill:#f7a491;fill-opacity:1;fill-rule:nonzero;stroke:none"
         id="path218" />
      <path
         d="m 14184.2,10740.8 c -167.6,-34.1 -276.1,-136.5 -316,-180.2 -76.1,-9 -179.5,-51 -286.3,-227.8 -131.3,-217.4 -34.3,-458.3 118.5,-576.5 152.9,-118.2 150.8,-254.7 150.8,-254.7 l 24.1,70.6 c 17.9,53.5 25.1,110.2 19.2,166.3 -3.6,33.7 -10.8,70.1 -24.7,100 -36.8,79 78.9,131.4 111.4,197.1 25,50.5 26.2,166.2 65.5,249.8 l 47.1,63.8 c 0,0 108.4,84.4 214.5,60.6 106.2,-23.9 90.9,374.9 -124.1,331"
         style="fill:#0e2e35;fill-opacity:1;fill-rule:nonzero;stroke:none"
         id="path220" />
      <path
         d="m 13974.1,9938.5 c 1.1,-66.5 -29.2,-121 -67.6,-121.6 -38.4,-0.7 -70.5,52.7 -71.6,119.2 -1.1,66.6 29.2,121 67.6,121.7 38.4,0.6 70.4,-52.7 71.6,-119.3"
         style="fill:#f7a491;fill-opacity:1;fill-rule:nonzero;stroke:none"
         id="path222" />
      <path
         d="m 14200.5,9784.8 210.2,10.9 c 0,0 -0.7,-80.1 -93,-87.6 -112.6,-9.1 -117.2,76.7 -117.2,76.7"
         style="fill:#ffffff;fill-opacity:1;fill-rule:nonzero;stroke:none"
         id="path224" />
      <path
         d="m 14219.3,5991.7 c 0,33.4 26.3,61.4 59.7,62.2 32,0.9 68.8,5.9 87.7,22.9 37.8,34 166.2,71.8 279.6,49.1 113.3,-22.6 408,30.3 498.6,-45.3 90.7,-75.6 219.2,-204 128.5,-264.4 -90.7,-60.5 -445.8,-124.7 -528.9,-105.8 -66.9,15.2 -355.1,36.9 -469.6,45.1 -25.3,1.9 -55.6,23.7 -55.6,49.1 v 187.1"
         style="fill:#466eb6;fill-opacity:1;fill-rule:nonzero;stroke:none"
         id="path226" />
      <path
         d="m 14224.9,6017.5 -268.8,150.5 -45.8,-308.2 362.5,-104.1 c 0,0 -6.5,205.9 -14,217.3 -7.6,11.3 -33.9,44.5 -33.9,44.5"
         style="fill:#f8a492;fill-opacity:1;fill-rule:nonzero;stroke:none"
         id="path228" />
      <path
         d="m 15869.5,7078.7 c 0,0 -1386.5,-136 -1503.6,-192.7 -117.1,-56.7 -426.9,-196.4 -464.7,-593.1 -37.8,-396.7 1059,7.5 1120.8,30.2 61.7,22.7 855,449.6 847.5,468.5 -7.6,18.8 0,287.1 0,287.1"
         style="fill:#00213d;fill-opacity:1;fill-rule:nonzero;stroke:none"
         id="path230" />
      <path
         d="m 12321.1,7078.7 c 0,0 1386.5,-136 1503.6,-192.7 117.2,-56.7 617.3,177.1 655.1,-219.6 37.8,-396.7 -1249.4,-366 -1311.1,-343.3 -61.8,22.7 -855.1,449.6 -847.6,468.5 7.6,18.8 0,287.1 0,287.1"
         style="fill:#00213d;fill-opacity:1;fill-rule:nonzero;stroke:none"
         id="path232" />
      <path
         d="m 11728.9,6746.2 c 0,0 -52.9,260.7 83.1,332.5 136,71.8 423.1,60.4 687.6,-60.5 264.5,-120.9 1866.3,-891.5 1866.3,-891.5 0,0 -98.2,-283.4 -170,-370.3 0,0 -1435.6,415.6 -1764.3,510 -328.7,94.5 -608.3,94.5 -702.7,479.8"
         style="fill:#223c56;fill-opacity:1;fill-rule:nonzero;stroke:none"
         id="path234" />
      <path
         d="m 13557.3,5978.2 c 0,33.4 -26.3,61.4 -59.6,62.2 -32.1,0.9 -68.9,5.9 -87.7,22.9 -37.8,34 -166.2,71.8 -279.6,49.1 -113.3,-22.6 -408,30.3 -498.7,-45.3 -90.6,-75.6 -219.1,-204 -128.4,-264.5 90.7,-60.4 445.8,-124.6 528.9,-105.7 66.8,15.2 355,36.9 469.6,45.1 25.3,1.9 55.5,23.7 55.5,49.1 v 187.1"
         style="fill:#466eb6;fill-opacity:1;fill-rule:nonzero;stroke:none"
         id="path236" />
      <path
         d="m 13551.7,6004 268.9,150.5 64.2,-379.7 -381,-32.6 c 0,0 6.5,205.9 14.1,217.3 7.5,11.3 33.8,44.5 33.8,44.5"
         style="fill:#f8a492;fill-opacity:1;fill-rule:nonzero;stroke:none"
         id="path238" />
      <path
         d="m 16335.4,6746.2 c 0,0 52.9,260.7 -83.1,332.5 -136,71.8 -423.2,60.4 -687.6,-60.5 -264.5,-120.9 -1866.3,-891.5 -1866.3,-891.5 0,0 98.2,-283.4 170,-370.3 0,0 1435.6,415.6 1764.3,510 328.7,94.5 608.2,94.5 702.7,479.8"
         style="fill:#264160;fill-opacity:1;fill-rule:nonzero;stroke:none"
         id="path240" />
      <path
         d="m 15386.5,7635.4 c 0,0 -436.3,1246.7 -510,1343.1 -73.7,96.3 -538.3,215.3 -538.3,215.3 h -306.1 -306 c 0,0 -464.7,-119 -538.3,-215.3 -73.7,-96.4 -510,-1343.1 -510,-1343.1 l -1025.2,-431 51.4,-229.2 c 0,0 1228.8,257.9 1268.4,297.6 39.7,39.6 396.7,918 396.7,918 l -113.3,-1212.7 c 0,0 296.6,-158.6 710.1,-155 44.2,0.4 88.3,0.4 132.5,0 413.5,-3.6 711.7,138.3 711.7,138.3 l -114.9,1229.4 c 0,0 357,-878.4 396.6,-918 39.7,-39.7 1260.5,-297.6 1260.5,-297.6 l 58.9,227.2 -1024.7,433"
         style="fill:#9bc1f9;fill-opacity:1;fill-rule:nonzero;stroke:none"
         id="path242" />
      <path
         d="m 13726.1,9193.8 306,-1626.4 306.1,1626.4 z"
         style="fill:#9bc1f9;fill-opacity:1;fill-rule:nonzero;stroke:none"
         id="path244" />
      <path
         d="m 14245.1,9307.4 -213,-77.7 V 9156 l 95.6,-54.8 210.5,92.6 -93.1,113.6"
         style="fill:#76aadd;fill-opacity:1;fill-rule:nonzero;stroke:none"
         id="path246" />
      <path
         d="m 13819.2,9307.4 212.9,-77.7 V 9156 l -95.6,-54.8 -210.4,92.6 93.1,113.6"
         style="fill:#76aadd;fill-opacity:1;fill-rule:nonzero;stroke:none"
         id="path248" />
      <path
         d="m 13661.5,8091.7 c -61.2,0 -122.4,20.2 -173.2,60.5 l -3.4,2.8 v 260.9 h 343.8 v -268.2 c -49.7,-37.4 -108.5,-56 -167.2,-56"
         style="fill:#b9d6f6;fill-opacity:1;fill-rule:nonzero;stroke:none"
         id="path250" />
      <path
         d="m 13847.4,8415.9 h -382.9 v 43.7 h 382.9 v -43.7"
         style="fill:#8fb9f3;fill-opacity:1;fill-rule:nonzero;stroke:none"
         id="path252" />
      <path
         d="m 13255.8,6978.1 c 0,0 317.9,-196.3 654.5,-275 l 130.7,120.3 108.1,-131.7 c 0,0 367.4,42.8 661,269.7 l -899.8,283 -654.5,-266.3"
         style="fill:#9bc1f9;fill-opacity:1;fill-rule:nonzero;stroke:none"
         id="path254" />
      <path
         d="m 4973.15,5168.7 c 0,0 -20.61,18 -9.37,18.9 11.25,1 60.94,0.6 60.94,0.6 l 62.77,5 c 0,0 59.03,-229.5 55.28,-229.5 -3.74,0 -121.82,2.8 -124.64,0 -2.8,-2.9 -44.98,205 -44.98,205"
         style="fill:#f7a491;fill-opacity:1;fill-rule:nonzero;stroke:none"
         id="path256" />
      <path
         d="m 5042.82,5088.2 c 0,0 -11.63,86.5 -18.1,100 -6.46,13.4 -149.73,127.4 -168.97,130.4 -19.24,2.9 -116.6,-24.1 -128.74,-26.2 0,0 -0.18,-34.7 29.82,-41.3 30,-6.6 88.99,-2.4 88.99,-2.4 l 44.11,-41.3 c 0,0 -30.38,-43.8 -39.93,-45 -9.54,-1.2 -103.85,-11.1 -113.17,-4.5 -9.33,6.6 -43.21,35.9 -43.21,35.9 l -81.63,-20.1 51.63,-45.4 -195.99,-25.7 c 0,0 -22.88,-3.1 -27.71,-13.7 -4.83,-10.6 6.36,-25.8 14.86,-29.8 8.48,-4.1 60.75,-7.2 60.75,-7.2 0,0 -24.47,-22.6 -16.18,-39.1 8.28,-16.5 80.18,-14.8 80.18,-14.8 0,0 -24.78,-24.6 -5.84,-39.3 18.95,-14.7 47.36,-12.8 66.39,-12.9 19.02,-0.2 167.23,-3.1 167.23,-3.1 0,0 134.92,-1.5 210.82,21 33.6,9.9 24.69,124.5 24.69,124.5"
         style="fill:#f7a491;fill-opacity:1;fill-rule:nonzero;stroke:none"
         id="path258" />
      <path
         d="m 4745.61,5275.7 c 0,0 -34.58,-69.5 -51.99,-81.9 -17.41,-12.3 -64.24,-35.1 -81.63,-20.1 -17.39,15 94.63,125.4 115.02,118.7 20.39,-6.6 18.6,-16.7 18.6,-16.7"
         style="fill:#f7a491;fill-opacity:1;fill-rule:nonzero;stroke:none"
         id="path260" />
      <path
         d="m 4515.53,5051.9 191.01,15.5 -1.44,12.6 z"
         style="fill:#e08685;fill-opacity:1;fill-rule:nonzero;stroke:none"
         id="path262" />
      <path
         d="m 4579.53,4998 153.8,12.9 -1.56,12.5 z"
         style="fill:#e08685;fill-opacity:1;fill-rule:nonzero;stroke:none"
         id="path264" />
      <path
         d="m 9843.99,5168.7 c 0,0 20.62,18 9.37,18.9 -11.24,1 -60.94,0.6 -60.94,0.6 l -62.76,5 c 0,0 -59.04,-229.5 -55.29,-229.5 3.75,0 121.83,2.8 124.64,0 2.81,-2.9 44.98,205 44.98,205"
         style="fill:#f7a491;fill-opacity:1;fill-rule:nonzero;stroke:none"
         id="path266" />
      <path
         d="m 9774.33,5088.2 c 0,0 11.63,86.5 18.09,100 6.46,13.4 149.74,127.4 168.98,130.4 19.23,2.9 116.6,-24.1 128.7,-26.2 0,0 0.2,-34.7 -29.8,-41.3 -30,-6.6 -88.97,-2.4 -88.97,-2.4 l -44.11,-41.3 c 0,0 30.37,-43.8 39.92,-45 9.54,-1.2 103.86,-11.1 113.16,-4.5 9.3,6.6 43.2,35.9 43.2,35.9 l 81.7,-20.1 -51.7,-45.4 196,-25.7 c 0,0 22.9,-3.1 27.7,-13.7 4.9,-10.6 -6.3,-25.8 -14.8,-29.8 -8.5,-4.1 -60.8,-7.2 -60.8,-7.2 0,0 24.5,-22.6 16.2,-39.1 -8.3,-16.5 -80.2,-14.8 -80.2,-14.8 0,0 24.8,-24.6 5.9,-39.3 -19,-14.7 -47.4,-12.8 -66.4,-12.9 -19.1,-0.2 -167.3,-3.1 -167.3,-3.1 0,0 -134.88,-1.5 -210.79,21 -33.59,9.9 -24.68,124.5 -24.68,124.5"
         style="fill:#f7a491;fill-opacity:1;fill-rule:nonzero;stroke:none"
         id="path268" />
      <path
         d="m 10071.5,5275.7 c 0,0 34.6,-69.5 52,-81.9 17.4,-12.3 64.3,-35.1 81.7,-20.1 17.3,15 -94.7,125.4 -115.1,118.7 -20.4,-6.6 -18.6,-16.7 -18.6,-16.7"
         style="fill:#f7a491;fill-opacity:1;fill-rule:nonzero;stroke:none"
         id="path270" />
      <path
         d="m 10301.6,5051.9 -191,15.5 1.4,12.6 z"
         style="fill:#e08685;fill-opacity:1;fill-rule:nonzero;stroke:none"
         id="path272" />
      <path
         d="m 10237.6,4998 -153.8,12.9 1.6,12.5 z"
         style="fill:#e08685;fill-opacity:1;fill-rule:nonzero;stroke:none"
         id="path274" />
      <path
         d="m 8036.86,7764.5 c -8.8,203.3 -55.63,400.8 -162.29,581.7 -91.77,155.6 -292.53,231.3 -468.51,216.6 -558.79,-46.7 -567.11,-791 -898.58,-1106 -101.29,-96.2 -216.74,-177.4 -311.6,-280 -350.28,-378.7 -124.75,-1005.5 249.73,-1279.7 259.86,-190.2 650.3,-277.7 934.51,-87.5 148.36,99.2 254.38,252.2 325.26,416 100.6,232.5 155.82,495.6 220.67,739.8 69.03,259.9 122.51,528.9 110.81,799.1"
         style="fill:#13375b;fill-opacity:1;fill-rule:nonzero;stroke:none"
         id="path276" />
      <path
         d="m 7837.81,7879.3 c -24.93,-60.5 -72.3,-96.8 -105.81,-81.1 -33.5,15.6 -40.47,77.3 -15.54,137.7 24.92,60.4 72.29,96.8 105.8,81.1 33.51,-15.6 40.47,-77.3 15.55,-137.7"
         style="fill:#f7a491;fill-opacity:1;fill-rule:nonzero;stroke:none"
         id="path278" />
      <path
         d="m 9243.62,5066.3 c 0,0 -1375.7,-135 -1491.91,-191.2 -116.2,-56.2 -423.58,-194.9 -461.07,-588.5 -37.48,-393.6 1050.79,7.5 1112.04,30 61.25,22.5 848.44,446.1 840.94,464.8 -7.49,18.7 0,284.9 0,284.9"
         style="fill:#00213d;fill-opacity:1;fill-rule:nonzero;stroke:none"
         id="path280" />
      <path
         d="m 5722.87,5066.3 c 0,0 1375.7,-135 1491.91,-191.2 116.21,-56.2 612.51,175.7 649.99,-217.9 37.49,-393.6 -1239.71,-363.1 -1300.96,-340.6 -61.25,22.5 -848.44,446.1 -840.94,464.8 7.5,18.7 0,284.9 0,284.9"
         style="fill:#00213d;fill-opacity:1;fill-rule:nonzero;stroke:none"
         id="path282" />
      <path
         d="m 7115.59,7165 h 17.27 c 40.92,0 75.4,30.5 80.35,71.1 l 47.64,390.7 c 0,0 343.66,81.4 323.65,-43.4 -13.1,-81.8 9.85,-246.7 27.24,-350.9 6.52,-39 40.27,-67.5 79.84,-67.5 h 31.27 l 85.57,-168.2 c 0,0 -178.16,-324 -215.36,-357.7 -37.21,-33.8 -353.38,-22 -389.01,-22 -35.63,0 -143.89,393.4 -143.89,398.8 0,5.5 55.43,149.1 55.43,149.1"
         style="fill:#f7a491;fill-opacity:1;fill-rule:nonzero;stroke:none"
         id="path284" />
      <path
         d="m 8764.41,5618.7 c 0,0 -432.95,1237 -506.05,1332.6 -73.09,95.6 -534.16,213.7 -534.16,213.7 0,0 -62.3,-258.3 -321.44,-257.3 -201,0.7 -285.82,257.3 -285.82,257.3 0,0 -461.07,-118.1 -534.17,-213.7 -73.09,-95.6 -506.05,-1332.6 -506.05,-1332.6 l -1028.97,-382.3 78.72,-303.7 c 0,0 1203.28,286.8 1242.64,326.1 39.36,39.4 393.6,910.9 393.6,910.9 0,0 50.77,-415.9 61.73,-525.6 10.96,-109.6 -174.19,-677.6 -174.19,-677.6 0,0 294.32,-157.3 704.6,-153.8 43.82,0.4 87.62,0.4 131.44,0 410.28,-3.5 706.14,137.3 706.14,137.3 l -3.35,35.8 -4.36,-19.3 c 0,0 -185.15,568 -174.19,677.6 10.96,109.7 61.74,525.6 61.74,525.6 l 9.55,-36.1 -3.38,36.1 c 0,0 354.23,-871.5 393.59,-910.9 39.36,-39.3 1242.64,-326.1 1242.64,-326.1 l 78.71,303.7 -1028.97,382.3"
         style="fill:#f47458;fill-opacity:1;fill-rule:nonzero;stroke:none"
         id="path286" />
      <path
         d="m 7584.5,7536.1 c 20.01,124.9 -330.84,69.5 -330.84,69.5 l -7.26,-97.4 c 10.06,-24.4 245.03,-161.5 348.77,-165.3 -5.4,73.2 -18.87,142 -10.67,193.2"
         style="fill:#f47458;fill-opacity:1;fill-rule:nonzero;stroke:none"
         id="path288" />
      <path
         d="m 7606.32,3987.8 c 0,33.1 26.06,60.9 59.14,61.7 31.84,0.8 68.33,5.9 87.05,22.7 37.49,33.8 164.94,71.2 277.39,48.8 112.46,-22.5 404.84,29.9 494.81,-45 89.96,-75 217.41,-202.4 127.45,-262.4 -89.97,-60 -442.33,-123.7 -524.8,-105 -66.31,15.1 -352.27,36.7 -465.92,44.8 -25.14,1.9 -55.12,23.5 -55.12,48.7 v 185.7"
         style="fill:#f47458;fill-opacity:1;fill-rule:nonzero;stroke:none"
         id="path290" />
      <path
         d="m 7611.86,4013.3 -266.76,149.4 -45.42,-305.8 359.69,-103.3 c 0,0 -6.42,204.3 -13.92,215.6 -7.5,11.2 -33.59,44.1 -33.59,44.1"
         style="fill:#f8a492;fill-opacity:1;fill-rule:nonzero;stroke:none"
         id="path292" />
      <path
         d="m 5135.24,4736.4 c 0,0 -52.48,258.7 82.47,329.9 134.95,71.2 419.83,60 682.23,-60 262.4,-119.9 1851.77,-884.6 1851.77,-884.6 0,0 -97.46,-281.2 -168.68,-367.4 0,0 -1424.44,412.3 -1750.56,506.1 -326.12,93.7 -603.51,93.7 -697.23,476"
         style="fill:#223c56;fill-opacity:1;fill-rule:nonzero;stroke:none"
         id="path294" />
      <path
         d="m 6949.43,3974.4 c 0,33.1 -26.06,60.9 -59.14,61.7 -31.84,0.8 -68.33,5.9 -87.05,22.7 -37.48,33.8 -164.93,71.2 -277.39,48.7 -112.45,-22.4 -404.84,30 -494.81,-44.9 -89.96,-75 -217.41,-202.5 -127.44,-262.4 89.96,-60 442.32,-123.7 524.79,-105 66.31,15.1 352.27,36.7 465.93,44.8 25.13,1.8 55.11,23.5 55.11,48.7 v 185.7"
         style="fill:#f47458;fill-opacity:1;fill-rule:nonzero;stroke:none"
         id="path296" />
      <path
         d="m 6943.9,3999.9 266.75,149.4 63.73,-376.7 -378,-32.4 c 0,0 6.42,204.3 13.92,215.6 7.5,11.2 33.6,44.1 33.6,44.1"
         style="fill:#f8a492;fill-opacity:1;fill-rule:nonzero;stroke:none"
         id="path298" />
      <path
         d="m 9705.9,4736.4 c 0,0 52.47,258.7 -82.47,329.9 -134.95,71.2 -419.84,60 -682.23,-60 -262.4,-119.9 -1851.78,-884.6 -1851.78,-884.6 0,0 97.46,-281.2 168.69,-367.4 0,0 1424.44,412.3 1750.56,506.1 326.12,93.7 603.51,93.7 697.23,476"
         style="fill:#264160;fill-opacity:1;fill-rule:nonzero;stroke:none"
         id="path300" />
      <path
         d="m 7405.51,6970.7 c -201,0.8 -288.57,194.3 -288.57,194.3 L 7420.57,5551.2 7724.2,7165 c 0,0 -59.56,-195.2 -318.69,-194.3"
         style="fill:#f7cc7f;fill-opacity:1;fill-rule:nonzero;stroke:none"
         id="path302" />
      <path
         d="m 7342.47,4812.6 c 0,0 90.45,224 93.18,418.1 0,0 41.12,-328.6 142.53,-418.1 101.41,-89.4 69.97,-118 28.14,-127 -41.84,-9 -263.85,127 -263.85,127"
         style="fill:#00213d;fill-opacity:1;fill-rule:nonzero;stroke:none"
         id="path304" />
      <path
         d="m 7402.32,8413 c 0,0 -162.14,4.9 -251.75,-133.6 -89.61,-138.4 -163.96,-549.4 104.63,-746.6 268.58,-197.2 494.61,71.1 508.97,336.3 14.36,265.3 1.59,584.3 -361.85,543.9"
         style="fill:#f7a491;fill-opacity:1;fill-rule:nonzero;stroke:none"
         id="path306" />
      <path
         d="m 7416.64,8457.5 c 0,0 -182.06,-400.3 -334.03,-431 -151.96,-30.7 -154.86,-235.4 -154.86,-235.4 0,0 15.12,472.5 159.38,575.6 144.27,103.1 329.51,90.8 329.51,90.8"
         style="fill:#13375b;fill-opacity:1;fill-rule:nonzero;stroke:none"
         id="path308" />
      <path
         d="m 7131.01,7934 c 18.25,-66.8 -1.57,-131.2 -44.26,-143.8 -42.68,-12.6 -92.08,31.4 -110.32,98.1 -18.25,66.8 1.57,131.2 44.26,143.8 42.68,12.6 92.08,-31.4 110.32,-98.1"
         style="fill:#f7a491;fill-opacity:1;fill-rule:nonzero;stroke:none"
         id="path310" />
      <path
         d="m 7564.08,7696 -239.36,10.8 c 0,0 1.43,-91.2 106.55,-98.9 128.18,-9.5 132.81,88.1 132.81,88.1"
         style="fill:#ffffff;fill-opacity:1;fill-rule:nonzero;stroke:none"
         id="path312" />
      <path
         d="m 13554.5,6356.1 c 43.5,8.9 86.6,19.7 128.6,33.9 47.6,16.1 108.8,34.3 146.3,35.4 78.7,2.4 210.6,-21.9 274.1,-110.6 79.1,-110.3 251.5,-49.2 154.7,-564.3 -109.6,-583 -428.3,-478.2 -435,-467.3 -6.7,11 -245,411.9 -245,411.9 0,0 -125.9,-204.5 -124.9,-196.6 0.9,7.7 -421.1,750.6 101.2,857.6"
         style="fill:#fae0b2;fill-opacity:1;fill-rule:nonzero;stroke:none"
         id="path314" />
      <path
         d="m 13664.1,5220.7 -31.2,-231.7 c 0,0 -69.7,-333.8 20,-398.2 89.7,-64.4 381.5,407.7 381.5,407.7 l -30.8,587.2 -339.5,-365"
         style="fill:#f7a491;fill-opacity:1;fill-rule:nonzero;stroke:none"
         id="path316" />
      <path
         d="m 14013.6,5395.4 c -74.1,-200.3 -250.6,-323.4 -375.9,-371.1 l 26.4,196.4 339.5,365 10,-190.3"
         style="fill:#f47458;fill-opacity:1;fill-rule:nonzero;stroke:none"
         id="path318" />
      <path
         d="m 13799.8,6165.6 c -168.8,49.1 -340.4,-70.4 -357.4,-243.3 -7.4,-75.2 -12.8,-169.6 -9.7,-272.3 7.5,-247 146.5,-480.8 258.2,-475.2 111.7,5.5 412.7,180.6 406.8,531.5 -3.6,216.7 -120.8,407.8 -297.9,459.3"
         style="fill:#f7a491;fill-opacity:1;fill-rule:nonzero;stroke:none"
         id="path320" />
      <path
         d="m 14016.8,5674.5 c 2.6,-54.4 40.7,-96.8 85.1,-94.5 44.4,2.2 78.2,48.1 75.6,102.5 -2.7,54.5 -40.8,96.8 -85.2,94.6 -44.4,-2.2 -78.2,-48.1 -75.5,-102.6"
         style="fill:#f7a491;fill-opacity:1;fill-rule:nonzero;stroke:none"
         id="path322" />
      <path
         d="m 14092.3,5777.1 c 0,0 -136.2,-16.5 -174.8,74.6 -38.6,91 -191.3,296.2 -423.7,247.6 -232.4,-48.5 219,160.8 236.9,158.6 17.8,-2.2 232.1,-27.1 232.1,-27.1 0,0 148.3,-156.2 152.4,-171.8 4.1,-15.7 31.6,-184.2 31.6,-184.2 l -54.5,-97.7"
         style="fill:#fae0b2;fill-opacity:1;fill-rule:nonzero;stroke:none"
         id="path324" />
      <path
         d="m 16349.5,2800.8 c 0,0 21.5,18.7 9.8,19.7 -11.8,1 -63.7,0.6 -63.7,0.6 l -65.5,5.3 c 0,0 -61.7,-239.8 -57.8,-239.8 3.9,0 127.3,2.9 130.2,0 2.9,-2.9 47,214.2 47,214.2"
         style="fill:#f7a491;fill-opacity:1;fill-rule:nonzero;stroke:none"
         id="path326" />
      <path
         d="m 16276.7,2716.7 c 0,0 12.2,90.3 18.9,104.4 6.8,14 156.4,133.1 176.5,136.1 20.1,3.1 121.8,-25.1 134.4,-27.2 0,0 0.2,-36.3 -31.1,-43.2 -31.3,-6.9 -92.9,-2.5 -92.9,-2.5 l -46.1,-43.1 c 0,0 31.7,-45.8 41.7,-47 9.9,-1.3 108.5,-11.6 118.2,-4.7 9.7,6.9 45.1,37.5 45.1,37.5 l 85.3,-21.1 -53.9,-47.4 204.6,-26.8 c 0,0 23.9,-3.2 29,-14.3 5,-11 -6.7,-27 -15.5,-31.2 -8.9,-4.2 -63.5,-7.5 -63.5,-7.5 0,0 25.6,-23.5 16.9,-40.8 -8.6,-17.2 -83.7,-15.4 -83.7,-15.4 0,0 25.9,-25.8 6.1,-41.1 -19.8,-15.3 -49.5,-13.3 -69.4,-13.5 -19.8,-0.1 -174.6,-3.2 -174.6,-3.2 0,0 -140.9,-1.5 -220.2,21.9 -35.1,10.3 -25.8,130.1 -25.8,130.1"
         style="fill:#f7a491;fill-opacity:1;fill-rule:nonzero;stroke:none"
         id="path328" />
      <path
         d="m 16587.1,2912.5 c 0,0 36.1,-72.6 54.3,-85.5 18.2,-12.9 67.1,-36.7 85.3,-21.1 18.1,15.7 -98.9,131 -120.2,124.1 -21.3,-7 -19.4,-17.5 -19.4,-17.5"
         style="fill:#f7a491;fill-opacity:1;fill-rule:nonzero;stroke:none"
         id="path330" />
      <path
         d="m 16827.4,2678.7 -199.5,16.3 1.5,13.1 z"
         style="fill:#e08685;fill-opacity:1;fill-rule:nonzero;stroke:none"
         id="path332" />
      <path
         d="m 16760.6,2622.5 -160.7,13.4 1.7,13.1 z"
         style="fill:#e08685;fill-opacity:1;fill-rule:nonzero;stroke:none"
         id="path334" />
      <path
         d="m 11262.3,2800.8 c 0,0 -21.5,18.7 -9.8,19.7 11.8,1 63.7,0.6 63.7,0.6 l 65.5,5.3 c 0,0 61.7,-239.8 57.8,-239.8 -3.9,0 -127.2,2.9 -130.2,0 -2.9,-2.9 -47,214.2 -47,214.2"
         style="fill:#f7a491;fill-opacity:1;fill-rule:nonzero;stroke:none"
         id="path336" />
      <path
         d="m 11335.1,2716.7 c 0,0 -12.2,90.3 -18.9,104.4 -6.7,14 -156.4,133.1 -176.5,136.1 -20.1,3.1 -121.8,-25.1 -134.4,-27.2 0,0 -0.2,-36.3 31.1,-43.2 31.3,-6.9 92.9,-2.5 92.9,-2.5 l 46.1,-43.1 c 0,0 -31.7,-45.8 -41.7,-47 -9.9,-1.3 -108.5,-11.6 -118.2,-4.7 -9.7,6.9 -45.1,37.5 -45.1,37.5 l -85.3,-21.1 54,-47.4 -204.7,-26.8 c 0,0 -23.9,-3.2 -29,-14.3 -5,-11 6.7,-27 15.5,-31.2 8.9,-4.2 63.5,-7.5 63.5,-7.5 0,0 -25.6,-23.5 -16.9,-40.8 8.6,-17.2 83.7,-15.4 83.7,-15.4 0,0 -25.8,-25.8 -6.1,-41.1 19.8,-15.3 49.5,-13.3 69.4,-13.5 19.8,-0.1 174.6,-3.2 174.6,-3.2 0,0 140.9,-1.5 220.2,21.9 35.1,10.3 25.8,130.1 25.8,130.1"
         style="fill:#f7a491;fill-opacity:1;fill-rule:nonzero;stroke:none"
         id="path338" />
      <path
         d="m 11024.7,2912.5 c 0,0 -36.1,-72.6 -54.3,-85.5 -18.2,-12.9 -67.1,-36.7 -85.3,-21.1 -18.1,15.7 98.9,131 120.2,124.1 21.3,-7 19.4,-17.5 19.4,-17.5"
         style="fill:#f7a491;fill-opacity:1;fill-rule:nonzero;stroke:none"
         id="path340" />
      <path
         d="m 10784.4,2678.7 199.5,16.3 -1.5,13.1 z"
         style="fill:#e08685;fill-opacity:1;fill-rule:nonzero;stroke:none"
         id="path342" />
      <path
         d="m 10851.2,2622.5 160.7,13.4 -1.7,13.1 z"
         style="fill:#e08685;fill-opacity:1;fill-rule:nonzero;stroke:none"
         id="path344" />
      <path
         d="m 14012.4,1567.4 c 0,34.6 27.2,63.6 61.8,64.5 33.3,0.8 71.4,6.1 90.9,23.7 39.2,35.2 172.3,74.4 289.7,50.9 117.5,-23.5 422.8,31.3 516.8,-47 94,-78.3 227.1,-211.4 133.1,-274.1 -94,-62.6 -462,-129.2 -548.1,-109.6 -69.2,15.8 -367.9,38.3 -486.6,46.8 -26.3,1.9 -57.6,24.6 -57.6,50.9 v 193.9"
         style="fill:#00213d;fill-opacity:1;fill-rule:nonzero;stroke:none"
         id="path346" />
      <path
         d="m 14018.2,1594.1 -278.6,156 -47.4,-319.4 375.6,-107.9 c 0,0 -6.7,213.4 -14.5,225.1 -7.8,11.8 -35.1,46.2 -35.1,46.2"
         style="fill:#f8a492;fill-opacity:1;fill-rule:nonzero;stroke:none"
         id="path348" />
      <path
         d="m 15722.4,2693.8 c 0,0 -1436.8,-141 -1558.1,-199.7 -121.4,-58.7 -442.4,-203.6 -481.6,-614.6 -39.1,-411.1 1097.5,7.8 1161.5,31.3 63.9,23.5 886.1,465.9 878.2,485.4 -7.8,19.6 0,297.6 0,297.6"
         style="fill:#00213d;fill-opacity:1;fill-rule:nonzero;stroke:none"
         id="path350" />
      <path
         d="m 12045.3,2693.8 c 0,0 1436.8,-141 1558.2,-199.7 121.4,-58.7 639.7,183.5 678.9,-227.6 39.1,-411 -1294.8,-379.2 -1358.8,-355.7 -63.9,23.5 -886.1,465.9 -878.3,485.4 7.9,19.6 0,297.6 0,297.6"
         style="fill:#00213d;fill-opacity:1;fill-rule:nonzero;stroke:none"
         id="path352" />
      <path
         d="m 11431.6,2349.3 c 0,0 -54.8,270.1 86.2,344.5 140.9,74.4 438.4,62.6 712.5,-62.7 274,-125.2 1934,-923.9 1934,-923.9 0,0 -101.8,-293.6 -176.2,-383.7 0,0 -1487.7,430.7 -1828.3,528.6 -340.6,97.8 -630.3,97.8 -728.2,497.2"
         style="fill:#223c56;fill-opacity:1;fill-rule:nonzero;stroke:none"
         id="path354" />
      <path
         d="m 13326.4,1553.4 c 0,34.6 -27.2,63.6 -61.8,64.5 -33.2,0.8 -71.4,6.1 -90.9,23.7 -39.2,35.2 -172.3,74.4 -289.7,50.9 -117.5,-23.5 -422.8,31.3 -516.8,-47 -94,-78.3 -227.1,-211.4 -133.1,-274.1 94,-62.6 462,-129.1 548.1,-109.6 69.3,15.8 367.9,38.3 486.6,46.8 26.3,1.9 57.6,24.6 57.6,50.9 v 193.9"
         style="fill:#00213d;fill-opacity:1;fill-rule:nonzero;stroke:none"
         id="path356" />
      <path
         d="m 13320.6,1580.1 278.6,156 66.5,-393.5 -394.7,-33.8 c 0,0 6.7,213.4 14.5,225.1 7.8,11.8 35.1,46.2 35.1,46.2"
         style="fill:#f8a492;fill-opacity:1;fill-rule:nonzero;stroke:none"
         id="path358" />
      <path
         d="m 16205.2,2349.3 c 0,0 54.8,270.1 -86.1,344.5 -140.9,74.4 -438.5,62.6 -712.5,-62.7 -274.1,-125.2 -1934,-923.9 -1934,-923.9 0,0 101.8,-293.6 176.2,-383.7 0,0 1487.6,430.7 1828.3,528.6 340.6,97.8 630.3,97.8 728.1,497.2"
         style="fill:#264160;fill-opacity:1;fill-rule:nonzero;stroke:none"
         id="path360" />
      <path
         d="m 15222,3270.7 c 0,0 -452.2,1292 -528.6,1391.8 -76.3,99.8 -557.9,223.2 -557.9,223.2 h -317.1 -317.1 c 0,0 -481.5,-123.4 -557.9,-223.2 -76.3,-99.8 -528.5,-1391.8 -528.5,-1391.8 l -1074.7,-399.3 82.3,-317.1 c 0,0 1256.7,299.5 1297.8,340.6 41.1,41.1 411.1,951.3 411.1,951.3 l -117.5,-1256.7 c 0,0 307.4,-164.3 735.9,-160.6 45.8,0.4 91.5,0.4 137.3,0 428.5,-3.7 737.5,143.4 737.5,143.4 l -119.1,1273.9 c 0,0 370,-910.2 411.1,-951.3 41.1,-41.1 1297.8,-340.6 1297.8,-340.6 l 82.2,317.1 -1074.6,399.3"
         style="fill:#2d4972;fill-opacity:1;fill-rule:nonzero;stroke:none"
         id="path362" />
      <path
         d="m 13501.3,4885.7 317.1,-1685.4 317.1,1685.4 z"
         style="fill:#eafcfc;fill-opacity:1;fill-rule:nonzero;stroke:none"
         id="path364" />
      <path
         d="m 13769.6,4818.5 -83.8,-913.2 132.6,-705 153.2,813.9 c -49.9,370.9 -116,811 -116,811 l -37.2,60.5 -68.2,-10.8 19.4,-56.4"
         style="fill:#e25a44;fill-opacity:1;fill-rule:nonzero;stroke:none"
         id="path366" />
      <path
         d="m 14039.2,5003.3 -220.8,-80.4 v -76.4 l 99.1,-56.8 218,96 -96.3,117.6"
         style="fill:#d7ebf4;fill-opacity:1;fill-rule:nonzero;stroke:none"
         id="path368" />
      <path
         d="m 13597.7,5003.3 220.7,-80.4 v -76.4 l -99,-56.8 -218.1,96 96.4,117.6"
         style="fill:#d7ebf4;fill-opacity:1;fill-rule:nonzero;stroke:none"
         id="path370" />
      <path
         d="m 13757.3,5437 -194.9,10.1 c 0,0 0.7,-74.3 86.3,-81.2 104.3,-8.4 108.6,71.1 108.6,71.1"
         style="fill:#ffffff;fill-opacity:1;fill-rule:nonzero;stroke:none"
         id="path372" />
    </g>
  </g>
</svg>
