<?xml version="1.0" encoding="UTF-8" standalone="no"?>
<!-- Created with Inkscape (http://www.inkscape.org/) -->

<svg
   version="1.1"
   id="svg2"
   width="640.38666"
   height="609.88"
   viewBox="0 0 640.38666 609.88"
   sodipodi:docname="9085427.eps"
   xmlns:inkscape="http://www.inkscape.org/namespaces/inkscape"
   xmlns:sodipodi="http://sodipodi.sourceforge.net/DTD/sodipodi-0.dtd"
   xmlns="http://www.w3.org/2000/svg"
   xmlns:svg="http://www.w3.org/2000/svg">
  <defs
     id="defs6" />
  <sodipodi:namedview
     id="namedview4"
     pagecolor="#ffffff"
     bordercolor="#000000"
     borderopacity="0.25"
     inkscape:showpageshadow="2"
     inkscape:pageopacity="0.0"
     inkscape:pagecheckerboard="0"
     inkscape:deskcolor="#d1d1d1" />
  <g
     id="g8"
     inkscape:groupmode="layer"
     inkscape:label="ink_ext_XXXXXX"
     transform="matrix(1.3333333,0,0,-1.3333333,0,609.88)">
    <g
       id="g10"
       transform="scale(0.1)">
      <path
         d="M 3339.32,156.879 C 3339.32,70.2383 2909.05,0 2378.3,0 c -530.76,0 -961.02,70.2383 -961.02,156.879 0,86.652 430.26,156.891 961.02,156.891 530.75,0 961.02,-70.239 961.02,-156.891"
         style="fill:#f3f2f1;fill-opacity:1;fill-rule:nonzero;stroke:none"
         id="path12" />
      <path
         d="m 2392.51,2320.05 -335.2,2230.47 c 113.32,15.67 229.03,23.61 343.92,23.61 h 0.4 c 112.13,0 225.28,-7.59 336.12,-22.55 L 2410.24,2320.06 c -2.74,0.36 -5.86,0.92 -8.89,0.54 -3.26,0 -6.17,-0.19 -8.84,-0.55 m 42.54,-11.24 c -3.99,3.31 -8.24,5.95 -12.62,7.87 l 973.47,2050.98 c 208.2,-90.91 401.7,-209.88 575.16,-353.62 L 2435.05,2308.81 m -67.35,-0.1 L 826.008,4009.2 c 172.941,144.26 366.032,263.82 573.912,355.37 l 980.4,-2047.95 c -4.39,-1.94 -8.63,-4.59 -12.62,-7.91 m 83.68,-23.15 c -1.18,3.86 -3.05,7.7 -5.55,11.4 L 4418.7,3520.71 c 124.81,-185.12 221.04,-386 286.01,-597.06 L 2451.38,2285.56 m -99.99,-0.25 L 96.0117,2916.66 C 160.285,3127.89 255.832,3329.04 379.992,3514.5 L 2356.97,2296.85 c -2.51,-3.74 -4.38,-7.62 -5.58,-11.54 M 4706.1,1622.44 2451.46,2256.22 c 1.29,4.25 1.93,9 1.93,14.54 v 2.52 h 2349.47 v -2.52 c 0,-220.06 -32.56,-438.19 -96.76,-648.32 M 97.4609,1620.12 C 33.0313,1830.2 0.238281,2048.3 0,2268.35 l 2349.47,2.33 c 0.01,-5.53 0.64,-10.29 1.95,-14.54 L 97.4609,1620.12 M 3974.86,530.66 2435.18,2232.84 c 4.12,3.42 7.79,7.49 10.66,11.75 L 4421.51,1025.02 C 4297.85,840.711 4147.58,674.379 3974.86,530.66 M 829.836,529.129 C 657.023,672.66 506.613,838.781 382.777,1022.86 L 2356.99,2244.62 c 2.9,-4.3 6.64,-8.42 10.82,-11.89 L 829.836,529.129 M 2578.8,390.91 2410.35,2221.51 c 4.4,0.6 8.28,1.68 12.19,3.4 l 875.42,-1834 H 2578.8 m -391.18,0 c 0,0 -728.26,-0.961 -708.99,0 l 901.8,1833.94 c 3.89,-1.7 7.74,-2.77 12.12,-3.37 L 2187.62,390.91"
         style="fill:#f3f2f1;fill-opacity:1;fill-rule:nonzero;stroke:none"
         id="path14" />
      <path
         d="m 838.816,1761.22 c 380.434,-193.42 750.844,-70.28 750.844,-70.28 -272.9,236.45 -750.844,70.28 -750.844,70.28"
         style="fill:#dadbd8;fill-opacity:1;fill-rule:nonzero;stroke:none"
         id="path16" />
      <path
         d="m 1980.13,1434.36 c 67.8,252.98 -55.28,473.53 -55.28,473.53 -107.95,-189.7 55.28,-473.53 55.28,-473.53"
         style="fill:#dadbd8;fill-opacity:1;fill-rule:nonzero;stroke:none"
         id="path18" />
      <path
         d="m 1821.61,1906.77 c -282.6,138.2 -570.39,45.54 -570.39,45.54 198.79,-170.53 570.39,-45.54 570.39,-45.54"
         style="fill:#dadbd8;fill-opacity:1;fill-rule:nonzero;stroke:none"
         id="path20" />
      <path
         d="m 1351.7,1471.73 c 3.75,-4.47 181.16,138.13 396.2,318.46 215.12,180.4 386.41,330.21 382.66,334.69 -3.75,4.47 -181.13,-138.1 -396.24,-318.49 -215.05,-180.34 -386.37,-330.19 -382.62,-334.66"
         style="fill:#dadbd8;fill-opacity:1;fill-rule:nonzero;stroke:none"
         id="path22" />
      <path
         d="m 779.371,1109.36 c 0,0 485.359,37.86 653.199,439.14 0,0 -414.58,-26.59 -653.199,-439.14"
         style="fill:#dadbd8;fill-opacity:1;fill-rule:nonzero;stroke:none"
         id="path24" />
      <path
         d="m 1459.92,979.238 c 0,0 367.14,319.712 262.7,741.952 0,0 -317.02,-268.47 -262.7,-741.952"
         style="fill:#dadbd8;fill-opacity:1;fill-rule:nonzero;stroke:none"
         id="path26" />
      <path
         d="m 3300.9,972.168 c 83.72,349.492 -89.81,628.652 -89.81,628.652 -140.06,-269.88 89.81,-628.652 89.81,-628.652"
         style="fill:#dadbd8;fill-opacity:1;fill-rule:nonzero;stroke:none"
         id="path28" />
      <path
         d="m 3344.57,1970.92 c -220.47,5.86 -376.91,-138.21 -376.91,-138.21 176.52,-51.17 376.91,138.21 376.91,138.21"
         style="fill:#dadbd8;fill-opacity:1;fill-rule:nonzero;stroke:none"
         id="path30" />
      <path
         d="m 2988.83,1748.39 c -57.7,-258.54 74.66,-476.02 74.66,-476.02 100.63,196.26 -74.66,476.02 -74.66,476.02"
         style="fill:#dadbd8;fill-opacity:1;fill-rule:nonzero;stroke:none"
         id="path32" />
      <path
         d="m 3437.3,1448.97 c 2.93,3.95 -148.66,121.24 -338.53,261.94 -189.95,140.75 -346.25,251.62 -349.17,247.66 -2.93,-3.95 148.63,-121.21 338.57,-261.96 189.87,-140.7 346.2,-251.59 349.13,-247.64"
         style="fill:#dadbd8;fill-opacity:1;fill-rule:nonzero;stroke:none"
         id="path34" />
      <path
         d="m 3846.36,1051.43 c 0,0 -126.26,390.01 -487.79,448.7 0,0 103.13,-334.27 487.79,-448.7"
         style="fill:#dadbd8;fill-opacity:1;fill-rule:nonzero;stroke:none"
         id="path36" />
      <path
         d="m 3819.35,1634.25 c 0,0 -333.86,237.89 -659.13,69.5 0,0 282.07,-206.91 659.13,-69.5"
         style="fill:#dadbd8;fill-opacity:1;fill-rule:nonzero;stroke:none"
         id="path38" />
      <path
         d="m 3748.44,3637.36 c -436.38,59.4 -755.57,-186.28 -755.57,-186.28 346.19,-137.84 755.57,186.28 755.57,186.28"
         style="fill:#dadbd8;fill-opacity:1;fill-rule:nonzero;stroke:none"
         id="path40" />
      <path
         d="m 2525.28,3568.63 c 19.78,-269.54 214.56,-442.71 214.56,-442.71 40.83,221.5 -214.56,442.71 -214.56,442.71"
         style="fill:#dadbd8;fill-opacity:1;fill-rule:nonzero;stroke:none"
         id="path42" />
      <path
         d="m 2718.91,2987.92 c 313.42,-84.54 586.78,65.82 586.78,65.82 -234.86,133.74 -586.78,-65.82 -586.78,-65.82"
         style="fill:#dadbd8;fill-opacity:1;fill-rule:nonzero;stroke:none"
         id="path44" />
      <path
         d="m 3150.4,3745.45 c -5.18,3.09 -129.68,-196.08 -278.06,-444.79 -148.43,-248.79 -264.52,-452.92 -259.34,-456 5.17,-3.09 129.65,196.03 278.08,444.83 148.37,248.7 264.49,452.87 259.32,455.96"
         style="fill:#dadbd8;fill-opacity:1;fill-rule:nonzero;stroke:none"
         id="path46" />
      <path
         d="m 3585.19,4292.78 c 0,0 -460.15,-201.58 -487.56,-649.58 0,0 395,166.58 487.56,649.58"
         style="fill:#dadbd8;fill-opacity:1;fill-rule:nonzero;stroke:none"
         id="path48" />
      <path
         d="m 2877.82,4188.67 c 0,0 -249.3,-436.14 -4.25,-812.19 0,0 217.84,369.21 4.25,812.19"
         style="fill:#dadbd8;fill-opacity:1;fill-rule:nonzero;stroke:none"
         id="path50" />
      <path
         d="m 4662.68,379.699 c 0,-1.437 -1012.48,-2.609 -2261.14,-2.609 -1249.1,0 -2261.36,1.172 -2261.36,2.609 0,1.43 1012.26,2.602 2261.36,2.602 1248.66,0 2261.14,-1.172 2261.14,-2.602"
         style="fill:#17282f;fill-opacity:1;fill-rule:nonzero;stroke:none"
         id="path52" />
      <path
         d="m 1781.18,2398.84 19.58,73.22 -46,49.53 16.75,33.92 -283.94,-112.29 c -76.71,-30.33 -163.66,7.03 -193.81,83.27 l -18.98,47.99 c -30.14,76.24 7.74,162.97 84.45,193.3 l 299,118.24 v 0 l 6.37,2.52 -0.22,0.55 6.71,3.36 16.55,38.53 -7.4,35.18 -10.39,6.66 -28.09,6.95 -2.57,36.83 -31.36,15.49 -305.37,-120.76 c -156.35,-61.83 -233.56,-238.56 -172.1,-393.97 l 18.97,-47.98 c 61.46,-155.41 238.65,-231.53 395,-169.71 l 240.7,95.18 -3.85,3.99"
         style="fill:#f2575d;fill-opacity:1;fill-rule:nonzero;stroke:none"
         id="path54" />
      <path
         d="m 830.879,2768.96 c 22.543,78.83 -23.649,161.43 -102.953,184.11 l -315.723,90.3 c -79.301,22.69 -162.183,-23 -184.73,-101.83 l -14.188,-49.61 c -22.547,-78.82 23.645,-161.43 102.949,-184.11 l 315.719,-90.3 c 79.309,-22.68 162.192,23 184.731,101.83 l 14.195,49.61 m -766.9142,165.68 14.1915,49.61 c 45.9527,160.68 214.8477,253.77 376.4957,207.54 l 315.723,-90.3 c 161.652,-46.23 255.775,-214.56 209.82,-375.24 l -14.187,-49.6 C 920.051,2515.97 751.156,2422.87 589.504,2469.11 L 273.781,2559.4 C 112.133,2605.64 18.0078,2773.96 63.9648,2934.64"
         style="fill:#dadbd8;fill-opacity:1;fill-rule:nonzero;stroke:none"
         id="path56" />
      <path
         d="m 830.879,2768.96 c 0.109,-0.03 -0.188,-1.49 -0.875,-4.3 -0.816,-3.15 -1.879,-7.26 -3.219,-12.46 -3.242,-10.87 -6.508,-27.11 -13.762,-47.59 -7.941,-19.98 -22.277,-43.53 -46.683,-62.64 -23.86,-19.39 -58.59,-33.33 -97.684,-32.38 -19.586,0.16 -39.539,5.97 -59.476,11.75 -20.164,5.7 -41.133,11.63 -62.84,17.77 -43.438,12.33 -89.82,25.48 -138.621,39.33 -24.406,6.94 -49.414,14.06 -74.957,21.32 -25.442,6.38 -52.688,16.44 -73.957,35.11 -21.664,18.12 -38.332,42.77 -47.328,70.52 -4.45,13.91 -6.649,28.54 -7.18,43.31 -0.207,14.81 1.969,29.63 5.754,44.11 4.027,14.09 8.027,28.08 12.008,41.99 1.824,6.93 4.332,13.92 6.711,20.86 2.968,6.69 5.601,13.59 9.492,19.77 14.285,25.48 36.125,45.87 60.996,59.1 12.433,6.73 25.812,11.13 39.25,14.4 13.594,2.59 27.324,4.03 40.89,3.1 6.762,-0.29 13.461,-1.39 20.067,-2.44 6.496,-1.57 13.148,-2.89 19.293,-4.81 12.484,-3.6 24.832,-7.15 37.027,-10.65 97.426,-28.15 185.195,-53.51 259.063,-74.85 18.41,-4.8 36.375,-11.24 51.086,-20.71 14.91,-9.24 27.265,-20.48 37.211,-32.27 9.789,-11.98 16.871,-24.57 22.359,-36.55 4.812,-12.28 8.539,-23.82 9.98,-34.57 3.485,-21.42 1.676,-38.37 -0.254,-49.5 -0.98,-5.59 -2.359,-9.72 -3.031,-12.54 -0.765,-2.8 -1.211,-4.21 -1.32,-4.18 -1.633,0 9.105,23.37 2.035,65.77 -1.605,10.53 -5.465,21.79 -10.34,33.73 -5.551,11.66 -12.625,23.87 -22.308,35.44 -19.465,23.05 -49.172,42.6 -86.723,50.82 -73.98,20.95 -161.883,45.83 -259.461,73.46 -12.203,3.47 -24.559,6.98 -37.059,10.54 -6.269,1.94 -12.472,3.11 -18.746,4.63 -6.336,0.98 -12.754,2.02 -19.242,2.28 -12.988,0.86 -26.137,-0.55 -39.144,-3.05 -12.86,-3.18 -25.664,-7.39 -37.555,-13.86 -23.785,-12.7 -44.645,-32.23 -58.27,-56.59 -3.722,-5.9 -6.214,-12.5 -9.058,-18.89 -2.258,-6.65 -4.649,-13.22 -6.504,-20.29 -3.977,-13.9 -7.981,-27.9 -12,-41.98 -3.609,-13.85 -5.695,-28 -5.508,-42.15 0.516,-14.11 2.598,-28.09 6.84,-41.39 8.586,-26.55 24.504,-50.17 45.203,-67.54 10.395,-8.56 21.625,-16.1 33.828,-21.31 11.946,-5.67 24.828,-8.91 37.656,-12.66 25.524,-7.34 50.508,-14.52 74.895,-21.54 48.738,-14.05 95.07,-27.41 138.453,-39.92 21.672,-6.26 42.602,-12.32 62.734,-18.14 20.176,-5.98 39.215,-11.67 58.196,-11.99 37.847,-1.21 71.75,11.96 95.234,30.6 24.02,18.35 38.391,41.17 46.563,60.65 7.472,19.87 11.261,36.35 14.89,47 1.606,5.11 2.879,9.16 3.856,12.27 0.902,2.75 1.422,4.14 1.535,4.11"
         style="fill:#17282f;fill-opacity:1;fill-rule:nonzero;stroke:none"
         id="path58" />
      <path
         d="m 63.9648,2934.64 c 0,0 -0.3046,-2.34 -1.2226,-6.8 -1.0117,-4.71 -2.418,-11.27 -4.2344,-19.74 -1.7773,-8.68 -2.4883,-19.68 -4.1836,-32.51 -0.3867,-6.46 -0.3047,-13.45 -0.5,-20.9 -0.0156,-3.72 -0.2578,-7.57 -0.0976,-11.53 0.3242,-3.96 0.6562,-8.03 0.9961,-12.22 2.4375,-33.4 11.414,-74.39 33.3945,-116.8 21.4178,-42.44 57.7028,-85.4 108.3598,-117.48 50.636,-33.02 117.226,-44.27 184.902,-65.13 68.301,-19.2 141.223,-40.65 218.047,-61.56 76.371,-20.01 165.262,-7.88 237.648,38.97 36.188,23.08 68.16,54.49 91.438,92.29 5.433,9.66 11.836,18.85 16.031,29.25 4.758,10.11 9.547,20.25 12.758,31.06 l 5.465,15.98 4.714,16.48 c 3.149,11.01 6.305,22.04 9.469,33.12 25.271,88.02 6.629,183.56 -42.898,253.8 -24.75,35.16 -56.473,64.33 -91.899,85.59 -35.332,21.93 -74.683,32.86 -113.191,43.61 -76.719,22.06 -149.625,43.02 -217.875,62.64 -34.191,9.56 -66.832,20.62 -99.133,25.06 -16.148,2.78 -32.183,2.8 -47.848,3.27 -15.625,-1.11 -30.992,-1.6 -45.687,-4.7 -14.895,-1.88 -28.828,-6.61 -42.574,-10.28 -13.309,-5.09 -26.559,-9.39 -38.473,-15.83 -24.558,-11.35 -45.414,-26.35 -63.863,-41.35 -36.285,-31.09 -59.895,-65.73 -74.84,-95.7 -3.4922,-7.64 -7.0742,-14.74 -9.9375,-21.61 -2.461,-7.03 -4.7657,-13.61 -6.9102,-19.73 -4.4726,-12.16 -7.0234,-22.92 -9.75,-31.37 -2.5273,-8.3 -4.4805,-14.74 -5.8828,-19.35 -1.3594,-4.35 -2.2227,-6.53 -2.2227,-6.53 0,0 0.418,2.31 1.5625,6.72 1.25,4.65 2.9922,11.15 5.2422,19.53 2.5235,8.53 4.8438,19.28 9.1485,31.6 2.0703,6.2 4.2929,12.86 6.664,19.97 2.7891,6.97 6.3086,14.17 9.7422,21.92 14.7108,30.4 38.2418,65.66 74.7458,97.41 18.559,15.32 39.598,30.66 64.426,42.32 12.047,6.6 25.453,11.05 38.938,16.29 13.921,3.81 28.05,8.66 43.168,10.66 14.91,3.22 30.515,3.81 46.394,4.99 15.926,-0.39 32.238,-0.35 48.672,-3.1 33.09,-4.44 65.812,-15.44 99.945,-24.84 68.305,-19.44 141.274,-40.2 218.047,-62.05 19.176,-5.67 38.692,-10.41 58.192,-17.54 9.925,-2.96 19.359,-7.3 28.816,-11.75 9.687,-3.98 18.707,-9.37 27.785,-14.77 36.219,-21.65 68.668,-51.42 93.985,-87.31 50.679,-71.68 69.812,-169.42 43.964,-259.42 -3.168,-11.07 -6.324,-22.11 -9.472,-33.11 l -4.715,-16.48 -5.586,-16.34 c -3.297,-11.05 -8.188,-21.42 -13.055,-31.76 -4.312,-10.62 -10.84,-20.03 -16.406,-29.9 -23.832,-38.64 -56.543,-70.72 -93.535,-94.27 -74,-47.8 -164.848,-60.01 -242.723,-39.43 -77.144,21.16 -149.746,42.75 -218.062,62.2 -34.11,9.82 -67.047,19.31 -98.719,28.43 -31.629,9.53 -61.731,21.2 -87.176,38.03 -51.297,32.84 -87.805,76.66 -109.1717,119.78 -21.9336,43.09 -30.6016,84.62 -32.6641,118.34 -0.2891,4.22 -0.5742,8.33 -0.8477,12.32 -0.1132,4 0.1797,7.88 0.2461,11.63 0.3008,7.51 0.3242,14.54 0.8203,21.04 1.9102,12.9 2.8438,23.92 4.8438,32.6 2.1016,8.44 3.7305,14.98 4.8984,19.66 1.1407,4.42 1.8867,6.63 1.8867,6.63"
         style="fill:#17282f;fill-opacity:1;fill-rule:nonzero;stroke:none"
         id="path60" />
      <path
         d="m 830.879,2768.96 c 22.543,78.83 -23.649,161.43 -102.953,184.11 l -315.723,90.3 c -79.301,22.69 -162.183,-23 -184.73,-101.83 l -14.188,-49.61 c -22.547,-78.82 23.645,-161.43 102.949,-184.11 l 315.719,-90.3 c 79.309,-22.68 162.192,23 184.731,101.83 l 14.195,49.61 m -766.9142,165.68 14.1915,49.61 c 45.9527,160.68 214.8477,253.77 376.4957,207.54 l 315.723,-90.3 c 161.652,-46.23 255.775,-214.56 209.82,-375.24 l -14.187,-49.6 C 920.051,2515.97 751.156,2422.87 589.504,2469.11 L 273.781,2559.4 C 112.133,2605.64 18.0078,2773.96 63.9648,2934.64"
         style="fill:#f2575d;fill-opacity:1;fill-rule:nonzero;stroke:none"
         id="path62" />
      <path
         d="m 692.695,2758.97 c 11.141,41.14 53.739,65.42 95.129,54.21 l 573.656,-155.33 c 41.39,-11.21 65.92,-53.66 54.78,-94.79 -11.13,-41.14 -53.74,-65.42 -95.12,-54.21 l -573.663,155.33 c -41.387,11.2 -65.922,53.65 -54.782,94.79"
         style="fill:#f2575d;fill-opacity:1;fill-rule:nonzero;stroke:none"
         id="path64" />
      <path
         d="m 692.695,2758.97 c 0.457,-0.09 -1.453,-5.75 -1.882,-16.81 -0.227,-10.87 1.585,-28.01 13.445,-45.41 5.832,-8.6 14.148,-17.08 25.199,-23.25 10.82,-6.59 24.66,-9.1 39.223,-13.12 29.16,-7.74 62.273,-16.54 98.84,-26.25 73.32,-19.64 160.43,-42.97 257.12,-68.87 48.38,-13.04 99.15,-26.72 151.78,-40.9 13.15,-3.55 26.43,-7.13 39.81,-10.75 13.17,-3.97 26.47,-5.49 39.84,-2.64 26.54,5.01 49.86,25.97 56.94,52.93 7.51,26.84 -2.02,56.72 -22.4,74.47 -10.1,9.2 -22.35,14.62 -35.73,17.83 -13.38,3.64 -26.65,7.24 -39.81,10.81 -52.6,14.32 -103.35,28.12 -151.7,41.28 -96.56,26.43 -183.55,50.23 -256.768,70.27 -36.469,10.06 -69.493,19.18 -98.575,27.2 -14.597,3.88 -27.816,8.69 -40.48,8.46 -12.656,0.24 -24.113,-2.88 -33.481,-7.36 -19.015,-9.05 -29.226,-22.93 -34.511,-32.42 -5.211,-9.77 -6.418,-15.62 -6.86,-15.47 0,0 0.75,5.95 5.664,16.1 4.993,9.86 15.082,24.41 34.567,34.14 9.597,4.81 21.437,8.26 34.629,8.21 13.379,0.39 27.023,-4.39 41.453,-8.04 29.156,-7.74 62.273,-16.53 98.836,-26.24 73.324,-19.64 160.436,-42.98 257.146,-68.88 48.38,-13.04 99.16,-26.72 151.8,-40.9 13.16,-3.55 26.44,-7.14 39.82,-10.75 13.55,-3.19 27.63,-9.3 38.43,-19.25 22.23,-19.3 32.65,-51.92 24.45,-81.22 -7.73,-29.42 -33.2,-52.29 -62.12,-57.72 -14.34,-3.14 -29.58,-1.29 -42.88,2.79 -13.37,3.63 -26.64,7.24 -39.79,10.81 -52.59,14.31 -103.33,28.11 -151.67,41.27 -96.55,26.42 -183.538,50.23 -256.753,70.26 -36.468,10.07 -69.496,19.18 -98.578,27.21 -14.297,4.14 -28.492,6.89 -39.847,13.97 -11.418,6.62 -19.903,15.57 -25.762,24.57 -11.914,18.23 -13.289,35.88 -12.625,46.91 0.879,11.25 3.23,16.76 3.23,16.76"
         style="fill:#17282f;fill-opacity:1;fill-rule:nonzero;stroke:none"
         id="path66" />
      <path
         d="m 938.016,2604.26 c 0.972,1.62 1.949,3.24 2.918,4.86 0.175,-0.05 0.359,-0.1 0.531,-0.14 -0.965,-1.28 -2.125,-2.87 -3.449,-4.72"
         style="fill:#a7a9a8;fill-opacity:1;fill-rule:nonzero;stroke:none"
         id="path68" />
      <path
         d="m 740.852,2627.86 c 5.003,2.77 13.914,7.91 22.238,13.79 -6.996,-5.23 -14.445,-9.85 -22.238,-13.79"
         style="fill:#0f191d;fill-opacity:1;fill-rule:nonzero;stroke:none"
         id="path70" />
      <path
         d="m 886.078,2542.06 -0.777,0.44 c 20.426,19.63 38.226,42.26 52.625,67.45 1.004,-0.28 2.004,-0.55 3.008,-0.83 -0.969,-1.62 -1.946,-3.24 -2.918,-4.86 -11.219,-15.66 -34.289,-49.52 -51.938,-62.2"
         style="fill:#0f191d;fill-opacity:1;fill-rule:nonzero;stroke:none"
         id="path72" />
      <path
         d="m 885.301,2542.5 -148.461,83.19 c 0,0 1.519,0.79 4.012,2.17 7.793,3.94 15.242,8.56 22.238,13.79 5.594,3.95 10.926,8.23 14.625,12.35 26.578,-7.34 56.219,-15.52 88.562,-24.45 22.614,-6.18 46.536,-12.73 71.649,-19.6 -14.399,-25.19 -32.199,-47.82 -52.625,-67.45"
         style="fill:#cc4341;fill-opacity:1;fill-rule:nonzero;stroke:none"
         id="path74" />
      <path
         d="m 941.465,2608.98 c -0.172,0.04 -0.356,0.09 -0.531,0.14 -1.004,0.28 -2.004,0.55 -3.008,0.83 -25.113,6.87 -49.035,13.42 -71.649,19.6 -32.343,8.93 -61.984,17.11 -88.562,24.45 0.613,0.68 1.183,1.36 1.699,2.03 0,0 167.922,-43.08 165.129,-43.63 -0.414,-0.08 -1.484,-1.32 -3.078,-3.42"
         style="fill:#0f191d;fill-opacity:1;fill-rule:nonzero;stroke:none"
         id="path76" />
      <path
         d="m 1151.52,2464.01 c -1.55,3.59 -3.31,8.02 -5.2,12.98 l 3.01,-7.61 c 0.72,-1.8 1.44,-3.59 2.19,-5.37 m 177.98,9.59 c -9.87,9.34 -18.54,20.13 -25.65,32.2 8.65,-11.69 25.66,-32.2 25.66,-32.2 h -0.01 m -212.1,84.84 c -0.4,1.05 -0.75,1.94 -1.05,2.68 0.15,-0.05 0.3,-0.09 0.45,-0.13 0.2,-0.85 0.4,-1.7 0.6,-2.55"
         style="fill:#a7a9a8;fill-opacity:1;fill-rule:nonzero;stroke:none"
         id="path78" />
      <path
         d="m 1151.61,2463.79 c -0.03,0.08 -0.06,0.15 -0.09,0.22 -0.75,1.78 -1.47,3.57 -2.19,5.37 l -3.01,7.61 c -9.95,26.16 -23.57,67.36 -28.92,81.45 -0.2,0.85 -0.4,1.7 -0.6,2.55 2.08,-0.57 4.15,-1.13 6.23,-1.7 48.34,-13.16 99.08,-26.96 151.67,-41.27 8.43,-2.29 16.91,-4.59 25.43,-6.91 0.87,-1.36 2.16,-3.19 3.72,-5.31 7.11,-12.07 15.78,-22.86 25.65,-32.2 l -177.89,-9.81"
         style="fill:#cc4341;fill-opacity:1;fill-rule:nonzero;stroke:none"
         id="path80" />
      <path
         d="m 1300.13,2511.11 c -8.52,2.32 -17,4.62 -25.43,6.91 -52.59,14.31 -103.33,28.11 -151.67,41.27 -2.08,0.57 -4.15,1.13 -6.23,1.7 -0.15,0.04 -0.3,0.08 -0.45,0.13 -0.52,1.26 -0.89,2.02 -1.09,2.19 -0.03,0.04 -0.01,0.05 0.07,0.05 4.34,0 184.25,-51.34 184.25,-51.34 0.16,-0.27 0.34,-0.58 0.55,-0.91"
         style="fill:#0f191d;fill-opacity:1;fill-rule:nonzero;stroke:none"
         id="path82" />
      <path
         d="m 3289.83,2889.89 -64.93,-39.09 -1.31,-67.58 -35.6,-12.78 282.27,-116.4 c 76.25,-31.45 112.87,-118.72 81.62,-194.51 l -19.67,-47.71 c -31.26,-75.79 -118.75,-111.88 -195.01,-80.43 l -297.25,122.58 v 0 l -6.33,2.61 -0.23,-0.55 -7.16,2.24 -38.66,-16.23 -19.11,-30.44 2.85,-12.01 15.38,-24.51 -23.73,-28.29 11.81,-32.92 303.58,-125.19 c 155.44,-64.1 333.72,9.44 397.43,163.94 l 19.67,47.7 c 63.72,154.49 -10.9,332.33 -166.34,396.43 l -239.28,98.67 v -5.53"
         style="fill:#f2575d;fill-opacity:1;fill-rule:nonzero;stroke:none"
         id="path84" />
      <path
         d="m 4004.4,2474.51 c 11.11,-81.23 86.66,-138.24 168.38,-127.07 l 325.35,44.49 c 81.73,11.17 139.19,86.37 128.09,167.6 l -6.99,51.12 c -11.11,81.23 -86.65,138.24 -168.37,127.07 l -325.36,-44.48 c -81.73,-11.18 -139.19,-86.37 -128.08,-167.61 l 6.98,-51.12 m 768.7,157.18 6.99,-51.12 c 22.64,-165.58 -94.46,-318.81 -261.04,-341.59 l -325.36,-44.48 c -166.58,-22.78 -320.52,93.39 -343.16,258.97 l -6.99,51.12 c -22.64,165.58 94.47,318.81 261.05,341.59 l 325.35,44.48 c 166.59,22.78 320.52,-93.39 343.16,-258.97"
         style="fill:#dadbd8;fill-opacity:1;fill-rule:nonzero;stroke:none"
         id="path86" />
      <path
         d="m 4004.4,2474.51 c -0.11,-0.02 -0.43,1.44 -0.93,4.29 -0.52,3.21 -1.2,7.4 -2.07,12.7 -1.41,11.26 -4.96,27.43 -6.57,49.1 -0.77,21.49 2.86,48.82 17.51,76.14 14.03,27.35 40.21,54.09 76.37,68.98 18,7.73 38.6,10.45 59.17,13.19 20.76,2.9 42.34,5.92 64.68,9.04 44.72,6.21 92.48,12.84 142.72,19.82 25.14,3.48 50.9,7.04 77.2,10.67 25.85,4.41 54.85,6.17 81.83,-2.35 27.13,-7.86 52.32,-23.72 71.73,-45.5 9.67,-10.94 17.57,-23.44 24.01,-36.74 6.15,-13.48 10.13,-27.92 12.49,-42.7 1.99,-14.51 3.96,-28.94 5.92,-43.26 1.12,-7.08 1.64,-14.49 2.26,-21.81 -0.03,-7.31 0.34,-14.69 -0.73,-21.91 -2.81,-29.08 -14.59,-56.54 -32.03,-78.66 -8.68,-11.17 -19.15,-20.58 -30.13,-28.99 -11.4,-7.85 -23.39,-14.69 -36.18,-19.3 -6.31,-2.46 -12.88,-4.15 -19.35,-5.85 -6.58,-1.18 -13.2,-2.65 -19.6,-3.36 -12.88,-1.74 -25.6,-3.47 -38.18,-5.16 -100.51,-13.47 -191.06,-25.61 -267.27,-35.82 -18.79,-3.02 -37.82,-4.36 -55.1,-1.61 -17.37,2.45 -33.2,7.76 -47.06,14.54 -13.78,7.03 -25.33,15.7 -35.18,24.46 -9.35,9.3 -17.41,18.36 -23.06,27.62 -11.81,18.21 -16.98,34.45 -19.7,45.42 -1.35,5.5 -1.75,9.84 -2.27,12.69 -0.43,2.87 -0.59,4.34 -0.48,4.36 1.5,0.66 1.08,-25.06 24.63,-61.02 5.71,-8.99 13.77,-17.75 23.04,-26.71 9.78,-8.44 21.17,-16.76 34.69,-23.45 27.11,-13.27 62.17,-19.2 99.85,-11.6 76.15,10.62 166.64,23.24 267.08,37.24 12.56,1.74 25.29,3.5 38.16,5.28 6.52,0.75 12.67,2.18 19.02,3.31 6.2,1.66 12.49,3.29 18.53,5.66 12.24,4.44 23.71,11.03 34.61,18.55 10.49,8.09 20.51,17.11 28.79,27.82 16.66,21.21 27.89,47.47 30.55,75.26 1.03,6.9 0.65,13.95 0.68,20.94 -0.61,6.99 -1.07,13.97 -2.21,21.19 -1.96,14.33 -3.94,28.75 -5.92,43.26 -2.28,14.13 -6.07,27.92 -11.94,40.8 -6.15,12.7 -13.69,24.67 -22.93,35.13 -18.55,20.84 -42.63,36.05 -68.57,43.61 -12.96,3.65 -26.28,6.03 -39.55,5.89 -13.21,0.38 -26.31,-1.84 -39.56,-3.58 -26.32,-3.56 -52.09,-7.04 -77.23,-10.44 -50.27,-6.77 -98.06,-13.2 -142.81,-19.22 -22.35,-2.99 -43.95,-5.87 -64.73,-8.65 -20.87,-2.65 -40.59,-5.11 -58.09,-12.46 -35.13,-14.13 -60.86,-39.84 -74.85,-66.36 -14.6,-26.47 -18.56,-53.14 -18.2,-74.27 1.17,-21.19 4.33,-37.81 5.3,-49.01 0.59,-5.33 1.06,-9.55 1.41,-12.78 0.28,-2.89 0.37,-4.37 0.25,-4.39"
         style="fill:#17282f;fill-opacity:1;fill-rule:nonzero;stroke:none"
         id="path88" />
      <path
         d="m 4773.1,2631.69 c 0,0 -0.66,2.26 -1.61,6.72 -0.98,4.71 -2.33,11.29 -4.08,19.77 -1.87,8.67 -5.65,19.02 -9.26,31.45 -2.25,6.06 -5.14,12.43 -7.96,19.33 -1.48,3.41 -2.81,7.04 -4.56,10.59 -1.88,3.49 -3.83,7.09 -5.83,10.79 -15.68,29.58 -40.4,63.49 -77.6,93.45 -36.69,30.23 -87.21,54.94 -146.49,63.91 -59.65,9.83 -125.13,-6.7 -195.48,-14.85 -70.25,-9.93 -145.63,-19.66 -224.37,-31.46 -77.97,-12.44 -154.44,-59.33 -201.84,-131.37 -23.83,-35.7 -40.45,-77.32 -46.53,-121.3 -1.08,-11.03 -3.24,-22.02 -2.89,-33.22 -0.29,-11.17 -0.59,-22.38 0.83,-33.57 l 1.43,-16.84 2.32,-16.98 c 1.55,-11.34 3.11,-22.71 4.67,-34.12 12.32,-90.75 67.85,-170.69 141.47,-215.04 36.81,-22.22 77.6,-36.15 118.59,-41.34 41.17,-5.84 81.59,0 121.17,5.67 79.1,10.7 154.28,20.88 224.65,30.4 35.14,5.02 69.48,8.04 100.83,16.98 15.9,3.96 30.59,10.4 45.11,16.28 13.86,7.3 27.73,13.94 39.93,22.7 12.87,7.72 23.73,17.65 34.83,26.55 10.13,10.02 20.53,19.29 28.84,29.98 17.91,20.28 30.96,42.41 41.81,63.57 20.69,43.07 28.35,84.28 29.96,117.73 0.12,8.4 0.54,16.34 0.39,23.79 -0.57,7.42 -1.11,14.37 -1.62,20.84 -0.8,12.93 -2.8,23.81 -3.7,32.64 -1.04,8.62 -1.84,15.29 -2.41,20.08 -0.51,4.53 -0.6,6.87 -0.6,6.87 0,0 0.55,-2.28 1.28,-6.78 0.73,-4.76 1.75,-11.41 3.07,-19.99 1.12,-8.82 3.32,-19.59 4.35,-32.61 0.6,-6.5 1.25,-13.5 1.94,-20.96 0.25,-7.5 -0.07,-15.51 -0.09,-23.98 -1.22,-33.76 -8.57,-75.5 -29.19,-119.26 -10.82,-21.5 -23.9,-44.02 -41.93,-64.69 -8.37,-10.89 -18.85,-20.36 -29.08,-30.58 -11.21,-9.1 -22.19,-19.24 -35.22,-27.15 -12.35,-8.95 -26.4,-15.78 -40.46,-23.25 -14.73,-6.05 -29.65,-12.66 -45.8,-16.76 -32.07,-9.26 -66.46,-12.38 -101.49,-17.51 -70.35,-9.72 -145.49,-20.1 -224.57,-31.02 -19.83,-2.53 -39.61,-6.04 -60.33,-7.37 -10.27,-1.29 -20.66,-1.11 -31.1,-0.85 -10.47,-0.26 -20.9,1.05 -31.38,2.33 -41.88,5.23 -83.56,19.41 -121.19,42.07 -75.26,45.2 -132.13,126.96 -144.71,219.75 -1.56,11.41 -3.12,22.78 -4.67,34.12 l -2.31,16.99 -1.47,17.21 c -1.43,11.44 -1.14,22.9 -0.84,34.32 -0.33,11.45 1.85,22.7 2.97,33.98 6.26,44.96 23.28,87.5 47.66,123.95 48.49,73.55 126.72,121.31 206.29,133.83 79.14,11.7 154.28,21.17 224.65,30.89 35.17,4.74 69.15,9.32 101.81,13.72 32.79,4.02 65.04,5.46 95.11,0.3 60.18,-9.41 111.24,-34.81 148.16,-65.68 37.43,-30.61 62.09,-65.13 77.55,-95.16 1.97,-3.75 3.89,-7.4 5.74,-10.94 1.72,-3.61 3.01,-7.28 4.46,-10.74 2.75,-7 5.56,-13.45 7.72,-19.59 3.45,-12.57 7.03,-23.04 8.7,-31.79 1.47,-8.57 2.62,-15.21 3.43,-19.97 0.74,-4.5 0.94,-6.83 0.94,-6.83"
         style="fill:#17282f;fill-opacity:1;fill-rule:nonzero;stroke:none"
         id="path90" />
      <path
         d="m 4004.4,2474.51 c 11.11,-81.23 86.66,-138.24 168.38,-127.07 l 325.35,44.49 c 81.73,11.17 139.19,86.37 128.09,167.6 l -6.99,51.12 c -11.11,81.23 -86.65,138.24 -168.37,127.07 l -325.36,-44.48 c -81.73,-11.18 -139.19,-86.37 -128.08,-167.61 l 6.98,-51.12 m 768.7,157.18 6.99,-51.12 c 22.64,-165.58 -94.46,-318.81 -261.04,-341.59 l -325.36,-44.48 c -166.58,-22.78 -320.52,93.39 -343.16,258.97 l -6.99,51.12 c -22.64,165.58 94.47,318.81 261.05,341.59 l 325.35,44.48 c 166.59,22.78 320.52,-93.39 343.16,-258.97"
         style="fill:#f2575d;fill-opacity:1;fill-rule:nonzero;stroke:none"
         id="path92" />
      <path
         d="m 4126.86,2539.3 c 6.37,-42.14 -22.84,-81.52 -65.24,-87.92 l -587.64,-88.84 c -42.4,-6.41 -81.95,22.57 -88.32,64.71 -6.37,42.14 22.85,81.52 65.25,87.92 l 587.64,88.84 c 42.4,6.41 81.94,-22.57 88.31,-64.71"
         style="fill:#f2575d;fill-opacity:1;fill-rule:nonzero;stroke:none"
         id="path94" />
      <path
         d="m 4126.86,2539.3 c -0.45,-0.1 -0.98,5.85 -5.05,16.15 -4.16,10.04 -12.72,24.99 -30.59,36.15 -8.79,5.52 -19.82,9.93 -32.42,11.13 -12.56,1.67 -26.24,-1.6 -41.19,-3.78 -29.81,-4.66 -63.66,-9.94 -101.04,-15.78 -75.02,-11.55 -164.16,-25.27 -263.09,-40.5 -49.53,-7.55 -101.51,-15.48 -155.39,-23.69 -13.47,-2.05 -27.06,-4.11 -40.77,-6.19 -13.66,-1.67 -26.45,-5.64 -37.53,-13.62 -22.28,-15.28 -35.18,-43.86 -30.81,-71.38 3.94,-27.6 24.69,-51.11 50.5,-59.14 12.94,-4.36 26.34,-4.39 39.88,-1.95 13.71,2.07 27.31,4.11 40.79,6.14 53.91,8.08 105.92,15.88 155.48,23.31 99.03,14.7 188.24,27.94 263.32,39.08 37.44,5.47 71.34,10.43 101.19,14.8 14.92,2.32 28.96,3.24 40.46,8.55 11.68,4.88 20.91,12.36 27.68,20.23 13.76,15.94 17.52,32.75 18.54,43.57 0.83,11.04 -0.42,16.88 0.04,16.92 0,0 1.71,-5.74 1.3,-17.01 -0.6,-11.04 -3.98,-28.42 -17.89,-45.17 -6.85,-8.27 -16.29,-16.2 -28.39,-21.47 -12.09,-5.74 -26.5,-6.85 -41.18,-9.33 -29.81,-4.66 -63.66,-9.94 -101.04,-15.78 -75.02,-11.55 -164.16,-25.27 -263.11,-40.5 -49.53,-7.56 -101.52,-15.48 -155.42,-23.7 -13.47,-2.04 -27.07,-4.11 -40.77,-6.19 -13.69,-2.54 -29.04,-2.62 -42.93,2.14 -28.12,8.71 -50.79,34.38 -55.09,64.5 -4.77,30.04 9.33,61.24 33.62,77.85 11.86,8.64 26.55,13.09 40.37,14.71 13.71,2.06 27.3,4.1 40.78,6.13 53.9,8.08 105.9,15.88 155.45,23.3 99.01,14.7 188.22,27.94 263.3,39.08 37.44,5.47 71.34,10.43 101.19,14.79 14.75,1.97 28.85,5.17 42.1,3.26 13.12,-1.46 24.48,-6.23 33.48,-12.11 18.24,-11.89 26.61,-27.49 30.45,-37.86 3.72,-10.65 3.78,-16.64 3.78,-16.64"
         style="fill:#17282f;fill-opacity:1;fill-rule:nonzero;stroke:none"
         id="path96" />
      <path
         d="m 1941.99,2909.29 -91.98,89.02 111.24,9.23 -19.26,-98.25"
         style="fill:#9fa1a1;fill-opacity:1;fill-rule:nonzero;stroke:none"
         id="path98" />
      <path
         d="m 1939.44,2932.27 21.81,75.27 -112.74,-8.12 z"
         style="fill:#f2575d;fill-opacity:1;fill-rule:nonzero;stroke:none"
         id="path100" />
      <path
         d="m 2969.03,2680.97 14.98,51.69 -77.42,-5.58 z"
         style="fill:#f2575d;fill-opacity:1;fill-rule:nonzero;stroke:none"
         id="path102" />
      <path
         d="m 1891.31,2569.04 -13.74,-52.04 77.26,7.43 z"
         style="fill:#f2575d;fill-opacity:1;fill-rule:nonzero;stroke:none"
         id="path104" />
      <path
         d="m 1812.16,2084.45 h -69.17 l 69.17,19.52 v -19.52"
         style="fill:#a7a9a8;fill-opacity:1;fill-rule:nonzero;stroke:none"
         id="path106" />
      <path
         d="m 1742.99,2084.45 h -18.24 l 20.34,91.73 67.07,15.04 v -87.25 l -69.17,-19.52"
         style="fill:#9fa1a1;fill-opacity:1;fill-rule:nonzero;stroke:none"
         id="path108" />
      <path
         d="m 1812.16,2201.38 -7.37,-108.25 -82.77,-4.06 -47.91,83.1 138.05,29.21"
         style="fill:#f2575d;fill-opacity:1;fill-rule:nonzero;stroke:none"
         id="path110" />
      <path
         d="m 3003.96,2929.54 -73.08,-70.01 -88.55,25.66 72.54,150.96 89.09,-106.61"
         style="fill:#f2575d;fill-opacity:1;fill-rule:nonzero;stroke:none"
         id="path112" />
      <path
         d="m 2991.14,2056.8 -72.92,57.15 -4.95,12.46 81.78,-22.99 -3.91,-46.62"
         style="fill:#a7a9a8;fill-opacity:1;fill-rule:nonzero;stroke:none"
         id="path114" />
      <path
         d="m 2995.05,2103.42 -81.78,22.99 -6.88,17.27 96.39,52.05 -7.73,-92.31"
         style="fill:#9fa1a1;fill-opacity:1;fill-rule:nonzero;stroke:none"
         id="path116" />
      <path
         d="m 2903.52,2144.35 37.94,55.81 61.32,-4.43 -26.34,-108.53 -72.92,57.15"
         style="fill:#f2575d;fill-opacity:1;fill-rule:nonzero;stroke:none"
         id="path118" />
      <path
         d="m 3662.37,2324.32 c 4.91,9.1 9.39,18.54 13.41,28.3 l 16.43,39.83 c 0.12,0.01 0.25,0.04 0.37,0.05 -10.3,-24.91 -18.52,-51 -30.21,-68.18 m -187.01,19.47 23.15,19.12 c 0.32,0.04 0.64,0.09 0.96,0.14 -7.39,-7.28 -15.48,-13.72 -24.11,-19.26"
         style="fill:#a7a9a8;fill-opacity:1;fill-rule:nonzero;stroke:none"
         id="path120" />
      <path
         d="m 3657.93,2318.45 -190.48,18.82 7.91,6.52 c 8.63,5.54 16.72,11.98 24.11,19.26 7.25,1.1 14.47,2.2 21.66,3.29 53.9,8.22 105.89,16.14 155.42,23.7 5.25,0.8 10.47,1.61 15.66,2.41 l -16.43,-39.83 c -4.02,-9.76 -8.5,-19.2 -13.41,-28.3 -1.42,-2.09 -2.9,-4.06 -4.44,-5.87"
         style="fill:#cc4341;fill-opacity:1;fill-rule:nonzero;stroke:none"
         id="path122" />
      <path
         d="m 3498.51,2362.91 4.24,3.49 191.55,30.21 c -0.58,-1.37 -1.15,-2.74 -1.72,-4.11 -0.12,-0.01 -0.25,-0.04 -0.37,-0.05 -5.19,-0.8 -10.41,-1.61 -15.66,-2.41 -49.53,-7.56 -101.52,-15.48 -155.42,-23.7 -7.19,-1.09 -14.41,-2.19 -21.66,-3.29 -0.32,-0.05 -0.64,-0.1 -0.96,-0.14"
         style="fill:#0f191d;fill-opacity:1;fill-rule:nonzero;stroke:none"
         id="path124" />
      <path
         d="m 4014.33,2440.89 c -0.17,0.41 -0.34,0.82 -0.51,1.23 0.04,0 0.08,0.01 0.12,0.02 0.12,-0.41 0.25,-0.83 0.39,-1.25"
         style="fill:#a7a9a8;fill-opacity:1;fill-rule:nonzero;stroke:none"
         id="path126" />
      <path
         d="m 4035.29,2402.41 c -9.41,11.78 -17.09,25.07 -22.59,39.53 0.37,0.06 0.75,0.12 1.12,0.18 0.17,-0.41 0.34,-0.82 0.51,-1.23 5.29,-16.03 21.17,-38.41 21.17,-38.41 l -0.21,-0.07"
         style="fill:#0f191d;fill-opacity:1;fill-rule:nonzero;stroke:none"
         id="path128" />
      <path
         d="m 3881.71,2355.28 c -16,23.87 -22.89,56.47 -23.99,62.06 5.76,-21.84 13.85,-42.6 23.99,-62.06"
         style="fill:#0f191d;fill-opacity:1;fill-rule:nonzero;stroke:none"
         id="path130" />
      <path
         d="m 3884.68,2351.1 c -1.03,1.36 -2.01,2.75 -2.97,4.18 -10.14,19.46 -18.23,40.22 -23.99,62.06 -0.04,0.24 -0.08,0.43 -0.1,0.57 28.89,4.45 56.3,8.67 82.04,12.63 26.13,4.08 50.53,7.89 73.04,11.4 5.5,-14.46 13.18,-27.75 22.59,-39.53 l -150.61,-51.31"
         style="fill:#cc4341;fill-opacity:1;fill-rule:nonzero;stroke:none"
         id="path132" />
      <path
         d="m 4003.46,2444.66 9.47,1.72 c 0.02,-0.11 0.03,-0.22 0.05,-0.33 -3.14,-0.45 -6.31,-0.92 -9.52,-1.39"
         style="fill:#cc4341;fill-opacity:1;fill-rule:nonzero;stroke:none"
         id="path134" />
      <path
         d="m 3857.62,2417.91 c -0.04,0.18 -0.05,0.27 -0.05,0.27 l 145.89,26.48 c 3.21,0.47 6.38,0.94 9.52,1.39 0.22,-1.23 0.55,-2.55 0.96,-3.91 -0.04,-0.01 -0.08,-0.02 -0.12,-0.02 -0.37,-0.06 -0.75,-0.12 -1.12,-0.18 -22.51,-3.51 -46.91,-7.32 -73.04,-11.4 -25.74,-3.96 -53.15,-8.18 -82.04,-12.63"
         style="fill:#0f191d;fill-opacity:1;fill-rule:nonzero;stroke:none"
         id="path136" />
      <path
         d="m 1797.65,3728.52 -81.13,9.94 c -36.36,-29.77 -81.13,-50.18 -131.11,-56.91 -143.73,-19.39 -275.96,81.43 -295.34,225.16 -19.38,143.74 81.43,275.98 225.17,295.35 143.74,19.38 275.97,-81.43 295.35,-225.17 8.09,-60.01 -4.84,-117.99 -33.03,-166.62 l 0.1,0.1 19.99,-81.85"
         style="fill:#ffffff;fill-opacity:1;fill-rule:nonzero;stroke:none"
         id="path138" />
      <path
         d="m 1797.65,3728.52 c 0,0 -0.5,1.84 -1.4,5.37 -0.9,3.58 -2.21,8.81 -3.95,15.69 -3.44,13.8 -8.52,34.16 -15.13,60.67 l 0.85,-0.24 -0.11,-0.1 -2.56,-2.53 1.77,3.14 c 8.3,14.71 16.82,32.3 23.18,53.07 6.56,20.68 10.95,44.5 11.74,70.54 0.82,26.04 -2.6,54.3 -11.07,83.03 -8.61,28.67 -22.88,57.66 -43.3,84.13 -20.38,26.43 -46.99,50.24 -78.71,68.2 -31.63,18.02 -68.52,29.74 -107.38,32.92 -38.85,3.29 -79.64,-2.64 -117.89,-17.66 -38.2,-15.15 -73.64,-39.99 -101.51,-72.5 -14.13,-16.26 -25.83,-34.3 -35.45,-53.09 -9.53,-18.87 -16.52,-38.74 -21.24,-58.86 -9.31,-40.32 -8.39,-81.75 0.65,-119.86 9.19,-38.13 26.74,-72.83 49.51,-101.45 22.73,-28.72 50.71,-51.2 80.14,-67.22 29.48,-16 60.47,-25.62 90.25,-29.43 14.89,-1.95 29.47,-2.56 43.52,-2.14 14.04,0.56 27.55,2.13 40.36,4.55 25.64,4.86 48.4,13.16 67.77,22.83 19.43,9.63 35.44,20.72 48.51,31.27 l 0.17,0.13 0.21,-0.02 c 26.26,-3.35 46.46,-5.94 60.15,-7.69 6.83,-0.88 12.02,-1.56 15.57,-2.02 3.51,-0.46 5.35,-0.73 5.35,-0.73 0,0 -1.71,0.16 -5.16,0.55 -3.53,0.4 -8.68,1 -15.46,1.78 -13.79,1.62 -34.12,4.01 -60.57,7.11 l 0.38,0.11 c -13.06,-10.66 -29.08,-21.88 -48.57,-31.64 -19.43,-9.8 -42.28,-18.24 -68.05,-23.22 -12.88,-2.47 -26.46,-4.09 -40.6,-4.69 -14.14,-0.46 -28.82,0.11 -43.82,2.04 -29.99,3.76 -61.23,13.38 -90.97,29.46 -29.67,16.08 -57.91,38.7 -80.87,67.63 -22.99,28.82 -40.73,63.8 -50.04,102.26 -9.15,38.43 -10.1,80.22 -0.72,120.92 4.75,20.3 11.79,40.36 21.41,59.39 9.7,18.98 21.51,37.17 35.76,53.58 28.13,32.81 63.9,57.86 102.45,73.13 38.61,15.15 79.76,21.1 118.94,17.75 39.21,-3.23 76.39,-15.11 108.27,-33.31 31.95,-18.15 58.74,-42.19 79.22,-68.87 20.54,-26.7 34.85,-55.93 43.44,-84.82 8.46,-28.96 11.82,-57.4 10.92,-83.59 -0.88,-26.2 -5.38,-50.14 -12.07,-70.89 -6.47,-20.85 -15.13,-38.48 -23.54,-53.18 l -0.8,0.61 0.11,0.1 0.64,0.63 0.21,-0.87 c 6.38,-26.72 11.29,-47.25 14.61,-61.16 1.62,-6.85 2.85,-12.05 3.69,-15.6 0.82,-3.49 1.19,-5.21 1.19,-5.21"
         style="fill:#17282f;fill-opacity:1;fill-rule:nonzero;stroke:none"
         id="path140" />
      <path
         d="m 1672.43,3964.88 c -1.35,15.42 -8.42,30.02 -18.42,41.83 -9.8,11.58 -22.75,20.85 -37.48,24.47 -15.65,3.84 -32.83,0.95 -46.35,-7.82 -8.04,-5.21 -14.72,-12.45 -19.41,-20.8 -4.19,7.63 -10.01,14.36 -17.05,19.48 -13.04,9.47 -30.04,13.28 -45.87,10.27 -14.9,-2.83 -28.32,-11.4 -38.72,-22.43 -10.62,-11.27 -18.46,-25.47 -20.63,-40.8 -2.71,-19.2 0.45,-40.38 9.99,-57.26 10.08,-17.83 26.75,-32.45 44,-43.48 29.01,-18.55 67.24,-41.82 67.24,-41.82 0,0 33.46,23.66 63.42,40.64 17.82,10.09 35.24,23.81 46.25,41.07 10.43,16.35 14.72,37.33 13.03,56.65"
         style="fill:#f2575d;fill-opacity:1;fill-rule:nonzero;stroke:none"
         id="path142" />
      <path
         d="m 2036.71,2349.65 c -0.15,-1.11 -127.78,-452.42 -127.34,-640.95 0.45,-191.78 30,-344.94 -5.7,-446.47 -35.7,-101.53 -26.77,-500.14 -26.77,-609.199 0,-109.051 26.77,-300.84 17.85,-300.84 -8.93,0 133.87,0 133.87,0 0,0 66.94,421.18 102.64,545.27 35.7,124.099 44.62,229.389 44.62,229.389 0,0 80.32,203.07 107.1,334.69 26.77,131.61 40.16,199.3 71.4,285.79 31.24,86.5 49.89,186.19 66.31,186.1 32.93,-0.19 9.55,299.01 9.55,299.01 l -393.53,117.21"
         style="fill:#17282f;fill-opacity:1;fill-rule:nonzero;stroke:none"
         id="path144" />
      <path
         d="m 2420.69,1933.43 c 0,0 38.6,-25.91 44.6,-53.77 6,-27.87 120.03,-618.09 162.04,-704.21 42.01,-86.13 9,-265.981 69.01,-430.641 60.02,-164.649 96.03,-364.77 96.03,-364.77 l 111.02,10.141 c 0,0 3,466.09 0,544.621 -3,78.529 -3,144.959 -21,221.939 -18.01,76.97 -15,304.95 -9,416.41 6,111.45 5.64,344.38 -18.37,443.17 -24,98.8 -116.42,357.26 -125.42,359.79 -9,2.53 -297.11,-143.67 -297.11,-143.67 l -11.8,-299.01"
         style="fill:#17282f;fill-opacity:1;fill-rule:nonzero;stroke:none"
         id="path146" />
      <path
         d="m 2526.04,3245.06 c 2,5.99 119.94,71.96 353.82,63.97 0,0 145.93,73.96 333.83,93.95 0,0 78.62,52.66 237.72,92.43 159.73,39.94 206.02,50.83 206.02,50.83 l 60.01,-97.28 c 0,0 -347.82,-127.94 -471.76,-179.91 -123.94,-51.98 -478.61,-170.07 -508.35,-277.75 l -155.32,49.86 -55.97,203.9"
         style="fill:#ba6258;fill-opacity:1;fill-rule:nonzero;stroke:none"
         id="path148" />
      <path
         d="m 3650.68,3543.25 c 0,0 -1.57,33.86 43.76,68.25 45.32,34.38 59.39,29.17 79.19,51.05 19.79,21.88 20.84,21.88 27.61,13.03 6.77,-8.86 9.38,-25.01 -6.25,-41.68 -15.63,-16.67 -45.85,-33.86 -31.26,-44.28 14.58,-10.42 43.24,-8.86 79.19,3.65 35.94,12.5 96.38,33.86 112,32.29 15.63,-1.56 20.84,-16.67 11.99,-22.92 -8.86,-6.25 -89.61,-40.63 -87.53,-39.07 2.09,1.56 94.82,31.78 114.1,26.05 19.27,-5.73 20.31,-17.19 10.42,-23.97 -9.9,-6.77 -94.82,-40.63 -91.7,-39.59 3.13,1.04 68.77,17.71 79.71,17.71 10.94,0 23.45,-13.54 6.25,-24.48 -17.19,-10.94 -124.51,-34.91 -124.51,-41.16 0,-6.25 30.74,-16.67 62,-14.07 31.26,2.61 56.78,2.09 60.95,-18.23 0,0 -16.67,-11.46 -58.35,-11.98 -41.67,-0.52 -75.02,12.5 -113.05,11.46 -38.03,-1.04 -117.22,-1.56 -117.22,-1.56 l -57.3,99.5"
         style="fill:#ba6258;fill-opacity:1;fill-rule:nonzero;stroke:none"
         id="path150" />
      <path
         d="m 1181.4,3560.44 c 2.09,6.12 -19.59,63.58 -46.62,93.3 -27.02,29.73 -60.8,68.24 -62.16,75.67 -1.35,7.43 -24.32,12.84 -25.67,-10.81 -1.35,-23.64 20.27,-46.62 30.4,-65.53 10.14,-18.92 6.76,-22.97 -9.46,-22.97 -16.21,0 -72.285,17.82 -97.96,27.49 -25.672,9.67 -99.317,48.85 -113.504,27.23 0,0 -10.133,-7.43 0,-12.16 10.137,-4.73 108.097,-56.07 105.398,-56.75 -2.703,-0.68 18.914,-10.14 -29.726,8.11 -48.645,18.24 -98.641,45.52 -117.559,33.57 -18.918,-11.95 -5.406,-20.73 -3.379,-20.73 2.028,0 116.207,-58.11 114.18,-57.43 -2.027,0.67 -2.027,-4.07 -21.621,-0.01 -19.59,4.06 -96.614,32.44 -112.153,1.36 0,0 -4.05,-5.41 32.43,-14.19 36.484,-8.78 95.262,-25 97.289,-27.02 2.028,-2.03 4.055,-5.41 -6.082,-8.11 -10.133,-2.7 -93.23,4.73 -95.933,-30.41 0,0 -8.11,-5.4 22.293,-2.7 30.402,2.7 119.585,13.51 164.177,4.73 44.59,-8.78 89.18,-32.43 122.28,-30.4 l 53.38,87.76"
         style="fill:#ba6258;fill-opacity:1;fill-rule:nonzero;stroke:none"
         id="path152" />
      <path
         d="m 1170.85,3566.56 c 0,0 193.87,-67.78 383.79,-111.3 0,0 215.64,-51.44 344.23,-138.48 0,0 182,7.33 294.77,-51.73 l -116.72,-373.61 c 0,0 -37.59,134.52 -81.11,176.07 -43.53,41.54 -453.04,233.44 -498.54,245.31 -45.5,11.87 -371.96,163.84 -368.01,163.84 3.96,0 41.59,89.9 41.59,89.9"
         style="fill:#ba6258;fill-opacity:1;fill-rule:nonzero;stroke:none"
         id="path154" />
      <path
         d="m 2035.98,3143.73 43.08,-589.07 -76.65,-321.32 c 0,0 317.36,-157.07 568.91,-95.79 251.55,61.27 203.17,199.94 203.17,199.94 0,0 -70.95,151.58 -77.4,251.55 -6.45,99.97 45.15,467.62 45.15,467.62 l -193.2,199.87 -355.4,8.52 -157.66,-121.32"
         style="fill:#f2575d;fill-opacity:1;fill-rule:nonzero;stroke:none"
         id="path156" />
      <path
         d="m 2888.15,3449.31 c -9.45,33.56 -49.77,45.21 -77.94,65.75 19.72,6.51 37.48,18.83 50.48,35.02 5.97,7.43 11.14,17.31 7.56,26.14 -2.86,7.08 -10.41,10.97 -17.57,13.66 -19.67,7.4 -40.99,10.37 -61.93,8.62 20.51,6.81 29.77,30.77 31.84,52.29 2.52,26.18 -1.92,53.56 -15.87,75.86 -13.95,22.3 -38.12,38.81 -64.38,40.24 -46.63,2.56 -82.84,-39.17 -107.07,-79.09 -14.06,18.45 -41.25,25.51 -62.51,16.21 -14.41,-6.3 -29.1,-19.36 -43.56,-13.17 -5.23,2.24 -9.12,6.71 -12.9,10.97 -26.54,29.87 -60.41,57.47 -100.31,59.6 l -278.1,-14.86 c -17.62,20.96 -51.75,15.41 -75.47,1.74 -33.43,-19.28 -60.38,-53.87 -60.71,-92.46 -0.33,-38.59 33,-77.19 71.46,-74.02 -19.56,-18.32 -28.38,-47.37 -22.32,-73.48 6.07,-26.11 26.8,-48.3 52.44,-56.12 14.37,-4.38 30.82,-4.97 41.95,-15.05 5,-4.53 8.35,-10.54 11.86,-16.3 54.68,-89.47 174.23,-133.19 273.72,-100.09 5.68,1.89 11.51,4.02 17.47,3.55 7.36,-0.59 13.74,-5.02 19.94,-9.02 63.08,-40.67 146.55,-47.7 215.54,-18.15 24.51,10.5 48.48,26.82 58.43,51.56 1.92,4.79 3.5,10.1 7.59,13.24 3.98,3.04 9.36,3.25 14.37,3.33 29.41,0.41 60,0.36 86.52,13.08 26.52,12.73 47.44,42.64 39.47,70.95"
         style="fill:#17282f;fill-opacity:1;fill-rule:nonzero;stroke:none"
         id="path158" />
      <path
         d="m 2097.42,3637.96 c -21.76,23.08 -0.38,76.54 19.93,100.9 -13.9,14.27 -15.43,31.94 -4.42,48.55 11,16.6 9.74,20.03 26.89,30.14 5.33,46.36 53.07,83.38 99.29,77 20.05,36.92 69.6,47.36 110.91,39.68 10.09,-1.87 20.25,-4.58 30.46,-3.52 7.48,0.78 14.6,3.56 21.92,5.31 40.28,9.58 83.69,-15.11 103.41,-51.5 3.16,-5.82 23.64,-20.24 28.2,-25.04 5.98,-6.3 13.54,-8.5 18.74,-15.46 17.97,-24 3.4,-36.84 6.05,-55.43 2.26,-15.79 7.95,-13.82 16.07,-27.55 4.07,-6.89 10.7,-12.11 14.06,-19.36 9.73,-21.03 -12.19,-45.72 -5.44,-67.89 1.37,-4.52 3.88,-8.61 5.61,-13.01 3.55,-8.99 3.68,-19.28 0.37,-28.37 -2.55,-7.01 -7.14,-13.65 -6.83,-21.11 0.23,-5.66 3.27,-10.76 4.95,-16.17 4.11,-13.22 -19.81,-68.2 -30.73,-76.71 l -348.31,-38.05 c -26.92,2.74 -50.81,24.49 -56.03,51.05 -0.87,4.41 -1.42,9.24 -4.54,12.49 -2.65,2.77 -6.59,3.76 -10.13,5.23 -23.65,9.8 -29.45,40.35 -29.63,65.96 -0.02,3.58 -0.02,7.26 -1.26,10.62 -1.81,4.89 -5.96,8.45 -9.54,12.24"
         style="fill:#17282f;fill-opacity:1;fill-rule:nonzero;stroke:none"
         id="path160" />
      <path
         d="m 2192.74,3647.83 c -6.74,61.65 25.42,136.18 83.97,172.05 36.9,22.6 67.05,25.51 87.16,29.77 45.04,9.52 83.87,-9.65 83.87,-9.65 19.65,-2.74 96.09,-60.75 106.22,-130.43 11.26,-77.4 21.95,-172.35 17.48,-231.16 -9,-118.26 -97.27,-140.43 -97.27,-140.43 l 14.32,-90.18 -74.44,-170.72 -145.35,168.51 -75.96,402.24"
         style="fill:#ba6258;fill-opacity:1;fill-rule:nonzero;stroke:none"
         id="path162" />
      <path
         d="m 2428.52,3661.99 c 1.75,0.81 19.82,-33.56 40.36,-76.78 4.96,-10.67 9.71,-20.84 14.22,-30.56 1.94,-4.55 5.05,-9.64 3.46,-15.98 -0.86,-3.16 -3.7,-5.64 -6.28,-6.56 -2.57,-1.02 -4.88,-1.26 -6.91,-1.55 -16.25,-2.21 -26.38,-3.11 -26.51,-2.2 -0.15,0.91 9.72,3.46 25.78,6.86 4.07,0.76 7.9,1.9 8.37,4.76 0.72,3.05 -1.36,7.35 -3.74,11.97 -4.69,9.64 -9.59,19.75 -14.73,30.34"
         style="fill:#17282f;fill-opacity:1;fill-rule:nonzero;stroke:none"
         id="path164" />
      <path
         d="m 2474.17,3337.98 c 0,0 -78.73,-10.84 -160.37,29.57 0,0 49.58,-82.52 165.53,-62.05 l -5.16,32.48"
         style="fill:#6f3530;fill-opacity:1;fill-rule:nonzero;stroke:none"
         id="path166" />
      <path
         d="m 2220.48,3539.44 c -0.73,8.69 -12.45,28.37 -21.14,29 -23.22,1.71 -64.4,-3.51 -60.03,-61.77 5.98,-79.64 99.4,-56.23 99.37,-53.94 -0.03,1.79 -15.67,56.7 -18.2,86.71"
         style="fill:#ba6258;fill-opacity:1;fill-rule:nonzero;stroke:none"
         id="path168" />
      <path
         d="m 2204.03,3478.79 c -0.37,0.23 -1.32,-1.08 -3.58,-2.33 -2.21,-1.21 -6.09,-2.24 -10.35,-0.99 -8.65,2.46 -16.74,15.28 -18.2,29.61 -0.75,7.23 0.25,14.25 2.39,20.16 2,6 5.46,10.36 9.64,11.43 4.14,1.29 7.33,-1.02 8.47,-3.19 1.24,-2.15 0.85,-3.78 1.28,-3.88 0.24,-0.18 1.61,1.46 0.72,4.7 -0.45,1.56 -1.52,3.37 -3.51,4.76 -2.02,1.41 -4.89,1.99 -7.82,1.45 -6.11,-0.89 -11.21,-6.95 -13.57,-13.44 -2.68,-6.54 -3.98,-14.43 -3.14,-22.56 1.72,-16.01 11.06,-30.4 22.82,-32.87 5.71,-1.04 10.26,1 12.53,3.06 2.32,2.15 2.6,3.97 2.32,4.09"
         style="fill:#6f3530;fill-opacity:1;fill-rule:nonzero;stroke:none"
         id="path170" />
      <path
         d="m 2590.33,3710.63 c -16.9,8.72 -28.29,21.55 -28.85,40.57 -10.4,-4.06 -22.36,8.78 -29.34,17.5 -6.98,8.71 -14.98,12.74 -15.42,23.9 -0.09,2.2 -0.14,4.54 -1.33,6.39 -1.86,2.92 -5.73,3.6 -9.11,4.36 -17.4,3.9 -32.37,17.29 -38.17,34.16 -16.44,-8.87 -35.12,-13.55 -53.8,-13.49 -7.26,-12.63 -21.26,-21.1 -35.82,-21.66 -14.55,-0.57 -29.17,6.8 -37.39,18.82 -3.99,-10.35 -13.79,-17.59 -24.29,-21.19 -10.5,-3.6 -21.77,-4.08 -32.86,-4.52 6.53,-20.99 -5.38,-46.01 -25.79,-54.17 -2.76,-1.1 -5.96,-2.23 -7.05,-5 -1.12,-2.87 0.63,-5.98 1.96,-8.77 8.45,-17.63 -1.73,-41.57 -20.29,-47.72 13.85,-9.02 14.43,-32.48 1.04,-42.17 -2.75,-1.99 -6.36,-4.41 -5.63,-7.73 0.27,-1.26 1.16,-2.28 2.02,-3.24 6.58,-7.39 13.19,-15.5 14.72,-25.27 1.53,-9.77 -4.2,-21.35 -14.01,-22.59 5.55,-4.17 10.86,-9.69 11.55,-16.59 0.69,-6.91 -16.65,-19.33 -23.31,-17.37 -2.83,0.83 -19.69,11.03 -34.05,31.33 -21.99,31.1 0.43,45.88 -0.47,83.96 -0.89,38.09 9.32,75.89 25.55,110.36 6.81,14.46 14.74,28.51 25.1,40.68 11.81,13.87 26.48,24.97 41.1,35.83 19.09,14.17 38.74,28.36 61.34,35.7 42.12,13.67 88.03,1.74 129.61,-13.47 15.82,-5.78 31.64,-12.13 45.34,-21.92 16.39,-11.72 29.08,-27.87 40.35,-44.57 16.28,-24.14 30.32,-50.46 35.52,-79.11"
         style="fill:#17282f;fill-opacity:1;fill-rule:nonzero;stroke:none"
         id="path172" />
      <path
         d="m 2626.66,3822.82 c -1.39,-11.18 -3.37,-22.25 -8.53,-32.2 -11.13,-21.45 -32,-38.07 -55.93,-42.16 -35.03,-5.98 -72.8,15.55 -85.49,48.74 -10.81,-14.61 -31.57,-20.94 -48.7,-14.85 -17.12,6.09 -29.22,24.1 -28.38,42.26 -21.81,-13.49 -52.82,-5.55 -68.87,14.45 -16.04,20.01 -18.12,48.91 -9.32,73 9.39,25.68 30.51,46.82 56.18,56.22 25.68,9.4 55.45,6.91 79.21,-6.64 31.86,26.05 86.98,13.64 104.6,-23.55 41.98,-5.2 70.59,-39.27 60.41,-93.52 0,0 6.49,-8.45 4.82,-21.75"
         style="fill:#17282f;fill-opacity:1;fill-rule:nonzero;stroke:none"
         id="path174" />
      <path
         d="m 2388.53,3917.6 c 0.13,0.24 -1.77,1.82 -5.85,3.52 -4.03,1.73 -10.36,3.49 -18.36,3.38 -7.93,-0.05 -17.59,-2.04 -26.81,-7.45 -9.1,-5.36 -18.11,-14.17 -21.51,-26.7 -2.74,-9.56 1.68,-21.27 11.05,-24.61 l -1.09,4.03 c -5.78,-7.31 -8.35,-15.86 -8.63,-23.37 -0.41,-7.56 1.26,-14.17 3.45,-19.16 4.54,-10.13 10.56,-13.59 10.69,-13.24 0.62,0.55 -4.36,4.75 -7.71,14.4 -3.34,9.19 -4.23,25.4 6.14,38.1 l 2.26,2.78 -3.35,1.26 c -6.14,2.31 -9.84,10.77 -7.6,18.54 2.76,10.39 10.74,18.76 18.86,23.74 8.24,5.14 17.04,7.38 24.41,7.89 15.01,1.06 23.7,-4.15 24.05,-3.11"
         style="fill:#33535f;fill-opacity:1;fill-rule:nonzero;stroke:none"
         id="path176" />
      <path
         d="m 2533.3,3620.18 c -1.5,-2.36 -14.73,3.91 -31.13,0.63 -16.42,-3.03 -26.8,-13.85 -28.98,-12.18 -1.05,0.71 0.18,4.68 4.66,9.53 4.41,4.81 12.49,10.24 22.71,12.22 10.23,1.95 19.57,-0.12 25.27,-2.99 5.81,-2.88 26.83,7.7 7.47,-7.21"
         style="fill:#17282f;fill-opacity:1;fill-rule:nonzero;stroke:none"
         id="path178" />
      <path
         d="m 2449.65,3707.51 c 3.43,3.84 17.08,0.06 33.43,0.08 16.35,-0.47 30.17,2.91 33.4,-1.02 1.42,-1.91 -0.71,-5.74 -6.72,-9.41 -5.92,-3.65 -15.86,-6.7 -27.1,-6.55 -11.23,0.17 -21.01,3.49 -26.74,7.31 -5.83,3.83 -7.77,7.72 -6.27,9.59"
         style="fill:#17282f;fill-opacity:1;fill-rule:nonzero;stroke:none"
         id="path180" />
      <path
         d="m 2317.54,3608.76 c 1.92,-2.03 13.73,6.63 30.45,6.52 16.7,0.13 28.94,-8.53 30.76,-6.48 0.89,0.9 -1.06,4.56 -6.38,8.48 -5.24,3.89 -14.2,7.69 -24.61,7.69 -10.42,-0.01 -19.2,-3.81 -24.25,-7.71 -5.15,-3.93 -30.98,7.71 -5.97,-8.5"
         style="fill:#17282f;fill-opacity:1;fill-rule:nonzero;stroke:none"
         id="path182" />
      <path
         d="m 2369.1,3702.05 c -3.82,3.27 -15.99,-2.54 -31.3,-5.02 -15.24,-2.96 -28.71,-1.73 -31.11,-6.1 -1.03,-2.1 1.58,-5.56 7.79,-8.26 6.12,-2.7 15.91,-4.2 26.41,-2.33 10.5,1.87 19.12,6.64 23.88,11.29 4.84,4.67 6.04,8.8 4.33,10.42"
         style="fill:#17282f;fill-opacity:1;fill-rule:nonzero;stroke:none"
         id="path184" />
      <path
         d="m 2146.7,3544.69 c -0.02,-0.05 -0.62,0.23 -1.75,0.8 -1.1,0.62 -2.84,1.36 -4.88,2.71 -4.12,2.58 -9.88,6.95 -15.7,13.86 -5.74,6.9 -11.59,16.4 -14.85,28.39 -3.47,11.85 -4.07,26.34 0.44,40.72 l 0.19,-0.94 c -11.49,13.11 -18.73,31.97 -18.78,51.91 -0.22,23.18 9.04,45.06 23.45,58.63 l -0.06,-1.3 c -4.36,5.81 -5.93,12.53 -6.8,18.8 -0.77,6.33 -0.57,12.42 0.26,18.06 1.83,11.28 6.46,20.51 11.58,26.94 l 1.86,2.38 2,2.02 c 1.33,1.27 2.49,2.56 3.74,3.57 2.6,1.88 4.67,3.71 6.62,4.78 1.82,1 3.29,1.8 4.45,2.44 1.01,0.54 1.55,0.8 1.57,0.75 0.02,-0.05 -0.46,-0.39 -1.43,-1.02 -1.1,-0.7 -2.51,-1.58 -4.26,-2.68 -1.88,-1.13 -3.86,-3.02 -6.37,-4.94 -1.21,-1.02 -2.31,-2.33 -3.59,-3.6 l -1.92,-2.02 -1.77,-2.37 c -4.89,-6.4 -9.26,-15.46 -10.92,-26.49 -0.76,-5.51 -0.88,-11.45 -0.09,-17.59 0.86,-6.05 2.55,-12.62 6.5,-17.8 l 0.55,-0.72 -0.61,-0.57 c -13.93,-13.27 -22.91,-34.61 -22.7,-57.26 0.06,-19.47 7.07,-37.85 18.17,-50.64 l 0.36,-0.42 -0.17,-0.52 c -4.44,-13.93 -3.98,-28.05 -0.7,-39.69 3.07,-11.77 8.67,-21.18 14.2,-28.07 11.34,-13.86 21.82,-17.65 21.41,-18.12"
         style="fill:#33535f;fill-opacity:1;fill-rule:nonzero;stroke:none"
         id="path186" />
      <path
         d="m 2443.32,3487.11 c 0,-15.11 -12.25,-27.36 -27.36,-27.36 -15.11,0 -27.36,12.25 -27.36,27.36 0,15.11 12.25,27.36 27.36,27.36 15.11,0 27.36,-12.25 27.36,-27.36"
         style="fill:#6f3530;fill-opacity:1;fill-rule:nonzero;stroke:none"
         id="path188" />
      <path
         d="m 2452.14,3479.34 c 0.38,-1.37 -4.29,-4.24 -12.82,-5.15 -8.45,-1.01 -20.49,0.51 -32.28,6.16 -11.79,5.67 -20.55,14.51 -24.55,22.19 -4.13,7.69 -4.05,13.26 -2.72,13.63 1.62,0.54 4.19,-3.67 9.21,-9.03 4.95,-5.42 12.85,-11.75 22.95,-16.65 20.41,-10.28 39.51,-8.15 40.21,-11.15"
         style="fill:#17282f;fill-opacity:1;fill-rule:nonzero;stroke:none"
         id="path190" />
      <path
         d="m 2770.65,3306.47 c -3.49,-1.17 -173.48,-2.1 -244.61,-61.41 l 197.01,-277.55 c 0,0 78.94,117.24 170.64,135.81 l -123.04,203.15"
         style="fill:#f2575d;fill-opacity:1;fill-rule:nonzero;stroke:none"
         id="path192" />
      <path
         d="m 2054.89,2953.39 c 0,0 -47.34,114.01 -233.54,198.05 l 127.53,169.61 c 0,0 174.88,0.16 269.72,-66.58 l -163.71,-301.08"
         style="fill:#f2575d;fill-opacity:1;fill-rule:nonzero;stroke:none"
         id="path194" />
      <path
         d="m 2236,2474.41 c 0.03,0.08 0.74,-0.08 2.1,-0.47 1.64,-0.5 3.61,-1.11 6.02,-1.85 5.31,-1.57 12.95,-4.45 23.1,-7.32 20.14,-6.18 49.75,-14.04 87.2,-20.44 74.45,-13.13 182.74,-16.94 297.69,15.18 l 0.16,-5.03 c -15.8,3.53 -32.58,7.12 -49.45,11.29 -127.78,30.53 -239.66,71.87 -318.48,106.1 -39.45,17.08 -70.79,32.21 -92.28,42.97 -10.74,5.38 -18.97,9.79 -24.56,12.74 -2.55,1.39 -4.62,2.53 -6.32,3.45 -1.41,0.8 -2.11,1.25 -2.07,1.33 0.04,0.08 0.82,-0.21 2.31,-0.85 1.76,-0.8 3.91,-1.79 6.55,-2.99 6.1,-2.89 14.44,-6.85 24.98,-11.86 21.74,-10.19 53.27,-24.79 92.83,-41.4 79.05,-33.3 190.82,-73.98 318.25,-104.42 16.83,-4.16 33.57,-7.75 49.32,-11.29 l 10.08,-2.27 -9.92,-2.76 c -115.92,-32.24 -225.03,-27.73 -299.69,-13.63 -37.56,6.89 -67.16,15.31 -87.17,22.07 -10.09,3.15 -17.65,6.34 -22.86,8.21 -2.35,0.92 -4.27,1.68 -5.86,2.3 -1.31,0.55 -1.96,0.86 -1.93,0.94"
         style="fill:#17282f;fill-opacity:1;fill-rule:nonzero;stroke:none"
         id="path196" />
      <path
         d="m 2797.72,3127.82 c 0.63,-0.36 -4.96,-12.42 -14.48,-31.59 -5.05,-9.99 -10.75,-21.27 -16.96,-33.55 -6.1,-12.83 -14.8,-25.83 -18.8,-41.46 -8.87,-31.18 -13.73,-60.49 -17.81,-81.47 -3.9,-21.05 -6.28,-34.09 -7.02,-33.99 -0.35,0.05 -0.24,3.38 0.32,9.36 0.56,5.98 1.57,14.6 3.07,25.23 3.17,21.22 7.42,50.6 16.46,82.37 2.27,7.8 5.16,15.87 9.03,22.48 3.61,6.78 7.11,13.34 10.47,19.65 6.59,12.13 12.64,23.27 18,33.12 10.38,18.78 17.1,30.2 17.72,29.85"
         style="fill:#17282f;fill-opacity:1;fill-rule:nonzero;stroke:none"
         id="path198" />
      <path
         d="m 1990.51,3127.63 c 0.61,0.31 5.8,-8.58 13.13,-23.48 7.3,-14.91 16.7,-35.9 25.22,-59.82 8.57,-23.92 14.41,-46.21 17.44,-62.64 1.36,-8.28 2.01,-14.89 2.71,-19.45 0.65,-4.56 1.13,-7.07 0.77,-7.19 -0.92,-0.34 -3.94,9.79 -7.09,25.91 -3.9,15.98 -10.24,37.92 -18.74,61.62 -8.45,23.72 -17.24,44.8 -23.66,60.04 -6.45,15.24 -10.46,24.68 -9.78,25.01"
         style="fill:#17282f;fill-opacity:1;fill-rule:nonzero;stroke:none"
         id="path200" />
      <path
         d="m 2022.91,396.488 c 16.14,-31.156 25.12,-72.679 22.42,-112.476 -1.2,-17.711 -3.6,-36.672 -14.73,-49.961 -8.83,-10.551 -22.36,-16.43 -28.95,-28.699 -7.4,-13.801 -3.71,-31.141 -7.33,-46.532 -4.75,-20.172 -31.92,-37.781 -50.37,-44.261 -18.44,-6.489 -34.24,-3.887 -53.55,-3.411 -27.97,0.704 -52.46,3.071 -73.12,23 -15.74,15.18 -22.82,39.184 -20.9,61.993 1.91,22.808 12.1,44.347 26.08,61.828 11.98,14.98 48.81,48.941 58.08,65.972 10.41,19.11 9.75,37.207 16.46,63.207 0,0 1.41,12.883 39.87,10.133 38.45,-2.742 51.04,-47.789 64.94,-37.679 13.89,10.109 21.1,36.886 21.1,36.886"
         style="fill:#17282f;fill-opacity:1;fill-rule:nonzero;stroke:none"
         id="path202" />
      <path
         d="m 1794.58,169.781 c 15.37,-14.41 32.46,-25.73 52.15,-31.781 20.54,-6.309 40.18,-8.059 60.72,-6.68 12.17,0.809 31.04,5.649 40.96,13.391 16.06,12.539 22.19,18.828 27.21,30.82 5.31,12.688 3.51,27.778 9.17,40.309 6.3,13.949 20.24,21.64 30.9,32.129 14.2,13.961 28.39,36.453 29.27,56.953 10.53,-19.481 10.52,-48.391 -2.75,-67.32 -10.51,-14.993 -28.11,-23.282 -37.32,-39.211 -8.04,-13.899 -2.66,-29.641 -8.53,-44.711 -8.21,-21.078 -32.74,-37.711 -53.09,-44.36 -20.35,-6.648 -42.12,-5.859 -63.03,-2.48 -17.32,2.801 -34.64,7.441 -49.7,16.89 -15.06,9.461 -27.74,24.211 -32.43,42.29"
         style="fill:#33535f;fill-opacity:1;fill-rule:nonzero;stroke:none"
         id="path204" />
      <path
         d="m 1918.04,240.781 c -0.8,-1.25 -13.34,6.989 -30.78,11.321 -17.4,4.546 -32.25,3.296 -32.38,4.789 -0.31,1.218 15.12,4.828 33.56,0.039 18.47,-4.621 30.43,-15.219 29.6,-16.149"
         style="fill:#ffffff;fill-opacity:1;fill-rule:nonzero;stroke:none"
         id="path206" />
      <path
         d="m 1928.16,267.012 c -0.8,-1.25 -13.34,6.988 -30.78,11.32 -17.4,4.547 -32.25,3.297 -32.38,4.789 -0.31,1.219 15.12,4.828 33.55,0.039 18.48,-4.621 30.44,-15.219 29.61,-16.148"
         style="fill:#ffffff;fill-opacity:1;fill-rule:nonzero;stroke:none"
         id="path208" />
      <path
         d="m 1946.42,291.422 c -0.79,-1.262 -13.33,6.976 -30.78,11.308 -17.4,4.559 -32.25,3.301 -32.38,4.79 -0.3,1.218 15.12,4.832 33.56,0.039 18.47,-4.618 30.43,-15.219 29.6,-16.137"
         style="fill:#ffffff;fill-opacity:1;fill-rule:nonzero;stroke:none"
         id="path210" />
      <path
         d="m 1912.62,326.551 c -0.27,0.179 1.15,3.219 4.1,8.5 3.01,5.238 7.37,12.918 14.49,21.238 3.68,3.91 7.47,8.852 14.13,11.481 3.2,1.289 7.96,1.101 10.97,-2.09 2.94,-3.008 3.97,-7.52 3.27,-11.629 -1.68,-8.172 -6.73,-14.34 -12.42,-19.981 -5.9,-5.461 -12.91,-9.89 -20.98,-12.582 -7.98,-2.828 -17.57,-1.996 -24.32,2.801 -6.89,4.5 -11.48,11.172 -14.86,17.551 -1.7,3.211 -3.16,6.41 -4.54,9.492 -0.62,1.477 -1.57,3.168 -1.77,5.43 -0.11,1.097 0.07,2.597 0.97,3.797 0.83,1.16 2.3,1.839 3.47,1.882 2.31,0.09 3.96,-0.832 5.28,-1.531 1.39,-0.699 2.7,-1.488 3.96,-2.308 2.48,-1.672 4.76,-3.43 6.72,-5.36 7.99,-7.633 11.66,-16.191 13.34,-22.043 1.6,-5.969 1.44,-9.437 1.19,-9.461 -0.4,-0.058 -0.88,3.282 -2.96,8.821 -2.14,5.429 -6.1,13.261 -13.83,20.043 -1.89,1.707 -4.07,3.257 -6.41,4.718 -2.22,1.27 -5.32,3.121 -7,3 -0.62,-0.199 -0.65,-0.129 -0.64,-1.14 0.1,-1.059 0.74,-2.371 1.49,-3.938 1.44,-3.031 2.92,-6.113 4.59,-9.133 3.32,-6.019 7.56,-11.879 13.5,-15.679 5.86,-3.969 13.24,-4.61 20.45,-2.18 14.16,4.82 27.08,16.219 30.41,28.539 0.58,2.93 -0.2,5.961 -1.9,7.781 -1.66,1.801 -4.26,2.141 -6.77,1.282 -5.12,-1.743 -9.22,-6.293 -12.87,-9.954 -7.16,-7.699 -11.93,-15 -15.39,-19.886 -3.42,-4.942 -5.38,-7.653 -5.67,-7.461"
         style="fill:#ffffff;fill-opacity:1;fill-rule:nonzero;stroke:none"
         id="path212" />
      <path
         d="m 2013.78,313.762 c 1.25,-0.223 0.42,-9.121 -5.07,-18.321 -5.42,-9.23 -12.72,-14.05 -13.48,-13.011 -0.89,1.09 4.45,7.129 9.4,15.59 5.03,8.402 7.8,16.07 9.15,15.742"
         style="fill:#ffffff;fill-opacity:1;fill-rule:nonzero;stroke:none"
         id="path214" />
      <path
         d="m 2789.9,418.449 c -16.14,-31.148 -25.12,-72.668 -22.42,-112.469 1.2,-17.71 3.6,-36.671 14.73,-49.968 8.83,-10.551 22.37,-16.422 28.95,-28.703 7.4,-13.789 3.71,-31.137 7.33,-46.528 4.75,-20.16 31.92,-37.769 50.37,-44.261 18.44,-6.481 34.24,-3.879 53.55,-3.399 27.97,0.688 52.46,3.07 73.12,22.988 15.75,15.192 22.82,39.18 20.9,61.993 -1.91,22.808 -12.1,44.347 -26.08,61.839 -11.98,14.969 -48.81,48.938 -58.08,65.957 -10.41,19.114 -9.75,37.211 -16.46,63.223 0,0 -1.41,12.879 -39.87,10.129 -38.45,-2.75 -51.04,-47.789 -64.94,-37.68 -13.89,10.11 -21.1,36.879 -21.1,36.879"
         style="fill:#17282f;fill-opacity:1;fill-rule:nonzero;stroke:none"
         id="path216" />
      <path
         d="m 3018.24,191.738 c -15.38,-14.398 -32.47,-25.718 -52.16,-31.769 -20.54,-6.321 -40.18,-8.071 -60.72,-6.688 -12.17,0.821 -31.04,5.66 -40.96,13.399 -16.06,12.531 -22.19,18.832 -27.21,30.808 -5.31,12.703 -3.51,27.793 -9.17,40.321 -6.3,13.953 -20.24,21.632 -30.9,32.121 -14.2,13.961 -28.39,36.461 -29.27,56.961 -10.53,-19.493 -10.52,-48.403 2.75,-67.321 10.51,-14.988 28.11,-23.289 37.32,-39.218 8.04,-13.903 2.66,-29.633 8.53,-44.704 8.21,-21.078 32.74,-37.707 53.09,-44.359 20.35,-6.648 42.12,-5.859 63.03,-2.488 17.32,2.801 34.64,7.437 49.7,16.898 15.06,9.461 27.74,24.211 32.43,42.281"
         style="fill:#33535f;fill-opacity:1;fill-rule:nonzero;stroke:none"
         id="path218" />
      <path
         d="m 2894.77,262.75 c 0.8,-1.262 13.34,6.98 30.78,11.32 17.4,4.551 32.25,3.301 32.38,4.789 0.31,1.211 -15.12,4.832 -33.56,0.039 -18.47,-4.628 -30.43,-15.226 -29.6,-16.148"
         style="fill:#ffffff;fill-opacity:1;fill-rule:nonzero;stroke:none"
         id="path220" />
      <path
         d="m 2884.65,288.98 c 0.8,-1.261 13.34,6.981 30.78,11.321 17.41,4.551 32.26,3.301 32.38,4.789 0.31,1.211 -15.12,4.832 -33.55,0.039 -18.48,-4.629 -30.44,-15.231 -29.61,-16.149"
         style="fill:#ffffff;fill-opacity:1;fill-rule:nonzero;stroke:none"
         id="path222" />
      <path
         d="m 2866.39,313.379 c 0.79,-1.25 13.33,6.98 30.78,11.32 17.4,4.551 32.25,3.301 32.38,4.793 0.3,1.219 -15.12,4.828 -33.56,0.039 -18.47,-4.621 -30.43,-15.222 -29.6,-16.152"
         style="fill:#ffffff;fill-opacity:1;fill-rule:nonzero;stroke:none"
         id="path224" />
      <path
         d="m 2900.19,348.52 c 0.27,0.171 -1.15,3.21 -4.1,8.5 -3,5.242 -7.37,12.921 -14.49,21.23 -3.68,3.922 -7.47,8.859 -14.13,11.48 -3.2,1.301 -7.95,1.102 -10.97,-2.082 -2.94,-3.019 -3.97,-7.527 -3.27,-11.628 1.68,-8.18 6.73,-14.34 12.42,-19.981 5.91,-5.461 12.91,-9.891 20.98,-12.578 7.98,-2.832 17.57,-2 24.32,2.801 6.89,4.5 11.48,11.168 14.86,17.539 1.7,3.219 3.16,6.41 4.54,9.5 0.62,1.469 1.57,3.16 1.77,5.418 0.11,1.101 -0.07,2.613 -0.97,3.812 -0.83,1.16 -2.3,1.828 -3.46,1.867 -2.32,0.094 -3.97,-0.828 -5.29,-1.527 -1.39,-0.699 -2.7,-1.492 -3.95,-2.301 -2.49,-1.672 -4.77,-3.441 -6.73,-5.359 -7.99,-7.629 -11.66,-16.191 -13.34,-22.039 -1.6,-5.981 -1.44,-9.442 -1.19,-9.461 0.4,-0.07 0.88,3.281 2.96,8.82 2.14,5.43 6.1,13.258 13.83,20.028 1.89,1.722 4.07,3.273 6.41,4.722 2.22,1.278 5.32,3.117 7,3.008 0.62,-0.199 0.66,-0.141 0.64,-1.148 -0.09,-1.051 -0.74,-2.36 -1.49,-3.942 -1.44,-3.027 -2.92,-6.109 -4.59,-9.129 -3.32,-6.011 -7.56,-11.871 -13.5,-15.672 -5.86,-3.976 -13.24,-4.617 -20.45,-2.179 -14.16,4.82 -27.08,16.222 -30.41,28.543 -0.58,2.918 0.2,5.949 1.9,7.769 1.66,1.809 4.26,2.149 6.77,1.278 5.12,-1.739 9.22,-6.289 12.87,-9.95 7.16,-7.687 11.94,-15 15.39,-19.879 3.42,-4.949 5.38,-7.648 5.67,-7.46"
         style="fill:#ffffff;fill-opacity:1;fill-rule:nonzero;stroke:none"
         id="path226" />
      <path
         d="m 2799.04,335.73 c -1.25,-0.23 -0.43,-9.128 5.06,-18.32 5.43,-9.238 12.72,-14.058 13.48,-13.012 0.89,1.082 -4.45,7.133 -9.4,15.582 -5.03,8.399 -7.8,16.079 -9.14,15.75"
         style="fill:#ffffff;fill-opacity:1;fill-rule:nonzero;stroke:none"
         id="path228" />
    </g>
  </g>
</svg>
