<svg xmlns="http://www.w3.org/2000/svg" xmlns:xlink="http://www.w3.org/1999/xlink" width="84" zoomAndPan="magnify" viewBox="0 0 63 57.749997" height="77" preserveAspectRatio="xMidYMid meet" version="1.0"><defs><clipPath id="5680904be3"><path d="M 0.136719 0 L 62.117188 0 L 62.117188 57.5 L 0.136719 57.5 Z M 0.136719 0 " clip-rule="nonzero"/></clipPath><clipPath id="658b1e55b1"><path d="M 30 24.136719 L 33 24.136719 L 33 27 L 30 27 Z M 30 24.136719 " clip-rule="nonzero"/></clipPath><clipPath id="ef155ca6c0"><path d="M 22.453125 30 L 24 30 L 24 32.351562 L 22.453125 32.351562 Z M 22.453125 30 " clip-rule="nonzero"/></clipPath><clipPath id="7358611b84"><path d="M 38 30 L 39.628906 30 L 39.628906 32.351562 L 38 32.351562 Z M 38 30 " clip-rule="nonzero"/></clipPath><clipPath id="dd43ed9828"><path d="M 25.296875 18.972656 L 37 18.972656 L 37 37.640625 L 25.296875 37.640625 Z M 25.296875 18.972656 " clip-rule="nonzero"/></clipPath></defs><g clip-path="url(#5680904be3)"><path fill="#e7d215" d="M 51.390625 41.996094 C 51.261719 41.957031 48.195312 40.933594 47.109375 38.230469 C 46.878906 37.65625 46.816406 37.203125 46.753906 36.761719 C 46.664062 36.109375 46.578125 35.496094 46.007812 34.617188 C 45.359375 33.613281 44.574219 33.039062 44.164062 32.785156 C 43.738281 32.519531 43.28125 32.3125 42.800781 32.167969 L 62.355469 29.054688 L 42.367188 25.871094 C 42.339844 25.761719 42.3125 25.65625 42.285156 25.550781 C 42.382812 24.945312 42.6875 23.871094 43.628906 23.183594 C 44.53125 22.519531 45.597656 22.527344 46.039062 22.527344 C 46.503906 22.53125 46.769531 22.601562 47.078125 22.683594 C 47.398438 22.765625 47.757812 22.863281 48.382812 22.890625 C 48.730469 22.902344 49.65625 22.941406 50.578125 22.652344 C 52.070312 22.183594 52.90625 21.066406 53.460938 20.324219 C 54.847656 18.46875 55.226562 16.417969 55.296875 15.023438 L 55.367188 13.628906 L 54.90625 14.945312 C 54.484375 16.152344 53.777344 17.207031 52.867188 18 C 52.765625 18.089844 50.308594 20.1875 47.433594 19.730469 C 46.824219 19.632812 46.402344 19.449219 45.992188 19.277344 C 45.386719 19.019531 44.8125 18.777344 43.773438 18.8125 C 42.578125 18.851562 41.679688 19.226562 41.25 19.449219 C 40.703125 19.730469 40.210938 20.09375 39.777344 20.53125 L 46.816406 2.132812 L 34.261719 17.585938 C 34.101562 17.542969 33.945312 17.503906 33.785156 17.46875 C 33.328125 17.167969 32.324219 16.375 32.105469 15.085938 C 31.921875 13.980469 32.402344 13.039062 32.605469 12.636719 C 32.816406 12.226562 33 12.019531 33.210938 11.78125 C 33.429688 11.53125 33.679688 11.253906 33.984375 10.707031 C 34.152344 10.402344 34.605469 9.59375 34.761719 8.640625 C 35.011719 7.097656 34.390625 5.84375 33.976562 5.015625 C 32.941406 2.945312 31.28125 1.683594 30.066406 0.992188 L 28.851562 0.300781 L 29.820312 1.308594 C 30.707031 2.226562 31.332031 3.332031 31.632812 4.5 C 31.664062 4.632812 32.441406 7.769531 30.734375 10.132812 C 30.371094 10.632812 30.019531 10.929688 29.679688 11.21875 C 29.179688 11.644531 28.703125 12.042969 28.265625 12.992188 C 27.765625 14.074219 27.699219 15.046875 27.703125 15.527344 C 27.707031 16.113281 27.796875 16.683594 27.976562 17.238281 L 15.703125 2.128906 L 22.867188 20.851562 C 22.78125 20.945312 22.695312 21.039062 22.613281 21.136719 C 22.074219 21.367188 21.265625 21.582031 20.394531 21.351562 C 19.3125 21.066406 18.648438 20.246094 18.367188 19.894531 C 18.074219 19.53125 17.960938 19.28125 17.828125 18.988281 C 17.691406 18.6875 17.539062 18.351562 17.164062 17.847656 C 16.957031 17.566406 16.402344 16.824219 15.597656 16.292969 C 14.292969 15.433594 12.898438 15.488281 11.972656 15.523438 C 9.65625 15.621094 7.828125 16.621094 6.699219 17.445312 L 5.574219 18.269531 L 6.886719 17.796875 C 8.089844 17.367188 9.351562 17.246094 10.542969 17.453125 C 10.675781 17.476562 13.855469 18.050781 15.3125 20.578125 C 15.621094 21.113281 15.746094 21.554688 15.871094 21.984375 C 16.054688 22.617188 16.226562 23.210938 16.910156 23.996094 C 17.695312 24.898438 18.554688 25.359375 18.996094 25.550781 C 19.328125 25.699219 19.667969 25.808594 20.023438 25.890625 L 0.164062 29.054688 L 20.171875 32.238281 C 20.121094 32.902344 19.890625 33.957031 19.023438 34.710938 C 18.175781 35.441406 17.125 35.523438 16.675781 35.5625 C 16.214844 35.59375 15.941406 35.546875 15.628906 35.492188 C 15.304688 35.433594 14.933594 35.367188 14.3125 35.394531 C 13.960938 35.410156 13.035156 35.445312 12.140625 35.808594 C 10.691406 36.398438 9.949219 37.585938 9.460938 38.367188 C 8.230469 40.332031 8.023438 42.40625 8.066406 43.804688 L 8.109375 45.203125 L 8.464844 43.847656 C 8.785156 42.613281 9.398438 41.503906 10.242188 40.640625 C 10.335938 40.539062 12.605469 38.242188 15.515625 38.46875 C 16.128906 38.515625 16.566406 38.660156 16.992188 38.800781 C 17.613281 39.003906 18.207031 39.199219 19.242188 39.078125 C 20.425781 38.941406 21.289062 38.492188 21.699219 38.238281 C 22.125 37.972656 22.507812 37.660156 22.851562 37.296875 L 15.703125 55.976562 L 28.824219 39.828125 C 28.835938 39.832031 28.847656 39.835938 28.863281 39.835938 C 29.347656 40.292969 29.933594 41.03125 30.03125 42.035156 C 30.140625 43.148438 29.597656 44.054688 29.367188 44.441406 C 29.128906 44.839844 28.929688 45.035156 28.703125 45.257812 C 28.46875 45.488281 28.203125 45.753906 27.863281 46.277344 C 27.671875 46.570312 27.167969 47.347656 26.949219 48.285156 C 26.59375 49.808594 27.132812 51.101562 27.488281 51.953125 C 28.378906 54.089844 29.953125 55.460938 31.117188 56.230469 L 32.285156 57.003906 L 31.382812 55.933594 C 30.5625 54.957031 30.011719 53.816406 29.792969 52.628906 C 29.765625 52.492188 29.207031 49.308594 31.066406 47.070312 C 31.460938 46.59375 31.832031 46.320312 32.191406 46.054688 C 32.71875 45.667969 33.21875 45.296875 33.71875 44.382812 C 34.292969 43.332031 34.425781 42.371094 34.453125 41.886719 C 34.476562 41.488281 34.460938 41.089844 34.398438 40.691406 L 46.816406 55.980469 L 39.480469 36.808594 C 40.097656 36.5625 41.136719 36.304688 42.1875 36.75 C 43.21875 37.183594 43.757812 38.089844 43.988281 38.476562 C 44.226562 38.875 44.300781 39.140625 44.390625 39.449219 C 44.484375 39.765625 44.585938 40.125 44.886719 40.671875 C 45.050781 40.976562 45.492188 41.792969 46.21875 42.433594 C 47.386719 43.46875 48.777344 43.609375 49.699219 43.707031 C 52.007812 43.9375 53.957031 43.203125 55.191406 42.546875 L 56.421875 41.890625 L 55.054688 42.175781 C 53.804688 42.429688 52.539062 42.371094 51.390625 41.996094 Z M 59.800781 29.054688 L 42.007812 31.886719 C 42.0625 31.707031 42.105469 31.523438 42.152344 31.339844 L 43.261719 31.558594 C 43.269531 31.558594 43.277344 31.558594 43.28125 31.558594 C 43.332031 31.558594 43.371094 31.527344 43.382812 31.476562 C 43.390625 31.421875 43.355469 31.371094 43.300781 31.359375 L 42.199219 31.144531 C 42.21875 31.0625 42.246094 30.984375 42.261719 30.898438 C 42.269531 30.902344 42.273438 30.910156 42.28125 30.910156 L 43.890625 31.164062 C 43.894531 31.167969 43.902344 31.167969 43.90625 31.167969 C 43.957031 31.167969 43.996094 31.132812 44.007812 31.082031 C 44.015625 31.027344 43.976562 30.976562 43.921875 30.964844 L 42.3125 30.714844 C 42.304688 30.710938 42.300781 30.71875 42.292969 30.71875 C 42.316406 30.609375 42.328125 30.503906 42.34375 30.398438 L 44.707031 30.59375 C 44.710938 30.59375 44.710938 30.59375 44.714844 30.59375 C 44.765625 30.59375 44.8125 30.554688 44.816406 30.5 C 44.820312 30.445312 44.78125 30.398438 44.722656 30.390625 L 42.375 30.195312 C 42.386719 30.097656 42.40625 30 42.417969 29.898438 L 43.984375 29.988281 C 43.984375 29.988281 43.984375 29.988281 43.988281 29.988281 C 44.042969 29.988281 44.085938 29.945312 44.089844 29.890625 C 44.09375 29.835938 44.050781 29.789062 43.992188 29.785156 L 42.445312 29.699219 C 42.453125 29.585938 42.453125 29.472656 42.460938 29.363281 L 47.128906 29.308594 C 47.183594 29.304688 47.226562 29.261719 47.226562 29.207031 C 47.226562 29.148438 47.183594 29.105469 47.128906 29.105469 C 47.128906 29.105469 47.125 29.105469 47.125 29.105469 L 42.472656 29.160156 C 42.480469 28.992188 42.496094 28.832031 42.496094 28.664062 C 42.511719 28.671875 42.527344 28.683594 42.546875 28.683594 C 42.546875 28.683594 42.550781 28.683594 42.550781 28.683594 L 44.179688 28.617188 C 44.234375 28.613281 44.277344 28.566406 44.277344 28.511719 C 44.273438 28.457031 44.226562 28.414062 44.171875 28.414062 L 42.542969 28.480469 C 42.523438 28.484375 42.507812 28.496094 42.492188 28.503906 C 42.492188 28.394531 42.480469 28.289062 42.476562 28.179688 C 42.480469 28.179688 42.484375 28.183594 42.488281 28.183594 C 42.492188 28.183594 42.492188 28.183594 42.496094 28.183594 L 44.917969 28.019531 C 44.972656 28.019531 45.015625 27.96875 45.011719 27.914062 C 45.007812 27.859375 44.96875 27.816406 44.90625 27.820312 L 42.480469 27.984375 C 42.476562 27.984375 42.472656 27.992188 42.464844 27.992188 C 42.460938 27.875 42.457031 27.757812 42.449219 27.644531 C 42.464844 27.652344 42.480469 27.664062 42.5 27.664062 C 42.503906 27.664062 42.507812 27.664062 42.511719 27.664062 L 44.125 27.433594 C 44.179688 27.425781 44.21875 27.375 44.210938 27.320312 C 44.203125 27.265625 44.152344 27.226562 44.097656 27.234375 L 42.484375 27.464844 C 42.46875 27.464844 42.453125 27.480469 42.441406 27.488281 C 42.433594 27.402344 42.414062 27.320312 42.40625 27.230469 L 43.511719 27.03125 C 43.566406 27.023438 43.605469 26.96875 43.59375 26.914062 C 43.585938 26.859375 43.53125 26.820312 43.476562 26.835938 L 42.375 27.035156 C 42.335938 26.773438 42.300781 26.511719 42.246094 26.257812 Z M 36.707031 37.96875 C 36.683594 37.960938 36.652344 37.960938 36.628906 37.972656 C 36.601562 37.988281 36.585938 38.015625 36.582031 38.042969 C 35.6875 38.550781 34.710938 38.933594 33.679688 39.167969 L 33.507812 38.953125 L 33.582031 39.195312 C 32.832031 39.359375 32.058594 39.453125 31.261719 39.453125 C 25.285156 39.453125 20.421875 34.589844 20.421875 28.613281 C 20.421875 22.640625 25.285156 17.777344 31.261719 17.777344 C 37.234375 17.777344 42.097656 22.640625 42.097656 28.613281 C 42.097656 32.601562 39.925781 36.085938 36.707031 37.96875 Z M 41.433594 19.804688 C 41.835938 19.597656 42.671875 19.25 43.785156 19.210938 C 44.742188 19.175781 45.246094 19.394531 45.835938 19.644531 C 46.265625 19.828125 46.714844 20.019531 47.371094 20.125 C 50.375 20.609375 52.859375 18.539062 53.132812 18.300781 C 53.777344 17.738281 54.324219 17.054688 54.75 16.28125 C 54.542969 17.449219 54.089844 18.816406 53.140625 20.082031 C 52.617188 20.78125 51.828125 21.839844 50.457031 22.269531 C 49.605469 22.539062 48.730469 22.503906 48.398438 22.488281 C 47.820312 22.460938 47.496094 22.375 47.183594 22.292969 C 46.859375 22.210938 46.558594 22.128906 46.042969 22.125 C 45.59375 22.121094 44.402344 22.117188 43.394531 22.859375 C 42.484375 23.519531 42.109375 24.484375 41.953125 25.167969 C 41.574219 23.996094 41 22.910156 40.28125 21.941406 L 39.832031 21.0625 C 40.285156 20.539062 40.824219 20.117188 41.433594 19.804688 Z M 39.265625 20.742188 C 39.105469 20.578125 38.9375 20.429688 38.769531 20.277344 C 38.789062 20.273438 38.8125 20.269531 38.828125 20.25 L 39.53125 19.339844 C 39.566406 19.292969 39.558594 19.230469 39.515625 19.199219 C 39.46875 19.164062 39.40625 19.171875 39.375 19.214844 L 38.667969 20.125 C 38.65625 20.140625 38.65625 20.15625 38.65625 20.171875 C 38.578125 20.105469 38.507812 20.03125 38.425781 19.964844 C 38.429688 19.964844 38.433594 19.96875 38.433594 19.96875 C 38.464844 19.96875 38.496094 19.953125 38.515625 19.925781 L 39.464844 18.601562 C 39.5 18.558594 39.488281 18.496094 39.445312 18.460938 C 39.398438 18.429688 39.335938 18.441406 39.304688 18.484375 L 38.351562 19.808594 C 38.332031 19.835938 38.335938 19.871094 38.347656 19.902344 C 38.253906 19.824219 38.152344 19.757812 38.058594 19.683594 L 39.324219 17.617188 C 39.351562 17.570312 39.335938 17.507812 39.289062 17.476562 C 39.242188 17.449219 39.179688 17.460938 39.152344 17.511719 L 37.894531 19.5625 C 37.8125 19.503906 37.734375 19.441406 37.652344 19.382812 L 38.453125 17.992188 C 38.480469 17.941406 38.464844 17.882812 38.417969 17.855469 C 38.371094 17.824219 38.308594 17.84375 38.28125 17.890625 L 37.488281 19.265625 C 37.335938 19.164062 37.175781 19.074219 37.019531 18.980469 L 39.535156 14.921875 C 39.566406 14.875 39.550781 14.8125 39.503906 14.785156 C 39.457031 14.753906 39.394531 14.769531 39.363281 14.816406 L 36.84375 18.875 C 36.757812 18.824219 36.671875 18.769531 36.585938 18.71875 L 37.359375 17.378906 C 37.386719 17.332031 37.371094 17.269531 37.320312 17.242188 C 37.273438 17.214844 37.210938 17.230469 37.183594 17.277344 L 36.402344 18.632812 C 36.3125 18.585938 36.222656 18.546875 36.128906 18.503906 L 37.25 16.4375 C 37.277344 16.386719 37.257812 16.328125 37.210938 16.300781 C 37.160156 16.273438 37.101562 16.292969 37.074219 16.339844 L 35.949219 18.414062 C 35.851562 18.371094 35.761719 18.320312 35.664062 18.277344 L 36.332031 16.792969 C 36.355469 16.742188 36.332031 16.683594 36.28125 16.660156 C 36.230469 16.636719 36.171875 16.660156 36.148438 16.710938 L 35.480469 18.195312 C 35.476562 18.199219 35.480469 18.203125 35.480469 18.207031 C 35.402344 18.175781 35.324219 18.152344 35.246094 18.121094 L 35.664062 17.097656 C 35.683594 17.046875 35.660156 16.988281 35.609375 16.964844 C 35.558594 16.945312 35.5 16.96875 35.476562 17.019531 L 35.054688 18.050781 C 34.886719 17.988281 34.722656 17.921875 34.550781 17.871094 L 45.542969 4.335938 Z M 28.632812 13.160156 C 29.03125 12.292969 29.453125 11.9375 29.941406 11.523438 C 30.296875 11.21875 30.667969 10.90625 31.058594 10.367188 C 32.84375 7.894531 32.109375 4.75 32.019531 4.398438 C 31.808594 3.570312 31.445312 2.773438 30.945312 2.046875 C 31.894531 2.757812 32.910156 3.777344 33.617188 5.195312 C 34.003906 5.976562 34.59375 7.160156 34.363281 8.574219 C 34.21875 9.460938 33.792969 10.222656 33.632812 10.511719 C 33.347656 11.019531 33.125 11.269531 32.910156 11.511719 C 32.691406 11.761719 32.484375 11.996094 32.25 12.453125 C 32.046875 12.855469 31.503906 13.914062 31.710938 15.148438 C 31.90625 16.332031 32.679688 17.128906 33.234375 17.5625 C 32.589844 17.449219 31.933594 17.378906 31.257812 17.378906 C 30.691406 17.378906 30.136719 17.433594 29.589844 17.515625 L 28.503906 17.523438 C 28.246094 16.882812 28.109375 16.210938 28.101562 15.523438 C 28.101562 15.074219 28.164062 14.171875 28.632812 13.160156 Z M 16.976562 4.335938 L 27.972656 17.871094 C 27.71875 17.945312 27.476562 18.039062 27.234375 18.136719 L 26.8125 17.101562 C 26.792969 17.050781 26.734375 17.027344 26.679688 17.046875 C 26.632812 17.070312 26.605469 17.128906 26.625 17.179688 L 27.042969 18.203125 C 26.964844 18.238281 26.890625 18.265625 26.8125 18.296875 C 26.808594 18.292969 26.8125 18.285156 26.8125 18.277344 L 26.140625 16.792969 C 26.121094 16.742188 26.058594 16.71875 26.007812 16.742188 C 25.957031 16.765625 25.9375 16.824219 25.957031 16.875 L 26.628906 18.359375 C 26.632812 18.371094 26.644531 18.367188 26.648438 18.375 C 26.550781 18.421875 26.449219 18.472656 26.351562 18.519531 L 25.214844 16.425781 C 25.1875 16.375 25.128906 16.359375 25.078125 16.382812 C 25.03125 16.410156 25.011719 16.472656 25.039062 16.519531 L 26.171875 18.609375 C 26.082031 18.652344 25.988281 18.691406 25.898438 18.738281 L 25.105469 17.363281 C 25.078125 17.316406 25.015625 17.296875 24.96875 17.328125 C 24.921875 17.355469 24.902344 17.417969 24.929688 17.464844 L 25.726562 18.84375 C 25.59375 18.921875 25.464844 19.003906 25.335938 19.082031 L 23.007812 15.066406 C 22.976562 15.015625 22.917969 15 22.871094 15.027344 C 22.820312 15.054688 22.804688 15.117188 22.832031 15.164062 L 25.164062 19.1875 C 25.089844 19.234375 25.015625 19.277344 24.941406 19.328125 C 24.941406 19.3125 24.941406 19.300781 24.933594 19.289062 L 24.023438 17.9375 C 23.992188 17.890625 23.929688 17.875 23.886719 17.910156 C 23.839844 17.941406 23.828125 18 23.859375 18.046875 L 24.765625 19.398438 C 24.777344 19.414062 24.796875 19.417969 24.8125 19.421875 C 24.722656 19.488281 24.632812 19.558594 24.542969 19.625 L 23.050781 17.726562 C 23.015625 17.683594 22.953125 17.675781 22.910156 17.710938 C 22.867188 17.746094 22.855469 17.808594 22.890625 17.851562 L 24.382812 19.746094 C 24.300781 19.808594 24.21875 19.863281 24.140625 19.925781 L 23.101562 18.671875 C 23.0625 18.628906 23 18.621094 22.957031 18.65625 C 22.917969 18.691406 22.910156 18.757812 22.945312 18.796875 L 23.984375 20.054688 C 23.988281 20.054688 23.992188 20.054688 23.992188 20.054688 C 23.902344 20.132812 23.816406 20.21875 23.730469 20.296875 L 23.101562 19.484375 C 23.066406 19.441406 23.003906 19.433594 22.960938 19.46875 C 22.917969 19.5 22.910156 19.566406 22.941406 19.609375 L 23.578125 20.433594 C 23.472656 20.535156 23.359375 20.632812 23.253906 20.738281 Z M 19.15625 25.183594 C 18.746094 25.003906 17.945312 24.574219 17.214844 23.734375 C 16.589844 23.015625 16.433594 22.484375 16.257812 21.871094 C 16.128906 21.421875 15.992188 20.953125 15.660156 20.375 C 14.136719 17.734375 10.964844 17.117188 10.609375 17.058594 C 9.765625 16.910156 8.890625 16.917969 8.023438 17.078125 C 9.058594 16.503906 10.40625 15.992188 11.988281 15.929688 C 12.863281 15.890625 14.179688 15.839844 15.378906 16.628906 C 16.121094 17.121094 16.644531 17.824219 16.84375 18.089844 C 17.191406 18.554688 17.328125 18.859375 17.464844 19.15625 C 17.601562 19.457031 17.730469 19.746094 18.054688 20.148438 C 18.335938 20.496094 19.078125 21.421875 20.292969 21.742188 C 21.125 21.960938 21.902344 21.820312 22.484375 21.613281 C 21.5625 22.765625 20.867188 24.105469 20.453125 25.566406 L 20.421875 25.558594 C 19.976562 25.484375 19.5625 25.359375 19.15625 25.183594 Z M 20.078125 31.820312 L 2.71875 29.054688 L 20.273438 26.257812 C 20.226562 26.476562 20.195312 26.699219 20.164062 26.921875 L 19.152344 26.664062 C 19.097656 26.648438 19.042969 26.679688 19.03125 26.734375 C 19.015625 26.789062 19.050781 26.84375 19.101562 26.855469 L 20.132812 27.121094 C 20.121094 27.203125 20.105469 27.28125 20.09375 27.363281 L 18.503906 27.015625 C 18.449219 27.003906 18.398438 27.039062 18.386719 27.09375 C 18.371094 27.148438 18.40625 27.199219 18.460938 27.210938 L 20.054688 27.558594 C 20.058594 27.5625 20.066406 27.5625 20.074219 27.5625 C 20.066406 27.667969 20.066406 27.777344 20.058594 27.882812 L 17.65625 27.539062 C 17.597656 27.527344 17.550781 27.570312 17.542969 27.625 C 17.535156 27.679688 17.574219 27.730469 17.628906 27.738281 L 20.03125 28.082031 C 20.039062 28.082031 20.042969 28.082031 20.046875 28.082031 C 20.046875 28.082031 20.046875 28.082031 20.050781 28.082031 C 20.042969 28.191406 20.035156 28.304688 20.03125 28.414062 C 20.015625 28.394531 19.992188 28.378906 19.964844 28.375 L 18.34375 28.1875 C 18.285156 28.175781 18.238281 28.222656 18.234375 28.277344 C 18.226562 28.332031 18.265625 28.382812 18.320312 28.386719 L 19.941406 28.574219 C 19.945312 28.574219 19.949219 28.574219 19.953125 28.574219 C 19.984375 28.574219 20.007812 28.558594 20.027344 28.535156 C 20.027344 28.5625 20.023438 28.585938 20.023438 28.613281 C 20.023438 28.707031 20.03125 28.796875 20.035156 28.886719 L 15.222656 28.988281 C 15.167969 28.988281 15.121094 29.035156 15.125 29.089844 C 15.125 29.144531 15.167969 29.1875 15.222656 29.1875 C 15.226562 29.1875 15.226562 29.1875 15.226562 29.1875 L 20.046875 29.085938 C 20.050781 29.25 20.054688 29.417969 20.070312 29.578125 L 18.484375 29.664062 C 18.429688 29.667969 18.386719 29.714844 18.390625 29.769531 C 18.394531 29.824219 18.4375 29.867188 18.492188 29.867188 C 18.492188 29.867188 18.496094 29.867188 18.496094 29.867188 L 20.082031 29.777344 C 20.09375 29.878906 20.113281 29.976562 20.128906 30.078125 L 17.757812 30.269531 C 17.699219 30.273438 17.660156 30.324219 17.664062 30.378906 C 17.667969 30.429688 17.710938 30.472656 17.765625 30.472656 C 17.765625 30.472656 17.769531 30.472656 17.773438 30.472656 L 20.160156 30.277344 C 20.175781 30.386719 20.191406 30.496094 20.210938 30.601562 C 20.195312 30.597656 20.183594 30.589844 20.167969 30.59375 L 18.558594 30.84375 C 18.503906 30.851562 18.464844 30.90625 18.472656 30.960938 C 18.480469 31.011719 18.523438 31.042969 18.574219 31.042969 C 18.578125 31.042969 18.585938 31.042969 18.589844 31.042969 L 20.199219 30.792969 C 20.214844 30.789062 20.222656 30.777344 20.234375 30.769531 C 20.253906 30.855469 20.269531 30.9375 20.289062 31.023438 L 19.175781 31.238281 C 19.121094 31.25 19.085938 31.300781 19.097656 31.355469 C 19.105469 31.40625 19.148438 31.4375 19.195312 31.4375 C 19.203125 31.4375 19.210938 31.4375 19.214844 31.4375 L 20.339844 31.21875 C 20.394531 31.441406 20.445312 31.667969 20.511719 31.886719 L 20.082031 31.816406 Z M 21.488281 37.894531 C 21.105469 38.132812 20.304688 38.550781 19.195312 38.679688 C 18.246094 38.789062 17.722656 38.617188 17.117188 38.417969 C 16.671875 38.269531 16.210938 38.117188 15.546875 38.066406 C 12.507812 37.820312 10.207031 40.097656 9.953125 40.355469 C 9.355469 40.972656 8.867188 41.699219 8.507812 42.503906 C 8.621094 41.324219 8.960938 39.925781 9.800781 38.582031 C 10.265625 37.839844 10.964844 36.722656 12.292969 36.183594 C 13.121094 35.84375 13.996094 35.808594 14.328125 35.796875 C 14.90625 35.769531 15.238281 35.832031 15.558594 35.890625 C 15.882812 35.945312 16.195312 36 16.707031 35.960938 C 17.15625 35.925781 18.339844 35.835938 19.289062 35.015625 C 20.140625 34.277344 20.441406 33.289062 20.539062 32.5625 L 21.277344 33.757812 C 21.539062 34.257812 21.835938 34.734375 22.164062 35.191406 L 22.980469 36.511719 C 22.570312 37.066406 22.070312 37.535156 21.488281 37.894531 Z M 23.5 36.722656 C 23.636719 36.855469 23.773438 36.980469 23.917969 37.101562 C 23.914062 37.105469 23.90625 37.105469 23.902344 37.113281 L 23.199219 38.027344 C 23.167969 38.070312 23.175781 38.136719 23.21875 38.167969 C 23.238281 38.183594 23.257812 38.1875 23.28125 38.1875 C 23.308594 38.1875 23.339844 38.175781 23.359375 38.148438 L 24.058594 37.234375 C 24.128906 37.289062 24.199219 37.34375 24.269531 37.398438 C 24.246094 37.40625 24.226562 37.414062 24.214844 37.433594 L 23.273438 38.761719 C 23.238281 38.808594 23.25 38.871094 23.296875 38.902344 C 23.3125 38.914062 23.332031 38.921875 23.355469 38.921875 C 23.386719 38.921875 23.417969 38.90625 23.4375 38.878906 L 24.378906 37.546875 C 24.390625 37.53125 24.390625 37.511719 24.390625 37.488281 C 24.480469 37.558594 24.570312 37.625 24.664062 37.695312 L 23.421875 39.75 C 23.394531 39.796875 23.410156 39.859375 23.457031 39.886719 C 23.472656 39.894531 23.492188 39.902344 23.507812 39.902344 C 23.542969 39.902344 23.574219 39.882812 23.59375 39.851562 L 24.824219 37.816406 C 24.90625 37.871094 24.988281 37.929688 25.074219 37.988281 L 24.285156 39.367188 C 24.257812 39.417969 24.277344 39.476562 24.324219 39.503906 C 24.339844 39.515625 24.355469 39.519531 24.375 39.519531 C 24.410156 39.519531 24.441406 39.5 24.460938 39.46875 L 25.242188 38.09375 C 25.3125 38.136719 25.382812 38.179688 25.457031 38.222656 L 23.21875 42.394531 C 23.191406 42.441406 23.210938 42.503906 23.257812 42.53125 C 23.273438 42.539062 23.289062 42.542969 23.304688 42.542969 C 23.339844 42.542969 23.375 42.523438 23.394531 42.488281 L 25.628906 38.324219 C 25.738281 38.390625 25.84375 38.460938 25.960938 38.519531 L 25.308594 40 C 25.285156 40.050781 25.308594 40.109375 25.359375 40.132812 C 25.371094 40.136719 25.386719 40.140625 25.398438 40.140625 C 25.4375 40.140625 25.476562 40.117188 25.492188 40.082031 L 26.140625 38.609375 C 26.230469 38.65625 26.320312 38.695312 26.410156 38.738281 L 25.515625 40.925781 C 25.496094 40.976562 25.519531 41.035156 25.570312 41.058594 C 25.582031 41.0625 25.597656 41.066406 25.609375 41.066406 C 25.648438 41.066406 25.6875 41.042969 25.703125 41.003906 L 26.589844 38.828125 C 26.6875 38.871094 26.78125 38.925781 26.882812 38.964844 L 26.390625 40.472656 C 26.375 40.523438 26.402344 40.582031 26.457031 40.597656 C 26.464844 40.601562 26.476562 40.605469 26.488281 40.605469 C 26.53125 40.605469 26.570312 40.578125 26.582031 40.535156 L 27.070312 39.035156 C 27.144531 39.066406 27.222656 39.09375 27.300781 39.121094 L 27.023438 40.097656 C 27.007812 40.152344 27.039062 40.207031 27.089844 40.222656 C 27.101562 40.222656 27.109375 40.226562 27.117188 40.226562 C 27.164062 40.226562 27.203125 40.195312 27.214844 40.152344 L 27.488281 39.191406 C 27.839844 39.316406 28.195312 39.421875 28.558594 39.511719 L 16.976562 53.769531 Z M 33.367188 44.1875 C 32.910156 45.027344 32.464844 45.351562 31.953125 45.730469 C 31.574219 46.011719 31.183594 46.300781 30.757812 46.8125 C 28.8125 49.15625 29.332031 52.34375 29.398438 52.699219 C 29.550781 53.539062 29.863281 54.359375 30.3125 55.117188 C 29.414062 54.347656 28.46875 53.257812 27.859375 51.796875 C 27.523438 50.992188 27.015625 49.773438 27.339844 48.378906 C 27.542969 47.507812 28.019531 46.773438 28.203125 46.496094 C 28.519531 46.007812 28.757812 45.773438 28.988281 45.542969 C 29.222656 45.3125 29.449219 45.089844 29.710938 44.648438 C 29.941406 44.261719 30.550781 43.242188 30.429688 41.996094 C 30.328125 40.953125 29.769531 40.175781 29.261719 39.664062 C 29.910156 39.78125 30.578125 39.855469 31.261719 39.855469 C 31.714844 39.855469 32.15625 39.820312 32.597656 39.765625 L 33.785156 39.84375 L 33.816406 39.953125 C 34.011719 40.578125 34.09375 41.222656 34.054688 41.863281 C 34.027344 42.3125 33.902344 43.210938 33.367188 44.1875 Z M 45.542969 53.769531 L 33.960938 39.511719 C 34.230469 39.445312 34.496094 39.375 34.757812 39.289062 L 35.09375 40.378906 C 35.109375 40.425781 35.148438 40.453125 35.191406 40.453125 C 35.199219 40.453125 35.210938 40.449219 35.21875 40.445312 C 35.273438 40.429688 35.304688 40.375 35.285156 40.320312 L 34.949219 39.21875 C 35.042969 39.1875 35.132812 39.152344 35.222656 39.121094 C 35.203125 39.144531 35.191406 39.175781 35.203125 39.210938 L 35.734375 40.75 C 35.75 40.792969 35.789062 40.816406 35.832031 40.816406 C 35.84375 40.816406 35.851562 40.816406 35.863281 40.8125 C 35.914062 40.792969 35.945312 40.734375 35.925781 40.683594 L 35.390625 39.144531 C 35.378906 39.109375 35.347656 39.09375 35.316406 39.085938 C 35.429688 39.039062 35.550781 39.003906 35.660156 38.953125 C 35.664062 38.960938 35.660156 38.964844 35.660156 38.96875 L 36.625 41.199219 C 36.640625 41.238281 36.675781 41.261719 36.714844 41.261719 C 36.730469 41.261719 36.742188 41.257812 36.753906 41.253906 C 36.804688 41.230469 36.832031 41.171875 36.808594 41.121094 L 35.84375 38.890625 C 35.84375 38.882812 35.832031 38.878906 35.828125 38.875 C 35.929688 38.828125 36.027344 38.777344 36.128906 38.726562 C 36.121094 38.75 36.121094 38.773438 36.132812 38.796875 L 36.816406 40.273438 C 36.832031 40.3125 36.871094 40.332031 36.90625 40.332031 C 36.921875 40.332031 36.9375 40.328125 36.949219 40.324219 C 37 40.300781 37.023438 40.238281 37 40.191406 L 36.3125 38.710938 C 36.304688 38.6875 36.285156 38.671875 36.261719 38.664062 C 36.425781 38.582031 36.589844 38.5 36.75 38.410156 L 38.882812 42.367188 C 38.902344 42.398438 38.933594 42.417969 38.972656 42.417969 C 38.988281 42.417969 39.003906 42.414062 39.019531 42.40625 C 39.066406 42.378906 39.085938 42.320312 39.058594 42.269531 L 36.921875 38.304688 C 37.054688 38.226562 37.183594 38.148438 37.3125 38.066406 L 38.203125 39.390625 C 38.222656 39.417969 38.253906 39.433594 38.285156 39.433594 C 38.304688 39.433594 38.324219 39.429688 38.34375 39.417969 C 38.390625 39.386719 38.402344 39.324219 38.371094 39.28125 L 37.484375 37.964844 C 37.566406 37.90625 37.648438 37.84375 37.730469 37.785156 L 39.097656 39.707031 C 39.117188 39.734375 39.148438 39.75 39.179688 39.75 C 39.203125 39.75 39.222656 39.746094 39.238281 39.734375 C 39.285156 39.699219 39.296875 39.636719 39.261719 39.59375 L 37.890625 37.667969 C 37.976562 37.605469 38.0625 37.542969 38.144531 37.476562 L 39.183594 38.726562 C 39.203125 38.75 39.230469 38.765625 39.261719 38.765625 C 39.28125 38.765625 39.304688 38.757812 39.324219 38.742188 C 39.367188 38.707031 39.375 38.640625 39.339844 38.597656 L 38.308594 37.355469 C 38.371094 37.304688 38.433594 37.253906 38.496094 37.203125 L 39.203125 37.992188 C 39.222656 38.015625 39.25 38.027344 39.277344 38.027344 C 39.300781 38.027344 39.328125 38.019531 39.34375 38 C 39.386719 37.964844 39.390625 37.902344 39.351562 37.859375 L 38.644531 37.066406 C 38.769531 36.953125 38.898438 36.84375 39.019531 36.722656 Z M 49.738281 43.304688 C 48.871094 43.214844 47.558594 43.082031 46.488281 42.132812 C 45.816406 41.535156 45.398438 40.769531 45.242188 40.480469 C 44.964844 39.96875 44.871094 39.648438 44.78125 39.335938 C 44.6875 39.015625 44.597656 38.714844 44.335938 38.273438 C 44.105469 37.886719 43.5 36.863281 42.34375 36.378906 C 41.148438 35.871094 39.980469 36.171875 39.308594 36.445312 C 40.152344 35.578125 40.851562 34.570312 41.382812 33.46875 L 42.050781 32.402344 C 42.730469 32.523438 43.371094 32.765625 43.953125 33.128906 C 44.335938 33.363281 45.066406 33.902344 45.671875 34.835938 C 46.191406 35.640625 46.265625 36.183594 46.355469 36.816406 C 46.421875 37.28125 46.488281 37.761719 46.738281 38.382812 C 47.871094 41.207031 50.925781 42.269531 51.269531 42.382812 C 52.082031 42.644531 52.949219 42.761719 53.832031 42.726562 C 52.726562 43.148438 51.316406 43.464844 49.738281 43.304688 Z M 49.738281 43.304688 " fill-opacity="1" fill-rule="nonzero"/></g><path fill="#e7d215" d="M 22.921875 14.5 C 22.921875 14.589844 22.886719 14.667969 22.824219 14.730469 C 22.761719 14.792969 22.683594 14.824219 22.59375 14.824219 C 22.503906 14.824219 22.425781 14.792969 22.363281 14.730469 C 22.300781 14.667969 22.269531 14.589844 22.269531 14.5 C 22.269531 14.410156 22.300781 14.332031 22.363281 14.269531 C 22.425781 14.207031 22.503906 14.175781 22.59375 14.175781 C 22.683594 14.175781 22.761719 14.207031 22.824219 14.269531 C 22.886719 14.332031 22.921875 14.410156 22.921875 14.5 Z M 22.921875 14.5 " fill-opacity="1" fill-rule="nonzero"/><path fill="#e7d215" d="M 22.320312 14.066406 C 22.367188 14.039062 22.382812 13.976562 22.355469 13.929688 L 21.535156 12.53125 C 21.507812 12.480469 21.445312 12.464844 21.398438 12.496094 C 21.347656 12.523438 21.332031 12.585938 21.363281 12.632812 L 22.183594 14.03125 C 22.199219 14.0625 22.234375 14.082031 22.269531 14.082031 C 22.285156 14.082031 22.304688 14.078125 22.320312 14.066406 Z M 22.320312 14.066406 " fill-opacity="1" fill-rule="nonzero"/><path fill="#e7d215" d="M 21.304688 11.765625 C 21.214844 11.628906 21.015625 11.472656 20.863281 11.554688 C 20.722656 11.628906 20.730469 11.851562 20.757812 11.96875 C 20.824219 12.261719 21.113281 12.402344 21.199219 12.4375 C 21.210938 12.445312 21.226562 12.445312 21.238281 12.445312 C 21.25 12.445312 21.265625 12.445312 21.277344 12.4375 C 21.300781 12.429688 21.320312 12.410156 21.332031 12.382812 C 21.367188 12.300781 21.464844 12.003906 21.304688 11.765625 Z M 21.175781 12.203125 C 21.089844 12.148438 20.984375 12.058594 20.953125 11.925781 C 20.933594 11.835938 20.941406 11.746094 20.953125 11.734375 C 20.953125 11.734375 20.953125 11.734375 20.957031 11.734375 C 20.988281 11.734375 21.078125 11.789062 21.136719 11.875 C 21.207031 11.980469 21.199219 12.109375 21.175781 12.203125 Z M 21.175781 12.203125 " fill-opacity="1" fill-rule="nonzero"/><path fill="#e7d215" d="M 40.164062 14.292969 C 40.164062 14.382812 40.132812 14.460938 40.070312 14.523438 C 40.003906 14.585938 39.929688 14.617188 39.839844 14.617188 C 39.75 14.617188 39.671875 14.585938 39.609375 14.523438 C 39.542969 14.460938 39.511719 14.382812 39.511719 14.292969 C 39.511719 14.203125 39.542969 14.125 39.609375 14.0625 C 39.671875 14 39.75 13.964844 39.839844 13.964844 C 39.929688 13.964844 40.003906 14 40.070312 14.0625 C 40.132812 14.125 40.164062 14.203125 40.164062 14.292969 Z M 40.164062 14.292969 " fill-opacity="1" fill-rule="nonzero"/><path fill="#e7d215" d="M 40.140625 13.859375 C 40.175781 13.859375 40.210938 13.84375 40.226562 13.8125 L 41.074219 12.429688 C 41.105469 12.382812 41.089844 12.320312 41.042969 12.292969 C 40.996094 12.261719 40.933594 12.277344 40.90625 12.324219 L 40.054688 13.707031 C 40.027344 13.753906 40.042969 13.816406 40.089844 13.847656 C 40.105469 13.855469 40.125 13.859375 40.140625 13.859375 Z M 40.140625 13.859375 " fill-opacity="1" fill-rule="nonzero"/><path fill="#e7d215" d="M 41.035156 12.160156 C 41.054688 12.175781 41.078125 12.183594 41.101562 12.183594 C 41.101562 12.183594 41.105469 12.183594 41.109375 12.183594 C 41.199219 12.171875 41.507812 12.125 41.644531 11.867188 C 41.722656 11.722656 41.765625 11.476562 41.621094 11.378906 C 41.460938 11.269531 41.230469 11.457031 41.207031 11.480469 C 40.988281 11.667969 40.988281 11.96875 41 12.089844 C 41.003906 12.117188 41.015625 12.140625 41.035156 12.160156 Z M 41.335938 11.632812 C 41.402344 11.574219 41.484375 11.542969 41.503906 11.542969 C 41.503906 11.542969 41.503906 11.542969 41.507812 11.542969 C 41.523438 11.566406 41.519531 11.675781 41.46875 11.773438 C 41.40625 11.882812 41.289062 11.9375 41.199219 11.960938 C 41.203125 11.859375 41.234375 11.722656 41.335938 11.632812 Z M 41.335938 11.632812 " fill-opacity="1" fill-rule="nonzero"/><path fill="#e7d215" d="M 48.148438 29.226562 C 48.148438 29.316406 48.117188 29.390625 48.054688 29.457031 C 47.988281 29.519531 47.914062 29.550781 47.824219 29.550781 C 47.734375 29.550781 47.65625 29.519531 47.59375 29.457031 C 47.527344 29.390625 47.496094 29.316406 47.496094 29.226562 C 47.496094 29.136719 47.527344 29.058594 47.59375 28.996094 C 47.65625 28.933594 47.734375 28.898438 47.824219 28.898438 C 47.914062 28.898438 47.988281 28.933594 48.054688 28.996094 C 48.117188 29.058594 48.148438 29.136719 48.148438 29.226562 Z M 48.148438 29.226562 " fill-opacity="1" fill-rule="nonzero"/><path fill="#e7d215" d="M 48.433594 29.296875 C 48.433594 29.296875 48.433594 29.296875 48.4375 29.296875 L 50.058594 29.269531 C 50.113281 29.269531 50.15625 29.222656 50.15625 29.167969 C 50.15625 29.113281 50.113281 29.066406 50.054688 29.070312 L 48.433594 29.097656 C 48.378906 29.097656 48.332031 29.144531 48.332031 29.199219 C 48.335938 29.253906 48.378906 29.296875 48.433594 29.296875 Z M 48.433594 29.296875 " fill-opacity="1" fill-rule="nonzero"/><path fill="#e7d215" d="M 50.800781 29.449219 C 50.8125 29.449219 50.828125 29.449219 50.839844 29.449219 C 51.003906 29.433594 51.234375 29.339844 51.238281 29.167969 C 51.246094 29.007812 51.046875 28.902344 50.929688 28.867188 C 50.648438 28.785156 50.398438 28.949219 50.304688 29.023438 C 50.28125 29.039062 50.269531 29.0625 50.265625 29.089844 C 50.261719 29.117188 50.269531 29.144531 50.285156 29.164062 C 50.339844 29.234375 50.53125 29.449219 50.800781 29.449219 Z M 50.871094 29.0625 C 50.957031 29.085938 51.03125 29.140625 51.039062 29.15625 C 51.027344 29.183594 50.933594 29.238281 50.824219 29.246094 C 50.703125 29.257812 50.589844 29.183594 50.519531 29.121094 C 50.609375 29.070312 50.742188 29.023438 50.871094 29.0625 Z M 50.871094 29.0625 " fill-opacity="1" fill-rule="nonzero"/><path fill="#e7d215" d="M 39.605469 42.945312 C 39.605469 43.035156 39.574219 43.109375 39.507812 43.175781 C 39.445312 43.238281 39.367188 43.269531 39.277344 43.269531 C 39.1875 43.269531 39.113281 43.238281 39.046875 43.175781 C 38.984375 43.109375 38.953125 43.035156 38.953125 42.945312 C 38.953125 42.855469 38.984375 42.777344 39.046875 42.714844 C 39.113281 42.652344 39.1875 42.617188 39.277344 42.617188 C 39.367188 42.617188 39.445312 42.652344 39.507812 42.714844 C 39.574219 42.777344 39.605469 42.855469 39.605469 42.945312 Z M 39.605469 42.945312 " fill-opacity="1" fill-rule="nonzero"/><path fill="#e7d215" d="M 39.5 43.519531 L 40.277344 44.945312 C 40.296875 44.980469 40.328125 44.996094 40.363281 44.996094 C 40.382812 44.996094 40.398438 44.992188 40.414062 44.984375 C 40.460938 44.960938 40.480469 44.898438 40.453125 44.847656 L 39.675781 43.425781 C 39.648438 43.375 39.589844 43.355469 39.539062 43.382812 C 39.492188 43.410156 39.472656 43.472656 39.5 43.519531 Z M 39.5 43.519531 " fill-opacity="1" fill-rule="nonzero"/><path fill="#e7d215" d="M 40.484375 45.71875 C 40.554688 45.832031 40.699219 45.960938 40.832031 45.960938 C 40.863281 45.960938 40.890625 45.957031 40.917969 45.941406 C 41.09375 45.859375 41.042969 45.5625 41.039062 45.53125 C 40.984375 45.246094 40.71875 45.097656 40.609375 45.046875 C 40.585938 45.035156 40.558594 45.035156 40.53125 45.042969 C 40.507812 45.054688 40.488281 45.074219 40.476562 45.097656 C 40.4375 45.183594 40.332031 45.472656 40.484375 45.71875 Z M 40.625 45.285156 C 40.710938 45.339844 40.816406 45.433594 40.839844 45.570312 C 40.859375 45.65625 40.84375 45.746094 40.835938 45.761719 C 40.835938 45.761719 40.832031 45.761719 40.832031 45.761719 C 40.800781 45.761719 40.710938 45.703125 40.65625 45.613281 C 40.585938 45.503906 40.601562 45.375 40.625 45.285156 Z M 40.625 45.285156 " fill-opacity="1" fill-rule="nonzero"/><path fill="#e7d215" d="M 14.855469 29.074219 C 14.855469 29.164062 14.824219 29.242188 14.757812 29.304688 C 14.695312 29.371094 14.617188 29.402344 14.527344 29.402344 C 14.4375 29.402344 14.363281 29.371094 14.296875 29.304688 C 14.234375 29.242188 14.203125 29.164062 14.203125 29.074219 C 14.203125 28.984375 14.234375 28.910156 14.296875 28.84375 C 14.363281 28.78125 14.4375 28.75 14.527344 28.75 C 14.617188 28.75 14.695312 28.78125 14.757812 28.84375 C 14.824219 28.910156 14.855469 28.984375 14.855469 29.074219 Z M 14.855469 29.074219 " fill-opacity="1" fill-rule="nonzero"/><path fill="#e7d215" d="M 13.917969 29.011719 C 13.917969 29.011719 13.914062 29.011719 13.914062 29.011719 L 12.292969 29.050781 C 12.238281 29.054688 12.195312 29.097656 12.195312 29.15625 C 12.195312 29.210938 12.242188 29.253906 12.296875 29.253906 L 13.917969 29.210938 C 13.976562 29.210938 14.019531 29.164062 14.019531 29.109375 C 14.015625 29.050781 13.972656 29.011719 13.917969 29.011719 Z M 13.917969 29.011719 " fill-opacity="1" fill-rule="nonzero"/><path fill="#e7d215" d="M 11.507812 28.882812 C 11.347656 28.898438 11.117188 28.992188 11.113281 29.167969 C 11.109375 29.328125 11.308594 29.425781 11.425781 29.460938 C 11.476562 29.476562 11.527344 29.480469 11.578125 29.480469 C 11.789062 29.480469 11.972656 29.363281 12.050781 29.300781 C 12.070312 29.285156 12.082031 29.261719 12.085938 29.234375 C 12.089844 29.207031 12.082031 29.179688 12.066406 29.160156 C 12.007812 29.089844 11.800781 28.867188 11.507812 28.882812 Z M 11.480469 29.269531 C 11.394531 29.242188 11.320312 29.191406 11.3125 29.175781 C 11.324219 29.148438 11.421875 29.09375 11.527344 29.082031 C 11.535156 29.082031 11.542969 29.082031 11.554688 29.082031 C 11.667969 29.082031 11.769531 29.148438 11.832031 29.207031 C 11.742188 29.257812 11.613281 29.308594 11.480469 29.269531 Z M 11.480469 29.269531 " fill-opacity="1" fill-rule="nonzero"/><path fill="#e7d215" d="M 23.28125 43.039062 C 23.28125 43.132812 23.246094 43.207031 23.183594 43.269531 C 23.121094 43.335938 23.042969 43.367188 22.953125 43.367188 C 22.863281 43.367188 22.789062 43.335938 22.722656 43.269531 C 22.660156 43.207031 22.628906 43.132812 22.628906 43.039062 C 22.628906 42.949219 22.660156 42.875 22.722656 42.8125 C 22.789062 42.746094 22.863281 42.714844 22.953125 42.714844 C 23.042969 42.714844 23.121094 42.746094 23.183594 42.8125 C 23.246094 42.875 23.28125 42.949219 23.28125 43.039062 Z M 23.28125 43.039062 " fill-opacity="1" fill-rule="nonzero"/><path fill="#e7d215" d="M 22.59375 43.542969 L 21.835938 44.976562 C 21.808594 45.027344 21.828125 45.085938 21.875 45.113281 C 21.890625 45.121094 21.90625 45.125 21.921875 45.125 C 21.960938 45.125 21.996094 45.105469 22.011719 45.070312 L 22.773438 43.636719 C 22.796875 43.589844 22.78125 43.527344 22.730469 43.503906 C 22.683594 43.476562 22.621094 43.496094 22.59375 43.542969 Z M 22.59375 43.542969 " fill-opacity="1" fill-rule="nonzero"/><path fill="#e7d215" d="M 21.894531 45.246094 C 21.871094 45.230469 21.84375 45.226562 21.816406 45.230469 C 21.726562 45.242188 21.421875 45.3125 21.304688 45.578125 C 21.234375 45.726562 21.207031 45.972656 21.355469 46.0625 C 21.390625 46.082031 21.421875 46.089844 21.457031 46.089844 C 21.574219 46.089844 21.699219 46 21.765625 45.933594 C 21.972656 45.734375 21.953125 45.433594 21.933594 45.3125 C 21.929688 45.285156 21.914062 45.261719 21.894531 45.246094 Z M 21.625 45.792969 C 21.5625 45.851562 21.484375 45.890625 21.460938 45.890625 C 21.445312 45.871094 21.441406 45.757812 21.484375 45.660156 C 21.539062 45.542969 21.652344 45.484375 21.742188 45.453125 C 21.742188 45.554688 21.722656 45.695312 21.625 45.792969 Z M 21.625 45.792969 " fill-opacity="1" fill-rule="nonzero"/><g clip-path="url(#658b1e55b1)"><path fill="#e7d215" d="M 32.703125 25.296875 C 32.703125 25.449219 32.675781 25.597656 32.617188 25.742188 C 32.558594 25.882812 32.472656 26.007812 32.363281 26.117188 C 32.253906 26.226562 32.128906 26.308594 31.988281 26.367188 C 31.84375 26.425781 31.699219 26.457031 31.542969 26.457031 C 31.390625 26.457031 31.242188 26.425781 31.101562 26.367188 C 30.957031 26.308594 30.832031 26.226562 30.722656 26.117188 C 30.613281 26.007812 30.53125 25.882812 30.472656 25.742188 C 30.414062 25.597656 30.382812 25.449219 30.382812 25.296875 C 30.382812 25.140625 30.414062 24.996094 30.472656 24.851562 C 30.53125 24.710938 30.613281 24.585938 30.722656 24.476562 C 30.832031 24.367188 30.957031 24.285156 31.101562 24.226562 C 31.242188 24.164062 31.390625 24.136719 31.542969 24.136719 C 31.699219 24.136719 31.84375 24.164062 31.988281 24.226562 C 32.128906 24.285156 32.253906 24.367188 32.363281 24.476562 C 32.472656 24.585938 32.558594 24.710938 32.617188 24.851562 C 32.675781 24.996094 32.703125 25.140625 32.703125 25.296875 Z M 32.703125 25.296875 " fill-opacity="1" fill-rule="nonzero"/></g><path fill="#e7d215" d="M 27.714844 25.296875 C 27.503906 25.296875 27.308594 25.347656 27.128906 25.453125 C 27.21875 25.503906 27.296875 25.566406 27.367188 25.640625 C 27.441406 25.710938 27.5 25.789062 27.550781 25.878906 C 27.601562 25.964844 27.640625 26.058594 27.664062 26.15625 C 27.691406 26.253906 27.707031 26.355469 27.707031 26.457031 C 27.707031 26.558594 27.691406 26.65625 27.664062 26.753906 C 27.640625 26.851562 27.601562 26.945312 27.550781 27.035156 C 27.5 27.121094 27.441406 27.203125 27.367188 27.273438 C 27.296875 27.34375 27.21875 27.40625 27.128906 27.457031 C 27.285156 27.550781 27.453125 27.601562 27.632812 27.613281 C 27.8125 27.625 27.988281 27.597656 28.152344 27.527344 C 28.320312 27.460938 28.464844 27.359375 28.582031 27.222656 C 28.703125 27.085938 28.785156 26.933594 28.832031 26.757812 C 28.878906 26.585938 28.886719 26.410156 28.851562 26.230469 C 28.816406 26.054688 28.746094 25.894531 28.632812 25.75 C 28.523438 25.609375 28.390625 25.496094 28.226562 25.417969 C 28.066406 25.335938 27.894531 25.296875 27.714844 25.296875 Z M 27.714844 25.296875 " fill-opacity="1" fill-rule="nonzero"/><path fill="#e7d215" d="M 24.324219 27.617188 C 24.246094 27.617188 24.167969 27.625 24.09375 27.640625 C 24.363281 27.695312 24.585938 27.828125 24.757812 28.042969 C 24.933594 28.253906 25.023438 28.5 25.023438 28.777344 C 25.023438 29.050781 24.933594 29.296875 24.757812 29.511719 C 24.585938 29.722656 24.363281 29.859375 24.09375 29.914062 C 24.253906 29.945312 24.414062 29.945312 24.574219 29.910156 C 24.734375 29.875 24.878906 29.808594 25.011719 29.710938 C 25.140625 29.613281 25.25 29.492188 25.328125 29.351562 C 25.410156 29.207031 25.460938 29.054688 25.476562 28.890625 C 25.492188 28.730469 25.472656 28.570312 25.421875 28.414062 C 25.371094 28.257812 25.292969 28.121094 25.183594 28 C 25.070312 27.875 24.941406 27.78125 24.792969 27.714844 C 24.644531 27.648438 24.484375 27.617188 24.320312 27.617188 Z M 24.324219 27.617188 " fill-opacity="1" fill-rule="nonzero"/><path fill="#e7d215" d="M 38.085938 27.617188 C 38.164062 27.617188 38.242188 27.625 38.316406 27.640625 C 38.046875 27.695312 37.824219 27.828125 37.648438 28.042969 C 37.476562 28.253906 37.386719 28.5 37.386719 28.777344 C 37.386719 29.050781 37.476562 29.296875 37.648438 29.511719 C 37.824219 29.722656 38.046875 29.859375 38.316406 29.914062 C 38.15625 29.945312 37.996094 29.945312 37.835938 29.910156 C 37.675781 29.875 37.53125 29.808594 37.398438 29.710938 C 37.265625 29.613281 37.160156 29.492188 37.078125 29.351562 C 37 29.207031 36.949219 29.054688 36.933594 28.890625 C 36.917969 28.730469 36.933594 28.570312 36.984375 28.414062 C 37.035156 28.257812 37.117188 28.121094 37.226562 28 C 37.335938 27.875 37.46875 27.78125 37.617188 27.714844 C 37.765625 27.648438 37.921875 27.617188 38.085938 27.617188 Z M 38.085938 27.617188 " fill-opacity="1" fill-rule="nonzero"/><path fill="#e7d215" d="M 35.136719 25.296875 C 35.34375 25.296875 35.539062 25.347656 35.71875 25.453125 C 35.632812 25.503906 35.550781 25.566406 35.480469 25.640625 C 35.410156 25.710938 35.347656 25.789062 35.296875 25.878906 C 35.246094 25.964844 35.210938 26.058594 35.183594 26.15625 C 35.15625 26.253906 35.144531 26.355469 35.144531 26.457031 C 35.144531 26.558594 35.15625 26.65625 35.183594 26.753906 C 35.210938 26.851562 35.246094 26.945312 35.296875 27.035156 C 35.347656 27.121094 35.410156 27.203125 35.480469 27.273438 C 35.550781 27.34375 35.632812 27.40625 35.71875 27.457031 C 35.5625 27.550781 35.394531 27.601562 35.214844 27.613281 C 35.035156 27.625 34.863281 27.597656 34.695312 27.527344 C 34.527344 27.460938 34.382812 27.359375 34.265625 27.222656 C 34.144531 27.085938 34.0625 26.933594 34.015625 26.757812 C 33.96875 26.585938 33.960938 26.410156 33.996094 26.230469 C 34.03125 26.054688 34.105469 25.894531 34.214844 25.75 C 34.324219 25.609375 34.460938 25.496094 34.621094 25.417969 C 34.785156 25.335938 34.953125 25.296875 35.136719 25.296875 Z M 35.136719 25.296875 " fill-opacity="1" fill-rule="nonzero"/><g clip-path="url(#ef155ca6c0)"><path fill="#e7d215" d="M 22.574219 30.132812 C 22.535156 30.132812 22.496094 30.132812 22.457031 30.136719 C 22.753906 30.167969 23.003906 30.292969 23.203125 30.511719 C 23.402344 30.734375 23.503906 30.992188 23.503906 31.292969 C 23.503906 31.589844 23.402344 31.847656 23.203125 32.070312 C 23.003906 32.289062 22.753906 32.414062 22.457031 32.445312 C 22.496094 32.449219 22.535156 32.453125 22.574219 32.453125 C 22.726562 32.453125 22.878906 32.425781 23.019531 32.367188 C 23.164062 32.308594 23.292969 32.226562 23.402344 32.117188 C 23.511719 32.007812 23.597656 31.882812 23.65625 31.738281 C 23.71875 31.59375 23.746094 31.445312 23.746094 31.292969 C 23.746094 31.136719 23.71875 30.988281 23.65625 30.84375 C 23.597656 30.699219 23.511719 30.574219 23.402344 30.464844 C 23.292969 30.355469 23.164062 30.273438 23.019531 30.214844 C 22.878906 30.15625 22.726562 30.128906 22.574219 30.132812 Z M 22.574219 30.132812 " fill-opacity="1" fill-rule="nonzero"/></g><g clip-path="url(#7358611b84)"><path fill="#e7d215" d="M 39.859375 30.132812 C 39.898438 30.132812 39.933594 30.132812 39.972656 30.136719 C 39.675781 30.167969 39.429688 30.292969 39.226562 30.511719 C 39.027344 30.734375 38.929688 30.992188 38.929688 31.292969 C 38.929688 31.589844 39.027344 31.847656 39.226562 32.070312 C 39.429688 32.289062 39.675781 32.417969 39.972656 32.445312 C 39.933594 32.449219 39.898438 32.453125 39.859375 32.453125 C 39.703125 32.453125 39.554688 32.425781 39.410156 32.367188 C 39.265625 32.308594 39.140625 32.226562 39.027344 32.117188 C 38.917969 32.007812 38.832031 31.882812 38.773438 31.738281 C 38.714844 31.597656 38.683594 31.445312 38.683594 31.292969 C 38.683594 31.136719 38.714844 30.988281 38.773438 30.84375 C 38.832031 30.703125 38.917969 30.574219 39.027344 30.464844 C 39.140625 30.359375 39.265625 30.273438 39.410156 30.214844 C 39.554688 30.15625 39.703125 30.128906 39.859375 30.132812 Z M 39.859375 30.132812 " fill-opacity="1" fill-rule="nonzero"/></g><g clip-path="url(#dd43ed9828)"><path fill="#e7d215" d="M 30.160156 37.625 C 30.152344 37.625 30.136719 37.621094 30.125 37.613281 C 29.988281 37.550781 29.320312 36.953125 29.238281 36.097656 C 29.234375 36.058594 29.15625 35.121094 29.789062 34.5 C 30.097656 34.199219 30.429688 34.113281 30.722656 34.039062 C 31.015625 33.964844 31.269531 33.902344 31.425781 33.632812 C 31.589844 33.34375 31.582031 32.960938 31.40625 32.691406 C 31.125 32.261719 30.417969 32.191406 30.035156 32.4375 C 29.84375 32.5625 29.796875 32.730469 29.742188 32.949219 C 29.6875 33.144531 29.625 33.390625 29.425781 33.65625 C 29.046875 34.160156 28.382812 34.484375 27.722656 34.484375 C 27.71875 34.484375 27.714844 34.484375 27.710938 34.484375 C 26.851562 34.480469 26.027344 33.917969 25.703125 33.125 C 25.296875 32.117188 25.886719 31.164062 26.167969 30.707031 C 26.867188 29.582031 27.960938 29.160156 28.398438 29.035156 C 29.65625 28.667969 30.820312 29.007812 31.589844 29.230469 C 32.214844 29.410156 32.65625 29.613281 33.011719 29.777344 C 33.53125 30.011719 33.84375 30.15625 34.238281 29.996094 C 34.820312 29.765625 35.234375 29.0625 35.171875 28.398438 C 35.117188 27.75 34.644531 27.296875 34.253906 27.105469 C 33.367188 26.664062 32.242188 27.203125 31.425781 27.59375 C 31.125 27.738281 30.933594 27.859375 30.761719 27.964844 C 30.503906 28.125 30.300781 28.253906 29.882812 28.363281 L 29.867188 28.367188 C 29.53125 28.457031 28.75 28.660156 27.980469 28.28125 C 27.414062 28.003906 27.023438 27.5625 26.878906 27.039062 C 26.636719 26.164062 27.148438 25.433594 27.3125 25.230469 C 27.613281 24.851562 27.988281 24.660156 28.292969 24.507812 C 28.570312 24.363281 28.738281 24.320312 28.882812 24.277344 C 29.019531 24.242188 29.128906 24.210938 29.289062 24.117188 C 29.296875 24.113281 30.082031 23.636719 30.222656 22.863281 C 30.28125 22.527344 30.1875 22.324219 30.066406 22.070312 C 29.941406 21.808594 29.78125 21.480469 29.75 20.894531 C 29.734375 20.589844 29.753906 20 30.085938 19.441406 C 30.1875 19.273438 30.355469 18.984375 30.621094 18.980469 L 30.625 19.039062 L 30.621094 18.980469 C 30.875 18.972656 31.058594 19.226562 31.179688 19.394531 C 31.269531 19.515625 31.394531 19.722656 31.484375 20.144531 L 31.496094 20.191406 C 31.542969 20.410156 31.609375 20.707031 31.566406 21.085938 C 31.542969 21.273438 31.503906 21.378906 31.46875 21.476562 C 31.433594 21.574219 31.402344 21.664062 31.390625 21.828125 C 31.367188 22.050781 31.402344 22.1875 31.4375 22.347656 C 31.453125 22.425781 31.472656 22.503906 31.488281 22.597656 C 31.601562 23.375 31.289062 24.050781 31.144531 24.304688 C 30.921875 24.707031 30.632812 25.019531 30.28125 25.226562 C 30.140625 25.3125 29.851562 25.4375 29.175781 25.703125 L 29.050781 25.75 C 28.621094 25.921875 28.476562 25.976562 28.378906 26.148438 C 28.273438 26.339844 28.273438 26.59375 28.378906 26.777344 C 28.460938 26.917969 28.652344 27.089844 29.09375 27.097656 C 29.441406 27.109375 29.683594 26.957031 29.992188 26.769531 C 30.023438 26.746094 30.058594 26.726562 30.09375 26.707031 C 30.097656 26.703125 30.71875 26.320312 31.628906 25.9375 C 31.964844 25.796875 32.851562 25.425781 33.910156 25.589844 C 34.839844 25.734375 35.632812 26.1875 36.144531 26.867188 C 36.78125 27.714844 37.136719 29.066406 36.5 30.167969 C 36.066406 30.925781 35.199219 31.460938 34.296875 31.53125 C 33.683594 31.582031 33.28125 31.390625 32.769531 31.148438 C 32.433594 30.988281 32.054688 30.808594 31.527344 30.648438 C 30.269531 30.265625 29.34375 30.167969 28.777344 30.351562 C 28.464844 30.457031 27.878906 30.714844 27.484375 31.300781 C 27.332031 31.527344 26.855469 32.308594 27.191406 32.761719 C 27.359375 32.992188 27.710938 33.109375 27.988281 33.035156 C 28.253906 32.960938 28.355469 32.734375 28.484375 32.449219 C 28.601562 32.183594 28.730469 31.886719 29.023438 31.617188 C 29.566406 31.117188 30.441406 30.929688 31.199219 31.152344 C 31.894531 31.355469 32.65625 31.960938 32.789062 32.847656 C 32.832031 33.109375 32.875 33.773438 32.445312 34.269531 C 32.117188 34.644531 31.710938 34.691406 31.320312 34.734375 C 30.925781 34.78125 30.554688 34.824219 30.226562 35.171875 C 29.828125 35.597656 29.730469 36.242188 29.808594 36.691406 C 29.878906 37.078125 30.082031 37.347656 30.171875 37.464844 C 30.214844 37.519531 30.226562 37.539062 30.222656 37.570312 L 30.21875 37.597656 L 30.195312 37.613281 C 30.1875 37.617188 30.175781 37.625 30.160156 37.625 Z M 30.570312 32.175781 C 30.929688 32.175781 31.304688 32.320312 31.507812 32.628906 C 31.703125 32.929688 31.714844 33.367188 31.527344 33.691406 C 31.347656 34.003906 31.054688 34.078125 30.75 34.15625 C 30.457031 34.230469 30.15625 34.304688 29.871094 34.585938 C 29.277344 35.164062 29.355469 36.050781 29.359375 36.085938 C 29.40625 36.59375 29.664062 36.992188 29.878906 37.234375 C 29.800781 37.097656 29.730469 36.917969 29.691406 36.710938 C 29.605469 36.230469 29.710938 35.546875 30.136719 35.089844 C 30.496094 34.710938 30.90625 34.664062 31.308594 34.617188 C 31.691406 34.574219 32.058594 34.53125 32.355469 34.191406 C 32.753906 33.730469 32.710938 33.109375 32.671875 32.863281 C 32.546875 32.027344 31.824219 31.457031 31.164062 31.265625 C 30.445312 31.054688 29.617188 31.230469 29.105469 31.703125 C 28.828125 31.957031 28.703125 32.242188 28.589844 32.496094 C 28.457031 32.796875 28.339844 33.058594 28.019531 33.148438 C 27.691406 33.238281 27.292969 33.101562 27.09375 32.832031 C 26.710938 32.316406 27.222656 31.480469 27.386719 31.234375 C 27.800781 30.621094 28.414062 30.347656 28.742188 30.238281 C 29.332031 30.046875 30.28125 30.144531 31.5625 30.535156 C 32.097656 30.695312 32.480469 30.878906 32.820312 31.039062 C 33.335938 31.285156 33.703125 31.460938 34.285156 31.414062 C 35.152344 31.34375 35.980469 30.832031 36.398438 30.109375 C 37.007812 29.050781 36.660156 27.753906 36.046875 26.9375 C 35.554688 26.28125 34.789062 25.84375 33.890625 25.707031 C 32.863281 25.546875 32 25.910156 31.675781 26.046875 C 30.769531 26.425781 30.160156 26.800781 30.15625 26.804688 C 30.121094 26.828125 30.085938 26.847656 30.054688 26.867188 C 29.742188 27.058594 29.476562 27.226562 29.09375 27.21875 C 28.59375 27.203125 28.375 27.003906 28.277344 26.835938 C 28.152344 26.617188 28.152344 26.316406 28.277344 26.089844 C 28.390625 25.882812 28.558594 25.816406 29.007812 25.640625 L 29.128906 25.59375 C 29.800781 25.328125 30.085938 25.207031 30.21875 25.125 C 30.550781 24.925781 30.828125 24.628906 31.042969 24.246094 C 31.175781 24.003906 31.480469 23.355469 31.367188 22.617188 C 31.355469 22.527344 31.335938 22.449219 31.320312 22.375 C 31.285156 22.210938 31.25 22.058594 31.269531 21.816406 C 31.285156 21.636719 31.324219 21.535156 31.359375 21.4375 C 31.390625 21.34375 31.425781 21.246094 31.449219 21.070312 C 31.492188 20.714844 31.425781 20.425781 31.378906 20.214844 L 31.371094 20.167969 C 31.28125 19.769531 31.164062 19.574219 31.085938 19.464844 C 30.976562 19.316406 30.816406 19.089844 30.625 19.097656 C 30.425781 19.101562 30.277344 19.351562 30.1875 19.503906 C 29.871094 20.03125 29.851562 20.597656 29.867188 20.886719 C 29.898438 21.449219 30.042969 21.75 30.171875 22.019531 C 30.296875 22.28125 30.40625 22.507812 30.335938 22.882812 C 30.1875 23.710938 29.382812 24.195312 29.347656 24.21875 C 29.171875 24.320312 29.054688 24.355469 28.914062 24.390625 C 28.773438 24.429688 28.613281 24.476562 28.34375 24.613281 C 28.054688 24.761719 27.6875 24.945312 27.402344 25.300781 C 27.25 25.492188 26.765625 26.183594 26.992188 27.003906 C 27.128906 27.496094 27.5 27.914062 28.03125 28.171875 C 28.761719 28.53125 29.515625 28.335938 29.835938 28.253906 L 29.851562 28.246094 C 30.253906 28.144531 30.449219 28.019531 30.699219 27.863281 C 30.871094 27.753906 31.066406 27.632812 31.371094 27.488281 C 32.214844 27.082031 33.367188 26.53125 34.308594 26.996094 C 34.722656 27.203125 35.230469 27.691406 35.292969 28.386719 C 35.355469 29.101562 34.910156 29.855469 34.285156 30.105469 C 33.839844 30.28125 33.492188 30.125 32.964844 29.882812 C 32.613281 29.722656 32.175781 29.523438 31.558594 29.34375 C 30.800781 29.121094 29.65625 28.789062 28.433594 29.144531 C 28.101562 29.242188 26.964844 29.644531 26.269531 30.769531 C 25.976562 31.242188 25.429688 32.128906 25.8125 33.078125 C 26.121094 33.832031 26.898438 34.359375 27.710938 34.363281 C 28.335938 34.367188 28.972656 34.0625 29.332031 33.585938 C 29.515625 33.335938 29.574219 33.113281 29.625 32.917969 C 29.6875 32.683594 29.738281 32.484375 29.972656 32.335938 C 30.136719 32.230469 30.351562 32.175781 30.570312 32.175781 Z M 30.570312 32.175781 " fill-opacity="1" fill-rule="nonzero"/></g></svg>