<?xml version="1.0" encoding="UTF-8" standalone="no"?>
<!-- Created with Inkscape (http://www.inkscape.org/) -->

<svg
   version="1.1"
   id="svg2"
   width="664.70667"
   height="637.15997"
   viewBox="0 0 664.70667 637.15997"
   sodipodi:docname="9722306.eps"
   xmlns:inkscape="http://www.inkscape.org/namespaces/inkscape"
   xmlns:sodipodi="http://sodipodi.sourceforge.net/DTD/sodipodi-0.dtd"
   xmlns="http://www.w3.org/2000/svg"
   xmlns:svg="http://www.w3.org/2000/svg">
  <defs
     id="defs6" />
  <sodipodi:namedview
     id="namedview4"
     pagecolor="#ffffff"
     bordercolor="#000000"
     borderopacity="0.25"
     inkscape:showpageshadow="2"
     inkscape:pageopacity="0.0"
     inkscape:pagecheckerboard="0"
     inkscape:deskcolor="#d1d1d1" />
  <g
     id="g8"
     inkscape:groupmode="layer"
     inkscape:label="ink_ext_XXXXXX"
     transform="matrix(1.3333333,0,0,-1.3333333,0,637.16)">
    <g
       id="g10"
       transform="scale(0.1)">
      <path
         d="m 1237.78,361.98 c -29.94,12.75 -59.42,26.2 -88.36,40.442 C 764.25,592.25 475.41,947.559 322.441,1307.12 255.352,1464.63 211.102,1629.1 185.93,1795.4 c -164.5784,1090.85 751.82,1600.56 960.3,1981.19 208.48,380.64 571.41,969.53 1468.32,1000.77 681.94,23.85 1368.81,-265.48 1736.67,-892.82 40.62,-69.09 77.36,-142.35 109.69,-219.73 60.17,-143.94 105.51,-302.18 133.12,-475.03 79.34,-496.47 -3.49,-916.02 -281.68,-1348.4 -64.66,-100.51 -138.97,-201.6 -134.9,-322.21 2.97,-87.67 45.39,-166.37 124.65,-65.55 93.15,118.51 313.55,18.35 200.22,-268.74 C 4313.03,705.398 3816.45,461.449 3300.17,315.031 2666.46,135.301 1857.6,97.9219 1237.78,361.98"
         style="fill:#85d38e;fill-opacity:1;fill-rule:nonzero;stroke:none"
         id="path12" />
      <path
         d="m 2275.4,172.07 c -362.84,0 -724.34,56.45 -1037.62,189.91 -29.94,12.75 -59.42,26.2 -88.36,40.442 C 764.25,592.25 475.41,947.559 322.441,1307.12 255.352,1464.63 211.102,1629.1 185.93,1795.4 c -13.422,88.96 -19.653,174.04 -19.668,255.51 -0.164,917.61 788.488,1376.09 979.968,1725.68 208.48,380.64 571.41,969.53 1468.32,1000.77 25.93,0.91 51.88,1.36 77.8,1.36 655.92,0 1305,-290.7 1658.87,-894.18 40.62,-69.09 77.36,-142.35 109.69,-219.73 60.17,-143.94 105.51,-302.18 133.12,-475.03 18.98,-118.79 28.68,-233.17 28.64,-344.37 -0.12,-353.6 -98.69,-675.1 -310.32,-1004.03 -62.96,-97.86 -135.06,-196.27 -135.06,-312.71 0,-3.15 0.06,-6.32 0.16,-9.5 1.98,-58.41 21.47,-112.85 57.7,-112.85 18.15,0 40.5,13.65 66.95,47.3 25.75,32.77 61.25,48.82 96.72,48.82 67.61,0 135.16,-58.29 135.15,-170.26 0,-41.73 -9.39,-90.91 -31.65,-147.3 C 4313.03,705.398 3816.45,461.449 3300.17,315.031 2986.76,226.141 2630.43,172.07 2275.4,172.07"
         style="fill:#e9f7e9;fill-opacity:1;fill-rule:nonzero;stroke:none"
         id="path14" />
      <path
         d="m 2243.9,1531.17 c -19.6,14.84 -38.06,31.66 -54.97,50.5 -13.58,15.13 -23.09,29.11 -29.09,41.82 -6.02,12.73 -8.58,24.09 -8.58,34.61 0.04,14.57 4.82,28.11 14.85,42.19 17.45,24.58 51.8,49.2 98,72.71 69.26,35.45 164.45,69.04 267.58,105.52 103.17,36.51 214.38,76 316.56,124.08 49.09,23.01 84.24,60.04 106.28,106.17 22.12,46.15 31.62,101.15 31.64,161.89 -0.03,89.89 -20.85,192.7 -54.97,299.53 -51.23,160.21 -132.56,329.38 -220.44,475.46 -43.94,73.03 -89.53,140.28 -133.89,197.73 -44.38,57.46 -87.46,105.11 -126.88,139.13 -153.32,132.19 -325.28,203.63 -476.41,203.74 -61.01,0 -118.67,-11.75 -169.92,-36.16 -51.25,-24.39 -95.99,-61.5 -130.91,-111.42 -28.25,-40.57 -43.85,-97.18 -53.13,-163.79 -9.19,-66.62 -11.7,-143.41 -11.71,-224.01 0,-103.34 4.18,-212.94 4.17,-314.55 0.03,-98.51 -3.99,-189.61 -19.06,-259.27 -7.49,-34.81 -17.77,-64.18 -31.03,-86.28 -13.32,-22.17 -29.1,-36.87 -48.55,-44.69 -13.84,-5.52 -27.99,-8.11 -42.44,-8.12 -26.35,-0.01 -53.89,8.75 -80.59,25.04 -40.04,24.39 -77.73,65.7 -105.07,116.52 -27.38,50.8 -44.45,110.96 -44.44,172.78 0.03,60.95 16.43,123.47 55.9,181.51 39.49,58.01 102.29,111.78 196.24,154.13 99.38,44.78 172.74,80.42 228.83,104.61 28.04,12.1 51.75,21.31 72.03,27.4 20.3,6.11 37.09,9.06 51.43,9.05 10.46,-0.01 19.64,-1.52 28.44,-4.55 15.33,-5.31 30.08,-15.58 46.69,-32.81 24.9,-25.77 53.07,-66.74 91.35,-123.88 38.33,-57.14 86.96,-130.44 153.87,-221.39 171.77,-233.49 332.93,-421.59 483.24,-560.46 150.35,-138.81 289.8,-228.65 419.24,-264.53 102.04,-28.17 182,-48.04 253.53,-48.11 52.58,-0.06 100.65,11.14 147.12,37.75 46.51,26.57 91.32,67.99 139.86,127.84 53.66,66.22 100.96,153.72 135.05,251.42 34.06,97.69 54.87,205.59 54.89,312.55 -0.01,114.44 -23.88,227.99 -81.55,326.06 -21.37,36.3 -52.48,68.61 -90.42,97.91 -66.42,51.25 -153.96,93.52 -249.79,130.56 -143.71,55.49 -306.23,99.02 -443,140.07 -68.36,20.5 -130.27,40.39 -179.83,60.6 -24.77,10.1 -46.43,20.27 -64.16,30.5 -17.74,10.2 -31.49,20.5 -40.49,30.29 -39.29,42.56 -75.44,89.13 -101.47,134.76 -26.11,45.6 -41.78,90.21 -41.69,127.93 0.05,23.13 5.58,43.57 17.9,61.81 12.36,18.21 31.92,34.59 61.5,47.98 5.2,2.33 10.71,3.49 16.99,3.5 14.47,0.1 33.52,-6.84 55.06,-21.66 37.74,-25.77 82.09,-74.46 126.22,-138.81 66.32,-96.53 132.75,-228.24 182.37,-371.65 49.66,-143.42 82.52,-298.61 82.5,-442.07 0,-80.63 -10.36,-157.52 -33.65,-226.59 -39.6,-117.44 -94.13,-208.63 -157.37,-281.48 -94.84,-109.24 -209.59,-177.39 -323.86,-228.88 -114.25,-51.53 -227.74,-86.06 -319.61,-128.87 -102.17,-47.74 -176.44,-76.93 -227.37,-108.98 -25.43,-16.07 -45.32,-33.15 -58.89,-54.3 -13.6,-21.13 -20.11,-45.93 -20.05,-74.7 0.01,-20.25 3.06,-42.61 8.82,-68.13 8.64,-37.97 30.56,-77.11 61.15,-115.12 45.94,-56.94 111.71,-111.31 184.51,-151.9 72.83,-40.5 152.68,-67.31 227.44,-67.38 38.96,-0.01 76.62,7.39 110.58,24.37 40.6,20.33 70.17,41.92 90.04,66.25 19.89,24.25 29.46,51.66 29.36,80.18 -0.01,20.61 -4.74,41.67 -12.96,63.36 -12.36,32.55 -32.59,66.74 -58.25,103.95 -25.67,37.19 -56.83,77.35 -91.29,121.32 -41.1,52.37 -60.5,123.02 -60.49,200.73 -0.05,99.04 31.66,208.9 87.39,303.28 55.69,94.47 135.19,173.21 229.43,211.95 96.38,39.7 182.79,57.47 255.25,57.45 64.95,0.01 118.56,-14.23 158.71,-39.15 40.15,-24.98 67.23,-60.32 80.05,-104.95 3.76,-13.12 5.68,-28.24 5.67,-44.91 0.04,-38.27 -10.18,-84.54 -29.54,-132.8 -28.98,-72.43 -78.38,-149.34 -142.39,-212.56 -64.03,-63.27 -142.49,-112.75 -229.57,-131.89 -29.61,-6.51 -61.04,-9.65 -93.83,-9.65 -126.14,-0.08 -272.42,46.81 -411.43,124.02 -139.03,77.14 -270.83,184.41 -368.97,303.62 -89.72,108.89 -155.4,179.5 -197.59,243.54 -21.13,32.04 -36.46,62.31 -46.64,95.33 -10.17,33.03 -15.25,68.99 -15.26,112.59 -0.01,44.89 5.45,97.82 16.34,163.15 25.22,151.73 66.22,275.6 134.52,360.24 34.16,42.38 74.99,75.17 124.75,97.64 49.77,22.43 108.66,34.55 178.94,34.56 14.22,0 28.91,-0.5 44.07,-1.51 77.49,-5.16 151.36,-32.01 222.98,-71.4 107.43,-59.03 209.28,-146.23 309.07,-227.71 99.9,-81.41 197.62,-157.34 299.52,-192.81 41.99,-14.58 84.66,-21.1 126.96,-21.1 116.54,0.08 229.8,49.14 323.3,115.53 93.52,66.55 167.48,150.38 205.31,223.49 l -26.66,13.75 c -34.69,-67.4 -106.15,-149.02 -196.02,-212.79 -89.89,-63.93 -198.02,-110.06 -305.93,-109.98 -39.22,0 -78.46,6.03 -117.13,19.44 -63.25,21.91 -127.1,61.87 -192.02,110.24 -97.45,72.52 -197.16,163.7 -303.31,239.22 -53.1,37.76 -107.87,71.62 -165.01,97.16 -57.12,25.53 -116.69,42.74 -179.06,46.89 -15.79,1.06 -31.15,1.58 -46.07,1.58 -73.7,0.01 -137.06,-12.76 -191.27,-37.22 -81.39,-36.64 -141.39,-99.54 -185.16,-181.49 -43.84,-82 -72.08,-183.16 -91.37,-298.8 -11.05,-66.31 -16.75,-120.76 -16.75,-168.08 -0.01,-45.91 5.41,-85.17 16.59,-121.42 16.77,-54.45 46.25,-101.45 87.69,-154.68 41.49,-53.29 95.17,-113.22 162.05,-194.43 100.92,-122.52 235.29,-231.79 377.58,-310.78 142.31,-78.92 292.48,-127.72 425.98,-127.79 34.71,0 68.29,3.32 100.28,10.36 125.41,27.68 231.16,112.18 305.9,210.1 37.38,49.01 67.03,101.5 87.46,152.49 20.4,51 31.66,100.46 31.69,143.95 0,18.95 -2.15,36.8 -6.82,53.15 -14.67,51.61 -47.08,93.77 -93.09,122.21 -46.02,28.51 -105.25,43.65 -174.52,43.65 -77.35,-0.01 -167.37,-18.84 -266.67,-59.71 -101.98,-42.06 -185.54,-125.66 -243.85,-224.44 -58.27,-98.87 -91.5,-213.16 -91.55,-318.53 0.01,-82.54 20.51,-160.01 66.88,-219.24 45.87,-58.5 85.44,-109.79 113.11,-154.79 13.85,-22.48 24.7,-43.37 31.99,-62.6 7.3,-19.25 11.01,-36.77 11.01,-52.73 -0.11,-22.09 -6.67,-41.48 -22.62,-61.23 -15.98,-19.66 -41.96,-39.27 -80.19,-58.36 -29.11,-14.55 -61.96,-21.21 -97.17,-21.21 -44.98,-0.02 -93.69,10.97 -141.75,29.85 -72.12,28.29 -142.72,74.31 -197.64,125.68 -27.47,25.67 -51.02,52.66 -68.94,79.22 -17.95,26.55 -30.2,52.68 -35.51,76.26 -5.43,24.05 -8.08,44.33 -8.08,61.52 0.07,24.56 5.14,42.52 15.31,58.52 7.68,11.99 18.58,23.05 33.47,34.09 22.29,16.56 53.43,32.78 93.45,51.4 40.03,18.65 88.89,39.77 146.77,66.78 59.25,27.66 129.67,52.4 204.5,81.28 112.23,43.34 234.51,96.1 344.28,183.78 109.79,87.62 206.73,210.42 267.8,391.78 24.57,72.91 35.21,152.98 35.22,236.17 -0.1,225.51 -78.01,474.33 -175.06,667.88 -48.59,96.77 -101.95,179.66 -153.46,239.04 -25.79,29.7 -51.1,53.55 -75.62,70.36 -24.5,16.72 -48.41,26.82 -72.01,26.91 -10.12,0.02 -20.1,-1.98 -29.34,-6.16 -33.42,-15.08 -57.98,-34.87 -73.98,-58.49 -16.03,-23.59 -23.11,-50.66 -23.07,-78.64 0.1,-45.85 18.12,-94.47 45.64,-142.81 27.6,-48.32 65.02,-96.38 105.48,-140.23 18.43,-19.84 46.01,-36.72 80.75,-53.12 60.76,-28.52 143.83,-54.9 236.94,-82.56 139.58,-41.42 301.56,-85.52 441.1,-141.3 69.75,-27.87 133.86,-58.66 186.56,-93.17 52.74,-34.49 93.87,-72.66 118.52,-114.64 54.35,-92.37 77.41,-200.51 77.41,-310.85 0.01,-103.05 -20.15,-207.88 -53.22,-302.67 -33.04,-94.79 -79.04,-179.55 -130.03,-242.41 -47.13,-58.14 -89.46,-96.74 -131.42,-120.68 -42.01,-23.92 -83.77,-33.73 -132.25,-33.8 -65.8,-0.07 -143.92,18.87 -245.53,47.03 -122.28,33.74 -258.64,120.64 -406.88,257.65 -148.27,136.95 -308.44,323.73 -479.43,556.19 -101.33,137.73 -160.2,234.37 -206.63,297.94 -23.26,31.79 -43.43,55.55 -65.26,72.02 -10.9,8.2 -22.28,14.52 -34.38,18.7 -12.1,4.19 -24.86,6.2 -38.25,6.2 -18.42,-0.01 -38.01,-3.69 -60.06,-10.32 -33.09,-9.96 -71.97,-26.61 -121.29,-49.09 -49.3,-22.48 -109.01,-50.85 -183.26,-84.3 -98.04,-44.15 -165.73,-101.4 -208.72,-164.6 -43.03,-63.18 -61.12,-132.07 -61.1,-198.39 0.06,-89.82 32.75,-174.98 81.09,-238.36 24.2,-31.69 52.38,-57.97 82.79,-76.55 30.39,-18.54 63.18,-29.42 96.22,-29.43 18.07,-0.01 36.16,3.29 53.59,10.27 26.73,10.66 47.55,30.98 63.15,57.13 23.44,39.35 36.56,92.23 44.39,153.99 7.75,61.76 9.95,132.46 9.95,206.97 0,102.41 -4.17,211.99 -4.17,314.55 -0.01,79.95 2.55,155.63 11.43,219.91 8.79,64.29 24.26,117 47.99,150.69 32.07,45.78 72.51,79.26 119.23,101.54 46.72,22.25 99.83,33.23 157.02,33.24 141.58,0.1 307.91,-67.9 456.81,-196.45 49.55,-42.71 107.79,-110.9 166.64,-194.29 88.35,-125.12 178.4,-284.57 246.14,-444.98 67.8,-160.35 113.09,-321.94 113,-449.87 0.01,-57.64 -9.15,-108.24 -28.69,-148.91 -19.61,-40.7 -49.11,-71.73 -92,-92 -152.92,-72 -328.92,-125.3 -467.55,-178.87 -69.37,-26.86 -129.41,-53.68 -173.33,-83.92 -21.96,-15.16 -39.97,-31.23 -52.87,-49.19 -12.89,-17.89 -20.52,-38.09 -20.47,-59.67 -0.01,-15.51 3.87,-31.43 11.46,-47.45 7.59,-16.03 18.84,-32.25 33.88,-49.02 18.23,-20.31 38.12,-38.43 59.19,-54.37 l 18.11,23.91"
         style="fill:#232d34;fill-opacity:1;fill-rule:nonzero;stroke:none"
         id="path16" />
      <path
         d="m 3113.75,2994.86 c -12.22,-19.67 -26.01,-37.18 -41.35,-52.12 -49,-47.96 -129.53,-83.88 -224.55,-114.73 -142.55,-46.49 -316.87,-82.21 -466.71,-140.46 -74.94,-29.18 -143.89,-64.03 -199.79,-109.38 -55.87,-45.3 -98.69,-101.52 -119.72,-172.1 -7.14,-23.91 -10.53,-47.43 -10.52,-70.41 -0.01,-42.35 11.49,-82.67 31.1,-120.66 34.38,-66.51 93.19,-126.38 161.58,-182.25 102.6,-83.7 227.36,-158.44 325.75,-228.19 49.18,-34.82 91.71,-68.42 121.24,-100.44 14.77,-15.98 26.25,-31.54 33.87,-46.35 7.63,-14.84 11.4,-28.78 11.41,-42.21 0,-1.77 -0.07,-3.54 -0.2,-5.3 -1.86,-24.65 -8.71,-46.29 -19.61,-65.35 -10.9,-19.04 -25.92,-35.52 -44.39,-49.37 l 18,-24 c 21.36,16.01 39.32,35.56 52.43,58.47 13.12,22.89 21.33,49.11 23.49,78.01 0.18,2.52 0.28,5.03 0.28,7.54 -0.04,29.29 -12.54,57.19 -32.39,83.93 -34.89,46.82 -93.19,92.2 -161.2,139.67 -101.99,71.01 -226.06,146.07 -323.85,228.55 -48.89,41.2 -91.12,84.21 -120.76,128.87 -29.67,44.73 -46.74,90.71 -46.75,139.08 0,20.04 2.93,40.58 9.27,61.83 12.76,42.69 34.08,79.44 62.38,111.89 49.47,56.75 120.74,100.15 203.27,135.52 123.75,53.12 272.17,88.04 407.29,126.3 67.58,19.16 131.87,39.19 188.37,63.07 56.48,23.91 105.31,51.62 141.65,86.98 17.29,16.85 32.55,36.3 45.89,57.78 l -25.48,15.83"
         style="fill:#232d34;fill-opacity:1;fill-rule:nonzero;stroke:none"
         id="path18" />
      <path
         d="m 3755.38,3170.94 c -28.18,28.8 -60.34,55.23 -96.62,78.89 -64.13,41.79 -141.08,64.93 -224.16,79.61 -124.65,21.97 -263.66,24.99 -395.93,40.15 -132.32,15.06 -257.34,42.33 -354.23,110.26 -36.56,25.57 -61.78,49.91 -77.51,72.1 -15.76,22.24 -22.04,41.95 -22.05,59.56 0.04,20.89 8.77,40.21 25.93,58.8 25.63,27.78 70.33,51.92 124.3,68.39 53.94,16.56 116.98,25.76 179.17,25.75 13.1,0 26.17,-0.41 39.1,-1.23 21.29,-1.37 41.17,-7.51 60,-17.92 28.22,-15.6 54.04,-41.05 76.52,-74.15 22.49,-33.07 41.57,-73.67 56.56,-118.83 l 28.47,9.45 c -20.95,63.01 -49.62,118.49 -86.14,159.75 -18.27,20.61 -38.55,37.66 -60.88,50.03 -22.31,12.36 -46.71,19.97 -72.62,21.61 -13.59,0.87 -27.29,1.29 -41.01,1.29 -86.85,-0.05 -174.58,-16.87 -242.04,-47.29 -33.72,-15.26 -62.48,-33.93 -83.41,-56.44 -20.9,-22.4 -33.99,-49.41 -33.95,-79.21 -0.02,-25.01 9.14,-50.99 27.59,-76.93 18.48,-26 46.24,-52.32 84.77,-79.31 69.24,-48.45 150.25,-76.77 236.14,-94.86 128.86,-27.08 269.17,-31.35 399.68,-44.03 65.23,-6.31 127.98,-14.71 185.44,-28.83 57.47,-14.11 109.57,-33.95 153.88,-62.85 34.5,-22.5 64.94,-47.54 91.56,-74.74 l 21.44,20.98"
         style="fill:#232d34;fill-opacity:1;fill-rule:nonzero;stroke:none"
         id="path20" />
      <path
         d="m 1982.69,2885.98 c -25.79,86.94 -37.54,167.88 -37.54,241.6 0.03,142.31 43.7,257.54 115.04,338.23 71.41,80.66 170.59,127.25 284.13,131.36 2.63,0.1 5.21,0.14 7.76,0.14 33.83,-0.04 60.95,-8.01 84.38,-22.17 20.48,-12.41 38.21,-29.81 54.17,-51.57 27.93,-38.03 49.98,-89.37 70.79,-147.08 31.32,-86.58 59.96,-187.27 105.8,-279.39 22.94,-46.06 50.24,-90.02 84.55,-128.87 34.28,-38.86 75.64,-72.57 126.23,-97.86 80.46,-40.23 160.98,-57.58 236.45,-57.57 114.48,0.02 217.21,39.74 291.74,99.4 37.26,29.85 67.52,64.72 88.59,102.38 21.06,37.64 32.92,78.16 32.92,118.92 0.01,18.14 -2.35,36.31 -7.27,54.19 -21.42,77.89 -74.23,143.15 -144.81,188.71 -70.63,45.58 -159.21,71.75 -253.61,71.77 -85.2,0 -175.18,-21.38 -260.7,-69.28 -126.05,-70.62 -270.71,-146.27 -384.81,-233.25 -57.06,-43.54 -106.57,-89.94 -142.2,-140.6 -35.61,-50.59 -57.34,-105.89 -57.32,-165.72 0,-14.37 1.25,-28.98 3.83,-43.79 11.01,-62.84 45.15,-137.81 95.65,-216.07 75.8,-117.27 188.68,-241.48 317.89,-336.96 129.19,-95.36 274.84,-162.38 417.02,-162.5 12.38,0 24.74,0.51 37.05,1.56 188.2,16.19 346.48,44.28 470.03,105.97 61.73,30.85 114.73,70.26 157.68,120.67 42.97,50.4 75.77,111.69 97.69,185.72 7.64,25.77 14.23,51.54 19.73,77.25 l -29.34,6.28 c -5.33,-24.93 -11.73,-49.96 -19.15,-75.01 -20.93,-70.57 -51.72,-127.77 -91.76,-174.78 -60.06,-70.44 -141.37,-118.41 -243.31,-151.94 -101.89,-33.51 -224.13,-52.28 -364.13,-64.27 -11.44,-0.98 -22.94,-1.45 -34.49,-1.45 -88.35,-0.03 -180.31,28.11 -269.18,74.6 -133.3,69.67 -259.28,180.49 -355.29,295.8 -48.01,57.64 -88.55,116.39 -118.86,171.46 -30.33,55.05 -50.35,106.51 -57.67,148.81 -2.29,13.15 -3.39,26.01 -3.39,38.65 0.03,52.43 18.81,101.39 51.86,148.46 49.49,70.54 131.25,135.65 224.49,195.88 93.22,60.3 197.73,115.91 292.64,169.05 81.01,45.36 165.84,65.45 246.04,65.46 88.85,0.01 171.95,-24.74 237.34,-66.98 65.43,-42.27 112.98,-101.73 132.15,-171.46 4.19,-15.23 6.2,-30.68 6.2,-46.23 0.01,-34.89 -10.16,-70.41 -29.1,-104.27 -28.37,-50.79 -76.53,-97.58 -137.86,-131.47 -61.32,-33.92 -135.68,-54.97 -216.29,-54.96 -70.89,0.01 -146.64,16.22 -223.03,54.41 -81.59,40.83 -137.07,104.83 -179.39,179.43 -31.69,55.91 -55.73,117.63 -77.23,178.94 -32.34,92 -58.66,182.92 -98.63,252.69 -20.03,34.86 -43.68,64.62 -73.87,85.81 -30.14,21.22 -66.78,33.3 -110.22,33.23 -2.91,0 -5.85,-0.05 -8.83,-0.16 -121.15,-4.26 -228.79,-54.61 -305.53,-141.47 -76.8,-86.82 -122.6,-209.7 -122.57,-358.1 0,-76.91 12.26,-160.71 38.78,-250.13 l 28.76,8.53"
         style="fill:#232d34;fill-opacity:1;fill-rule:nonzero;stroke:none"
         id="path22" />
      <path
         d="m 3374.36,2437.33 c -25.65,98.3 -74.84,180.82 -147.19,238.56 -72.3,57.77 -167.35,90.24 -282.64,90.19 -12.85,0 -25.95,-0.4 -39.3,-1.21 -359.43,-21.85 -690.75,-255.63 -842.97,-603.44 -19.21,-43.88 -27.9,-87.76 -27.9,-130.23 0,-55.57 14.83,-108.62 39.67,-156.67 37.31,-72.1 96.98,-133.19 164.43,-176.57 67.5,-43.32 142.85,-69.13 212.69,-69.19 34.12,0 66.99,6.24 96.58,19.99 29.59,13.72 55.78,35.04 76.14,64.27 19.11,27.29 27.83,58.29 27.77,90.85 -0.06,44.16 -15.34,91.2 -40.39,141.13 -37.67,74.86 -97.81,156.62 -166.63,243.54 -68.81,86.88 -146.34,178.78 -218.7,272.9 l -23.79,-18.29 c 97.22,-126.42 202.88,-247.96 283.77,-357.56 40.45,-54.77 74.68,-106.56 98.55,-154.07 23.92,-47.5 37.25,-90.62 37.19,-127.65 -0.05,-27.41 -6.94,-51.48 -22.37,-73.69 -17.45,-24.97 -39.16,-42.57 -64.18,-54.22 -25.01,-11.63 -53.45,-17.2 -83.94,-17.2 -41.56,-0.02 -86.84,10.43 -131.19,29.56 -66.56,28.66 -130.92,76.81 -178.17,136.62 -47.31,59.86 -77.44,131 -77.43,206.25 0.01,38.39 7.8,77.98 25.39,118.21 147.69,337.72 469.77,564.53 817.29,585.52 12.77,0.77 25.26,1.15 37.49,1.15 109.78,-0.05 197.36,-30.55 263.93,-83.64 66.53,-53.13 112.47,-129.38 136.88,-222.69 l 29.02,7.58"
         style="fill:#232d34;fill-opacity:1;fill-rule:nonzero;stroke:none"
         id="path24" />
      <path
         d="m 2343.43,3264.42 c -30.86,26.85 -65.88,49.59 -106.17,66.96 -37.36,16.1 -72.4,23.46 -104.46,23.46 -58.47,0.1 -106.58,-24.81 -138.99,-62.48 -32.5,-37.66 -49.93,-87.65 -49.95,-138.95 -0.04,-56.87 21.66,-115.79 68.96,-160.52 47.27,-44.78 119.52,-74.67 218.3,-75.9 2.6,-0.03 5.2,-0.05 7.81,-0.05 171.05,0.14 347.68,71.78 510.46,142.35 81.35,35.34 159.22,70.52 230.67,96.69 71.43,26.22 136.48,43.24 191.33,43.18 25.29,0 48.37,-3.55 69.23,-11.19 20.87,-7.66 39.62,-19.35 56.58,-36.29 22.7,-22.71 39.5,-49.45 50.75,-79.62 11.23,-30.16 16.85,-63.78 16.86,-99.99 0.12,-111.64 -54.03,-247.65 -158.32,-375.81 -104.2,-128.2 -258.13,-248.62 -456.06,-330.58 -106.62,-44.17 -193.48,-61.66 -261.15,-61.64 -67.89,0 -116.21,17.48 -147.18,42.47 -30.96,25.07 -45.31,57.51 -45.4,91.06 0.01,31.86 13.29,64.93 40.17,92.56 26.87,27.58 67.4,49.69 121.81,58.61 15.55,2.54 29.31,3.73 41.38,3.72 19.59,0.01 34.63,-3.11 46.13,-8.28 8.64,-3.9 15.39,-8.91 21.03,-15.15 8.43,-9.34 14.46,-21.81 18.38,-37.7 3.92,-15.84 5.61,-34.92 5.6,-56.36 0.02,-39.51 -5.67,-86.88 -11.47,-137.54 -5.78,-50.69 -11.66,-104.73 -11.66,-158.3 0.02,-63.35 8.17,-126.28 35.38,-182.01 17.73,-36.32 45.46,-65.09 79.43,-86.32 33.99,-21.26 74.21,-35.15 117.8,-42.46 l 4.95,29.59 c -40.45,6.76 -76.93,19.58 -106.84,38.3 -29.93,18.76 -53.29,43.23 -68.39,74.06 -24.32,49.68 -32.35,108.02 -32.33,168.84 -0.01,51.38 5.69,104.35 11.47,154.9 5.76,50.57 11.64,98.65 11.66,140.94 -0.01,20.42 -1.37,39.52 -5,57.05 -2.72,13.14 -6.73,25.42 -12.55,36.56 -8.65,16.71 -21.71,30.8 -39.2,40.04 -17.48,9.3 -38.86,13.85 -64.39,13.84 -14.03,0 -29.37,-1.36 -46.23,-4.12 -59.87,-9.78 -106.62,-34.59 -138.45,-67.28 -31.83,-32.65 -48.68,-73.22 -48.68,-113.49 -0.09,-42.38 18.94,-84.2 56.57,-114.42 37.62,-30.3 93.08,-49.12 166.01,-49.11 72.82,0.01 163.28,18.65 272.63,63.92 202.46,83.86 360.35,207.13 467.86,339.38 107.44,132.29 164.91,273.5 165.04,394.73 0,39.3 -6.11,76.52 -18.75,110.46 -12.62,33.93 -31.82,64.55 -57.65,90.36 -19.92,19.95 -42.7,34.2 -67.47,43.25 -24.79,9.08 -51.48,13.02 -79.55,13.02 -60.95,-0.06 -128.66,-18.31 -201.65,-45.01 -109.41,-40.12 -230.81,-99.65 -355.74,-148.96 -124.9,-49.36 -253.17,-88.3 -375.07,-88.25 -2.48,0 -4.95,0.02 -7.42,0.05 -93.1,1.27 -157.08,28.95 -198.07,67.69 -40.96,38.79 -59.54,89.33 -59.58,138.73 -0.02,44.51 15.29,87.73 42.65,119.34 27.45,31.59 66.31,51.99 116.29,52.09 27.45,0 58.41,-6.29 92.58,-21.01 37.36,-16.11 69.63,-37.06 98.37,-62.05 l 19.68,22.64"
         style="fill:#232d34;fill-opacity:1;fill-rule:nonzero;stroke:none"
         id="path26" />
      <path
         d="m 2209.12,2647.17 c 225.08,91.85 465.1,242.58 687.29,346.21 71.53,33.37 142.74,47.81 211.37,47.82 142.8,0.06 274.89,-62.96 371.07,-150.38 48.07,-43.67 87.08,-93.36 113.9,-143.81 26.86,-50.45 41.44,-101.59 41.41,-148 0,-13.43 -1.21,-26.47 -3.67,-39.03 -13.57,-69.21 -56.68,-127.42 -120.36,-168.96 -63.63,-41.47 -147.75,-65.73 -241.34,-65.72 -125.79,0.01 -268.53,43.71 -401.65,147.23 -6.45,5.02 -12.76,10.11 -18.95,15.27 l -19.21,-23.04 c 6.44,-5.38 13.02,-10.68 19.74,-15.91 138.11,-107.42 287.36,-153.55 420.07,-153.55 98.74,0.02 188.42,25.48 257.71,70.58 69.24,45.02 118.18,110.2 133.44,188.34 2.85,14.58 4.22,29.56 4.22,44.79 -0.03,52.67 -16.3,108.23 -44.92,162.09 -43,80.76 -113.94,157.92 -202.56,215.29 -88.61,57.32 -195.1,94.8 -308.9,94.81 -72.84,0.01 -148.61,-15.41 -224.06,-50.64 -224.53,-104.84 -464.35,-255.32 -685.93,-345.61 l 11.33,-27.78"
         style="fill:#232d34;fill-opacity:1;fill-rule:nonzero;stroke:none"
         id="path28" />
      <path
         d="m 1655.76,2655.66 c -4.74,2.48 -9.44,5 -14.11,7.56 -102.32,56.18 -187.29,132.43 -246.34,211.67 -59.14,79.19 -91.92,161.44 -91.77,227.85 0.04,36.47 9.51,67.89 29.16,93.18 26.48,34.03 52.67,54.69 76.9,66.98 24.25,12.26 46.66,16.27 66.19,16.29 20.23,0 37.36,-4.41 49.32,-8.8 5.98,-2.19 10.65,-4.37 13.74,-5.95 1.54,-0.79 2.69,-1.43 3.41,-1.85 l 0.76,-0.44 0.12,-0.08 2.66,4.28 -2.7,-4.25 0.04,-0.03 2.66,4.28 -2.7,-4.25 8.05,12.66 -8.57,-12.32 c 95.18,-66.06 167.45,-184.58 215.29,-326.84 47.89,-142.16 71.5,-307.59 71.48,-466.01 0,-1.16 0,-2.33 -0.01,-3.5 -0.26,-125.75 -15.42,-246.97 -44.66,-348.32 -29.15,-101.42 -72.65,-182.63 -127.32,-229.01 l -1.29,-1.09 -1.01,-1.36 1.36,-1.01 -1.35,1.02 -0.01,-0.01 1.36,-1.01 -1.35,1.02 c -0.51,-0.69 -19.63,-25.65 -55.69,-50.11 -36.13,-24.48 -88.84,-48.48 -157.81,-48.49 -16.35,0 -33.64,1.35 -51.88,4.39 -72.6,12.03 -157.21,34 -222.33,81.73 -32.61,23.86 -60.44,53.98 -80.32,92.85 -19.86,38.88 -31.88,86.71 -31.89,146.53 -0.01,57.34 11.13,125.64 37.23,206.82 32.46,101.57 121.42,199.61 238.95,291.95 176.16,138.67 414.95,264.58 615.78,379.51 100.45,57.52 191.43,112.29 260.84,165.2 34.71,26.47 64.05,52.47 86.56,78.48 22.46,26.01 38.28,52.12 44.83,79.22 8.52,35.49 12.48,66.79 12.48,94.67 0.05,44.07 -10.06,79.76 -27.44,108.55 -13.01,21.61 -29.91,39.21 -48.89,54.03 -28.51,22.23 -61.64,38.41 -95.01,53.43 -33.37,14.99 -67.05,28.82 -96.71,45.45 -60.75,34 -103.56,81.61 -131.74,123.28 -14.08,20.82 -24.49,40.12 -31.63,55.3 -3.57,7.6 -6.32,14.16 -8.29,19.33 -1.97,5.13 -3.18,9.02 -3.56,10.56 l -0.01,0.04 -0.01,0.04 c -0.4,1.59 -1.18,3.43 -2.39,5.1 -1.81,2.54 -4.54,4.38 -6.78,5.2 -2.28,0.86 -4.06,0.98 -5.38,1 -2.32,-0.04 -3.49,-0.41 -4.38,-0.66 -1.69,-0.53 -2.27,-0.9 -2.81,-1.17 -0.97,-0.52 -1.33,-0.78 -1.72,-1.04 -1.34,-0.93 -2.34,-1.73 -3.93,-2.99 -5.71,-4.57 -16.89,-13.94 -30.91,-25.81 -20.99,-17.78 -48.1,-40.96 -70.97,-60.62 -11.43,-9.82 -21.79,-18.76 -29.8,-25.7 -8.05,-6.97 -13.59,-11.8 -15.84,-13.84 -31.83,-28.94 -63.26,-55.74 -97.12,-76.28 -33.9,-20.55 -70.06,-34.93 -112.34,-39.58 -10.2,-1.11 -20.34,-1.62 -30.47,-1.62 -47,-0.03 -93.75,11.02 -141.7,22.52 -47.92,11.44 -97.03,23.32 -148.83,23.35 -5.84,0 -11.71,-0.16 -17.62,-0.48 -36.71,-2.05 -80.37,-11.14 -119.06,-29.92 -19.32,-9.42 -37.41,-21.3 -52.52,-36.24 -15.093,-14.92 -27.179,-33.03 -33.878,-54.3 -3.066,-9.73 -4.5,-19.74 -4.496,-29.66 0.012,-20.25 5.891,-40.13 16.191,-57.37 10.313,-17.22 25.123,-31.92 43.473,-41.34 16.04,-8.21 33.65,-12.01 51.15,-12.01 31.99,0.05 63.93,12.53 86.84,35.74 23.96,24.43 36.03,57.92 36.06,91.3 0,15.56 -2.64,31.17 -8.1,45.92 -7.64,20.67 -19.9,38.23 -35.21,52.57 -23,21.53 -52.62,35.98 -85.03,45.2 -32.43,9.2 -67.81,13.18 -103.011,13.19 -34.289,-0.01 -68.398,-3.8 -99.441,-10.51 -31.059,-6.73 -59.016,-16.31 -81.262,-28.42 l -0.625,-0.35 0.625,0.35 c -37.633,-20.49 -64.883,-49.84 -82.324,-83.6 -17.477,-33.77 -25.317,-71.8 -25.317,-110.36 0,-27.67 4.032,-55.65 11.54,-82.74 7.718,-27.72 22.39,-54.56 39.66,-81.19 25.933,-39.9 57.957,-79.48 83.047,-118.48 12.55,-19.47 23.347,-38.74 30.886,-57.53 7.555,-18.81 11.832,-37.02 11.828,-54.69 -0.007,-13 -2.269,-25.76 -7.429,-38.73 -5.176,-12.96 -13.305,-26.18 -25.367,-39.76 l 22.421,-19.93 c 14.051,15.81 24.219,32.04 30.809,48.58 6.602,16.52 9.578,33.3 9.566,49.84 -0.023,30.07 -9.589,59.07 -23.566,87.05 -21.031,41.96 -52.223,82.25 -80.367,121.4 -28.215,39.04 -53.145,77 -62.578,111.45 -6.828,24.62 -10.453,49.98 -10.45,74.73 -0.003,34.52 7.04,67.77 21.958,96.57 14.957,28.81 37.617,53.32 70.05,71.05 v 0 c 18.739,10.24 44.364,19.21 73.235,25.44 28.879,6.25 61.039,9.83 93.101,9.83 43.891,0.03 87.601,-6.78 122.521,-21.79 17.48,-7.5 32.73,-16.98 45,-28.49 12.27,-11.53 21.62,-25 27.59,-41.1 4.16,-11.22 6.24,-23.34 6.24,-35.5 0.02,-26.17 -9.68,-52.27 -27.45,-70.27 -16.63,-17 -41.35,-26.82 -65.45,-26.77 -13.17,0 -26.06,2.86 -37.47,8.71 -12.82,6.56 -23.76,17.23 -31.41,30.04 -7.66,12.79 -11.95,27.61 -11.94,41.97 0,7.05 1.02,13.99 3.11,20.63 5.08,16.07 14.16,29.9 26.37,42 18.28,18.14 43.74,32.06 71.05,41.55 27.28,9.51 56.3,14.64 81.08,15.98 5.33,0.3 10.65,0.44 15.97,0.44 47.11,0.02 93.92,-11.03 141.85,-22.53 47.93,-11.43 96.98,-23.31 148.68,-23.34 11.13,0 22.37,0.56 33.73,1.8 47.23,5.14 87.98,21.47 124.64,43.75 36.7,22.29 69.47,50.42 101.74,79.73 1.19,1.08 4.61,4.09 9.41,8.26 16.87,14.66 51.59,44.53 82.25,70.67 15.34,13.08 29.66,25.23 40.22,34.08 5.27,4.42 9.62,8.02 12.61,10.44 1.48,1.21 2.65,2.14 3.31,2.64 l 0.36,0.27 0.07,0.05 -5.39,7.69 4.76,-8.09 0.63,0.4 -5.39,7.69 4.76,-8.09 -7.01,11.93 5.63,-12.64 1.38,0.71 -7.01,11.93 5.63,-12.64 -5.97,13.39 4.21,-14.04 1.76,0.65 -5.97,13.39 4.21,-14.04 -4.28,14.27 v -14.89 c 2.27,0.03 3.41,0.39 4.28,0.62 l -4.28,14.27 v -14.89 14.97 l -7.7,-12.84 c 3.28,-1.92 5.99,-2.11 7.7,-2.13 v 14.97 l -7.7,-12.84 7.7,12.85 -12.12,-8.8 c 1.2,-1.67 2.81,-3.1 4.42,-4.05 l 7.7,12.85 -12.12,-8.8 12.12,8.8 -14.51,-3.72 c 0.4,-1.59 1.17,-3.42 2.39,-5.08 l 12.12,8.8 -14.51,-3.72 -0.02,0.08 c 0.89,-3.52 2.37,-8.03 4.64,-13.99 7.9,-20.65 25.28,-57.55 55.13,-97.69 29.84,-40.09 72.19,-83.37 129.89,-115.69 56.66,-31.57 121.49,-51.84 170.36,-83.86 24.47,-15.96 44.83,-34.48 59.2,-58.34 14.35,-23.9 23.11,-53.45 23.15,-93.08 0.01,-25.03 -3.57,-54.01 -11.65,-87.67 -6.4,-27.2 -27.49,-58.09 -61.26,-90.69 -58.95,-57.18 -155.1,-119.15 -267.55,-184.78 -168.75,-98.58 -374.29,-205.94 -549.46,-324.05 -87.6,-59.08 -167.66,-120.87 -231.87,-185.98 -64.18,-65.12 -112.7,-133.66 -136.22,-206.68 -26.82,-83.46 -38.66,-154.77 -38.66,-216 -0.02,-63.82 12.95,-116.74 35.18,-160.19 33.33,-65.26 87.1,-108.49 145.79,-137.32 58.75,-28.88 122.7,-43.85 178.64,-53.2 19.85,-3.3 38.8,-4.79 56.81,-4.79 77.31,-0.02 136.78,27.53 176.53,54.96 39.82,27.46 60.32,54.79 61,55.68 l -12.02,8.98 9.73,-11.42 c 61.56,52.59 106.41,138.8 136.7,243.53 30.19,104.8 45.54,228.45 45.83,356.58 0.01,1.19 0.01,2.38 0.01,3.56 -0.02,161.39 -23.91,329.6 -73.05,475.59 -49.21,145.9 -123.54,270.06 -226.58,341.89 l -0.26,0.17 -0.26,0.17 c -1.38,0.81 -34.17,21.68 -83.41,21.78 -23.69,0.02 -51.14,-5.01 -79.75,-19.53 -28.63,-14.5 -58.29,-38.36 -87.02,-75.32 -24.36,-31.28 -35.52,-69.96 -35.48,-111.6 0.14,-76.06 36.05,-162.87 97.72,-245.78 61.77,-82.84 149.75,-161.69 255.95,-220.03 4.85,-2.66 9.73,-5.28 14.65,-7.85 l 13.9,26.58"
         style="fill:#232d34;fill-opacity:1;fill-rule:nonzero;stroke:none"
         id="path30" />
      <path
         d="m 3003.12,3390.58 c -0.18,-0.05 -138.64,-34.07 -303.54,-82.54 -82.46,-24.23 -171.53,-52.08 -253.35,-81.16 -81.86,-29.12 -156.33,-59.33 -210.46,-88.99 -64.13,-35.21 -122.62,-76.35 -166.16,-124.9 -21.74,-24.29 -39.74,-50.48 -52.5,-78.76 -12.75,-28.27 -20.19,-58.65 -20.75,-90.65 -0.02,-1.2 -0.03,-2.4 -0.03,-3.59 -0.01,-24.03 4.43,-45.54 13.29,-64.07 13.25,-27.91 36.51,-48 64.67,-60.07 28.24,-12.18 61.45,-17.23 98.13,-17.25 61.86,0.04 134.03,14.53 209.29,38.71 112.81,36.32 232.34,94.62 330.94,161.24 49.3,33.33 93.35,68.74 128.72,104.87 35.34,36.18 62.2,72.97 76.38,110.3 4.24,11.23 6.54,22.38 6.54,33.31 0.01,10.32 -2.11,20.4 -6.2,29.53 -7.17,16.08 -19.84,28.73 -35.31,38.53 -23.34,14.7 -53.59,24.06 -89.51,30.32 -35.91,6.18 -77.54,9 -123.21,9.01 -162.08,-0.08 -375.36,-35.57 -550,-91.57 -87.33,-28.08 -164.88,-61.16 -222.02,-98.56 -28.57,-18.75 -52.14,-38.58 -69.21,-60.26 -16.99,-21.58 -27.69,-45.76 -27.69,-71.54 0,-4.89 0.39,-9.8 1.17,-14.7 3.8,-23.82 9.4,-44.52 17.1,-62.42 11.46,-26.8 28.12,-47.52 49.51,-60.81 21.36,-13.34 46.43,-18.87 73.39,-18.84 30.74,0.03 64.47,6.9 101.82,18.32 55.98,17.17 120.2,44.8 192.85,77.59 72.63,32.79 153.62,70.75 242.44,108.63 87.78,37.45 183.62,53.66 273.62,53.65 98.7,0.05 190.39,-19.61 255.66,-50.58 32.65,-15.43 58.56,-33.67 75.57,-52.68 8.53,-9.5 14.84,-19.14 18.99,-28.7 4.15,-9.57 6.2,-19.04 6.21,-28.78 -0.04,-17.1 -6.31,-35.86 -22.69,-56.99 -16.35,-21.04 -42.87,-43.84 -81.41,-66.82 -42.25,-25.18 -82.64,-35.66 -120.16,-35.68 -31.69,0 -61.49,7.52 -88.67,20.83 -40.75,19.92 -75.52,53.08 -99.95,92.85 -24.45,39.75 -38.43,85.94 -38.41,131.26 0.01,29.31 5.78,58.24 18.2,85.3 18.68,40.54 52.16,77.3 106.09,104.9 53.9,27.52 128.5,45.49 227.77,46.35 3.4,0.03 6.77,0.04 10.13,0.04 148.48,0.06 252.99,-29.27 318.78,-73.56 32.96,-22.14 56.39,-47.87 71.77,-75.95 15.35,-28.1 22.75,-58.7 22.78,-91.26 0,-34.41 -8.4,-71.03 -25.05,-108.18 -24.94,-55.71 -68.48,-112.46 -128.56,-163.74 -60.06,-51.29 -136.6,-97.14 -227.15,-131.48 -34.57,-13.1 -67.35,-18.98 -98.94,-18.99 -45.15,0.02 -88.16,12.03 -130.2,33.71 -73.52,37.85 -143.43,105.93 -209.94,187.46 -99.92,122.26 -192.12,273.94 -284.18,396.12 -46.1,61.11 -92.17,114.95 -140.25,154.33 -24.06,19.67 -48.68,35.73 -74.26,47 -25.55,11.26 -52.16,17.67 -79.45,17.66 -21.59,0.01 -43.51,-4.02 -65.34,-12.34 -95.3,-36.38 -172.38,-111.86 -225.83,-202.34 -53.43,-90.59 -83.57,-196.55 -83.62,-296.6 0,-44.65 6.04,-88.16 18.98,-128.53 19.36,-60.5 54.6,-114.12 107.64,-152.14 53.02,-38.08 123.17,-60.08 210.49,-60.04 13.58,0 27.58,0.53 42.01,1.61 127,9.44 223.07,32.65 301.19,62.3 58.59,22.22 107,48.02 150.62,73.88 65.48,38.87 120.09,77.47 183.18,105.96 63.13,28.49 134.99,47.69 237.54,47.76 14.84,0 30.31,-0.41 46.47,-1.26 43.87,-2.31 79.9,-11.55 109.38,-25.74 44.15,-21.34 74.15,-53.63 93.97,-93.54 19.74,-39.88 28.77,-87.57 28.76,-137.67 0.09,-85.36 -26.39,-177.29 -65.86,-246.24 -19.67,-34.49 -42.55,-63.19 -66.03,-82.6 -11.72,-9.72 -23.56,-17.12 -35.09,-22.01 -11.56,-4.9 -22.76,-7.33 -33.72,-7.33 l -2.06,0.03 h 0.02 c -13.49,0.37 -27.15,0.5 -40.88,0.5 -28.57,0 -57.45,-0.54 -85.6,-0.54 -33.83,0 -66.63,0.79 -96.39,4.08 -22.31,2.46 -42.9,6.33 -60.86,12.11 -13.47,4.33 -25.46,9.71 -35.77,16.26 -15.47,9.87 -27.22,22.08 -35.67,38.58 -8.4,16.5 -13.51,37.75 -13.52,65.81 -0.01,26.7 4.72,59.43 15.48,98.86 18.46,67.66 50.79,127.64 93.07,179.81 63.39,78.22 149.34,138.78 243.45,179.64 94.08,40.89 196.25,62.01 291.22,61.99 20.91,0 41.47,-1.02 61.52,-3.06 12.95,-1.32 25.88,-1.97 38.72,-1.97 86.83,0.06 169.51,29.16 231.43,76.57 30.95,23.73 56.74,52.13 74.93,84.11 18.19,31.94 28.71,67.58 28.69,104.92 0.04,42.18 -13.5,86.15 -42.55,128.59 -29.06,42.5 -73.4,83.67 -135.47,122.1 -37.94,23.52 -81.52,34.07 -127.85,34.04 -53.17,-0.03 -110.2,-13.58 -169.65,-37.12 -104,-41.25 -215.74,-113.28 -325.98,-201.56 -165.27,-132.43 -326.89,-301.51 -449.8,-459.1 -61.45,-78.81 -113.21,-154.72 -150.92,-222.07 -18.86,-33.69 -34.21,-65.24 -45.5,-94.14 -11.27,-28.92 -18.56,-55.14 -20.9,-78.77 -1.36,-13.57 -5.24,-24.21 -11.17,-33.19 -8.89,-13.36 -23.04,-23.74 -43.49,-31.09 -20.36,-7.3 -46.64,-11.09 -76.97,-11.07 -57.9,-0.04 -130.23,13.67 -205.35,37.9 -112.75,36.26 -232.05,96.1 -321.85,165.85 -44.91,34.83 -82.41,72.13 -108.19,109.53 -25.85,37.45 -39.75,74.53 -39.71,109.64 0.08,29.54 9.41,58.41 31.99,87.96 27.14,35.38 52.81,59.53 76.52,74.53 23.79,14.99 45.29,21.06 66.17,21.1 16.91,-0.01 33.75,-4.08 51.14,-12.07 30.4,-13.91 62.07,-40.24 93.98,-75.01 47.95,-52.1 96.38,-122.62 146.27,-195.24 49.96,-72.65 101.43,-147.42 157,-208.71 80.75,-89 160.38,-180.98 241.18,-251.61 40.44,-35.3 81.21,-65.32 123.03,-86.78 41.78,-21.42 84.85,-34.32 129.05,-34.32 29.83,-0.01 60.02,5.94 89.93,18.61 29.92,12.67 59.56,31.98 88.97,58.44 36.34,32.69 62.05,70.6 78.49,110.7 16.46,40.1 23.7,82.31 23.7,123.92 -0.08,81.22 -27.28,160.24 -69.14,220.16 -20.98,29.94 -45.7,55.17 -73.19,73.24 -27.43,18.04 -57.93,28.96 -89.55,28.96 -19.65,0.02 -39.58,-4.28 -58.72,-13.27 -19.84,-9.3 -37.27,-23.16 -52.13,-40.13 -22.31,-25.49 -39.05,-57.95 -50.4,-94.36 -11.33,-36.44 -17.24,-76.91 -17.25,-118.73 0.05,-87.7 25.96,-181.81 85.69,-255.15 29.85,-36.61 68.25,-67.83 115.56,-89.72 47.3,-21.9 103.37,-34.42 168.32,-34.41 6.7,0 13.5,0.13 20.39,0.4 213.65,8.26 374.35,99.44 480.81,208.57 53.3,54.58 93.22,113.63 119.99,169.5 26.72,55.96 40.52,108.52 40.61,151.83 0,4.57 -0.16,9.03 -0.48,13.39 -1.08,14.19 -7,27.12 -15.4,39.01 -15.9,22.27 -41.07,42.68 -73.51,64.52 -56.74,37.96 -136.27,79.21 -225.96,126.37 -134.45,70.65 -291.47,154.37 -424.67,256.16 -66.6,50.88 -127.2,106.23 -176.1,166.42 -48.93,60.2 -86.12,125.12 -106.57,195.45 -14.57,50.14 -21.06,95.28 -21.05,135.27 0.1,80.8 26.09,140.21 66.27,180.18 40.24,39.9 95.66,60.88 157.21,60.92 127.78,0.04 280.88,-91.72 359.26,-294.77 46.92,-121.72 65.4,-243.81 65.41,-363.35 0.02,-161.81 -33.99,-318.9 -77.32,-462.5 -43.32,-143.63 -95.91,-273.56 -132.7,-381.84 -43.44,-128.18 -135.92,-260.41 -250.8,-359.56 -57.41,-49.6 -120.36,-90.98 -185.28,-119.82 -64.93,-28.86 -131.74,-45.16 -197.15,-45.15 -29.34,0 -58.42,3.27 -87.04,10.16 -33.41,8.04 -64.98,25.95 -93.88,52.5 -43.33,39.75 -80.16,98.97 -105.84,170.09 -25.72,71.09 -40.35,153.94 -40.34,240.5 -0.01,116.94 26.65,240.55 87.76,351.89 61.16,111.37 156.48,210.69 295.35,280.17 112.19,56.09 232.05,76.91 355.01,76.93 170.75,0.04 347.02,-40.44 513.09,-81.43 83.05,-20.47 163.57,-41.04 239.81,-56.56 76.25,-15.5 148.23,-26.01 214.53,-26.03 53.47,0.01 103.37,6.86 148.47,24.03 45.08,17.11 85.17,44.79 117.81,84.99 56.38,69.17 81.41,147.57 81.33,225.57 -0.01,63.46 -16.3,126.64 -44.61,185.62 -42.52,88.47 -112.04,167.75 -196.29,225.33 -84.25,57.52 -183.51,93.43 -285.6,93.46 -60.92,0.01 -122.78,-12.89 -182.28,-41.53 -30.53,-14.71 -71.69,-39.53 -121.96,-72.36 -175.61,-114.78 -460.9,-327.52 -736.05,-529.36 -137.53,-100.9 -272.44,-199.03 -389.51,-280.62 -116.98,-81.57 -216.45,-146.73 -281.62,-181.06 -33.94,-17.86 -65.9,-25.5 -96.11,-25.52 -39.4,0.02 -76.38,13.06 -110.6,36.2 -51.27,34.63 -95.45,92.39 -126.26,158.67 -30.89,66.22 -48.43,140.79 -48.39,207.69 -0.01,36.82 5.29,71.25 16.07,100.72 10.8,29.51 26.9,53.95 48.74,72.05 13.53,11.06 26.65,15.54 41.94,15.65 10.2,0.01 21.49,-2.23 33.87,-7.01 23.19,-8.91 49.86,-26.9 77.94,-52.78 49.23,-45.23 102.75,-114.14 155.28,-196.95 78.89,-124.23 155.93,-279.78 217.3,-434.97 61.39,-155.16 107.13,-310.22 123.92,-432.65 17.86,-130.34 72,-226.41 141.67,-289.41 69.64,-63.01 154.28,-92.99 232.78,-93 59.49,0.01 115.79,17.23 159.1,51.26 21.63,17.01 39.92,38.25 53.37,63.31 13.46,25.04 22.04,53.86 24.63,85.74 0.43,5.3 0.64,10.61 0.64,15.91 0.01,28.62 -6.2,57.1 -17.35,84.79 -19.55,48.48 -54.05,94.69 -98.63,137.18 -66.92,63.68 -156.79,119.1 -255.78,158.95 -98.99,39.81 -207.11,64.01 -310.75,64.04 -95.93,-0.01 -188.35,-20.84 -264.94,-70.52 -55.44,-35.98 -95.81,-77.92 -122.25,-122.9 -26.45,-44.95 -38.84,-92.87 -38.82,-139.9 0.04,-85.44 40.4,-167.36 107.46,-227.66 67.08,-60.36 161.25,-99.42 269.8,-99.41 18.96,0 38.34,1.19 58.1,3.66 47.89,5.97 92.36,24.23 133.98,50.92 72.88,46.78 137.78,119.07 202.17,201.35 96.42,123.47 191.64,270 303.9,388.76 56.09,59.4 116.32,111.79 182.7,151.17 66.41,39.38 138.84,65.85 220.36,73.76 184.81,17.83 327.98,93.71 424.56,194.76 96.6,101.05 146.95,226.98 147,345.37 0,51.03 -9.4,100.68 -28.69,146.13 -19.26,45.44 -48.46,86.63 -87.61,120.43 -105.27,90.82 -248.4,156.45 -399.87,199.89 -151.51,43.38 -311.41,64.41 -450.66,64.43 -54.93,-0.01 -106.65,-3.28 -153.47,-9.84 -69.57,-9.74 -127.6,-18.81 -178.24,-30.03 -75.87,-16.78 -135.55,-38.68 -190.27,-74.96 -54.74,-36.27 -103.82,-86.17 -160.66,-157.74 -23.23,-29.25 -39.42,-62.87 -49.73,-98.99 -10.33,-36.14 -14.84,-74.81 -14.85,-114.71 0.06,-99.85 28.16,-207.59 68.12,-304.03 40.09,-96.45 91.86,-181.34 141.76,-235.51 32.79,-35.51 74.85,-85.55 124.32,-141.12 74.26,-83.4 165.3,-179.39 268.95,-259.2 103.64,-79.72 220.15,-143.65 345.93,-161.07 28.73,-3.96 59.14,-5.99 90.76,-5.99 81.61,0.01 171.26,13.48 260.19,42.44 133.31,43.44 265.19,121.88 363.98,242.88 98.83,120.94 163.81,284.47 163.72,494.69 0,15.11 -0.33,30.47 -1.01,46.07 -7.09,164.28 -70.25,305.43 -165.96,423.31 -143.66,176.93 -359.77,302.82 -574.96,385.2 -107.63,41.16 -215.11,71.37 -313.46,91.34 -98.38,19.96 -187.55,29.7 -259.09,29.71 -93.48,0 -173.37,-3.47 -242.76,-12.48 -52.04,-6.77 -98.2,-16.66 -139.65,-30.68 -62.17,-20.98 -113.78,-51.52 -157.39,-93.86 -43.66,-42.33 -79.21,-96.05 -111.12,-163.05 -12.35,-25.93 -17.97,-54.56 -17.96,-84.69 0.16,-69.29 28.77,-146.85 75.69,-229.81 70.55,-124.33 183.44,-260.89 312.22,-393.24 128.77,-132.29 273.42,-260.12 407.37,-365.79 129.7,-102.28 222.96,-205.39 283.52,-303.32 60.61,-97.95 88.44,-190.52 88.42,-272.22 -0.09,-82.17 -27.73,-153.58 -80.12,-211.36 -38.5,-42.32 -83.92,-72.62 -134.6,-92.54 -50.66,-19.91 -106.64,-29.37 -165.79,-29.37 -124.41,-0.06 -262.65,42.1 -391.11,114.77 -59.6,33.67 -107.76,80.39 -140.85,132.33 -33.12,51.94 -51.06,108.98 -51.03,163.15 0.1,56.63 19.11,110 61.57,154.24 42.52,44.17 109.51,79.53 207.08,96.04 66.14,11.18 124.05,16.13 175.89,16.13 126.36,-0.11 216.61,-29.01 304.54,-70.94 87.83,-41.93 173.01,-97.63 285.1,-149.05 43.2,-19.78 93.05,-28.68 146.27,-28.69 73.49,0.02 153.64,16.96 232.93,47.36 118.9,45.67 235.96,121.69 324.14,218.87 44.07,48.61 80.9,102.56 106.78,160.77 25.89,58.19 40.79,120.71 40.78,185.91 0,9.72 -0.33,19.5 -1,29.33 -3.85,55.36 -26.93,112.64 -63.84,171.01 -64.73,102.09 -172.54,208.35 -303.69,311.55 -196.72,154.66 -446.08,301.84 -681.15,410.78 -117.54,54.45 -231.48,99.32 -333.67,130.68 -102.25,31.34 -192.53,49.32 -264.17,49.39 -177.37,-0.06 -313.77,-35.55 -407.41,-96.98 -46.77,-30.73 -82.76,-68.09 -106.94,-110.55 -24.2,-42.42 -36.43,-89.82 -36.41,-139.65 0,-38.17 7.11,-77.76 21.14,-117.97 7.56,-21.68 16.92,-40.28 28.09,-55.99 16.7,-23.58 37.7,-40.5 61.24,-50.94 23.55,-10.49 49.28,-14.66 76.06,-14.66 34.94,0.03 71.93,6.99 110.4,17.25 57.65,15.45 118.7,38.5 179.47,58.87 60.71,20.4 121.11,38.04 176.18,43.25 5.92,0.56 11.64,0.83 17.15,0.83 30.24,-0.06 54.28,-7.96 74.68,-21.7 15.27,-10.35 28.51,-24.21 39.87,-41.16 17.04,-25.4 29.64,-57.77 37.81,-93.83 8.18,-36.06 11.96,-75.72 11.96,-115.47 0,-41.11 -4.03,-82.33 -11.16,-119.76 -7.11,-37.42 -17.38,-71.1 -29.36,-96.86 -31.8,-68.6 -84.8,-159.3 -129.97,-258.77 -45.11,-99.57 -82.83,-208.29 -82.93,-315.46 0,-23.64 1.86,-47.2 5.94,-70.51 9.45,-53.71 33.5,-115.92 68.44,-179.94 52.46,-95.92 129.52,-195.61 220.5,-272.18 45.51,-38.26 94.53,-70.73 145.91,-93.78 51.36,-23.03 105.19,-36.64 159.86,-36.64 28.4,0 57,3.69 85.41,11.58 40.58,11.23 74.15,31.27 101.07,57.73 47.19,46.44 74.09,111.02 91.95,183.51 26.67,108.84 33.2,237.27 49.2,356.4 7.96,59.52 18.23,116.63 34.06,167.36 15.82,50.77 37.16,94.98 66.67,129.51 30.48,35.71 60.38,59.61 88.79,74.54 28.43,14.93 55.37,21.05 81,21.07 26.31,0 51.43,-6.55 74.96,-17.79 35.24,-16.83 66.65,-44.45 90.58,-74.81 23.96,-30.26 40.33,-63.39 46.35,-89.03 0.86,-3.6 1.28,-7.26 1.28,-11.08 0.01,-9.58 -2.72,-20.46 -8.36,-32.52 -9.8,-21.11 -28.52,-45.09 -51.4,-69.42 -34.3,-36.64 -77.49,-74.23 -112.83,-110.35 -17.69,-18.12 -33.47,-35.88 -45.39,-53.79 -5.94,-8.97 -10.94,-18.01 -14.58,-27.37 -3.62,-9.34 -5.9,-19.1 -5.9,-29.2 -0.02,-8.38 1.64,-16.95 5.16,-24.95 7.16,-16.32 15.8,-29.16 27.14,-38.3 11.27,-9.21 25.33,-13.64 38.66,-13.5 13.94,0.04 27.07,4 40.12,9.56 19.54,8.43 39.34,20.85 60.61,34.09 21.22,13.24 43.77,27.35 67.61,39.27 l 1.24,0.62 1.14,0.78 -3.81,5.55 3.76,-5.59 0.05,0.04 -3.81,5.55 3.76,-5.59 c 0.25,0.18 8.84,5.9 22.6,11.42 13.77,5.54 32.62,10.83 53.46,10.81 14.22,-0.01 29.36,-2.39 45.08,-8.76 28.96,-11.72 52.45,-25.52 67.65,-40.73 7.63,-7.6 13.24,-15.46 16.99,-23.72 3.73,-8.28 5.71,-17 5.73,-27.08 0,-8.6 -1.5,-18.22 -5.01,-29.11 -1.2,-3.93 -5.06,-9.74 -12.66,-16.25 -13.14,-11.48 -36.32,-23.91 -63.29,-35.95 -40.54,-18.26 -89.47,-36.27 -130.1,-57.67 -20.35,-10.77 -38.75,-22.34 -53.37,-36.32 -7.29,-7.01 -13.65,-14.68 -18.52,-23.36 -4.86,-8.65 -8.15,-18.4 -8.95,-28.75 -0.14,-1.77 -0.21,-3.55 -0.21,-5.32 -0.02,-11.09 2.81,-21.69 7.5,-31.06 8.29,-16.47 21.67,-29.4 37.13,-40.27 23.28,-16.23 51.94,-28.04 80.35,-36.21 28.46,-8.12 56.4,-12.51 79.06,-12.55 11.47,0.07 21.5,0.97 31.1,4.35 4.79,1.78 9.73,4.22 14.34,8.89 2.27,2.33 4.37,5.29 5.83,8.72 1.47,3.42 2.23,7.27 2.22,10.91 0,3.48 -0.64,6.74 -1.61,9.65 -3.17,9.3 -8.53,17.62 -15.51,25.9 -10.49,12.3 -24.85,24.15 -42.36,33.32 -17.48,9.12 -38.23,15.49 -60.91,15.5 -24.17,0.07 -50.31,-7.56 -74.67,-25.55 -24.42,-17.96 -47.12,-45.74 -67.13,-85.76 -13.35,-26.65 -19.65,-51.45 -19.64,-74.53 -0.02,-17.16 3.51,-33.17 9.55,-47.66 10.61,-25.43 28.34,-46.07 47.91,-64.44 29.45,-27.46 63.73,-50.54 89.7,-74.45 13,-11.9 23.83,-23.87 31.24,-35.98 7.42,-12.17 11.58,-24.17 12.12,-37.82 0.08,-2.24 0.12,-4.41 0.12,-6.5 0,-12.87 -1.54,-22.808 -3.9,-30.41 -2.08,-6.668 -4.73,-11.578 -7.79,-15.57 -5.33,-6.891 -12.3,-11.57 -21.99,-15.449 -14.43,-5.821 -34.25,-8.52 -54.98,-12.512 -10.38,-2.047 -21.05,-4.508 -31.57,-8.449 -10.5,-3.95 -20.97,-9.469 -30.16,-17.77 -8.96,-8.101 -15.57,-17.969 -19.77,-28.508 -4.21,-10.55 -6.09,-21.73 -6.09,-32.89 0.13,-29.121 12.26,-58.383 32.92,-81.41 10.37,-11.481 23.01,-21.372 37.65,-28.442 14.62,-7.058 31.27,-11.238 49.08,-11.23 1.06,0 2.13,0.019 3.2,0.039 l 0.02,0.011 c 12.82,0.352 24.27,2.59 34.29,6.719 15.05,6.102 26.49,16.86 33.15,29.051 6.74,12.211 9.15,25.359 9.16,37.691 -0.05,15.11 -3.51,29.258 -9,41.207 -2.79,5.993 -6.09,11.454 -10.31,16.321 -4.26,4.781 -9.45,9.41 -17.51,11.941 l -11.49,-38.308 1.77,5.91 -3.68,-5.051 c 0.09,-0.063 0.64,-0.469 1.91,-0.859 l 1.77,5.91 -3.68,-5.051 0.01,0.019 -0.01,-0.019 v 0 l 0.01,0.019 -0.01,-0.019 c 0.16,-0.109 1.29,-1.219 2.49,-3.129 1.85,-2.863 3.93,-7.383 5.38,-12.523 1.48,-5.137 2.36,-10.899 2.35,-16.368 0,-4.699 -0.64,-9.171 -1.88,-12.992 -1.92,-5.777 -4.73,-9.98 -9.65,-13.508 -4.95,-3.472 -12.85,-6.582 -26.19,-6.98 h 0.02 l -2.12,-0.031 c -11.61,0.011 -22.12,2.652 -31.7,7.261 -14.33,6.891 -26.53,18.469 -34.98,31.989 -8.49,13.472 -13.01,28.75 -12.97,41.832 0,6.699 1.13,12.789 3.24,18.047 2.12,5.281 5.14,9.761 9.46,13.683 3.88,3.508 8.69,6.418 14.66,8.906 10.41,4.403 24.25,7.184 39.43,9.872 11.38,2.05 23.51,4.121 35.7,7.511 9.15,2.551 18.38,5.871 27.26,10.739 13.3,7.23 25.8,18.46 34.06,34.179 8.31,15.692 12.44,35.031 12.44,58.621 0,2.6 -0.05,5.26 -0.15,7.98 -0.58,16.24 -4.75,31.34 -11.27,44.92 -11.46,23.83 -29.54,43.09 -49.23,60.67 -29.61,26.26 -63.55,49.25 -88.86,73.88 -12.67,12.26 -23.09,24.78 -30.15,37.73 -7.05,13.01 -10.95,26.25 -10.98,41.67 0,15.76 4.22,34.22 15.42,56.64 17.93,35.88 37.05,58.23 55.03,71.42 18.05,13.17 34.89,17.71 50.99,17.78 20.02,0.05 39.4,-7.73 54.42,-18.26 7.48,-5.23 13.81,-11.08 18.39,-16.48 4.6,-5.33 7.34,-10.4 8.02,-12.63 l 8.98,3 h -9.42 c 0,-1.4 0.25,-2.44 0.44,-2.99 l 8.98,2.99 h -9.42 12.2 l -11.22,4.78 c -0.66,-1.52 -1,-3.33 -0.98,-4.78 h 12.2 l -11.22,4.78 8.94,-3.81 -5.52,8.25 c -0.47,-0.29 -2.24,-1.68 -3.42,-4.44 l 8.94,-3.81 -5.52,8.25 1.65,-2.46 -1.46,2.58 -0.19,-0.12 1.65,-2.46 -1.46,2.58 -0.02,-0.01 c -0.28,-0.17 -2.36,-0.93 -5.55,-1.39 -3.2,-0.5 -7.51,-0.81 -12.51,-0.81 -13.22,-0.02 -31.21,2.14 -50.11,6.41 -28.38,6.34 -59.1,17.57 -81.07,31.59 -11,6.96 -19.71,14.58 -25.14,21.82 -5.46,7.34 -7.69,13.69 -7.72,20.27 l 0.08,2.17 c 0.5,6.07 3.03,12.23 8.91,19.51 5.1,6.3 12.7,13.03 22.3,19.7 16.77,11.71 39.43,23.15 64.11,34.15 37.08,16.57 78.59,32.24 113.52,49.43 17.49,8.64 33.39,17.64 46.65,28.01 6.63,5.21 12.61,10.78 17.71,17.06 5.09,6.28 9.31,13.34 11.89,21.31 4.61,14.28 6.94,28.1 6.94,41.39 0.02,15.54 -3.25,30.3 -9.3,43.6 -9.08,20.01 -24.03,36.5 -42.22,50.24 -18.24,13.77 -39.88,25.02 -63.79,34.74 -20.9,8.5 -41.42,11.72 -60.14,11.71 -28.42,-0.02 -52.7,-7.24 -70.01,-14.36 -17.33,-7.15 -27.79,-14.28 -28.65,-14.86 l 11.32,-16.49 -8.94,17.89 c -34.74,-17.39 -65.25,-38 -91.21,-53.64 -12.95,-7.83 -24.75,-14.39 -34.89,-18.73 -10.16,-4.39 -18.52,-6.37 -24.35,-6.32 -5.69,0.13 -9.06,1.19 -13.62,4.69 -4.49,3.56 -10.08,10.63 -15.54,23.15 -1.23,2.84 -1.79,5.57 -1.8,8.91 -0.05,6.01 2.26,14.42 7.81,24.56 9.58,17.77 28.5,39.69 51.53,62.78 34.57,34.82 78.09,72.74 113.69,111.56 17.81,19.47 33.71,39.19 45.57,59.57 11.79,20.35 19.81,41.68 19.86,64.18 0,6.77 -0.76,13.6 -2.36,20.34 -5.3,22.16 -15.48,45.88 -29.65,69.53 -21.28,35.4 -51.6,70.57 -89.09,97.45 -37.42,26.81 -82.47,45.38 -132.07,45.39 -32.14,0.03 -65.9,-7.91 -99.62,-25.66 -33.75,-17.75 -67.47,-45.17 -100.6,-83.98 -26.09,-30.57 -45.83,-66.52 -61.21,-105.79 -26.89,-68.76 -40.71,-147.9 -50.99,-229.12 -15.29,-121.74 -22.64,-248.51 -49.89,-349.36 -13.55,-50.42 -31.99,-94.09 -57.72,-127.63 -25.82,-33.54 -58.36,-57.42 -103.41,-70.04 -24.85,-6.9 -49.76,-10.12 -74.71,-10.12 -63.94,-0.02 -128.53,21.3 -190.28,57.26 -92.6,53.86 -178.1,140.57 -243.1,232.3 -32.51,45.84 -59.94,92.91 -80.75,137.52 -20.82,44.59 -34.97,86.79 -41.18,122.36 -3.65,20.83 -5.34,42.07 -5.34,63.61 -0.1,97.6 35.2,201.79 79.36,298.93 44.1,97.23 96.63,187.05 129.82,258.45 13.82,29.81 24.74,66.23 32.37,106.23 7.61,39.99 11.86,83.52 11.87,127.24 -0.09,75.14 -12.34,150.85 -43.76,210.16 -15.74,29.6 -36.55,55.19 -63.45,73.42 -26.85,18.25 -59.69,28.64 -97.11,28.58 -6.83,0 -13.81,-0.33 -20.95,-1.01 -80.78,-7.79 -165.61,-38.27 -246.22,-66.16 -40.26,-13.98 -79.4,-27.36 -115.97,-37.13 -36.56,-9.8 -70.53,-15.92 -100.06,-15.9 -15.12,0 -29.05,1.58 -41.7,4.89 -18.99,5.02 -35.11,13.69 -49.39,27.76 -14.23,14.1 -26.72,34.01 -36.53,62.11 -12.73,36.49 -18.91,71.61 -18.91,104.8 0.03,43.36 10.45,83.46 31.17,119.85 31.06,54.5 85.79,101.16 165.77,134.49 79.89,33.28 184.77,52.85 313.82,52.84 49.47,0.02 112.16,-9.78 183.31,-28.08 124.6,-31.98 275.27,-89.76 431.01,-163.93 233.65,-111.21 478.99,-259.38 667.22,-412.06 94.1,-76.29 173.91,-153.75 230.75,-227.66 28.43,-36.94 51.1,-72.97 67.06,-107.31 15.97,-34.35 25.2,-66.93 27.26,-97.1 0.61,-8.92 0.91,-17.79 0.91,-26.6 -0.01,-78.75 -23.9,-153.64 -64.58,-222.26 -60.94,-102.87 -159.95,-191.06 -269.54,-253.03 -109.49,-62.06 -229.52,-97.71 -330.51,-97.62 -48.78,-0.01 -92.97,8.24 -129.6,25.05 -109.04,49.93 -193.36,105.13 -284.51,148.77 -91.05,43.63 -189.22,74.96 -321.8,74.86 -54.39,0 -114.55,-5.19 -182.56,-16.68 -103.74,-17.52 -179.41,-56 -229.22,-107.75 -49.87,-51.67 -72.87,-116.29 -72.76,-181.98 0.02,-63 20.63,-127.09 57.3,-184.65 36.69,-57.56 89.56,-108.71 154.9,-145.66 133.37,-75.33 277.4,-119.87 410.79,-119.94 63.39,0 124.42,10.13 180.42,32.14 55.99,21.97 106.9,55.91 149.56,102.86 59.02,64.79 90.63,146.99 90.53,238.27 -0.01,90.85 -30.8,190.46 -94.4,293.27 -63.63,102.84 -160.15,209.07 -292.76,313.68 -176.85,139.47 -373.08,318.57 -524.39,493.68 -75.66,87.52 -140.07,174.08 -185.19,253.67 -45.22,79.54 -70.64,152.17 -70.48,210.08 0.01,25.24 4.63,47.63 14.08,67.49 27.15,57.01 56.29,102.35 89.98,138.42 25.28,27.06 53.13,49 85.13,66.98 47.98,26.93 105.59,44.97 177.57,56.22 71.95,11.26 158.07,15.66 262.12,15.65 90.62,0.03 214.99,-16.7 350.09,-51.83 202.75,-52.63 429.98,-146.73 607.69,-285.74 88.88,-69.48 165.37,-150.08 220.77,-242.09 55.4,-92.05 89.87,-195.4 94.96,-311.64 0.65,-15.03 0.97,-29.81 0.97,-44.33 -0.02,-134.71 -27.53,-247.73 -73.3,-341.91 -68.67,-141.19 -178.76,-240.49 -301.33,-304.86 -122.49,-64.33 -257.41,-93.27 -373.26,-93.24 -29.91,0 -58.53,1.92 -85.29,5.61 -77.16,10.63 -152.12,40.73 -223.33,82.61 -106.8,62.78 -204.84,152.01 -288.45,239.2 -83.7,87.23 -152.8,172.14 -203.49,227.09 -45.3,48.96 -95.82,130.99 -134.22,223.71 -38.52,92.72 -65.12,196.4 -65.06,288.7 0,36.88 4.21,71.89 13.31,103.72 9.11,31.85 23.04,60.47 42.6,85.1 37.02,46.64 69.94,82.86 102.43,111.5 48.8,42.93 96.4,69.22 158.46,89.15 62.03,19.86 138.66,32.83 242.5,47.35 44.62,6.25 94.59,9.45 147.92,9.45 135.24,0.01 292.05,-20.58 439.64,-62.88 147.63,-42.23 285.99,-106.33 384.75,-191.71 34.42,-29.75 59.91,-65.68 76.93,-105.79 17.01,-40.09 25.51,-84.37 25.51,-130.5 0.05,-107 -45.95,-223.72 -135.9,-317.72 -89.96,-93.98 -223.54,-165.52 -399.51,-182.6 -134.02,-12.93 -245.66,-72.98 -341.94,-154.81 -144.47,-122.83 -256.49,-294.72 -365.53,-438.69 -54.42,-71.99 -108.03,-136.95 -163.41,-185.23 -27.69,-24.15 -55.77,-44.12 -84.51,-58.95 -28.75,-14.84 -58.12,-24.56 -88.83,-28.4 -18.13,-2.27 -35.86,-3.35 -53.14,-3.35 -98.91,0.01 -183.37,35.47 -243.05,89.14 -59.71,53.73 -94.24,125.34 -94.21,197.93 0.03,40.07 10.39,80.61 33.31,119.63 22.92,38.98 58.53,76.5 109.54,109.62 68.35,44.4 152.9,64.08 243.16,64.07 148.39,0.12 311.26,-53.6 435.43,-132.24 62.1,-39.24 114.51,-84.66 150.81,-131.75 18.16,-23.53 32.3,-47.45 41.82,-71.11 9.52,-23.68 14.45,-47.05 14.45,-69.86 0,-4.23 -0.17,-8.45 -0.51,-12.66 -2.19,-26.76 -9.24,-50.01 -20,-70.07 -16.16,-30.05 -40.79,-53.18 -71.35,-69.11 -30.54,-15.9 -67.03,-24.39 -105.88,-24.38 -68.36,-0.02 -143.66,26.26 -205.94,82.66 -62.25,56.42 -112,142.92 -128.88,265.2 -14.26,103.56 -47.72,226.68 -93.13,353.7 -68.15,190.5 -163.16,389.47 -261.64,541.91 -49.28,76.24 -99.35,140.85 -148.18,187.25 -24.44,23.19 -48.59,41.88 -72.64,55.08 -24.03,13.15 -48.21,20.95 -72.35,20.97 -24.09,0.12 -47.69,-8.32 -67.46,-24.85 -28.14,-23.31 -48.07,-54.25 -60.79,-89.12 -12.74,-34.91 -18.49,-73.85 -18.5,-114.45 0.13,-98.35 33.48,-206.88 90.06,-292.65 28.34,-42.85 62.61,-80.02 102.15,-106.82 39.48,-26.79 84.59,-43.12 133.04,-43.09 37.09,-0.02 75.81,9.57 114.77,30.14 39.14,20.65 88.38,50.86 145.47,88.3 199.64,130.95 495.08,350.52 766.21,549.66 135.52,99.55 264.92,193.96 372.92,269.46 54,37.74 102.65,70.76 143.94,97.27 41.25,26.5 75.31,46.54 99.28,58.05 53.99,25.95 109.63,37.56 164.94,37.57 61.74,0 123.09,-14.54 180.48,-40.19 86.07,-38.44 163.04,-101.95 218.05,-177.26 55.08,-75.32 88.02,-162.15 87.97,-246.96 -0.08,-69.6 -21.74,-137.99 -72.36,-200.33 -28.33,-34.75 -61.84,-57.88 -101.02,-72.85 -39.15,-14.92 -84.15,-21.42 -134.23,-21.41 -62.05,-0.02 -131.69,9.98 -206.55,25.23 -112.32,22.84 -236.32,57.42 -365.24,86.4 -128.94,28.97 -262.86,52.37 -395.64,52.39 -127.4,0.01 -253.95,-21.66 -372.9,-81.15 -146.08,-72.99 -247.84,-178.69 -312.53,-296.71 -64.74,-118.03 -92.68,-248.17 -92.69,-371.13 0.04,-121.42 27.15,-235.94 74.11,-325.9 23.51,-44.97 52.03,-83.83 85,-114.15 32.95,-30.29 70.52,-52.05 111.58,-61.93 31.83,-7.66 64.1,-11.27 96.41,-11.27 72.08,0 144.3,17.9 213.39,48.59 103.65,46.1 200.48,120.97 280.31,209.61 79.79,88.68 142.62,191.16 177.4,293.47 36.19,106.59 89.15,237.42 133.12,383.15 43.97,145.76 79.02,306.62 79.03,474.05 0.01,123.65 -19.18,250.91 -68.08,377.74 -83.08,215.74 -249.66,320.35 -396.59,320.38 -70.59,0.05 -136.93,-24.42 -185.38,-72.53 -48.54,-48.03 -78.21,-119.18 -78.1,-208.57 0,-44.31 7.17,-93.18 22.64,-146.44 36.24,-124.46 119.48,-230.29 222.54,-321.57 154.72,-136.89 355.14,-242.11 517.35,-327.39 81.05,-42.57 152.61,-80.18 203.34,-113.39 25.34,-16.55 45.43,-32.06 58.56,-45.7 6.57,-6.79 11.37,-13.08 14.39,-18.47 3.05,-5.4 4.29,-9.74 4.55,-13.19 0.24,-3.31 0.37,-6.8 0.37,-10.44 0.09,-34.67 -11.82,-82.8 -36.68,-134.55 -37.22,-77.76 -103.06,-163.97 -197.3,-231.78 -94.29,-67.85 -216.78,-117.63 -368.99,-123.6 -6.38,-0.25 -12.65,-0.37 -18.83,-0.37 -59.85,0.01 -109.87,11.45 -151.52,30.71 -62.4,28.93 -106.51,75.6 -135.57,130.56 -29,54.9 -42.5,118.1 -42.48,178.01 -0.03,50.71 9.69,98.98 26.91,137.37 8.59,19.2 19.03,35.91 30.82,49.36 11.8,13.46 24.89,23.65 39.02,30.27 14.03,6.56 27.84,9.48 41.75,9.49 22.26,0.01 45.2,-7.69 67.59,-22.39 33.56,-21.96 65.09,-59.71 87.73,-105.75 22.7,-46.02 36.59,-100.12 36.56,-154.22 0,-37 -6.43,-73.96 -20.7,-108.73 -14.3,-34.79 -36.37,-67.44 -68.25,-96.16 -26.68,-24.01 -52.6,-40.66 -77.81,-51.33 -25.22,-10.66 -49.76,-15.43 -74.33,-15.45 -36.31,0 -73.06,10.57 -110.8,29.92 -56.57,28.95 -114.7,77.7 -173.51,136.16 -58.86,58.44 -118.5,126.43 -179.32,193.5 -40.36,44.48 -79.49,97.76 -117.86,152.71 -57.63,82.44 -113.41,168.54 -171.1,235.19 -28.9,33.33 -58.3,61.89 -89.42,82.62 -31.03,20.68 -64.34,33.65 -99.64,33.64 -29.02,0.05 -58.63,-8.93 -87.57,-27.31 -29,-18.39 -57.66,-45.97 -86.85,-83.96 -27.3,-35.4 -40.34,-73.91 -40.26,-112.32 0,-30.49 7.98,-60.61 21.81,-89.6 24.29,-50.75 66.27,-98.57 118.53,-142.57 78.45,-65.92 180.46,-123.18 283.58,-164.39 103.21,-41.12 207.19,-66.27 291.18,-66.36 44.73,0.07 84.16,7.04 115.25,24.72 15.48,8.86 28.79,20.62 38.54,35.33 9.77,14.69 15.78,32.14 17.65,51.4 2.63,27.87 15.73,67.09 38.04,112.65 38.97,79.91 105.49,179.79 188.56,283.87 124.58,156.2 286.52,322.25 448.91,448.56 81.17,63.16 162.47,116.38 238.87,153.53 76.39,37.23 147.83,58.12 208.56,58.05 40.43,-0.04 75.95,-8.98 106.8,-28.05 58.48,-36.19 98.41,-73.93 123.49,-110.66 25.09,-36.78 35.54,-72.35 35.58,-106.02 -0.01,-29.82 -8.29,-58.45 -23.46,-85.15 -22.7,-40 -61.18,-75.34 -108.88,-100.46 -47.67,-25.14 -104.36,-40 -162.71,-39.99 -11.51,0 -23.08,0.58 -34.66,1.76 -21.46,2.19 -43.37,3.27 -65.58,3.27 -134.46,-0.05 -280.15,-39.46 -403.09,-115.31 -61.45,-37.94 -117.19,-85.06 -162.65,-141.14 -45.45,-56.05 -80.59,-121.11 -100.59,-194.46 -11.44,-41.96 -16.88,-78.01 -16.89,-109.39 -0.04,-38.93 8.57,-71.03 24.98,-96.31 12.25,-18.94 28.67,-33.68 47.41,-44.69 28.19,-16.54 61.39,-25.18 97.05,-30.05 35.68,-4.82 74.01,-5.78 112.77,-5.79 28.65,0 57.53,0.54 85.6,0.54 13.48,0 26.78,-0.13 39.77,-0.49 h 0.01 c 1.03,-0.02 2.08,-0.04 3.14,-0.04 16.94,0 33.57,3.8 49.34,10.5 27.64,11.78 52.85,32.15 75.59,58.05 34.04,38.93 62.67,90.68 83.14,148.01 20.42,57.34 32.61,120.27 32.63,181.62 -0.03,73 -17.31,144.35 -60.67,199.64 -21.65,27.57 -49.84,50.85 -84.71,67.61 -34.88,16.8 -76.32,27.11 -124.62,29.65 -16.84,0.88 -33.01,1.31 -48.58,1.31 -95.59,0.04 -168.61,-16.3 -231.08,-41.5 -46.86,-18.87 -87.67,-42.51 -128.03,-67.34 -60.59,-37.3 -120.2,-77.19 -199.29,-110.51 -79.08,-33.29 -177.91,-60.28 -317.1,-70.67 -13.49,-1 -26.5,-1.49 -39.04,-1.49 -53.82,0.01 -98.96,8.96 -136.44,24.49 -56.17,23.36 -95.61,61.3 -121.89,109.04 -26.21,47.73 -38.8,105.59 -38.78,167.18 -0.06,91.96 28.17,191.86 78.06,276.26 49.87,84.52 121.08,153.16 205.63,185.3 17.58,6.68 34.43,9.71 51.1,9.72 31.98,-0.01 64.02,-11.3 97.19,-32.73 58,-37.36 117.49,-105.82 177.75,-187.66 90.63,-122.78 183.58,-275.07 286.92,-397.75 51.74,-61.35 106.14,-115.42 165.02,-154.64 58.79,-39.18 122.6,-63.52 191.4,-63.5 36.6,-0.01 74.41,6.9 113.12,21.59 126.13,47.86 227.16,117.29 297.18,194.97 35,38.85 62.25,79.79 80.85,121.29 18.59,41.49 28.54,83.6 28.55,124.54 0.02,38.68 -8.99,76.3 -27.69,110.46 -28.05,51.33 -77.54,94.22 -148.05,123.81 -70.58,29.65 -162.38,46.48 -277.59,46.5 -3.47,0 -6.97,-0.02 -10.48,-0.05 -138.39,-1.22 -236.1,-34.09 -299.91,-85.71 -31.85,-25.77 -54.98,-56.19 -69.95,-88.84 -14.99,-32.65 -21.85,-67.43 -21.85,-101.99 0.08,-71.34 28.82,-141.82 76.25,-195.18 23.75,-26.67 52.28,-49.07 84.51,-64.86 32.22,-15.78 68.19,-24.91 106.27,-24.9 45.1,-0.03 92.96,12.84 140.66,41.34 41.5,24.79 71.9,50.21 92.47,76.58 20.53,26.28 31.16,54.12 31.13,81.57 0.01,15.5 -3.38,30.61 -9.52,44.72 -10.79,24.75 -29.65,46.43 -53.92,65.31 -36.49,28.27 -85.59,50.63 -142.65,66.3 -57.06,15.62 -122.1,24.4 -190.34,24.41 -94.75,-0.02 -195.68,-16.95 -289.31,-56.85 -119.48,-50.97 -224.29,-101.78 -312.36,-139.54 -44.02,-18.88 -83.85,-34.49 -118.96,-45.24 -35.09,-10.78 -65.47,-16.6 -90.1,-16.56 -14.46,0 -26.88,1.95 -37.48,5.71 -15.87,5.75 -28.11,15.08 -38.82,31.18 -10.61,16.1 -19.12,39.45 -24.2,71.47 -0.45,2.83 -0.67,5.62 -0.67,8.41 0.01,14.46 5.89,29.89 19.15,46.83 11.53,14.72 28.55,30.04 50.15,45.08 37.78,26.37 89.39,51.86 149.07,74.8 89.55,34.47 197.29,63.38 305.07,83.56 107.78,20.19 215.71,31.67 305.48,31.66 66.99,0.06 124.02,-6.56 161.88,-19.58 18.94,-6.43 32.81,-14.44 40.95,-22.51 4.11,-4.04 6.87,-8.01 8.67,-12.05 1.78,-4.04 2.71,-8.22 2.73,-13.25 0,-5.31 -1.12,-11.64 -3.96,-19.17 -7.43,-19.71 -20.3,-41.11 -37.86,-63.11 -30.72,-38.53 -75.68,-78.74 -128.92,-116.85 -79.85,-57.22 -178.3,-109.87 -275.32,-147.92 -96.95,-38.12 -192.8,-61.48 -265.81,-61.38 -21.96,-0.01 -41.78,2.08 -58.82,6.24 -25.65,6.27 -44.55,16.93 -57.13,31.71 -6.33,7.45 -11.24,16.05 -14.71,26.45 -3.46,10.38 -5.43,22.6 -5.43,36.99 0,0.95 0.01,1.9 0.03,2.87 0.48,26.29 6.48,51.07 17.22,74.93 16.09,35.74 43.11,69.36 77.95,100.38 34.8,31.01 77.3,59.33 123.48,84.65 50.64,27.81 123.87,57.68 204.62,86.37 121.19,43.08 259.61,83.78 367.58,113.64 53.99,14.94 100.39,27.17 133.27,35.67 16.44,4.24 29.5,7.56 38.45,9.81 8.94,2.25 13.72,3.42 13.73,3.42 l -9.54,38.85"
         style="fill:#85d38e;fill-opacity:1;fill-rule:nonzero;stroke:none"
         id="path32" />
      <path
         d="m 2848.19,2487.8 c -135.53,113 -209.84,260.33 -275.84,403.26 -33,71.43 -63.9,141.64 -99.66,205.62 -35.75,63.95 -76.42,121.77 -129.26,167.74 l -19.68,-22.64 c 49.14,-42.73 87.97,-97.49 122.76,-159.74 52.21,-93.33 95.06,-203.26 151.05,-312.12 56,-108.81 125.41,-216.74 231.42,-305.16 l 19.21,23.04"
         style="fill:#232d34;fill-opacity:1;fill-rule:nonzero;stroke:none"
         id="path34" />
      <path
         d="m 2800.68,1768.34 c 24.59,-4.11 50.28,-6.12 76.59,-6.12 107.61,0.06 225.87,33.47 322.27,96.83 48.17,31.7 90.87,70.98 123.65,117.54 32.78,46.54 55.58,100.44 63.75,160.75 5.78,42.61 8.66,84.07 8.66,124.07 0,62.65 -7.07,121.71 -21.24,175.92 l -29.02,-7.58 c 13.43,-51.41 20.27,-107.95 20.26,-168.34 0,-38.56 -2.78,-78.68 -8.39,-120.04 -7.51,-55.3 -28.28,-104.47 -58.55,-147.51 -45.39,-64.52 -112.45,-115.09 -187.48,-149.38 -75,-34.32 -157.87,-52.28 -233.91,-52.26 -24.78,0 -48.83,1.89 -71.64,5.71 l -4.95,-29.59"
         style="fill:#232d34;fill-opacity:1;fill-rule:nonzero;stroke:none"
         id="path36" />
      <path
         d="m 2225.92,2461.45 c -102.93,133.78 -195.21,272.22 -237.37,405.45 -2.03,6.39 -3.98,12.75 -5.86,19.08 l -28.76,-8.53 c 1.93,-6.51 3.94,-13.05 6.02,-19.62 44.28,-139.39 138.54,-279.77 242.18,-414.67 l 23.79,18.29"
         style="fill:#232d34;fill-opacity:1;fill-rule:nonzero;stroke:none"
         id="path38" />
      <path
         d="m 1641.86,2629.08 c 22.47,-11.75 45.71,-22.58 69.66,-32.32 50.54,-20.56 104.35,-29.6 160.32,-29.59 105.93,0.05 219.66,32.08 337.28,80 l -11.33,27.78 c -115.66,-47.2 -226.15,-77.83 -325.95,-77.78 -52.78,0.01 -102.54,8.48 -149.01,27.38 -23.04,9.37 -45.42,19.79 -67.07,31.11 l -13.9,-26.58"
         style="fill:#232d34;fill-opacity:1;fill-rule:nonzero;stroke:none"
         id="path40" />
      <path
         d="m 3893.55,2571.17 c 13.2,61.68 20.13,122.96 20.13,182.66 0,78.99 -12.14,155.23 -38.03,225.8 -25.88,70.55 -65.54,135.4 -120.27,191.31 l -21.44,-20.98 c 51.67,-52.82 89.01,-113.82 113.54,-180.67 24.53,-66.83 36.2,-139.53 36.2,-215.46 0,-57.37 -6.67,-116.57 -19.47,-176.38 l 29.34,-6.28"
         style="fill:#232d34;fill-opacity:1;fill-rule:nonzero;stroke:none"
         id="path42" />
      <path
         d="m 3146.46,3552.32 c 25.37,-76.34 39.02,-165.67 39.01,-253.55 0.08,-114.31 -23.25,-226.14 -71.72,-303.91 l 25.48,-15.83 c 52.71,85.03 76.16,201.44 76.24,319.74 -0.01,90.98 -14.02,183.1 -40.54,263 l -28.47,-9.45"
         style="fill:#232d34;fill-opacity:1;fill-rule:nonzero;stroke:none"
         id="path44" />
      <path
         d="m 2671.86,1495.54 c -42.9,-32.27 -104.82,-49.92 -172.61,-49.87 -85.14,-0.04 -179.03,27.66 -255.35,85.5 l -18.11,-23.91 c 82.15,-62.14 181.94,-91.56 273.46,-91.59 72.86,0.04 140.81,18.6 190.61,55.87 l -18,24"
         style="fill:#232d34;fill-opacity:1;fill-rule:nonzero;stroke:none"
         id="path46" />
      <path
         d="m 4160.7,1412.11 c -12.78,-45.64 -107.71,-78.5 -147.87,-54.77 -40.16,23.74 -89.45,147.88 -127.79,255.58 -38.34,107.71 -105.88,162.48 -105.88,162.48 l 52.94,25.56 c 0,0 21.9,-9.13 82.15,-32.86 60.24,-23.73 135.75,-20.23 166.78,-69.52 31.04,-49.29 92.45,-240.83 79.67,-286.47 z M 4981.94,133.051 c -82.15,74.851 -229.75,313.328 -277.22,397.308 -47.46,83.973 -140.57,171.602 -173.43,233.672 -32.86,62.071 18.26,390.669 36.52,492.909 18.25,102.23 14.6,259.23 7.3,306.69 -7.3,47.47 31.03,217.25 25.56,297.57 -5.48,80.33 -16.43,115.01 -162.48,202.64 -146.05,87.63 -365.12,138.75 -397.98,138.75 -32.86,0 -12.78,-60.25 -12.78,-60.25 0,0 -27.38,-1.82 -96.75,-3.65 -69.37,-1.82 -149.7,-16.43 -166.13,-23.73 -16.43,-7.3 -7.3,-71.2 74.85,-107.71 82.15,-36.51 142.4,-21.91 166.13,-21.91 23.73,0 136.92,-60.24 136.92,-60.24 0,0 -25.56,12.78 -160.65,9.13 -135.1,-3.66 -182.56,-5.48 -264.71,-23.74 -82.15,-18.25 -120.49,-16.43 -118.67,-45.64 1.83,-29.2 23.74,-54.76 23.74,-54.76 0,0 -45.64,-14.61 -40.17,-60.25 5.48,-45.64 69.38,-157 115.02,-250.1 45.63,-93.11 91.27,-255.58 120.48,-383.37 29.21,-127.788 76.68,-251.929 153.35,-370.589 76.68,-118.672 197.16,-290.269 273.84,-394.332 76.67,-104.058 131.44,-169.777 182.56,-303.0506 25.61,-66.7695 13.72,-27.789 20.55,-46.69918"
         style="fill:#ffffff;fill-opacity:1;fill-rule:nonzero;stroke:none"
         id="path48" />
      <path
         d="m 4160.7,1412.11 -4.81,1.35 c -4.19,-15.39 -20.17,-30.57 -40.98,-41.45 -20.72,-10.92 -45.95,-17.62 -67.31,-17.59 -12.78,-0.02 -24.09,2.4 -32.23,7.23 -8.83,5.15 -19.24,16.87 -29.87,33.23 -32.09,49.12 -67.07,139.08 -95.75,219.72 -38.81,108.97 -107.02,164.33 -107.44,164.68 l -3.15,-3.88 2.17,-4.5 52.94,25.56 -2.17,4.5 -1.93,-4.62 c 0.05,-0.01 21.98,-9.15 82.25,-32.89 30.85,-12.14 64.98,-17.18 94.86,-25.35 14.94,-4.07 28.79,-8.89 40.62,-15.56 11.84,-6.67 21.65,-15.11 28.9,-26.62 6.73,-10.67 15.32,-29.06 24.19,-51.37 13.34,-33.49 27.5,-75.99 38.29,-115.94 10.79,-39.91 18.18,-77.5 18.15,-100.4 0,-6.17 -0.55,-11.23 -1.54,-14.75 l 4.81,-1.35 4.82,-1.35 c 1.36,4.89 1.9,10.71 1.91,17.45 -0.06,33.02 -13.48,89.39 -30.36,143.75 -8.45,27.13 -17.78,53.67 -26.79,76.29 -9.02,22.64 -17.66,41.29 -25.02,53 -8.26,13.13 -19.53,22.74 -32.45,30.01 -19.42,10.91 -42.57,16.79 -66.38,22.28 -23.81,5.47 -48.31,10.52 -70.35,19.21 -30.11,11.86 -50.64,20.07 -63.63,25.32 -12.99,5.24 -18.41,7.5 -18.43,7.5 l -2.07,0.87 -62.06,-29.96 6.12,-4.96 0.68,-0.57 c 7.15,-6.05 68.14,-59.9 103.64,-159.7 19.19,-53.93 41.13,-111.99 63.39,-159.72 11.13,-23.87 22.34,-45.15 33.4,-62.12 11.11,-16.96 21.92,-29.66 33.17,-36.37 10.35,-6.09 23.33,-8.61 37.31,-8.62 23.39,0.02 49.79,7.1 71.97,18.74 22.09,11.7 40.3,27.86 45.95,47.6 z M 4985.31,136.75 c -40.36,36.711 -97.86,114.992 -150.83,194.309 -53.02,79.343 -101.76,159.921 -125.4,201.761 -24.06,42.539 -59.37,85.59 -92.7,125.782 -33.33,40.14 -64.7,77.539 -80.67,107.769 -3.35,6.281 -6.05,16.75 -7.72,30.16 -1.69,13.43 -2.47,29.848 -2.47,48.36 -0.02,121.629 33.24,333.029 47.21,411.169 9.88,55.37 13.36,126.18 13.36,187.4 -0.01,52.88 -2.58,98.4 -6.04,120.93 -0.58,3.78 -0.87,8.65 -0.87,14.37 -0.02,27.73 6.7,74.74 13.47,124.24 6.75,49.56 13.54,101.72 13.55,140.89 0,6.22 -0.17,12.13 -0.55,17.65 -1.37,20.17 -3.09,37.69 -7.3,54.13 -6.28,24.68 -18.4,46.69 -42.51,70.3 -24.12,23.65 -60.16,49.2 -115.08,82.16 -73.59,44.14 -165.15,78.9 -242.53,102.72 -38.69,11.91 -73.83,21.07 -101.41,27.26 -13.79,3.1 -25.7,5.45 -35.24,7.04 -9.57,1.59 -16.67,2.42 -21.37,2.44 -4.37,0 -8.3,-0.92 -11.59,-2.74 -4.97,-2.72 -8.14,-7.29 -9.89,-12.17 -1.78,-4.92 -2.36,-10.3 -2.37,-15.71 0.04,-17.56 6.28,-35.95 6.33,-36.21 l 4.74,1.58 -0.33,4.99 c 0,0 -1.67,-0.11 -5.3,-0.31 -10.9,-0.6 -39.26,-1.96 -91.25,-3.33 -34.99,-0.92 -72.57,-5.05 -103.56,-9.87 -15.49,-2.41 -29.33,-4.99 -40.39,-7.45 -11.1,-2.48 -19.24,-4.72 -24.08,-6.84 -3.53,-1.57 -6.03,-4.6 -7.54,-8.07 -1.53,-3.5 -2.22,-7.57 -2.23,-12.11 0.04,-12.95 5.69,-30.03 19.03,-47.55 13.35,-17.5 34.47,-35.29 65.59,-49.12 46.35,-20.61 86.04,-25.23 116.16,-25.22 24.03,0.01 42.23,2.92 52,2.88 1.96,0.03 6.11,-0.77 11.23,-2.37 18.13,-5.54 49.22,-19.93 75.45,-32.85 13.14,-6.47 25.12,-12.58 33.81,-17.08 8.69,-4.49 14.06,-7.35 14.08,-7.36 l 2.35,4.42 2.23,4.47 c -1.44,0.64 -21.43,10.26 -117.19,10.31 -13.68,0 -28.9,-0.2 -45.83,-0.66 -135,-3.64 -183.1,-5.49 -265.66,-23.85 -39.97,-8.89 -69.48,-12.96 -89.68,-18.39 -10.11,-2.75 -18.01,-5.77 -23.87,-10.52 -5.91,-4.7 -9.2,-11.7 -9.09,-19.66 l 0.07,-2.26 c 1.01,-15.76 7.28,-30.05 13.2,-40.49 5.93,-10.44 11.59,-17.05 11.73,-17.22 l 3.8,3.26 -1.53,4.76 c -0.35,-0.13 -11,-3.52 -21.93,-12.35 -10.9,-8.75 -22.2,-23.5 -22.16,-45.2 0,-2.59 0.16,-5.28 0.49,-8.05 1.49,-12.28 6.65,-28.01 14.2,-46.54 22.63,-55.43 67.13,-135.48 101.29,-205.17 45.28,-92.31 90.97,-254.74 120.1,-382.29 29.31,-128.25 76.99,-252.98 154.02,-372.191 76.77,-118.809 197.27,-290.418 274.01,-394.579 76.81,-104.25 131.03,-169.25 181.92,-301.8706 7.03,-18.3399 11.25,-28.7305 13.86,-34.6602 1.31,-2.98045 2.2,-4.82029 2.95,-6.12889 l 1.25,-1.83984 1.21,-1.08984 c 0.58,-0.39063 1.57,-0.91016 2.97,-0.92188 0.98,-0.00781 2.04,0.33203 2.75,0.80078 1.27,0.83203 1.64,1.62891 1.88,2.05078 l 0.3,0.64063 0.02,0.07031 -3.73,1.46094 3.39,-2.13281 0.34,0.67187 -3.73,1.46094 3.39,-2.13281 -4.07,2.55078 2.95,-3.78125 1.12,1.23047 -4.07,2.55078 2.95,-3.78125 L 4445.28,7.5 V 2.58984 c 1.22,-0.01953 2.4,0.53125 3.02,1.03907 L 4445.28,7.5 V 2.58984 7.42188 l -3.32,-3.53125 c 0.42,-0.3711 1.42,-1.26172 3.32,-1.30079 v 4.83204 l -3.32,-3.53125 2.36,2.51953 -3.09,-1.6211 0.73,-0.89843 2.36,2.51953 -3.09,-1.6211 c 0.09,-0.1289 0.75,-1.69922 1.86,-4.78906 l 9.4,3.39844 c -0.89,2.47265 -1.47,3.98047 -1.94,5.0625 l -0.8,1.55856 -0.94,1.1602 c -0.5,0.4492 -1.57,1.3711 -3.53,1.4101 -1.48,0.0196 -2.83,-0.7382 -3.43,-1.3398 -1.1,-1.0898 -1.16,-1.60937 -1.32,-1.87891 l -0.1,-0.25 3.83,-1.51953 -3.29,2.46874 -0.54,-0.94921 3.83,-1.51953 -3.29,2.46874 3.79,-2.85155 -2.49,4.03125 -1.3,-1.1797 3.79,-2.85155 -2.49,4.03125 2.54,-4.10937 v 4.82817 c -0.9,0.0234 -1.88,-0.2969 -2.54,-0.7188 l 2.54,-4.10937 V 11.9688 7.28906 l 2.63,3.89064 c -0.45,0.3008 -1.32,0.7812 -2.63,0.7891 V 7.28906 l 2.63,3.89064 -2.15,-3.18751 2.88,2.55861 -0.73,0.6289 -2.15,-3.18751 2.88,2.55861 -1.07,-0.94924 1.18,0.82034 -0.11,0.1289 -1.07,-0.94924 1.18,0.82034 c -0.22,0.25 -1.65,2.9375 -4.17,8.9765 -2.57,6.0938 -6.43,15.7422 -12.21,30.8008 -51.34,133.9218 -106.66,200.3518 -183.2,304.2228 -76.6,103.957 -197.08,275.547 -273.66,394.07 -76.32,118.11 -123.57,241.66 -152.67,368.988 -29.29,128.03 -74.88,290.56 -120.88,384.46 -22.87,46.67 -50.26,97.79 -72.57,142.87 -11.15,22.53 -21.04,43.56 -28.43,61.68 -7.41,18.1 -12.29,33.41 -13.53,43.95 -0.29,2.39 -0.42,4.67 -0.42,6.86 0.03,18.08 9.04,29.73 18.45,37.43 4.7,3.8 9.45,6.49 13,8.2 1.77,0.86 3.23,1.47 4.24,1.86 l 1.13,0.43 0.32,0.1 7.18,2.3 -4.91,5.72 -0.19,0.23 c -2.19,2.52 -20.9,26.34 -22.35,51.6 l -0.05,1.63 c 0.11,5.63 1.62,8.66 5.43,11.92 5.76,4.86 18.1,8.67 36.46,12.38 18.36,3.78 42.68,7.79 72.92,14.51 81.75,18.16 128.57,19.96 263.76,23.62 16.85,0.45 31.98,0.65 45.56,0.65 47.52,0 76.04,-2.44 92.53,-4.84 8.24,-1.2 13.47,-2.38 16.55,-3.23 1.54,-0.43 2.54,-0.77 3.11,-0.98 l 0.55,-0.21 0.05,-0.03 1.18,2.53 -1.25,-2.49 0.07,-0.04 1.18,2.53 -1.25,-2.49 4.59,8.88 c -0.04,0.02 -28.37,15.1 -59.74,30.22 -15.69,7.55 -32.13,15.12 -46.25,20.83 -7.06,2.86 -13.54,5.26 -19.12,6.97 -5.61,1.7 -10.19,2.78 -14.16,2.81 -11.33,-0.03 -28.65,-2.89 -52,-2.88 -29.1,0.01 -67.17,4.4 -112.1,24.36 -29.75,13.22 -49.45,29.99 -61.7,46.05 -12.27,16.02 -17.01,31.46 -16.98,41.48 0,3.48 0.58,6.27 1.39,8.1 0.82,1.85 1.72,2.62 2.44,2.94 3.38,1.53 11.44,3.85 22.19,6.22 32.39,7.2 90.46,15.73 142.04,17.08 69.43,1.83 96.87,3.66 96.96,3.66 l 6.45,0.43 -2.04,6.14 -0.23,0.73 c -1.11,3.46 -5.62,18.99 -5.59,32.32 -0.03,6.22 1.03,11.82 3.16,15.25 1.06,1.73 2.29,2.97 3.92,3.87 1.63,0.89 3.76,1.49 6.77,1.5 3.52,0.01 10.46,-0.75 19.73,-2.3 65.25,-10.83 248.91,-59.6 375.68,-135.74 72.85,-43.68 111.59,-74.06 132.48,-102.72 10.47,-14.33 16.61,-28.24 20.56,-43.64 3.95,-15.39 5.66,-32.33 7.02,-52.33 0.36,-5.25 0.52,-10.93 0.52,-16.97 0.01,-38.08 -6.71,-90.06 -13.46,-139.54 -6.75,-49.54 -13.54,-96.46 -13.56,-125.59 0,-6.05 0.29,-11.35 0.99,-15.89 3.31,-21.44 5.93,-66.94 5.92,-119.41 0.01,-60.82 -3.49,-131.29 -13.21,-185.64 -14.01,-78.56 -47.33,-289.769 -47.36,-412.929 0,-18.801 0.78,-35.559 2.55,-49.61 1.79,-14.062 4.49,-25.371 8.81,-33.59 16.89,-31.839 48.5,-69.289 81.8,-109.472 33.31,-40.137 68.28,-82.887 91.69,-124.317 23.82,-42.14 72.61,-122.793 125.8,-202.402 53.23,-79.629 110.6,-158.008 152.4,-196.141 l 6.74,7.391"
         style="fill:#232d34;fill-opacity:1;fill-rule:nonzero;stroke:none"
         id="path50" />
      <path
         d="m 3623.76,1805.35 1.04,0.34 c 5.03,1.57 27.74,8.08 55.32,8.07 15.76,0 33.08,-2.12 49.64,-8.35 16.57,-6.25 32.37,-16.53 45.47,-33.11 l 7.85,6.2 c -14.28,18.11 -31.79,29.5 -49.8,36.27 -18.01,6.77 -36.52,8.99 -53.16,8.99 -33.29,-0.02 -59.26,-8.84 -59.57,-8.94 l 3.21,-9.47"
         style="fill:#232d34;fill-opacity:1;fill-rule:nonzero;stroke:none"
         id="path52" />
      <path
         d="m 4350.65,1665.73 c 10.06,-16.2 18.18,-28.77 23.27,-35.69 l 8.05,5.93 c -4.71,6.39 -12.84,18.95 -22.83,35.03 l -8.49,-5.27"
         style="fill:#232d34;fill-opacity:1;fill-rule:nonzero;stroke:none"
         id="path54" />
      <path
         d="m 4141.69,1920.16 c 0,0 1.04,-0.16 2.97,-0.51 6.75,-1.19 23.99,-4.57 40.67,-10.33 8.33,-2.87 16.52,-6.34 23.1,-10.3 6.6,-3.95 11.44,-8.42 13.52,-12.67 4.65,-9.28 21.43,-39.02 42.54,-75.57 21.09,-36.51 46.41,-79.64 67.88,-115.16 l 8.56,5.17 c -21.42,35.44 -46.72,78.53 -67.78,114.99 -21.04,36.42 -37.94,66.39 -42.26,75.04 -4.03,7.92 -11.69,13.75 -20.59,18.64 -13.39,7.29 -30.03,12.34 -43.45,15.68 -13.4,3.32 -23.54,4.88 -23.64,4.9 l -1.52,-9.88"
         style="fill:#232d34;fill-opacity:1;fill-rule:nonzero;stroke:none"
         id="path56" />
      <path
         d="m 4026.28,2137.48 c 0.02,-0.01 5.3,-1.26 14.68,-3.51 32.82,-7.89 115.6,-28.06 195.72,-49.63 40.05,-10.79 79.45,-21.93 111.55,-32.04 16.05,-5.06 30.27,-9.86 41.81,-14.21 11.52,-4.34 20.42,-8.3 25.47,-11.38 5.3,-3.17 11.47,-10 17.63,-19.66 10.85,-16.89 21.89,-42.21 32.27,-71.07 31.2,-86.67 56.85,-205.34 62.82,-232.84 4.53,-20.83 7.25,-38.48 8.83,-50.91 0.79,-6.22 1.3,-11.12 1.61,-14.46 0.31,-3.35 0.41,-5.07 0.41,-5.08 l 9.98,0.63 c -0.01,0.18 -1.86,29.62 -11.05,71.95 -4.57,21.01 -20.57,95.05 -41.85,167.83 -10.65,36.41 -22.61,72.49 -35.21,101.62 -6.31,14.57 -12.77,27.4 -19.39,37.73 -6.65,10.32 -13.37,18.22 -20.86,22.81 -6.99,4.22 -18.01,8.88 -32.34,14.11 -50.02,18.23 -139.81,42.62 -217.29,62.54 -77.45,19.91 -142.46,35.29 -142.48,35.3 l -2.31,-9.73"
         style="fill:#232d34;fill-opacity:1;fill-rule:nonzero;stroke:none"
         id="path58" />
      <path
         d="m 4460.74,1505.78 c 0,-0.01 0.79,-3.06 2.01,-8.37 3.66,-15.9 10.97,-51.8 10.95,-82.07 0.01,-11.75 -1.11,-22.64 -3.76,-30.92 -6.29,-19.75 -12.52,-32.15 -17.06,-39.51 -2.28,-3.68 -4.13,-6.1 -5.36,-7.56 l -1.36,-1.5 -0.28,-0.27 0.12,-0.13 -0.11,0.13 h -0.01 l 0.12,-0.13 -0.11,0.13 6.51,-7.59 c 0.85,0.73 14.08,12.58 27.07,53.4 3.12,9.85 4.22,21.57 4.23,33.95 -0.03,42.34 -13.26,92.75 -13.29,92.96 l -9.67,-2.52"
         style="fill:#232d34;fill-opacity:1;fill-rule:nonzero;stroke:none"
         id="path60" />
      <path
         d="m 3996.65,1366.46 c 0.15,-0.13 51.36,-47.74 106.82,-79.19 l 4.93,8.7 c -27.02,15.31 -53.33,34.8 -72.82,50.44 -9.74,7.82 -17.79,14.68 -23.4,19.58 -2.8,2.44 -4.99,4.4 -6.48,5.74 -1.48,1.35 -2.24,2.05 -2.25,2.06 l -6.8,-7.33"
         style="fill:#232d34;fill-opacity:1;fill-rule:nonzero;stroke:none"
         id="path62" />
      <path
         d="m 1940.79,3864.48 c 0,0 -43.63,-46.53 -50.39,-42.77 -6.76,3.77 -71.75,58.2 -75.93,78.75 -4.18,20.56 20.93,99.29 20.93,99.29 l -37.61,83.97 c 0,0 0.82,-54.63 -34.58,-99.49 -35.41,-44.87 -46.07,-55.59 -46.07,-55.59 l -145.33,66.36 103.77,125.54 -38.42,189.11 -23.75,20 c 0,0 9.73,-115.31 -5.33,-142.35 -15.06,-27.03 -138.13,-137.65 -147.33,-142.94 -9.2,-5.29 -16.38,-24.73 -31.71,-16.72 -15.32,8.02 -62.14,36.18 -57.46,67.95 4.67,31.77 53.67,98.23 74.16,123.8 20.49,25.57 30.32,40.41 30.32,40.41 l -15.8,56.72 c 0,0 49.08,146.1 205.77,78.62 156.69,-67.48 212.75,-212.78 237.67,-293.33 24.93,-80.55 37.09,-237.33 37.09,-237.33"
         style="fill:#929392;fill-opacity:1;fill-rule:nonzero;stroke:none"
         id="path64" />
      <path
         d="m 1940.79,3864.48 -3.65,3.42 c -0.01,-0.01 -2.48,-2.65 -6.38,-6.65 -5.83,-6 -14.82,-15.01 -23.09,-22.43 -4.13,-3.71 -8.09,-7.02 -11.27,-9.29 -1.59,-1.14 -2.98,-2.01 -3.99,-2.51 l -1.11,-0.49 -0.17,-0.05 0.22,-1.2 v 1.22 l -0.22,-0.02 0.22,-1.2 v 1.22 -3.08 l 1.48,2.66 -1.48,0.42 v -3.08 l 1.48,2.66 c -0.24,0.12 -2.08,1.39 -4.39,3.2 -8.31,6.45 -25.08,20.7 -40.03,35.4 -7.48,7.35 -14.52,14.83 -19.81,21.44 -5.32,6.53 -8.76,12.53 -9.23,15.34 -0.23,1.1 -0.37,2.73 -0.37,4.71 -0.05,12.08 5.2,35.56 10.53,55.43 2.66,9.98 5.32,19.15 7.31,25.82 2,6.67 3.32,10.8 3.32,10.81 l 0.58,1.82 -48.29,107.83 0.34,-24.23 v -0.25 c 0.05,-4 -0.83,-54.8 -33.51,-96.07 -17.67,-22.4 -29.15,-36.25 -36.19,-44.47 -3.51,-4.11 -5.92,-6.82 -7.43,-8.48 l -1.63,-1.75 -0.44,-0.47 3.55,-3.52 2.07,4.54 -139.4,63.66 101.15,122.35 -39.24,193.16 -34.31,28.89 1.02,-12.01 c 0,-0.02 0.76,-9.08 1.53,-22.78 0.77,-13.7 1.54,-31.99 1.54,-50.27 0,-14.13 -0.46,-28.27 -1.72,-40.18 -1.2,-11.87 -3.42,-21.66 -6.07,-26.26 -1.53,-2.79 -4.98,-7.38 -9.7,-12.86 -16.57,-19.33 -48.81,-50.5 -77.77,-77.24 -14.49,-13.38 -28.17,-25.68 -38.72,-34.9 -5.27,-4.61 -9.76,-8.45 -13.15,-11.26 -1.69,-1.4 -3.11,-2.55 -4.19,-3.39 -1.05,-0.82 -1.88,-1.38 -1.92,-1.39 -5.23,-3.14 -8.64,-8.07 -12.33,-11.88 -1.79,-1.92 -3.56,-3.54 -5.21,-4.57 -1.66,-1.04 -3.07,-1.51 -4.63,-1.52 -1.25,0.01 -2.74,0.31 -4.73,1.34 -7.05,3.68 -21.24,11.95 -33.38,22.7 -6.07,5.37 -11.61,11.36 -15.53,17.56 -3.93,6.22 -6.21,12.54 -6.2,18.79 0,1.24 0.09,2.49 0.27,3.74 1,6.98 4.74,16.81 10.2,27.64 16.36,32.63 47.7,74.8 62.92,93.77 20.6,25.69 30.51,40.65 30.59,40.77 l 1.26,1.9 -16.42,58.92 -4.81,-1.34 4.73,-1.59 0.34,0.94 c 1.81,4.93 11.13,28.26 30.77,50.03 19.71,21.79 49.28,42.01 92.71,42.04 21.44,0 46.36,-4.96 75.24,-17.39 77.33,-33.32 129.75,-85.73 166.07,-139.96 36.31,-54.21 56.41,-110.19 68.81,-150.26 12.28,-39.66 21.57,-98.89 27.7,-148.01 3.07,-24.57 5.36,-46.64 6.89,-62.56 1.53,-15.92 2.28,-25.64 2.28,-25.66 l 4.99,0.38 -3.65,3.42 3.65,-3.42 4.98,0.39 c 0,0.05 -3.05,39.31 -9.22,88.69 -6.18,49.41 -15.43,108.84 -28.07,149.73 -12.53,40.48 -32.93,97.43 -70.05,152.87 -37.11,55.43 -91.06,109.4 -170.42,143.57 -29.91,12.88 -56.21,18.22 -79.2,18.21 -49.85,0.04 -83.52,-25.17 -104.18,-50.01 -20.73,-24.86 -28.98,-49.47 -29.11,-49.82 l -0.49,-1.45 16.21,-58.2 4.82,1.34 -4.17,2.76 c 0,-0.01 -0.57,-0.87 -1.8,-2.63 -3.66,-5.28 -12.96,-18.33 -28.25,-37.41 -10.35,-12.91 -27.78,-36 -43.31,-59.98 -7.76,-12 -15.05,-24.21 -20.74,-35.55 -5.69,-11.36 -9.83,-21.76 -11.16,-30.67 -0.26,-1.74 -0.38,-3.48 -0.38,-5.2 0,-8.71 3.13,-16.84 7.75,-24.14 13.95,-21.8 41.4,-37.76 52.73,-43.77 3.13,-1.64 6.31,-2.48 9.36,-2.48 3.82,-0.01 7.21,1.31 9.98,3.07 4.17,2.66 7.27,6.27 10.08,9.41 2.76,3.17 5.31,5.84 7.09,6.81 1.09,0.64 2.09,1.41 3.6,2.59 10.91,8.57 43.36,37.35 75.15,67.41 15.88,15.01 31.54,30.3 44.17,43.48 6.32,6.59 11.88,12.65 16.35,17.93 4.48,5.29 7.85,9.72 9.94,13.44 3.92,7.18 5.91,17.59 7.28,30.09 1.31,12.46 1.77,26.86 1.77,41.22 0,37.09 -3.1,73.82 -3.11,73.89 l -4.98,-0.42 -3.22,-3.82 22.42,-18.88 37.6,-185.07 -106.41,-128.72 154.43,-70.52 2.45,2.47 c 0.25,0.25 10.98,11.07 46.45,56.02 34.98,44.47 35.61,97.23 35.66,102.27 v 0.39 l -5,-0.07 -4.56,-2.04 37.6,-83.97 4.57,2.04 -4.77,1.52 c -0.01,-0.05 -5.38,-16.88 -10.76,-37.09 -5.38,-20.3 -10.82,-43.62 -10.87,-58.01 0,-2.43 0.16,-4.64 0.57,-6.7 0.75,-3.58 2.5,-7.05 4.86,-10.81 8.26,-12.98 24.82,-29.54 40.26,-43.68 7.7,-7.05 15.1,-13.42 20.98,-18.27 2.94,-2.42 5.49,-4.46 7.54,-6.03 2.09,-1.58 3.47,-2.6 4.76,-3.34 1.18,-0.65 2.39,-0.85 3.38,-0.84 3.04,0.11 4.95,1.23 7.3,2.55 3.98,2.38 8.6,6.09 13.56,10.43 14.8,12.99 32.17,31.52 32.22,31.58 l 1.51,1.61 -0.17,2.2 -4.98,-0.39"
         style="fill:#232d34;fill-opacity:1;fill-rule:nonzero;stroke:none"
         id="path66" />
      <path
         d="m 1.38281,4176.63 c 77.53129,-10.75 141.22619,-21.77 170.98419,-31.85 112.172,-38 434.403,-161.75 594.512,-216.55 160.105,-54.81 454.271,-95.22 597.941,-102.84 143.68,-7.63 260.86,-70.3 337.92,-87.18 77.06,-16.88 179.69,-54.25 215.58,-7.57 35.89,46.67 2.81,104.16 2.81,104.16 0,0 -75.51,101.96 -189.63,132.71 -114.12,30.76 -321.12,84.6 -369.26,115.06 -48.14,30.45 -13.7,122.21 21.22,165.27 34.91,43.05 147.24,63.3 232.03,46.28 84.79,-17.02 192.57,-71.33 212.08,-99.9 19.5,-28.57 65.45,-204.17 66,-223.75 0.55,-19.58 27.56,-135.67 27.56,-135.67 0,0 37.68,-54.84 69.8,-65.44 32.12,-10.6 51.78,19.08 57.43,54.48 5.65,35.39 9.02,119.98 8.33,182.34 -0.68,62.36 -64.17,324.29 -79.42,361.43 -15.25,37.14 -33.98,83 -98.57,110.12 -64.58,27.12 -305.91,169.87 -390.77,208.28 -84.86,38.41 -96.14,68.66 -183.73,32.03 -87.59,-36.63 -617.868,-165.77 -674.934,-175.65 -57.071,-9.88 -65.918,-21.09 -181.575,25.62 -115.652,46.7 -174.804,72.36 -242.253,67.22 -24.352,-1.85 -107.6099,19.26 -204.05519,46.99"
         style="fill:#ffffff;fill-opacity:1;fill-rule:nonzero;stroke:none"
         id="path68" />
      <path
         d="M 0.695313,4171.68 C 78.0703,4160.97 141.848,4149.87 170.766,4140.04 c 111.953,-37.92 434.238,-161.69 594.492,-216.54 161.055,-55.08 455.092,-95.42 599.302,-103.11 71.18,-3.77 135.95,-21.2 192.64,-39.87 56.72,-18.66 105.23,-38.58 144.47,-47.19 49.26,-10.75 109.47,-30.24 156.91,-30.3 13.2,0 25.47,1.51 36.34,5.34 10.85,3.81 20.32,10.04 27.36,19.22 13.4,17.4 17.77,36.39 17.76,53.34 -0.06,31.27 -14.39,55.97 -14.58,56.37 l -0.14,0.25 -0.17,0.23 c -0.35,0.33 -76.11,103.09 -192.35,134.56 -57.08,15.38 -137.33,36.52 -209.27,57.61 -35.97,10.54 -69.86,21.07 -97.68,30.83 -27.79,9.73 -49.66,18.84 -60.94,26.01 -7.66,4.86 -12.88,11.28 -16.35,19.09 -3.44,7.8 -5.05,17.03 -5.05,27.13 -0.13,36.96 21.9,84.81 43.83,111.67 12.15,15.1 35.85,28.02 65.2,36.79 29.33,8.82 64.24,13.67 98.74,13.66 21.73,0 43.3,-1.92 63.23,-5.92 41.8,-8.38 89.68,-26.09 129.33,-45.21 19.83,-9.56 37.61,-19.47 51.53,-28.68 13.9,-9.15 23.98,-17.84 28.07,-23.92 2.05,-2.99 4.87,-8.69 7.92,-16.1 10.75,-26.05 25.04,-73.44 36.61,-116.22 5.78,-21.41 10.91,-41.7 14.6,-57.66 1.85,-7.98 3.34,-14.88 4.37,-20.26 1.04,-5.34 1.61,-9.36 1.63,-10.83 0.19,-5.69 2.01,-16.48 4.63,-30.26 7.86,-41.08 23.05,-106.37 23.06,-106.4 l 0.21,-0.92 0.54,-0.78 c 0.08,-0.1 9.59,-13.95 23.25,-29.24 13.75,-15.28 31.28,-32.11 49.11,-38.12 4.94,-1.63 9.73,-2.43 14.31,-2.43 14.19,-0.03 25.76,7.76 33.79,18.99 8.12,11.26 13.29,26.08 15.83,41.88 5.25,33.01 8.47,106.35 8.48,166.59 0,5.67 -0.03,11.21 -0.09,16.59 -0.2,16.31 -4.33,44.37 -10.63,78.42 -9.46,51.01 -23.83,115.06 -37.28,169.92 -6.72,27.42 -13.22,52.54 -18.75,72.57 -5.56,20.08 -10.08,34.91 -13.13,42.37 -7.63,18.57 -16.29,39.8 -31.42,59.92 -15.11,20.14 -36.77,39.04 -69.84,52.91 -15.78,6.62 -42.97,20.61 -75.94,38.37 -49.48,26.67 -112.17,61.88 -170.45,94.05 -58.3,32.17 -112.11,61.25 -144.26,75.81 -28.67,12.97 -48.86,25.01 -66.88,34.02 -17.97,8.99 -34.09,15.01 -53.62,14.99 v 0 c -18.23,-0.01 -39.02,-5.14 -67.22,-16.93 -21.33,-8.94 -70.97,-23.93 -133.79,-41.3 -94.3,-26.1 -218.714,-57.77 -324.871,-83.84 -106.093,-26.06 -194.226,-46.57 -215.199,-50.19 -24.914,-4.34 -40.285,-8.73 -58.539,-8.7 -24.035,-0.03 -54.699,7.51 -120.308,34.02 -52.918,21.37 -94.067,38.37 -129.821,50.09 -35.742,11.71 -66.176,18.15 -97.324,18.15 -5.754,0 -11.527,-0.22 -17.359,-0.67 -0.844,-0.06 -1.821,-0.09 -2.911,-0.09 -12.91,-0.05 -40.05,5.01 -74.996,13.43 -35.0231,8.43 -78.1872,20.19 -124.39028,33.47 L 0,4677.41 v 0 c 46.2891,-13.31 89.5547,-25.1 124.813,-33.58 35.339,-8.47 62.332,-13.67 77.335,-13.71 1.297,0 2.52,0.04 3.672,0.13 5.578,0.42 11.098,0.63 16.598,0.63 29.738,0 59.004,-6.12 94.211,-17.65 35.191,-11.53 76.238,-28.47 129.191,-49.86 65.895,-26.6 97.696,-34.73 124.051,-34.75 19.992,0.02 35.914,4.66 60.246,8.85 14.617,2.53 58.344,12.44 117.524,26.52 88.699,21.11 211.722,51.55 320.829,80.14 54.55,14.3 105.62,28.14 147.19,40.14 41.61,12.01 73.59,22.11 90.47,29.15 27.57,11.54 47.08,16.17 63.36,16.16 17.41,-0.01 31.6,-5.19 49.15,-13.94 17.5,-8.73 38.06,-20.98 67.23,-34.18 42.03,-19.02 123.65,-64.33 202.62,-108.2 39.51,-21.94 78.39,-43.53 111.47,-61.35 33.1,-17.83 60.29,-31.85 76.81,-38.79 31.52,-13.26 51.51,-30.83 65.72,-49.7 14.2,-18.87 22.54,-39.13 30.16,-57.71 3.58,-8.67 10.47,-32.12 18.54,-62.75 12.13,-46.03 27.16,-108.8 39.2,-165.84 12.05,-56.95 21.1,-108.57 21.3,-130.99 0.06,-5.35 0.09,-10.86 0.09,-16.49 0.01,-59.77 -3.28,-133.33 -8.36,-165.01 -2.32,-14.65 -7.19,-28.15 -14.05,-37.61 -6.94,-9.49 -15.28,-14.8 -25.69,-14.84 -3.42,0 -7.13,0.6 -11.18,1.93 -14.29,4.59 -31.66,20.48 -44.78,35.28 -6.61,7.39 -12.25,14.48 -16.22,19.7 -1.99,2.62 -3.56,4.77 -4.63,6.26 -1.07,1.49 -1.62,2.28 -1.62,2.29 l -4.12,-2.84 4.87,1.14 c 0,0.02 -1.68,7.24 -4.22,18.42 -3.81,16.76 -9.53,42.38 -14.35,65.6 -2.41,11.61 -4.59,22.62 -6.19,31.6 -1.6,8.93 -2.6,16.03 -2.67,19.05 -0.11,3.19 -0.93,8.03 -2.29,14.91 -4.78,23.83 -16.47,70.01 -29.15,113.55 -6.33,21.77 -12.91,42.84 -19,60.13 -3.05,8.64 -5.98,16.34 -8.71,22.73 -2.75,6.41 -5.25,11.47 -7.72,15.11 -5.67,8.21 -16.38,17.02 -30.82,26.62 -43.24,28.56 -119.92,62.38 -184.4,75.36 -20.69,4.15 -42.88,6.11 -65.2,6.11 -35.44,0 -71.17,-4.93 -101.62,-14.08 -30.44,-9.19 -55.69,-22.42 -70.09,-40.07 -23.21,-28.78 -45.92,-77.28 -46.06,-117.97 0.01,-11.13 1.75,-21.74 5.91,-31.17 4.14,-9.41 10.78,-17.59 20.14,-23.5 12.79,-8.06 34.85,-17.11 62.98,-27 84.23,-29.55 222.07,-65.59 307.66,-88.66 55.98,-15.06 102.83,-47.78 135.6,-76.8 16.38,-14.5 29.25,-28.06 38,-37.97 4.38,-4.96 7.72,-9 9.97,-11.8 1.12,-1.39 1.96,-2.48 2.52,-3.2 l 0.82,-1.08 4.02,2.97 -4.33,-2.49 0.11,-0.2 c 1.34,-2.36 13.17,-24.79 13.13,-51.18 -0.02,-15.3 -3.83,-31.81 -15.68,-47.24 -5.77,-7.48 -13.36,-12.56 -22.77,-15.89 -9.39,-3.32 -20.58,-4.78 -33.01,-4.77 -44.86,-0.07 -104.92,19.1 -154.77,30.07 -37.82,8.26 -86.43,28.12 -143.48,46.92 -57.09,18.79 -122.75,36.51 -195.24,40.36 -143.14,7.57 -437.434,48.05 -596.594,102.58 -159.957,54.75 -482.133,178.48 -594.523,216.56 -30.602,10.33 -94.2191,21.27 -171.90269,32.07 l -1.374997,-9.91 v 0"
         style="fill:#232d34;fill-opacity:1;fill-rule:nonzero;stroke:none"
         id="path70" />
      <path
         d="m 1570.49,4593.98 c -22.28,13.55 -49.39,31.45 -75.64,46.17 -26.33,14.68 -51.49,26.38 -71.57,27.08 -1.13,0.04 -2.25,0.06 -3.37,0.06 -46.79,-0.11 -80.27,-28.1 -80.7,-28.39 l 6.39,-7.69 0.29,0.24 c 3.32,2.69 34.05,25.92 74.02,25.84 1.02,0 2.05,-0.02 3.08,-0.05 16.41,-0.37 41.24,-11.31 66.97,-25.81 25.81,-14.47 52.82,-32.29 75.33,-45.99 l 5.2,8.54"
         style="fill:#232d34;fill-opacity:1;fill-rule:nonzero;stroke:none"
         id="path72" />
      <path
         d="m 1981.15,4370.77 c -0.05,0.06 -11.29,13.89 -25.23,28.51 -6.98,7.31 -14.62,14.82 -21.96,20.96 -7.41,6.12 -14.24,10.95 -20.89,12.82 -1.5,0.39 -6.23,2.21 -12.74,4.99 -46.06,19.61 -189.91,88.24 -262.08,122 l -4.23,-9.05 c 41.21,-19.29 105.83,-49.96 162.3,-76.39 28.23,-13.21 54.43,-25.36 74.67,-34.52 10.12,-4.57 18.75,-8.4 25.43,-11.24 6.73,-2.85 11.26,-4.67 14.05,-5.44 3.72,-0.93 10.26,-5.08 17.08,-10.84 10.33,-8.64 21.88,-20.72 30.75,-30.59 4.44,-4.94 8.22,-9.33 10.89,-12.48 2.67,-3.15 4.2,-5.04 4.2,-5.04 l 7.76,6.31"
         style="fill:#232d34;fill-opacity:1;fill-rule:nonzero;stroke:none"
         id="path74" />
    </g>
  </g>
</svg>
